  0
SECTION
  2
BLOCKS
  0
ENDSEC
  0
SECTION
  2
ENTITIES
  0
LINE
  8
0
 10
-5
 20
-15
 11
-4.99013
 21
-14.686
  0
LINE
  8
0
 10
-4.99013
 20
-14.686
 11
-4.96057
 21
-14.3733
  0
LINE
  8
0
 10
-4.96057
 20
-14.3733
 11
-4.91142
 21
-14.0631
  0
LINE
  8
0
 10
-4.91142
 20
-14.0631
 11
-4.84291
 21
-13.7565
  0
LINE
  8
0
 10
-4.84291
 20
-13.7565
 11
-4.75528
 21
-13.4549
  0
LINE
  8
0
 10
-4.75528
 20
-13.4549
 11
-4.64888
 21
-13.1594
  0
LINE
  8
0
 10
-4.64888
 20
-13.1594
 11
-4.52412
 21
-12.8711
  0
LINE
  8
0
 10
-4.52412
 20
-12.8711
 11
-4.38153
 21
-12.5912
  0
LINE
  8
0
 10
-4.38153
 20
-12.5912
 11
-4.22163
 21
-12.3209
  0
LINE
  8
0
 10
-4.22163
 20
-12.3209
 11
-4.04507
 21
-12.0611
  0
LINE
  8
0
 10
-4.04507
 20
-12.0611
 11
-3.85255
 21
-11.8129
  0
LINE
  8
0
 10
-3.85255
 20
-11.8129
 11
-3.64484
 21
-11.5773
  0
LINE
  8
0
 10
-3.64484
 20
-11.5773
 11
-3.42273
 21
-11.3551
  0
LINE
  8
0
 10
-3.42273
 20
-11.3551
 11
-3.18712
 21
-11.1474
  0
LINE
  8
0
 10
-3.18712
 20
-11.1474
 11
-2.93892
 21
-10.9549
  0
LINE
  8
0
 10
-2.93892
 20
-10.9549
 11
-2.67912
 21
-10.7784
  0
LINE
  8
0
 10
-2.67912
 20
-10.7784
 11
-2.40877
 21
-10.6185
  0
LINE
  8
0
 10
-2.40877
 20
-10.6185
 11
-2.12889
 21
-10.4759
  0
LINE
  8
0
 10
-2.12889
 20
-10.4759
 11
-1.84062
 21
-10.3511
  0
LINE
  8
0
 10
-1.84062
 20
-10.3511
 11
-1.54507
 21
-10.2447
  0
LINE
  8
0
 10
-1.54507
 20
-10.2447
 11
-1.24344
 21
-10.1571
  0
LINE
  8
0
 10
-1.24344
 20
-10.1571
 11
-0.936905
 21
-10.0886
  0
LINE
  8
0
 10
-0.936905
 20
-10.0886
 11
-0.626663
 21
-10.0394
  0
LINE
  8
0
 10
-0.626663
 20
-10.0394
 11
-0.31395
 21
-10.0099
  0
LINE
  8
0
 10
-0.31395
 20
-10.0099
 11
0
 21
-10
  0
LINE
  8
0
 10
0
 20
-10
 11
0.31395
 21
-10.0099
  0
LINE
  8
0
 10
0.31395
 20
-10.0099
 11
0.626663
 21
-10.0394
  0
LINE
  8
0
 10
0.626663
 20
-10.0394
 11
0.936905
 21
-10.0886
  0
LINE
  8
0
 10
0.936905
 20
-10.0886
 11
1.24344
 21
-10.1571
  0
LINE
  8
0
 10
1.24344
 20
-10.1571
 11
1.54507
 21
-10.2447
  0
LINE
  8
0
 10
1.54507
 20
-10.2447
 11
1.84062
 21
-10.3511
  0
LINE
  8
0
 10
1.84062
 20
-10.3511
 11
2.12889
 21
-10.4759
  0
LINE
  8
0
 10
2.12889
 20
-10.4759
 11
2.40877
 21
-10.6185
  0
LINE
  8
0
 10
2.40877
 20
-10.6185
 11
2.67912
 21
-10.7784
  0
LINE
  8
0
 10
2.67912
 20
-10.7784
 11
2.93892
 21
-10.9549
  0
LINE
  8
0
 10
2.93892
 20
-10.9549
 11
3.18712
 21
-11.1474
  0
LINE
  8
0
 10
3.18712
 20
-11.1474
 11
3.42273
 21
-11.3551
  0
LINE
  8
0
 10
3.42273
 20
-11.3551
 11
3.64484
 21
-11.5773
  0
LINE
  8
0
 10
3.64484
 20
-11.5773
 11
3.85255
 21
-11.8129
  0
LINE
  8
0
 10
3.85255
 20
-11.8129
 11
4.04507
 21
-12.0611
  0
LINE
  8
0
 10
4.04507
 20
-12.0611
 11
4.22163
 21
-12.3209
  0
LINE
  8
0
 10
4.22163
 20
-12.3209
 11
4.38153
 21
-12.5912
  0
LINE
  8
0
 10
4.38153
 20
-12.5912
 11
4.52412
 21
-12.8711
  0
LINE
  8
0
 10
4.52412
 20
-12.8711
 11
4.64888
 21
-13.1594
  0
LINE
  8
0
 10
4.64888
 20
-13.1594
 11
4.75528
 21
-13.4549
  0
LINE
  8
0
 10
4.75528
 20
-13.4549
 11
4.84291
 21
-13.7565
  0
LINE
  8
0
 10
4.84291
 20
-13.7565
 11
4.91142
 21
-14.0631
  0
LINE
  8
0
 10
4.91142
 20
-14.0631
 11
4.96057
 21
-14.3733
  0
LINE
  8
0
 10
4.96057
 20
-14.3733
 11
4.99013
 21
-14.686
  0
LINE
  8
0
 10
4.99013
 20
-14.686
 11
5
 21
-15
  0
LINE
  8
0
 10
5
 20
-15
 11
5
 21
-35
  0
LINE
  8
0
 10
5
 20
-35
 11
22.5
 21
-35
  0
LINE
  8
0
 10
22.5
 20
-35
 11
24.4134
 21
-34.6194
  0
LINE
  8
0
 10
24.4134
 20
-34.6194
 11
26.0355
 21
-33.5355
  0
LINE
  8
0
 10
26.0355
 20
-33.5355
 11
27.1194
 21
-31.9134
  0
LINE
  8
0
 10
27.1194
 20
-31.9134
 11
27.5
 21
-30
  0
LINE
  8
0
 10
27.5
 20
-30
 11
27.5
 21
30
  0
LINE
  8
0
 10
27.5
 20
30
 11
27.1194
 21
31.9134
  0
LINE
  8
0
 10
27.1194
 20
31.9134
 11
26.0355
 21
33.5355
  0
LINE
  8
0
 10
26.0355
 20
33.5355
 11
24.4134
 21
34.6194
  0
LINE
  8
0
 10
24.4134
 20
34.6194
 11
22.5
 21
35
  0
LINE
  8
0
 10
22.5
 20
35
 11
-22.5
 21
35
  0
LINE
  8
0
 10
-22.5
 20
35
 11
-24.4134
 21
34.6194
  0
LINE
  8
0
 10
-24.4134
 20
34.6194
 11
-26.0355
 21
33.5355
  0
LINE
  8
0
 10
-26.0355
 20
33.5355
 11
-27.1194
 21
31.9134
  0
LINE
  8
0
 10
-27.1194
 20
31.9134
 11
-27.5
 21
30
  0
LINE
  8
0
 10
-27.5
 20
30
 11
-27.5
 21
-30
  0
LINE
  8
0
 10
-27.5
 20
-30
 11
-27.1194
 21
-31.9134
  0
LINE
  8
0
 10
-27.1194
 20
-31.9134
 11
-26.0355
 21
-33.5355
  0
LINE
  8
0
 10
-26.0355
 20
-33.5355
 11
-24.4134
 21
-34.6194
  0
LINE
  8
0
 10
-24.4134
 20
-34.6194
 11
-22.5
 21
-35
  0
LINE
  8
0
 10
-22.5
 20
-35
 11
-5
 21
-35
  0
LINE
  8
0
 10
-5
 20
-35
 11
-5
 21
-15
  0
LINE
  8
0
 10
-20.2198
 20
19.0069
 11
-20.4387
 21
19.0276
  0
LINE
  8
0
 10
-20.4387
 20
19.0276
 11
-20.6558
 21
19.062
  0
LINE
  8
0
 10
-20.6558
 20
19.062
 11
-20.8704
 21
19.11
  0
LINE
  8
0
 10
-20.8704
 20
19.11
 11
-21.0816
 21
19.1713
  0
LINE
  8
0
 10
-21.0816
 20
19.1713
 11
-21.2884
 21
19.2458
  0
LINE
  8
0
 10
-21.2884
 20
19.2458
 11
-21.4902
 21
19.3331
  0
LINE
  8
0
 10
-21.4902
 20
19.3331
 11
-21.6861
 21
19.4329
  0
LINE
  8
0
 10
-21.6861
 20
19.4329
 11
-21.8754
 21
19.5448
  0
LINE
  8
0
 10
-21.8754
 20
19.5448
 11
-22.0572
 21
19.6684
  0
LINE
  8
0
 10
-22.0572
 20
19.6684
 11
-22.231
 21
19.8032
  0
LINE
  8
0
 10
-22.231
 20
19.8032
 11
-22.3959
 21
19.9486
  0
LINE
  8
0
 10
-22.3959
 20
19.9486
 11
-22.5514
 21
20.1041
  0
LINE
  8
0
 10
-22.5514
 20
20.1041
 11
-22.6968
 21
20.269
  0
LINE
  8
0
 10
-22.6968
 20
20.269
 11
-22.8316
 21
20.4427
  0
LINE
  8
0
 10
-22.8316
 20
20.4427
 11
-22.9551
 21
20.6246
  0
LINE
  8
0
 10
-22.9551
 20
20.6246
 11
-23.0671
 21
20.8139
  0
LINE
  8
0
 10
-23.0671
 20
20.8139
 11
-23.1669
 21
21.0098
  0
LINE
  8
0
 10
-23.1669
 20
21.0098
 11
-23.2542
 21
21.2116
  0
LINE
  8
0
 10
-23.2542
 20
21.2116
 11
-23.3287
 21
21.4184
  0
LINE
  8
0
 10
-23.3287
 20
21.4184
 11
-23.39
 21
21.6296
  0
LINE
  8
0
 10
-23.39
 20
21.6296
 11
-23.438
 21
21.8442
  0
LINE
  8
0
 10
-23.438
 20
21.8442
 11
-23.4724
 21
22.0613
  0
LINE
  8
0
 10
-23.4724
 20
22.0613
 11
-23.4931
 21
22.2802
  0
LINE
  8
0
 10
-23.4931
 20
22.2802
 11
-23.5
 21
22.5
  0
LINE
  8
0
 10
-23.5
 20
22.5
 11
-23.5
 21
27.5
  0
LINE
  8
0
 10
-23.5
 20
27.5
 11
-23.4931
 21
27.7198
  0
LINE
  8
0
 10
-23.4931
 20
27.7198
 11
-23.4724
 21
27.9387
  0
LINE
  8
0
 10
-23.4724
 20
27.9387
 11
-23.438
 21
28.1558
  0
LINE
  8
0
 10
-23.438
 20
28.1558
 11
-23.39
 21
28.3704
  0
LINE
  8
0
 10
-23.39
 20
28.3704
 11
-23.3287
 21
28.5816
  0
LINE
  8
0
 10
-23.3287
 20
28.5816
 11
-23.2542
 21
28.7884
  0
LINE
  8
0
 10
-23.2542
 20
28.7884
 11
-23.1669
 21
28.9902
  0
LINE
  8
0
 10
-23.1669
 20
28.9902
 11
-23.0671
 21
29.1861
  0
LINE
  8
0
 10
-23.0671
 20
29.1861
 11
-22.9551
 21
29.3754
  0
LINE
  8
0
 10
-22.9551
 20
29.3754
 11
-22.8316
 21
29.5572
  0
LINE
  8
0
 10
-22.8316
 20
29.5572
 11
-22.6968
 21
29.731
  0
LINE
  8
0
 10
-22.6968
 20
29.731
 11
-22.5514
 21
29.8959
  0
LINE
  8
0
 10
-22.5514
 20
29.8959
 11
-22.3959
 21
30.0514
  0
LINE
  8
0
 10
-22.3959
 20
30.0514
 11
-22.231
 21
30.1968
  0
LINE
  8
0
 10
-22.231
 20
30.1968
 11
-22.0572
 21
30.3316
  0
LINE
  8
0
 10
-22.0572
 20
30.3316
 11
-21.8754
 21
30.4551
  0
LINE
  8
0
 10
-21.8754
 20
30.4551
 11
-21.6861
 21
30.5671
  0
LINE
  8
0
 10
-21.6861
 20
30.5671
 11
-21.4902
 21
30.6669
  0
LINE
  8
0
 10
-21.4902
 20
30.6669
 11
-21.2884
 21
30.7542
  0
LINE
  8
0
 10
-21.2884
 20
30.7542
 11
-21.0816
 21
30.8287
  0
LINE
  8
0
 10
-21.0816
 20
30.8287
 11
-20.8704
 21
30.89
  0
LINE
  8
0
 10
-20.8704
 20
30.89
 11
-20.6558
 21
30.938
  0
LINE
  8
0
 10
-20.6558
 20
30.938
 11
-20.4387
 21
30.9724
  0
LINE
  8
0
 10
-20.4387
 20
30.9724
 11
-20.2198
 21
30.9931
  0
LINE
  8
0
 10
-20.2198
 20
30.9931
 11
-20
 21
31
  0
LINE
  8
0
 10
-20
 20
31
 11
-19.7802
 21
30.9931
  0
LINE
  8
0
 10
-19.7802
 20
30.9931
 11
-19.5613
 21
30.9724
  0
LINE
  8
0
 10
-19.5613
 20
30.9724
 11
-19.3442
 21
30.938
  0
LINE
  8
0
 10
-19.3442
 20
30.938
 11
-19.1296
 21
30.89
  0
LINE
  8
0
 10
-19.1296
 20
30.89
 11
-18.9184
 21
30.8287
  0
LINE
  8
0
 10
-18.9184
 20
30.8287
 11
-18.7116
 21
30.7542
  0
LINE
  8
0
 10
-18.7116
 20
30.7542
 11
-18.5098
 21
30.6669
  0
LINE
  8
0
 10
-18.5098
 20
30.6669
 11
-18.3139
 21
30.5671
  0
LINE
  8
0
 10
-18.3139
 20
30.5671
 11
-18.1246
 21
30.4551
  0
LINE
  8
0
 10
-18.1246
 20
30.4551
 11
-17.9427
 21
30.3316
  0
LINE
  8
0
 10
-17.9427
 20
30.3316
 11
-17.769
 21
30.1968
  0
LINE
  8
0
 10
-17.769
 20
30.1968
 11
-17.6041
 21
30.0514
  0
LINE
  8
0
 10
-17.6041
 20
30.0514
 11
-17.4486
 21
29.8959
  0
LINE
  8
0
 10
-17.4486
 20
29.8959
 11
-17.3032
 21
29.731
  0
LINE
  8
0
 10
-17.3032
 20
29.731
 11
-17.1684
 21
29.5572
  0
LINE
  8
0
 10
-17.1684
 20
29.5572
 11
-17.0448
 21
29.3754
  0
LINE
  8
0
 10
-17.0448
 20
29.3754
 11
-16.9329
 21
29.1861
  0
LINE
  8
0
 10
-16.9329
 20
29.1861
 11
-16.8331
 21
28.9902
  0
LINE
  8
0
 10
-16.8331
 20
28.9902
 11
-16.7458
 21
28.7884
  0
LINE
  8
0
 10
-16.7458
 20
28.7884
 11
-16.6713
 21
28.5816
  0
LINE
  8
0
 10
-16.6713
 20
28.5816
 11
-16.61
 21
28.3704
  0
LINE
  8
0
 10
-16.61
 20
28.3704
 11
-16.562
 21
28.1558
  0
LINE
  8
0
 10
-16.562
 20
28.1558
 11
-16.5276
 21
27.9387
  0
LINE
  8
0
 10
-16.5276
 20
27.9387
 11
-16.5069
 21
27.7198
  0
LINE
  8
0
 10
-16.5069
 20
27.7198
 11
-16.5
 21
27.5
  0
LINE
  8
0
 10
-16.5
 20
27.5
 11
-16.5
 21
22.5
  0
LINE
  8
0
 10
-16.5
 20
22.5
 11
-16.5069
 21
22.2802
  0
LINE
  8
0
 10
-16.5069
 20
22.2802
 11
-16.5276
 21
22.0613
  0
LINE
  8
0
 10
-16.5276
 20
22.0613
 11
-16.562
 21
21.8442
  0
LINE
  8
0
 10
-16.562
 20
21.8442
 11
-16.61
 21
21.6296
  0
LINE
  8
0
 10
-16.61
 20
21.6296
 11
-16.6713
 21
21.4184
  0
LINE
  8
0
 10
-16.6713
 20
21.4184
 11
-16.7458
 21
21.2116
  0
LINE
  8
0
 10
-16.7458
 20
21.2116
 11
-16.8331
 21
21.0098
  0
LINE
  8
0
 10
-16.8331
 20
21.0098
 11
-16.9329
 21
20.8139
  0
LINE
  8
0
 10
-16.9329
 20
20.8139
 11
-17.0448
 21
20.6246
  0
LINE
  8
0
 10
-17.0448
 20
20.6246
 11
-17.1684
 21
20.4427
  0
LINE
  8
0
 10
-17.1684
 20
20.4427
 11
-17.3032
 21
20.269
  0
LINE
  8
0
 10
-17.3032
 20
20.269
 11
-17.4486
 21
20.1041
  0
LINE
  8
0
 10
-17.4486
 20
20.1041
 11
-17.6041
 21
19.9486
  0
LINE
  8
0
 10
-17.6041
 20
19.9486
 11
-17.769
 21
19.8032
  0
LINE
  8
0
 10
-17.769
 20
19.8032
 11
-17.9427
 21
19.6684
  0
LINE
  8
0
 10
-17.9427
 20
19.6684
 11
-18.1246
 21
19.5448
  0
LINE
  8
0
 10
-18.1246
 20
19.5448
 11
-18.3139
 21
19.4329
  0
LINE
  8
0
 10
-18.3139
 20
19.4329
 11
-18.5098
 21
19.3331
  0
LINE
  8
0
 10
-18.5098
 20
19.3331
 11
-18.7116
 21
19.2458
  0
LINE
  8
0
 10
-18.7116
 20
19.2458
 11
-18.9184
 21
19.1713
  0
LINE
  8
0
 10
-18.9184
 20
19.1713
 11
-19.1296
 21
19.11
  0
LINE
  8
0
 10
-19.1296
 20
19.11
 11
-19.3442
 21
19.062
  0
LINE
  8
0
 10
-19.3442
 20
19.062
 11
-19.5613
 21
19.0276
  0
LINE
  8
0
 10
-19.5613
 20
19.0276
 11
-19.7802
 21
19.0069
  0
LINE
  8
0
 10
-19.7802
 20
19.0069
 11
-20
 21
19
  0
LINE
  8
0
 10
-20
 20
19
 11
-20.2198
 21
19.0069
  0
LINE
  8
0
 10
19.7802
 20
19.0069
 11
19.5613
 21
19.0276
  0
LINE
  8
0
 10
19.5613
 20
19.0276
 11
19.3442
 21
19.062
  0
LINE
  8
0
 10
19.3442
 20
19.062
 11
19.1296
 21
19.11
  0
LINE
  8
0
 10
19.1296
 20
19.11
 11
18.9184
 21
19.1713
  0
LINE
  8
0
 10
18.9184
 20
19.1713
 11
18.7116
 21
19.2458
  0
LINE
  8
0
 10
18.7116
 20
19.2458
 11
18.5098
 21
19.3331
  0
LINE
  8
0
 10
18.5098
 20
19.3331
 11
18.3139
 21
19.4329
  0
LINE
  8
0
 10
18.3139
 20
19.4329
 11
18.1246
 21
19.5448
  0
LINE
  8
0
 10
18.1246
 20
19.5448
 11
17.9427
 21
19.6684
  0
LINE
  8
0
 10
17.9427
 20
19.6684
 11
17.769
 21
19.8032
  0
LINE
  8
0
 10
17.769
 20
19.8032
 11
17.6041
 21
19.9486
  0
LINE
  8
0
 10
17.6041
 20
19.9486
 11
17.4486
 21
20.1041
  0
LINE
  8
0
 10
17.4486
 20
20.1041
 11
17.3032
 21
20.269
  0
LINE
  8
0
 10
17.3032
 20
20.269
 11
17.1684
 21
20.4427
  0
LINE
  8
0
 10
17.1684
 20
20.4427
 11
17.0448
 21
20.6246
  0
LINE
  8
0
 10
17.0448
 20
20.6246
 11
16.9329
 21
20.8139
  0
LINE
  8
0
 10
16.9329
 20
20.8139
 11
16.8331
 21
21.0098
  0
LINE
  8
0
 10
16.8331
 20
21.0098
 11
16.7458
 21
21.2116
  0
LINE
  8
0
 10
16.7458
 20
21.2116
 11
16.6713
 21
21.4184
  0
LINE
  8
0
 10
16.6713
 20
21.4184
 11
16.61
 21
21.6296
  0
LINE
  8
0
 10
16.61
 20
21.6296
 11
16.562
 21
21.8442
  0
LINE
  8
0
 10
16.562
 20
21.8442
 11
16.5276
 21
22.0613
  0
LINE
  8
0
 10
16.5276
 20
22.0613
 11
16.5069
 21
22.2802
  0
LINE
  8
0
 10
16.5069
 20
22.2802
 11
16.5
 21
22.5
  0
LINE
  8
0
 10
16.5
 20
22.5
 11
16.5
 21
27.5
  0
LINE
  8
0
 10
16.5
 20
27.5
 11
16.5069
 21
27.7198
  0
LINE
  8
0
 10
16.5069
 20
27.7198
 11
16.5276
 21
27.9387
  0
LINE
  8
0
 10
16.5276
 20
27.9387
 11
16.562
 21
28.1558
  0
LINE
  8
0
 10
16.562
 20
28.1558
 11
16.61
 21
28.3704
  0
LINE
  8
0
 10
16.61
 20
28.3704
 11
16.6713
 21
28.5816
  0
LINE
  8
0
 10
16.6713
 20
28.5816
 11
16.7458
 21
28.7884
  0
LINE
  8
0
 10
16.7458
 20
28.7884
 11
16.8331
 21
28.9902
  0
LINE
  8
0
 10
16.8331
 20
28.9902
 11
16.9329
 21
29.1861
  0
LINE
  8
0
 10
16.9329
 20
29.1861
 11
17.0448
 21
29.3754
  0
LINE
  8
0
 10
17.0448
 20
29.3754
 11
17.1684
 21
29.5572
  0
LINE
  8
0
 10
17.1684
 20
29.5572
 11
17.3032
 21
29.731
  0
LINE
  8
0
 10
17.3032
 20
29.731
 11
17.4486
 21
29.8959
  0
LINE
  8
0
 10
17.4486
 20
29.8959
 11
17.6041
 21
30.0514
  0
LINE
  8
0
 10
17.6041
 20
30.0514
 11
17.769
 21
30.1968
  0
LINE
  8
0
 10
17.769
 20
30.1968
 11
17.9427
 21
30.3316
  0
LINE
  8
0
 10
17.9427
 20
30.3316
 11
18.1246
 21
30.4551
  0
LINE
  8
0
 10
18.1246
 20
30.4551
 11
18.3139
 21
30.5671
  0
LINE
  8
0
 10
18.3139
 20
30.5671
 11
18.5098
 21
30.6669
  0
LINE
  8
0
 10
18.5098
 20
30.6669
 11
18.7116
 21
30.7542
  0
LINE
  8
0
 10
18.7116
 20
30.7542
 11
18.9184
 21
30.8287
  0
LINE
  8
0
 10
18.9184
 20
30.8287
 11
19.1296
 21
30.89
  0
LINE
  8
0
 10
19.1296
 20
30.89
 11
19.3442
 21
30.938
  0
LINE
  8
0
 10
19.3442
 20
30.938
 11
19.5613
 21
30.9724
  0
LINE
  8
0
 10
19.5613
 20
30.9724
 11
19.7802
 21
30.9931
  0
LINE
  8
0
 10
19.7802
 20
30.9931
 11
20
 21
31
  0
LINE
  8
0
 10
20
 20
31
 11
20.2198
 21
30.9931
  0
LINE
  8
0
 10
20.2198
 20
30.9931
 11
20.4387
 21
30.9724
  0
LINE
  8
0
 10
20.4387
 20
30.9724
 11
20.6558
 21
30.938
  0
LINE
  8
0
 10
20.6558
 20
30.938
 11
20.8704
 21
30.89
  0
LINE
  8
0
 10
20.8704
 20
30.89
 11
21.0816
 21
30.8287
  0
LINE
  8
0
 10
21.0816
 20
30.8287
 11
21.2884
 21
30.7542
  0
LINE
  8
0
 10
21.2884
 20
30.7542
 11
21.4902
 21
30.6669
  0
LINE
  8
0
 10
21.4902
 20
30.6669
 11
21.6861
 21
30.5671
  0
LINE
  8
0
 10
21.6861
 20
30.5671
 11
21.8754
 21
30.4551
  0
LINE
  8
0
 10
21.8754
 20
30.4551
 11
22.0572
 21
30.3316
  0
LINE
  8
0
 10
22.0572
 20
30.3316
 11
22.231
 21
30.1968
  0
LINE
  8
0
 10
22.231
 20
30.1968
 11
22.3959
 21
30.0514
  0
LINE
  8
0
 10
22.3959
 20
30.0514
 11
22.5514
 21
29.8959
  0
LINE
  8
0
 10
22.5514
 20
29.8959
 11
22.6968
 21
29.731
  0
LINE
  8
0
 10
22.6968
 20
29.731
 11
22.8316
 21
29.5572
  0
LINE
  8
0
 10
22.8316
 20
29.5572
 11
22.9551
 21
29.3754
  0
LINE
  8
0
 10
22.9551
 20
29.3754
 11
23.0671
 21
29.1861
  0
LINE
  8
0
 10
23.0671
 20
29.1861
 11
23.1669
 21
28.9902
  0
LINE
  8
0
 10
23.1669
 20
28.9902
 11
23.2542
 21
28.7884
  0
LINE
  8
0
 10
23.2542
 20
28.7884
 11
23.3287
 21
28.5816
  0
LINE
  8
0
 10
23.3287
 20
28.5816
 11
23.39
 21
28.3704
  0
LINE
  8
0
 10
23.39
 20
28.3704
 11
23.438
 21
28.1558
  0
LINE
  8
0
 10
23.438
 20
28.1558
 11
23.4724
 21
27.9387
  0
LINE
  8
0
 10
23.4724
 20
27.9387
 11
23.4931
 21
27.7198
  0
LINE
  8
0
 10
23.4931
 20
27.7198
 11
23.5
 21
27.5
  0
LINE
  8
0
 10
23.5
 20
27.5
 11
23.5
 21
22.5
  0
LINE
  8
0
 10
23.5
 20
22.5
 11
23.4931
 21
22.2802
  0
LINE
  8
0
 10
23.4931
 20
22.2802
 11
23.4724
 21
22.0613
  0
LINE
  8
0
 10
23.4724
 20
22.0613
 11
23.438
 21
21.8442
  0
LINE
  8
0
 10
23.438
 20
21.8442
 11
23.39
 21
21.6296
  0
LINE
  8
0
 10
23.39
 20
21.6296
 11
23.3287
 21
21.4184
  0
LINE
  8
0
 10
23.3287
 20
21.4184
 11
23.2542
 21
21.2116
  0
LINE
  8
0
 10
23.2542
 20
21.2116
 11
23.1669
 21
21.0098
  0
LINE
  8
0
 10
23.1669
 20
21.0098
 11
23.0671
 21
20.8139
  0
LINE
  8
0
 10
23.0671
 20
20.8139
 11
22.9551
 21
20.6246
  0
LINE
  8
0
 10
22.9551
 20
20.6246
 11
22.8316
 21
20.4427
  0
LINE
  8
0
 10
22.8316
 20
20.4427
 11
22.6968
 21
20.269
  0
LINE
  8
0
 10
22.6968
 20
20.269
 11
22.5514
 21
20.1041
  0
LINE
  8
0
 10
22.5514
 20
20.1041
 11
22.3959
 21
19.9486
  0
LINE
  8
0
 10
22.3959
 20
19.9486
 11
22.231
 21
19.8032
  0
LINE
  8
0
 10
22.231
 20
19.8032
 11
22.0572
 21
19.6684
  0
LINE
  8
0
 10
22.0572
 20
19.6684
 11
21.8754
 21
19.5448
  0
LINE
  8
0
 10
21.8754
 20
19.5448
 11
21.6861
 21
19.4329
  0
LINE
  8
0
 10
21.6861
 20
19.4329
 11
21.4902
 21
19.3331
  0
LINE
  8
0
 10
21.4902
 20
19.3331
 11
21.2884
 21
19.2458
  0
LINE
  8
0
 10
21.2884
 20
19.2458
 11
21.0816
 21
19.1713
  0
LINE
  8
0
 10
21.0816
 20
19.1713
 11
20.8704
 21
19.11
  0
LINE
  8
0
 10
20.8704
 20
19.11
 11
20.6558
 21
19.062
  0
LINE
  8
0
 10
20.6558
 20
19.062
 11
20.4387
 21
19.0276
  0
LINE
  8
0
 10
20.4387
 20
19.0276
 11
20.2198
 21
19.0069
  0
LINE
  8
0
 10
20.2198
 20
19.0069
 11
20
 21
19
  0
LINE
  8
0
 10
20
 20
19
 11
19.7802
 21
19.0069
  0
LINE
  8
0
 10
-8
 20
20
 11
-8
 21
22
  0
LINE
  8
0
 10
-8
 20
22
 11
8
 21
22
  0
LINE
  8
0
 10
8
 20
22
 11
8
 21
20
  0
LINE
  8
0
 10
8
 20
20
 11
-8
 21
20
  0
LINE
  8
0
 10
-20.157
 20
9.50493
 11
-20.3133
 21
9.5197
  0
LINE
  8
0
 10
-20.3133
 20
9.5197
 11
-20.4684
 21
9.54428
  0
LINE
  8
0
 10
-20.4684
 20
9.54428
 11
-20.6217
 21
9.57854
  0
LINE
  8
0
 10
-20.6217
 20
9.57854
 11
-20.7725
 21
9.62234
  0
LINE
  8
0
 10
-20.7725
 20
9.62234
 11
-20.9203
 21
9.67555
  0
LINE
  8
0
 10
-20.9203
 20
9.67555
 11
-21.0644
 21
9.73793
  0
LINE
  8
0
 10
-21.0644
 20
9.73793
 11
-21.2044
 21
9.80922
  0
LINE
  8
0
 10
-21.2044
 20
9.80922
 11
-21.3396
 21
9.88918
  0
LINE
  8
0
 10
-21.3396
 20
9.88918
 11
-21.4695
 21
9.97745
  0
LINE
  8
0
 10
-21.4695
 20
9.97745
 11
-21.5936
 21
10.0737
  0
LINE
  8
0
 10
-21.5936
 20
10.0737
 11
-21.7114
 21
10.1776
  0
LINE
  8
0
 10
-21.7114
 20
10.1776
 11
-21.8224
 21
10.2886
  0
LINE
  8
0
 10
-21.8224
 20
10.2886
 11
-21.9263
 21
10.4064
  0
LINE
  8
0
 10
-21.9263
 20
10.4064
 11
-22.0225
 21
10.5305
  0
LINE
  8
0
 10
-22.0225
 20
10.5305
 11
-22.1108
 21
10.6604
  0
LINE
  8
0
 10
-22.1108
 20
10.6604
 11
-22.1908
 21
10.7956
  0
LINE
  8
0
 10
-22.1908
 20
10.7956
 11
-22.2621
 21
10.9355
  0
LINE
  8
0
 10
-22.2621
 20
10.9355
 11
-22.3244
 21
11.0797
  0
LINE
  8
0
 10
-22.3244
 20
11.0797
 11
-22.3776
 21
11.2274
  0
LINE
  8
0
 10
-22.3776
 20
11.2274
 11
-22.4214
 21
11.3783
  0
LINE
  8
0
 10
-22.4214
 20
11.3783
 11
-22.4557
 21
11.5315
  0
LINE
  8
0
 10
-22.4557
 20
11.5315
 11
-22.4803
 21
11.6867
  0
LINE
  8
0
 10
-22.4803
 20
11.6867
 11
-22.4951
 21
11.843
  0
LINE
  8
0
 10
-22.4951
 20
11.843
 11
-22.5
 21
12
  0
LINE
  8
0
 10
-22.5
 20
12
 11
-22.4951
 21
12.157
  0
LINE
  8
0
 10
-22.4951
 20
12.157
 11
-22.4803
 21
12.3133
  0
LINE
  8
0
 10
-22.4803
 20
12.3133
 11
-22.4557
 21
12.4684
  0
LINE
  8
0
 10
-22.4557
 20
12.4684
 11
-22.4214
 21
12.6217
  0
LINE
  8
0
 10
-22.4214
 20
12.6217
 11
-22.3776
 21
12.7725
  0
LINE
  8
0
 10
-22.3776
 20
12.7725
 11
-22.3244
 21
12.9203
  0
LINE
  8
0
 10
-22.3244
 20
12.9203
 11
-22.2621
 21
13.0644
  0
LINE
  8
0
 10
-22.2621
 20
13.0644
 11
-22.1908
 21
13.2044
  0
LINE
  8
0
 10
-22.1908
 20
13.2044
 11
-22.1108
 21
13.3396
  0
LINE
  8
0
 10
-22.1108
 20
13.3396
 11
-22.0225
 21
13.4695
  0
LINE
  8
0
 10
-22.0225
 20
13.4695
 11
-21.9263
 21
13.5936
  0
LINE
  8
0
 10
-21.9263
 20
13.5936
 11
-21.8224
 21
13.7114
  0
LINE
  8
0
 10
-21.8224
 20
13.7114
 11
-21.7114
 21
13.8224
  0
LINE
  8
0
 10
-21.7114
 20
13.8224
 11
-21.5936
 21
13.9263
  0
LINE
  8
0
 10
-21.5936
 20
13.9263
 11
-21.4695
 21
14.0225
  0
LINE
  8
0
 10
-21.4695
 20
14.0225
 11
-21.3396
 21
14.1108
  0
LINE
  8
0
 10
-21.3396
 20
14.1108
 11
-21.2044
 21
14.1908
  0
LINE
  8
0
 10
-21.2044
 20
14.1908
 11
-21.0644
 21
14.2621
  0
LINE
  8
0
 10
-21.0644
 20
14.2621
 11
-20.9203
 21
14.3244
  0
LINE
  8
0
 10
-20.9203
 20
14.3244
 11
-20.7725
 21
14.3776
  0
LINE
  8
0
 10
-20.7725
 20
14.3776
 11
-20.6217
 21
14.4214
  0
LINE
  8
0
 10
-20.6217
 20
14.4214
 11
-20.4684
 21
14.4557
  0
LINE
  8
0
 10
-20.4684
 20
14.4557
 11
-20.3133
 21
14.4803
  0
LINE
  8
0
 10
-20.3133
 20
14.4803
 11
-20.157
 21
14.4951
  0
LINE
  8
0
 10
-20.157
 20
14.4951
 11
-20
 21
14.5
  0
LINE
  8
0
 10
-20
 20
14.5
 11
-19.843
 21
14.4951
  0
LINE
  8
0
 10
-19.843
 20
14.4951
 11
-19.6867
 21
14.4803
  0
LINE
  8
0
 10
-19.6867
 20
14.4803
 11
-19.5315
 21
14.4557
  0
LINE
  8
0
 10
-19.5315
 20
14.4557
 11
-19.3783
 21
14.4214
  0
LINE
  8
0
 10
-19.3783
 20
14.4214
 11
-19.2274
 21
14.3776
  0
LINE
  8
0
 10
-19.2274
 20
14.3776
 11
-19.0797
 21
14.3244
  0
LINE
  8
0
 10
-19.0797
 20
14.3244
 11
-18.9355
 21
14.2621
  0
LINE
  8
0
 10
-18.9355
 20
14.2621
 11
-18.7956
 21
14.1908
  0
LINE
  8
0
 10
-18.7956
 20
14.1908
 11
-18.6604
 21
14.1108
  0
LINE
  8
0
 10
-18.6604
 20
14.1108
 11
-18.5305
 21
14.0225
  0
LINE
  8
0
 10
-18.5305
 20
14.0225
 11
-18.4064
 21
13.9263
  0
LINE
  8
0
 10
-18.4064
 20
13.9263
 11
-18.2886
 21
13.8224
  0
LINE
  8
0
 10
-18.2886
 20
13.8224
 11
-18.1776
 21
13.7114
  0
LINE
  8
0
 10
-18.1776
 20
13.7114
 11
-18.0737
 21
13.5936
  0
LINE
  8
0
 10
-18.0737
 20
13.5936
 11
-17.9774
 21
13.4695
  0
LINE
  8
0
 10
-17.9774
 20
13.4695
 11
-17.8892
 21
13.3396
  0
LINE
  8
0
 10
-17.8892
 20
13.3396
 11
-17.8092
 21
13.2044
  0
LINE
  8
0
 10
-17.8092
 20
13.2044
 11
-17.7379
 21
13.0644
  0
LINE
  8
0
 10
-17.7379
 20
13.0644
 11
-17.6756
 21
12.9203
  0
LINE
  8
0
 10
-17.6756
 20
12.9203
 11
-17.6223
 21
12.7725
  0
LINE
  8
0
 10
-17.6223
 20
12.7725
 11
-17.5785
 21
12.6217
  0
LINE
  8
0
 10
-17.5785
 20
12.6217
 11
-17.5443
 21
12.4684
  0
LINE
  8
0
 10
-17.5443
 20
12.4684
 11
-17.5197
 21
12.3133
  0
LINE
  8
0
 10
-17.5197
 20
12.3133
 11
-17.5049
 21
12.157
  0
LINE
  8
0
 10
-17.5049
 20
12.157
 11
-17.5
 21
12
  0
LINE
  8
0
 10
-17.5
 20
12
 11
-17.5049
 21
11.843
  0
LINE
  8
0
 10
-17.5049
 20
11.843
 11
-17.5197
 21
11.6867
  0
LINE
  8
0
 10
-17.5197
 20
11.6867
 11
-17.5443
 21
11.5315
  0
LINE
  8
0
 10
-17.5443
 20
11.5315
 11
-17.5785
 21
11.3783
  0
LINE
  8
0
 10
-17.5785
 20
11.3783
 11
-17.6223
 21
11.2274
  0
LINE
  8
0
 10
-17.6223
 20
11.2274
 11
-17.6756
 21
11.0797
  0
LINE
  8
0
 10
-17.6756
 20
11.0797
 11
-17.7379
 21
10.9355
  0
LINE
  8
0
 10
-17.7379
 20
10.9355
 11
-17.8092
 21
10.7956
  0
LINE
  8
0
 10
-17.8092
 20
10.7956
 11
-17.8892
 21
10.6604
  0
LINE
  8
0
 10
-17.8892
 20
10.6604
 11
-17.9774
 21
10.5305
  0
LINE
  8
0
 10
-17.9774
 20
10.5305
 11
-18.0737
 21
10.4064
  0
LINE
  8
0
 10
-18.0737
 20
10.4064
 11
-18.1776
 21
10.2886
  0
LINE
  8
0
 10
-18.1776
 20
10.2886
 11
-18.2886
 21
10.1776
  0
LINE
  8
0
 10
-18.2886
 20
10.1776
 11
-18.4064
 21
10.0737
  0
LINE
  8
0
 10
-18.4064
 20
10.0737
 11
-18.5305
 21
9.97745
  0
LINE
  8
0
 10
-18.5305
 20
9.97745
 11
-18.6604
 21
9.88918
  0
LINE
  8
0
 10
-18.6604
 20
9.88918
 11
-18.7956
 21
9.80922
  0
LINE
  8
0
 10
-18.7956
 20
9.80922
 11
-18.9355
 21
9.73793
  0
LINE
  8
0
 10
-18.9355
 20
9.73793
 11
-19.0797
 21
9.67555
  0
LINE
  8
0
 10
-19.0797
 20
9.67555
 11
-19.2274
 21
9.62234
  0
LINE
  8
0
 10
-19.2274
 20
9.62234
 11
-19.3783
 21
9.57854
  0
LINE
  8
0
 10
-19.3783
 20
9.57854
 11
-19.5315
 21
9.54428
  0
LINE
  8
0
 10
-19.5315
 20
9.54428
 11
-19.6867
 21
9.5197
  0
LINE
  8
0
 10
-19.6867
 20
9.5197
 11
-19.843
 21
9.50493
  0
LINE
  8
0
 10
-19.843
 20
9.50493
 11
-20
 21
9.5
  0
LINE
  8
0
 10
-20
 20
9.5
 11
-20.157
 21
9.50493
  0
LINE
  8
0
 10
19.843
 20
9.50493
 11
19.6867
 21
9.5197
  0
LINE
  8
0
 10
19.6867
 20
9.5197
 11
19.5315
 21
9.54428
  0
LINE
  8
0
 10
19.5315
 20
9.54428
 11
19.3783
 21
9.57854
  0
LINE
  8
0
 10
19.3783
 20
9.57854
 11
19.2274
 21
9.62234
  0
LINE
  8
0
 10
19.2274
 20
9.62234
 11
19.0797
 21
9.67555
  0
LINE
  8
0
 10
19.0797
 20
9.67555
 11
18.9355
 21
9.73793
  0
LINE
  8
0
 10
18.9355
 20
9.73793
 11
18.7956
 21
9.80922
  0
LINE
  8
0
 10
18.7956
 20
9.80922
 11
18.6604
 21
9.88918
  0
LINE
  8
0
 10
18.6604
 20
9.88918
 11
18.5305
 21
9.97745
  0
LINE
  8
0
 10
18.5305
 20
9.97745
 11
18.4064
 21
10.0737
  0
LINE
  8
0
 10
18.4064
 20
10.0737
 11
18.2886
 21
10.1776
  0
LINE
  8
0
 10
18.2886
 20
10.1776
 11
18.1776
 21
10.2886
  0
LINE
  8
0
 10
18.1776
 20
10.2886
 11
18.0737
 21
10.4064
  0
LINE
  8
0
 10
18.0737
 20
10.4064
 11
17.9774
 21
10.5305
  0
LINE
  8
0
 10
17.9774
 20
10.5305
 11
17.8892
 21
10.6604
  0
LINE
  8
0
 10
17.8892
 20
10.6604
 11
17.8092
 21
10.7956
  0
LINE
  8
0
 10
17.8092
 20
10.7956
 11
17.7379
 21
10.9355
  0
LINE
  8
0
 10
17.7379
 20
10.9355
 11
17.6756
 21
11.0797
  0
LINE
  8
0
 10
17.6756
 20
11.0797
 11
17.6223
 21
11.2274
  0
LINE
  8
0
 10
17.6223
 20
11.2274
 11
17.5785
 21
11.3783
  0
LINE
  8
0
 10
17.5785
 20
11.3783
 11
17.5443
 21
11.5315
  0
LINE
  8
0
 10
17.5443
 20
11.5315
 11
17.5197
 21
11.6867
  0
LINE
  8
0
 10
17.5197
 20
11.6867
 11
17.5049
 21
11.843
  0
LINE
  8
0
 10
17.5049
 20
11.843
 11
17.5
 21
12
  0
LINE
  8
0
 10
17.5
 20
12
 11
17.5049
 21
12.157
  0
LINE
  8
0
 10
17.5049
 20
12.157
 11
17.5197
 21
12.3133
  0
LINE
  8
0
 10
17.5197
 20
12.3133
 11
17.5443
 21
12.4684
  0
LINE
  8
0
 10
17.5443
 20
12.4684
 11
17.5785
 21
12.6217
  0
LINE
  8
0
 10
17.5785
 20
12.6217
 11
17.6223
 21
12.7725
  0
LINE
  8
0
 10
17.6223
 20
12.7725
 11
17.6756
 21
12.9203
  0
LINE
  8
0
 10
17.6756
 20
12.9203
 11
17.7379
 21
13.0644
  0
LINE
  8
0
 10
17.7379
 20
13.0644
 11
17.8092
 21
13.2044
  0
LINE
  8
0
 10
17.8092
 20
13.2044
 11
17.8892
 21
13.3396
  0
LINE
  8
0
 10
17.8892
 20
13.3396
 11
17.9774
 21
13.4695
  0
LINE
  8
0
 10
17.9774
 20
13.4695
 11
18.0737
 21
13.5936
  0
LINE
  8
0
 10
18.0737
 20
13.5936
 11
18.1776
 21
13.7114
  0
LINE
  8
0
 10
18.1776
 20
13.7114
 11
18.2886
 21
13.8224
  0
LINE
  8
0
 10
18.2886
 20
13.8224
 11
18.4064
 21
13.9263
  0
LINE
  8
0
 10
18.4064
 20
13.9263
 11
18.5305
 21
14.0225
  0
LINE
  8
0
 10
18.5305
 20
14.0225
 11
18.6604
 21
14.1108
  0
LINE
  8
0
 10
18.6604
 20
14.1108
 11
18.7956
 21
14.1908
  0
LINE
  8
0
 10
18.7956
 20
14.1908
 11
18.9355
 21
14.2621
  0
LINE
  8
0
 10
18.9355
 20
14.2621
 11
19.0797
 21
14.3244
  0
LINE
  8
0
 10
19.0797
 20
14.3244
 11
19.2274
 21
14.3776
  0
LINE
  8
0
 10
19.2274
 20
14.3776
 11
19.3783
 21
14.4214
  0
LINE
  8
0
 10
19.3783
 20
14.4214
 11
19.5315
 21
14.4557
  0
LINE
  8
0
 10
19.5315
 20
14.4557
 11
19.6867
 21
14.4803
  0
LINE
  8
0
 10
19.6867
 20
14.4803
 11
19.843
 21
14.4951
  0
LINE
  8
0
 10
19.843
 20
14.4951
 11
20
 21
14.5
  0
LINE
  8
0
 10
20
 20
14.5
 11
20.157
 21
14.4951
  0
LINE
  8
0
 10
20.157
 20
14.4951
 11
20.3133
 21
14.4803
  0
LINE
  8
0
 10
20.3133
 20
14.4803
 11
20.4684
 21
14.4557
  0
LINE
  8
0
 10
20.4684
 20
14.4557
 11
20.6217
 21
14.4214
  0
LINE
  8
0
 10
20.6217
 20
14.4214
 11
20.7725
 21
14.3776
  0
LINE
  8
0
 10
20.7725
 20
14.3776
 11
20.9203
 21
14.3244
  0
LINE
  8
0
 10
20.9203
 20
14.3244
 11
21.0644
 21
14.2621
  0
LINE
  8
0
 10
21.0644
 20
14.2621
 11
21.2044
 21
14.1908
  0
LINE
  8
0
 10
21.2044
 20
14.1908
 11
21.3396
 21
14.1108
  0
LINE
  8
0
 10
21.3396
 20
14.1108
 11
21.4695
 21
14.0225
  0
LINE
  8
0
 10
21.4695
 20
14.0225
 11
21.5936
 21
13.9263
  0
LINE
  8
0
 10
21.5936
 20
13.9263
 11
21.7114
 21
13.8224
  0
LINE
  8
0
 10
21.7114
 20
13.8224
 11
21.8224
 21
13.7114
  0
LINE
  8
0
 10
21.8224
 20
13.7114
 11
21.9263
 21
13.5936
  0
LINE
  8
0
 10
21.9263
 20
13.5936
 11
22.0225
 21
13.4695
  0
LINE
  8
0
 10
22.0225
 20
13.4695
 11
22.1108
 21
13.3396
  0
LINE
  8
0
 10
22.1108
 20
13.3396
 11
22.1908
 21
13.2044
  0
LINE
  8
0
 10
22.1908
 20
13.2044
 11
22.2621
 21
13.0644
  0
LINE
  8
0
 10
22.2621
 20
13.0644
 11
22.3244
 21
12.9203
  0
LINE
  8
0
 10
22.3244
 20
12.9203
 11
22.3776
 21
12.7725
  0
LINE
  8
0
 10
22.3776
 20
12.7725
 11
22.4214
 21
12.6217
  0
LINE
  8
0
 10
22.4214
 20
12.6217
 11
22.4557
 21
12.4684
  0
LINE
  8
0
 10
22.4557
 20
12.4684
 11
22.4803
 21
12.3133
  0
LINE
  8
0
 10
22.4803
 20
12.3133
 11
22.4951
 21
12.157
  0
LINE
  8
0
 10
22.4951
 20
12.157
 11
22.5
 21
12
  0
LINE
  8
0
 10
22.5
 20
12
 11
22.4951
 21
11.843
  0
LINE
  8
0
 10
22.4951
 20
11.843
 11
22.4803
 21
11.6867
  0
LINE
  8
0
 10
22.4803
 20
11.6867
 11
22.4557
 21
11.5315
  0
LINE
  8
0
 10
22.4557
 20
11.5315
 11
22.4214
 21
11.3783
  0
LINE
  8
0
 10
22.4214
 20
11.3783
 11
22.3776
 21
11.2274
  0
LINE
  8
0
 10
22.3776
 20
11.2274
 11
22.3244
 21
11.0797
  0
LINE
  8
0
 10
22.3244
 20
11.0797
 11
22.2621
 21
10.9355
  0
LINE
  8
0
 10
22.2621
 20
10.9355
 11
22.1908
 21
10.7956
  0
LINE
  8
0
 10
22.1908
 20
10.7956
 11
22.1108
 21
10.6604
  0
LINE
  8
0
 10
22.1108
 20
10.6604
 11
22.0225
 21
10.5305
  0
LINE
  8
0
 10
22.0225
 20
10.5305
 11
21.9263
 21
10.4064
  0
LINE
  8
0
 10
21.9263
 20
10.4064
 11
21.8224
 21
10.2886
  0
LINE
  8
0
 10
21.8224
 20
10.2886
 11
21.7114
 21
10.1776
  0
LINE
  8
0
 10
21.7114
 20
10.1776
 11
21.5936
 21
10.0737
  0
LINE
  8
0
 10
21.5936
 20
10.0737
 11
21.4695
 21
9.97745
  0
LINE
  8
0
 10
21.4695
 20
9.97745
 11
21.3396
 21
9.88918
  0
LINE
  8
0
 10
21.3396
 20
9.88918
 11
21.2044
 21
9.80922
  0
LINE
  8
0
 10
21.2044
 20
9.80922
 11
21.0644
 21
9.73793
  0
LINE
  8
0
 10
21.0644
 20
9.73793
 11
20.9203
 21
9.67555
  0
LINE
  8
0
 10
20.9203
 20
9.67555
 11
20.7725
 21
9.62234
  0
LINE
  8
0
 10
20.7725
 20
9.62234
 11
20.6217
 21
9.57854
  0
LINE
  8
0
 10
20.6217
 20
9.57854
 11
20.4684
 21
9.54428
  0
LINE
  8
0
 10
20.4684
 20
9.54428
 11
20.3133
 21
9.5197
  0
LINE
  8
0
 10
20.3133
 20
9.5197
 11
20.157
 21
9.50493
  0
LINE
  8
0
 10
20.157
 20
9.50493
 11
20
 21
9.5
  0
LINE
  8
0
 10
20
 20
9.5
 11
19.843
 21
9.50493
  0
LINE
  8
0
 10
-20.2198
 20
-6.99309
 11
-20.4387
 21
-6.9724
  0
LINE
  8
0
 10
-20.4387
 20
-6.9724
 11
-20.6558
 21
-6.938
  0
LINE
  8
0
 10
-20.6558
 20
-6.938
 11
-20.8704
 21
-6.89003
  0
LINE
  8
0
 10
-20.8704
 20
-6.89003
 11
-21.0816
 21
-6.82869
  0
LINE
  8
0
 10
-21.0816
 20
-6.82869
 11
-21.2884
 21
-6.75421
  0
LINE
  8
0
 10
-21.2884
 20
-6.75421
 11
-21.4902
 21
-6.66689
  0
LINE
  8
0
 10
-21.4902
 20
-6.66689
 11
-21.6861
 21
-6.56706
  0
LINE
  8
0
 10
-21.6861
 20
-6.56706
 11
-21.8754
 21
-6.45514
  0
LINE
  8
0
 10
-21.8754
 20
-6.45514
 11
-22.0572
 21
-6.33156
  0
LINE
  8
0
 10
-22.0572
 20
-6.33156
 11
-22.231
 21
-6.19679
  0
LINE
  8
0
 10
-22.231
 20
-6.19679
 11
-22.3959
 21
-6.05138
  0
LINE
  8
0
 10
-22.3959
 20
-6.05138
 11
-22.5514
 21
-5.8959
  0
LINE
  8
0
 10
-22.5514
 20
-5.8959
 11
-22.6968
 21
-5.73097
  0
LINE
  8
0
 10
-22.6968
 20
-5.73097
 11
-22.8316
 21
-5.55724
  0
LINE
  8
0
 10
-22.8316
 20
-5.55724
 11
-22.9551
 21
-5.37538
  0
LINE
  8
0
 10
-22.9551
 20
-5.37538
 11
-23.0671
 21
-5.18613
  0
LINE
  8
0
 10
-23.0671
 20
-5.18613
 11
-23.1669
 21
-4.99022
  0
LINE
  8
0
 10
-23.1669
 20
-4.99022
 11
-23.2542
 21
-4.78842
  0
LINE
  8
0
 10
-23.2542
 20
-4.78842
 11
-23.3287
 21
-4.58156
  0
LINE
  8
0
 10
-23.3287
 20
-4.58156
 11
-23.39
 21
-4.37041
  0
LINE
  8
0
 10
-23.39
 20
-4.37041
 11
-23.438
 21
-4.15582
  0
LINE
  8
0
 10
-23.438
 20
-4.15582
 11
-23.4724
 21
-3.93866
  0
LINE
  8
0
 10
-23.4724
 20
-3.93866
 11
-23.4931
 21
-3.71976
  0
LINE
  8
0
 10
-23.4931
 20
-3.71976
 11
-23.5
 21
-3.5
  0
LINE
  8
0
 10
-23.5
 20
-3.5
 11
-23.5
 21
1.5
  0
LINE
  8
0
 10
-23.5
 20
1.5
 11
-23.4931
 21
1.71976
  0
LINE
  8
0
 10
-23.4931
 20
1.71976
 11
-23.4724
 21
1.93866
  0
LINE
  8
0
 10
-23.4724
 20
1.93866
 11
-23.438
 21
2.15582
  0
LINE
  8
0
 10
-23.438
 20
2.15582
 11
-23.39
 21
2.37041
  0
LINE
  8
0
 10
-23.39
 20
2.37041
 11
-23.3287
 21
2.58156
  0
LINE
  8
0
 10
-23.3287
 20
2.58156
 11
-23.2542
 21
2.78842
  0
LINE
  8
0
 10
-23.2542
 20
2.78842
 11
-23.1669
 21
2.99022
  0
LINE
  8
0
 10
-23.1669
 20
2.99022
 11
-23.0671
 21
3.18613
  0
LINE
  8
0
 10
-23.0671
 20
3.18613
 11
-22.9551
 21
3.37538
  0
LINE
  8
0
 10
-22.9551
 20
3.37538
 11
-22.8316
 21
3.55724
  0
LINE
  8
0
 10
-22.8316
 20
3.55724
 11
-22.6968
 21
3.73097
  0
LINE
  8
0
 10
-22.6968
 20
3.73097
 11
-22.5514
 21
3.8959
  0
LINE
  8
0
 10
-22.5514
 20
3.8959
 11
-22.3959
 21
4.05138
  0
LINE
  8
0
 10
-22.3959
 20
4.05138
 11
-22.231
 21
4.19679
  0
LINE
  8
0
 10
-22.231
 20
4.19679
 11
-22.0572
 21
4.33156
  0
LINE
  8
0
 10
-22.0572
 20
4.33156
 11
-21.8754
 21
4.45514
  0
LINE
  8
0
 10
-21.8754
 20
4.45514
 11
-21.6861
 21
4.56706
  0
LINE
  8
0
 10
-21.6861
 20
4.56706
 11
-21.4902
 21
4.66689
  0
LINE
  8
0
 10
-21.4902
 20
4.66689
 11
-21.2884
 21
4.75421
  0
LINE
  8
0
 10
-21.2884
 20
4.75421
 11
-21.0816
 21
4.82869
  0
LINE
  8
0
 10
-21.0816
 20
4.82869
 11
-20.8704
 21
4.89003
  0
LINE
  8
0
 10
-20.8704
 20
4.89003
 11
-20.6558
 21
4.938
  0
LINE
  8
0
 10
-20.6558
 20
4.938
 11
-20.4387
 21
4.9724
  0
LINE
  8
0
 10
-20.4387
 20
4.9724
 11
-20.2198
 21
4.99309
  0
LINE
  8
0
 10
-20.2198
 20
4.99309
 11
-20
 21
5
  0
LINE
  8
0
 10
-20
 20
5
 11
-19.7802
 21
4.99309
  0
LINE
  8
0
 10
-19.7802
 20
4.99309
 11
-19.5613
 21
4.9724
  0
LINE
  8
0
 10
-19.5613
 20
4.9724
 11
-19.3442
 21
4.938
  0
LINE
  8
0
 10
-19.3442
 20
4.938
 11
-19.1296
 21
4.89003
  0
LINE
  8
0
 10
-19.1296
 20
4.89003
 11
-18.9184
 21
4.82869
  0
LINE
  8
0
 10
-18.9184
 20
4.82869
 11
-18.7116
 21
4.75421
  0
LINE
  8
0
 10
-18.7116
 20
4.75421
 11
-18.5098
 21
4.66689
  0
LINE
  8
0
 10
-18.5098
 20
4.66689
 11
-18.3139
 21
4.56706
  0
LINE
  8
0
 10
-18.3139
 20
4.56706
 11
-18.1246
 21
4.45514
  0
LINE
  8
0
 10
-18.1246
 20
4.45514
 11
-17.9427
 21
4.33156
  0
LINE
  8
0
 10
-17.9427
 20
4.33156
 11
-17.769
 21
4.19679
  0
LINE
  8
0
 10
-17.769
 20
4.19679
 11
-17.6041
 21
4.05138
  0
LINE
  8
0
 10
-17.6041
 20
4.05138
 11
-17.4486
 21
3.8959
  0
LINE
  8
0
 10
-17.4486
 20
3.8959
 11
-17.3032
 21
3.73097
  0
LINE
  8
0
 10
-17.3032
 20
3.73097
 11
-17.1684
 21
3.55724
  0
LINE
  8
0
 10
-17.1684
 20
3.55724
 11
-17.0448
 21
3.37538
  0
LINE
  8
0
 10
-17.0448
 20
3.37538
 11
-16.9329
 21
3.18613
  0
LINE
  8
0
 10
-16.9329
 20
3.18613
 11
-16.8331
 21
2.99022
  0
LINE
  8
0
 10
-16.8331
 20
2.99022
 11
-16.7458
 21
2.78842
  0
LINE
  8
0
 10
-16.7458
 20
2.78842
 11
-16.6713
 21
2.58156
  0
LINE
  8
0
 10
-16.6713
 20
2.58156
 11
-16.61
 21
2.37041
  0
LINE
  8
0
 10
-16.61
 20
2.37041
 11
-16.562
 21
2.15582
  0
LINE
  8
0
 10
-16.562
 20
2.15582
 11
-16.5276
 21
1.93866
  0
LINE
  8
0
 10
-16.5276
 20
1.93866
 11
-16.5069
 21
1.71976
  0
LINE
  8
0
 10
-16.5069
 20
1.71976
 11
-16.5
 21
1.5
  0
LINE
  8
0
 10
-16.5
 20
1.5
 11
-16.5
 21
-3.5
  0
LINE
  8
0
 10
-16.5
 20
-3.5
 11
-16.5069
 21
-3.71976
  0
LINE
  8
0
 10
-16.5069
 20
-3.71976
 11
-16.5276
 21
-3.93866
  0
LINE
  8
0
 10
-16.5276
 20
-3.93866
 11
-16.562
 21
-4.15582
  0
LINE
  8
0
 10
-16.562
 20
-4.15582
 11
-16.61
 21
-4.37041
  0
LINE
  8
0
 10
-16.61
 20
-4.37041
 11
-16.6713
 21
-4.58156
  0
LINE
  8
0
 10
-16.6713
 20
-4.58156
 11
-16.7458
 21
-4.78842
  0
LINE
  8
0
 10
-16.7458
 20
-4.78842
 11
-16.8331
 21
-4.99022
  0
LINE
  8
0
 10
-16.8331
 20
-4.99022
 11
-16.9329
 21
-5.18613
  0
LINE
  8
0
 10
-16.9329
 20
-5.18613
 11
-17.0448
 21
-5.37538
  0
LINE
  8
0
 10
-17.0448
 20
-5.37538
 11
-17.1684
 21
-5.55724
  0
LINE
  8
0
 10
-17.1684
 20
-5.55724
 11
-17.3032
 21
-5.73097
  0
LINE
  8
0
 10
-17.3032
 20
-5.73097
 11
-17.4486
 21
-5.8959
  0
LINE
  8
0
 10
-17.4486
 20
-5.8959
 11
-17.6041
 21
-6.05138
  0
LINE
  8
0
 10
-17.6041
 20
-6.05138
 11
-17.769
 21
-6.19679
  0
LINE
  8
0
 10
-17.769
 20
-6.19679
 11
-17.9427
 21
-6.33156
  0
LINE
  8
0
 10
-17.9427
 20
-6.33156
 11
-18.1246
 21
-6.45514
  0
LINE
  8
0
 10
-18.1246
 20
-6.45514
 11
-18.3139
 21
-6.56706
  0
LINE
  8
0
 10
-18.3139
 20
-6.56706
 11
-18.5098
 21
-6.66689
  0
LINE
  8
0
 10
-18.5098
 20
-6.66689
 11
-18.7116
 21
-6.75421
  0
LINE
  8
0
 10
-18.7116
 20
-6.75421
 11
-18.9184
 21
-6.82869
  0
LINE
  8
0
 10
-18.9184
 20
-6.82869
 11
-19.1296
 21
-6.89003
  0
LINE
  8
0
 10
-19.1296
 20
-6.89003
 11
-19.3442
 21
-6.938
  0
LINE
  8
0
 10
-19.3442
 20
-6.938
 11
-19.5613
 21
-6.9724
  0
LINE
  8
0
 10
-19.5613
 20
-6.9724
 11
-19.7802
 21
-6.99309
  0
LINE
  8
0
 10
-19.7802
 20
-6.99309
 11
-20
 21
-7
  0
LINE
  8
0
 10
-20
 20
-7
 11
-20.2198
 21
-6.99309
  0
LINE
  8
0
 10
19.7802
 20
-6.99309
 11
19.5613
 21
-6.9724
  0
LINE
  8
0
 10
19.5613
 20
-6.9724
 11
19.3442
 21
-6.938
  0
LINE
  8
0
 10
19.3442
 20
-6.938
 11
19.1296
 21
-6.89003
  0
LINE
  8
0
 10
19.1296
 20
-6.89003
 11
18.9184
 21
-6.82869
  0
LINE
  8
0
 10
18.9184
 20
-6.82869
 11
18.7116
 21
-6.75421
  0
LINE
  8
0
 10
18.7116
 20
-6.75421
 11
18.5098
 21
-6.66689
  0
LINE
  8
0
 10
18.5098
 20
-6.66689
 11
18.3139
 21
-6.56706
  0
LINE
  8
0
 10
18.3139
 20
-6.56706
 11
18.1246
 21
-6.45514
  0
LINE
  8
0
 10
18.1246
 20
-6.45514
 11
17.9427
 21
-6.33156
  0
LINE
  8
0
 10
17.9427
 20
-6.33156
 11
17.769
 21
-6.19679
  0
LINE
  8
0
 10
17.769
 20
-6.19679
 11
17.6041
 21
-6.05138
  0
LINE
  8
0
 10
17.6041
 20
-6.05138
 11
17.4486
 21
-5.8959
  0
LINE
  8
0
 10
17.4486
 20
-5.8959
 11
17.3032
 21
-5.73097
  0
LINE
  8
0
 10
17.3032
 20
-5.73097
 11
17.1684
 21
-5.55724
  0
LINE
  8
0
 10
17.1684
 20
-5.55724
 11
17.0448
 21
-5.37538
  0
LINE
  8
0
 10
17.0448
 20
-5.37538
 11
16.9329
 21
-5.18613
  0
LINE
  8
0
 10
16.9329
 20
-5.18613
 11
16.8331
 21
-4.99022
  0
LINE
  8
0
 10
16.8331
 20
-4.99022
 11
16.7458
 21
-4.78842
  0
LINE
  8
0
 10
16.7458
 20
-4.78842
 11
16.6713
 21
-4.58156
  0
LINE
  8
0
 10
16.6713
 20
-4.58156
 11
16.61
 21
-4.37041
  0
LINE
  8
0
 10
16.61
 20
-4.37041
 11
16.562
 21
-4.15582
  0
LINE
  8
0
 10
16.562
 20
-4.15582
 11
16.5276
 21
-3.93866
  0
LINE
  8
0
 10
16.5276
 20
-3.93866
 11
16.5069
 21
-3.71976
  0
LINE
  8
0
 10
16.5069
 20
-3.71976
 11
16.5
 21
-3.5
  0
LINE
  8
0
 10
16.5
 20
-3.5
 11
16.5
 21
1.5
  0
LINE
  8
0
 10
16.5
 20
1.5
 11
16.5069
 21
1.71976
  0
LINE
  8
0
 10
16.5069
 20
1.71976
 11
16.5276
 21
1.93866
  0
LINE
  8
0
 10
16.5276
 20
1.93866
 11
16.562
 21
2.15582
  0
LINE
  8
0
 10
16.562
 20
2.15582
 11
16.61
 21
2.37041
  0
LINE
  8
0
 10
16.61
 20
2.37041
 11
16.6713
 21
2.58156
  0
LINE
  8
0
 10
16.6713
 20
2.58156
 11
16.7458
 21
2.78842
  0
LINE
  8
0
 10
16.7458
 20
2.78842
 11
16.8331
 21
2.99022
  0
LINE
  8
0
 10
16.8331
 20
2.99022
 11
16.9329
 21
3.18613
  0
LINE
  8
0
 10
16.9329
 20
3.18613
 11
17.0448
 21
3.37538
  0
LINE
  8
0
 10
17.0448
 20
3.37538
 11
17.1684
 21
3.55724
  0
LINE
  8
0
 10
17.1684
 20
3.55724
 11
17.3032
 21
3.73097
  0
LINE
  8
0
 10
17.3032
 20
3.73097
 11
17.4486
 21
3.8959
  0
LINE
  8
0
 10
17.4486
 20
3.8959
 11
17.6041
 21
4.05138
  0
LINE
  8
0
 10
17.6041
 20
4.05138
 11
17.769
 21
4.19679
  0
LINE
  8
0
 10
17.769
 20
4.19679
 11
17.9427
 21
4.33156
  0
LINE
  8
0
 10
17.9427
 20
4.33156
 11
18.1246
 21
4.45514
  0
LINE
  8
0
 10
18.1246
 20
4.45514
 11
18.3139
 21
4.56706
  0
LINE
  8
0
 10
18.3139
 20
4.56706
 11
18.5098
 21
4.66689
  0
LINE
  8
0
 10
18.5098
 20
4.66689
 11
18.7116
 21
4.75421
  0
LINE
  8
0
 10
18.7116
 20
4.75421
 11
18.9184
 21
4.82869
  0
LINE
  8
0
 10
18.9184
 20
4.82869
 11
19.1296
 21
4.89003
  0
LINE
  8
0
 10
19.1296
 20
4.89003
 11
19.3442
 21
4.938
  0
LINE
  8
0
 10
19.3442
 20
4.938
 11
19.5613
 21
4.9724
  0
LINE
  8
0
 10
19.5613
 20
4.9724
 11
19.7802
 21
4.99309
  0
LINE
  8
0
 10
19.7802
 20
4.99309
 11
20
 21
5
  0
LINE
  8
0
 10
20
 20
5
 11
20.2198
 21
4.99309
  0
LINE
  8
0
 10
20.2198
 20
4.99309
 11
20.4387
 21
4.9724
  0
LINE
  8
0
 10
20.4387
 20
4.9724
 11
20.6558
 21
4.938
  0
LINE
  8
0
 10
20.6558
 20
4.938
 11
20.8704
 21
4.89003
  0
LINE
  8
0
 10
20.8704
 20
4.89003
 11
21.0816
 21
4.82869
  0
LINE
  8
0
 10
21.0816
 20
4.82869
 11
21.2884
 21
4.75421
  0
LINE
  8
0
 10
21.2884
 20
4.75421
 11
21.4902
 21
4.66689
  0
LINE
  8
0
 10
21.4902
 20
4.66689
 11
21.6861
 21
4.56706
  0
LINE
  8
0
 10
21.6861
 20
4.56706
 11
21.8754
 21
4.45514
  0
LINE
  8
0
 10
21.8754
 20
4.45514
 11
22.0572
 21
4.33156
  0
LINE
  8
0
 10
22.0572
 20
4.33156
 11
22.231
 21
4.19679
  0
LINE
  8
0
 10
22.231
 20
4.19679
 11
22.3959
 21
4.05138
  0
LINE
  8
0
 10
22.3959
 20
4.05138
 11
22.5514
 21
3.8959
  0
LINE
  8
0
 10
22.5514
 20
3.8959
 11
22.6968
 21
3.73097
  0
LINE
  8
0
 10
22.6968
 20
3.73097
 11
22.8316
 21
3.55724
  0
LINE
  8
0
 10
22.8316
 20
3.55724
 11
22.9551
 21
3.37538
  0
LINE
  8
0
 10
22.9551
 20
3.37538
 11
23.0671
 21
3.18613
  0
LINE
  8
0
 10
23.0671
 20
3.18613
 11
23.1669
 21
2.99022
  0
LINE
  8
0
 10
23.1669
 20
2.99022
 11
23.2542
 21
2.78842
  0
LINE
  8
0
 10
23.2542
 20
2.78842
 11
23.3287
 21
2.58156
  0
LINE
  8
0
 10
23.3287
 20
2.58156
 11
23.39
 21
2.37041
  0
LINE
  8
0
 10
23.39
 20
2.37041
 11
23.438
 21
2.15582
  0
LINE
  8
0
 10
23.438
 20
2.15582
 11
23.4724
 21
1.93866
  0
LINE
  8
0
 10
23.4724
 20
1.93866
 11
23.4931
 21
1.71976
  0
LINE
  8
0
 10
23.4931
 20
1.71976
 11
23.5
 21
1.5
  0
LINE
  8
0
 10
23.5
 20
1.5
 11
23.5
 21
-3.5
  0
LINE
  8
0
 10
23.5
 20
-3.5
 11
23.4931
 21
-3.71976
  0
LINE
  8
0
 10
23.4931
 20
-3.71976
 11
23.4724
 21
-3.93866
  0
LINE
  8
0
 10
23.4724
 20
-3.93866
 11
23.438
 21
-4.15582
  0
LINE
  8
0
 10
23.438
 20
-4.15582
 11
23.39
 21
-4.37041
  0
LINE
  8
0
 10
23.39
 20
-4.37041
 11
23.3287
 21
-4.58156
  0
LINE
  8
0
 10
23.3287
 20
-4.58156
 11
23.2542
 21
-4.78842
  0
LINE
  8
0
 10
23.2542
 20
-4.78842
 11
23.1669
 21
-4.99022
  0
LINE
  8
0
 10
23.1669
 20
-4.99022
 11
23.0671
 21
-5.18613
  0
LINE
  8
0
 10
23.0671
 20
-5.18613
 11
22.9551
 21
-5.37538
  0
LINE
  8
0
 10
22.9551
 20
-5.37538
 11
22.8316
 21
-5.55724
  0
LINE
  8
0
 10
22.8316
 20
-5.55724
 11
22.6968
 21
-5.73097
  0
LINE
  8
0
 10
22.6968
 20
-5.73097
 11
22.5514
 21
-5.8959
  0
LINE
  8
0
 10
22.5514
 20
-5.8959
 11
22.3959
 21
-6.05138
  0
LINE
  8
0
 10
22.3959
 20
-6.05138
 11
22.231
 21
-6.19679
  0
LINE
  8
0
 10
22.231
 20
-6.19679
 11
22.0572
 21
-6.33156
  0
LINE
  8
0
 10
22.0572
 20
-6.33156
 11
21.8754
 21
-6.45514
  0
LINE
  8
0
 10
21.8754
 20
-6.45514
 11
21.6861
 21
-6.56706
  0
LINE
  8
0
 10
21.6861
 20
-6.56706
 11
21.4902
 21
-6.66689
  0
LINE
  8
0
 10
21.4902
 20
-6.66689
 11
21.2884
 21
-6.75421
  0
LINE
  8
0
 10
21.2884
 20
-6.75421
 11
21.0816
 21
-6.82869
  0
LINE
  8
0
 10
21.0816
 20
-6.82869
 11
20.8704
 21
-6.89003
  0
LINE
  8
0
 10
20.8704
 20
-6.89003
 11
20.6558
 21
-6.938
  0
LINE
  8
0
 10
20.6558
 20
-6.938
 11
20.4387
 21
-6.9724
  0
LINE
  8
0
 10
20.4387
 20
-6.9724
 11
20.2198
 21
-6.99309
  0
LINE
  8
0
 10
20.2198
 20
-6.99309
 11
20
 21
-7
  0
LINE
  8
0
 10
20
 20
-7
 11
19.7802
 21
-6.99309
  0
LINE
  8
0
 10
-8
 20
2
 11
-8
 21
4
  0
LINE
  8
0
 10
-8
 20
4
 11
8
 21
4
  0
LINE
  8
0
 10
8
 20
4
 11
8
 21
2
  0
LINE
  8
0
 10
8
 20
2
 11
-8
 21
2
  0
ENDSEC
  0
SECTION
  2
OBJECTS
  0
DICTIONARY
  0
ENDSEC
  0
EOF
