  0
SECTION
  2
BLOCKS
  0
ENDSEC
  0
SECTION
  2
ENTITIES
  0
LINE
  8
0
 10
-5
 20
-24
 11
-4.99013
 21
-23.686
  0
LINE
  8
0
 10
-4.99013
 20
-23.686
 11
-4.96057
 21
-23.3733
  0
LINE
  8
0
 10
-4.96057
 20
-23.3733
 11
-4.91142
 21
-23.0631
  0
LINE
  8
0
 10
-4.91142
 20
-23.0631
 11
-4.84291
 21
-22.7565
  0
LINE
  8
0
 10
-4.84291
 20
-22.7565
 11
-4.75528
 21
-22.4549
  0
LINE
  8
0
 10
-4.75528
 20
-22.4549
 11
-4.64888
 21
-22.1594
  0
LINE
  8
0
 10
-4.64888
 20
-22.1594
 11
-4.52412
 21
-21.8711
  0
LINE
  8
0
 10
-4.52412
 20
-21.8711
 11
-4.38153
 21
-21.5912
  0
LINE
  8
0
 10
-4.38153
 20
-21.5912
 11
-4.22163
 21
-21.3209
  0
LINE
  8
0
 10
-4.22163
 20
-21.3209
 11
-4.04507
 21
-21.0611
  0
LINE
  8
0
 10
-4.04507
 20
-21.0611
 11
-3.85255
 21
-20.8129
  0
LINE
  8
0
 10
-3.85255
 20
-20.8129
 11
-3.64484
 21
-20.5773
  0
LINE
  8
0
 10
-3.64484
 20
-20.5773
 11
-3.42273
 21
-20.3551
  0
LINE
  8
0
 10
-3.42273
 20
-20.3551
 11
-3.18712
 21
-20.1474
  0
LINE
  8
0
 10
-3.18712
 20
-20.1474
 11
-2.93892
 21
-19.9549
  0
LINE
  8
0
 10
-2.93892
 20
-19.9549
 11
-2.67912
 21
-19.7784
  0
LINE
  8
0
 10
-2.67912
 20
-19.7784
 11
-2.40877
 21
-19.6185
  0
LINE
  8
0
 10
-2.40877
 20
-19.6185
 11
-2.12889
 21
-19.4759
  0
LINE
  8
0
 10
-2.12889
 20
-19.4759
 11
-1.84062
 21
-19.3511
  0
LINE
  8
0
 10
-1.84062
 20
-19.3511
 11
-1.54507
 21
-19.2447
  0
LINE
  8
0
 10
-1.54507
 20
-19.2447
 11
-1.24344
 21
-19.1571
  0
LINE
  8
0
 10
-1.24344
 20
-19.1571
 11
-0.936905
 21
-19.0886
  0
LINE
  8
0
 10
-0.936905
 20
-19.0886
 11
-0.626663
 21
-19.0394
  0
LINE
  8
0
 10
-0.626663
 20
-19.0394
 11
-0.31395
 21
-19.0099
  0
LINE
  8
0
 10
-0.31395
 20
-19.0099
 11
0
 21
-19
  0
LINE
  8
0
 10
0
 20
-19
 11
0.31395
 21
-19.0099
  0
LINE
  8
0
 10
0.31395
 20
-19.0099
 11
0.626663
 21
-19.0394
  0
LINE
  8
0
 10
0.626663
 20
-19.0394
 11
0.936905
 21
-19.0886
  0
LINE
  8
0
 10
0.936905
 20
-19.0886
 11
1.24344
 21
-19.1571
  0
LINE
  8
0
 10
1.24344
 20
-19.1571
 11
1.54507
 21
-19.2447
  0
LINE
  8
0
 10
1.54507
 20
-19.2447
 11
1.84062
 21
-19.3511
  0
LINE
  8
0
 10
1.84062
 20
-19.3511
 11
2.12889
 21
-19.4759
  0
LINE
  8
0
 10
2.12889
 20
-19.4759
 11
2.40877
 21
-19.6185
  0
LINE
  8
0
 10
2.40877
 20
-19.6185
 11
2.67912
 21
-19.7784
  0
LINE
  8
0
 10
2.67912
 20
-19.7784
 11
2.93892
 21
-19.9549
  0
LINE
  8
0
 10
2.93892
 20
-19.9549
 11
3.18712
 21
-20.1474
  0
LINE
  8
0
 10
3.18712
 20
-20.1474
 11
3.42273
 21
-20.3551
  0
LINE
  8
0
 10
3.42273
 20
-20.3551
 11
3.64484
 21
-20.5773
  0
LINE
  8
0
 10
3.64484
 20
-20.5773
 11
3.85255
 21
-20.8129
  0
LINE
  8
0
 10
3.85255
 20
-20.8129
 11
4.04507
 21
-21.0611
  0
LINE
  8
0
 10
4.04507
 20
-21.0611
 11
4.22163
 21
-21.3209
  0
LINE
  8
0
 10
4.22163
 20
-21.3209
 11
4.38153
 21
-21.5912
  0
LINE
  8
0
 10
4.38153
 20
-21.5912
 11
4.52412
 21
-21.8711
  0
LINE
  8
0
 10
4.52412
 20
-21.8711
 11
4.64888
 21
-22.1594
  0
LINE
  8
0
 10
4.64888
 20
-22.1594
 11
4.75528
 21
-22.4549
  0
LINE
  8
0
 10
4.75528
 20
-22.4549
 11
4.84291
 21
-22.7565
  0
LINE
  8
0
 10
4.84291
 20
-22.7565
 11
4.91142
 21
-23.0631
  0
LINE
  8
0
 10
4.91142
 20
-23.0631
 11
4.96057
 21
-23.3733
  0
LINE
  8
0
 10
4.96057
 20
-23.3733
 11
4.99013
 21
-23.686
  0
LINE
  8
0
 10
4.99013
 20
-23.686
 11
5
 21
-24
  0
LINE
  8
0
 10
5
 20
-24
 11
5
 21
-44
  0
LINE
  8
0
 10
5
 20
-44
 11
22.5
 21
-44
  0
LINE
  8
0
 10
22.5
 20
-44
 11
24.4134
 21
-43.6194
  0
LINE
  8
0
 10
24.4134
 20
-43.6194
 11
26.0355
 21
-42.5355
  0
LINE
  8
0
 10
26.0355
 20
-42.5355
 11
27.1194
 21
-40.9134
  0
LINE
  8
0
 10
27.1194
 20
-40.9134
 11
27.5
 21
-39
  0
LINE
  8
0
 10
27.5
 20
-39
 11
27.5
 21
39
  0
LINE
  8
0
 10
27.5
 20
39
 11
27.1194
 21
40.9134
  0
LINE
  8
0
 10
27.1194
 20
40.9134
 11
26.0355
 21
42.5355
  0
LINE
  8
0
 10
26.0355
 20
42.5355
 11
24.4134
 21
43.6194
  0
LINE
  8
0
 10
24.4134
 20
43.6194
 11
22.5
 21
44
  0
LINE
  8
0
 10
22.5
 20
44
 11
-22.5
 21
44
  0
LINE
  8
0
 10
-22.5
 20
44
 11
-24.4134
 21
43.6194
  0
LINE
  8
0
 10
-24.4134
 20
43.6194
 11
-26.0355
 21
42.5355
  0
LINE
  8
0
 10
-26.0355
 20
42.5355
 11
-27.1194
 21
40.9134
  0
LINE
  8
0
 10
-27.1194
 20
40.9134
 11
-27.5
 21
39
  0
LINE
  8
0
 10
-27.5
 20
39
 11
-27.5
 21
-39
  0
LINE
  8
0
 10
-27.5
 20
-39
 11
-27.1194
 21
-40.9134
  0
LINE
  8
0
 10
-27.1194
 20
-40.9134
 11
-26.0355
 21
-42.5355
  0
LINE
  8
0
 10
-26.0355
 20
-42.5355
 11
-24.4134
 21
-43.6194
  0
LINE
  8
0
 10
-24.4134
 20
-43.6194
 11
-22.5
 21
-44
  0
LINE
  8
0
 10
-22.5
 20
-44
 11
-5
 21
-44
  0
LINE
  8
0
 10
-5
 20
-44
 11
-5
 21
-24
  0
LINE
  8
0
 10
19.7802
 20
28.0069
 11
19.5613
 21
28.0276
  0
LINE
  8
0
 10
19.5613
 20
28.0276
 11
19.3442
 21
28.062
  0
LINE
  8
0
 10
19.3442
 20
28.062
 11
19.1296
 21
28.11
  0
LINE
  8
0
 10
19.1296
 20
28.11
 11
18.9184
 21
28.1713
  0
LINE
  8
0
 10
18.9184
 20
28.1713
 11
18.7116
 21
28.2458
  0
LINE
  8
0
 10
18.7116
 20
28.2458
 11
18.5098
 21
28.3331
  0
LINE
  8
0
 10
18.5098
 20
28.3331
 11
18.3139
 21
28.4329
  0
LINE
  8
0
 10
18.3139
 20
28.4329
 11
18.1246
 21
28.5448
  0
LINE
  8
0
 10
18.1246
 20
28.5448
 11
17.9427
 21
28.6684
  0
LINE
  8
0
 10
17.9427
 20
28.6684
 11
17.769
 21
28.8032
  0
LINE
  8
0
 10
17.769
 20
28.8032
 11
17.6041
 21
28.9486
  0
LINE
  8
0
 10
17.6041
 20
28.9486
 11
17.4486
 21
29.1041
  0
LINE
  8
0
 10
17.4486
 20
29.1041
 11
17.3032
 21
29.269
  0
LINE
  8
0
 10
17.3032
 20
29.269
 11
17.1684
 21
29.4427
  0
LINE
  8
0
 10
17.1684
 20
29.4427
 11
17.0448
 21
29.6246
  0
LINE
  8
0
 10
17.0448
 20
29.6246
 11
16.9329
 21
29.8139
  0
LINE
  8
0
 10
16.9329
 20
29.8139
 11
16.8331
 21
30.0098
  0
LINE
  8
0
 10
16.8331
 20
30.0098
 11
16.7458
 21
30.2116
  0
LINE
  8
0
 10
16.7458
 20
30.2116
 11
16.6713
 21
30.4184
  0
LINE
  8
0
 10
16.6713
 20
30.4184
 11
16.61
 21
30.6296
  0
LINE
  8
0
 10
16.61
 20
30.6296
 11
16.562
 21
30.8442
  0
LINE
  8
0
 10
16.562
 20
30.8442
 11
16.5276
 21
31.0613
  0
LINE
  8
0
 10
16.5276
 20
31.0613
 11
16.5069
 21
31.2802
  0
LINE
  8
0
 10
16.5069
 20
31.2802
 11
16.5
 21
31.5
  0
LINE
  8
0
 10
16.5
 20
31.5
 11
16.5
 21
36.5
  0
LINE
  8
0
 10
16.5
 20
36.5
 11
16.5069
 21
36.7198
  0
LINE
  8
0
 10
16.5069
 20
36.7198
 11
16.5276
 21
36.9387
  0
LINE
  8
0
 10
16.5276
 20
36.9387
 11
16.562
 21
37.1558
  0
LINE
  8
0
 10
16.562
 20
37.1558
 11
16.61
 21
37.3704
  0
LINE
  8
0
 10
16.61
 20
37.3704
 11
16.6713
 21
37.5816
  0
LINE
  8
0
 10
16.6713
 20
37.5816
 11
16.7458
 21
37.7884
  0
LINE
  8
0
 10
16.7458
 20
37.7884
 11
16.8331
 21
37.9902
  0
LINE
  8
0
 10
16.8331
 20
37.9902
 11
16.9329
 21
38.1861
  0
LINE
  8
0
 10
16.9329
 20
38.1861
 11
17.0448
 21
38.3754
  0
LINE
  8
0
 10
17.0448
 20
38.3754
 11
17.1684
 21
38.5572
  0
LINE
  8
0
 10
17.1684
 20
38.5572
 11
17.3032
 21
38.731
  0
LINE
  8
0
 10
17.3032
 20
38.731
 11
17.4486
 21
38.8959
  0
LINE
  8
0
 10
17.4486
 20
38.8959
 11
17.6041
 21
39.0514
  0
LINE
  8
0
 10
17.6041
 20
39.0514
 11
17.769
 21
39.1968
  0
LINE
  8
0
 10
17.769
 20
39.1968
 11
17.9427
 21
39.3316
  0
LINE
  8
0
 10
17.9427
 20
39.3316
 11
18.1246
 21
39.4551
  0
LINE
  8
0
 10
18.1246
 20
39.4551
 11
18.3139
 21
39.5671
  0
LINE
  8
0
 10
18.3139
 20
39.5671
 11
18.5098
 21
39.6669
  0
LINE
  8
0
 10
18.5098
 20
39.6669
 11
18.7116
 21
39.7542
  0
LINE
  8
0
 10
18.7116
 20
39.7542
 11
18.9184
 21
39.8287
  0
LINE
  8
0
 10
18.9184
 20
39.8287
 11
19.1296
 21
39.89
  0
LINE
  8
0
 10
19.1296
 20
39.89
 11
19.3442
 21
39.938
  0
LINE
  8
0
 10
19.3442
 20
39.938
 11
19.5613
 21
39.9724
  0
LINE
  8
0
 10
19.5613
 20
39.9724
 11
19.7802
 21
39.9931
  0
LINE
  8
0
 10
19.7802
 20
39.9931
 11
20
 21
40
  0
LINE
  8
0
 10
20
 20
40
 11
20.2198
 21
39.9931
  0
LINE
  8
0
 10
20.2198
 20
39.9931
 11
20.4387
 21
39.9724
  0
LINE
  8
0
 10
20.4387
 20
39.9724
 11
20.6558
 21
39.938
  0
LINE
  8
0
 10
20.6558
 20
39.938
 11
20.8704
 21
39.89
  0
LINE
  8
0
 10
20.8704
 20
39.89
 11
21.0816
 21
39.8287
  0
LINE
  8
0
 10
21.0816
 20
39.8287
 11
21.2884
 21
39.7542
  0
LINE
  8
0
 10
21.2884
 20
39.7542
 11
21.4902
 21
39.6669
  0
LINE
  8
0
 10
21.4902
 20
39.6669
 11
21.6861
 21
39.5671
  0
LINE
  8
0
 10
21.6861
 20
39.5671
 11
21.8754
 21
39.4551
  0
LINE
  8
0
 10
21.8754
 20
39.4551
 11
22.0572
 21
39.3316
  0
LINE
  8
0
 10
22.0572
 20
39.3316
 11
22.231
 21
39.1968
  0
LINE
  8
0
 10
22.231
 20
39.1968
 11
22.3959
 21
39.0514
  0
LINE
  8
0
 10
22.3959
 20
39.0514
 11
22.5514
 21
38.8959
  0
LINE
  8
0
 10
22.5514
 20
38.8959
 11
22.6968
 21
38.731
  0
LINE
  8
0
 10
22.6968
 20
38.731
 11
22.8316
 21
38.5572
  0
LINE
  8
0
 10
22.8316
 20
38.5572
 11
22.9551
 21
38.3754
  0
LINE
  8
0
 10
22.9551
 20
38.3754
 11
23.0671
 21
38.1861
  0
LINE
  8
0
 10
23.0671
 20
38.1861
 11
23.1669
 21
37.9902
  0
LINE
  8
0
 10
23.1669
 20
37.9902
 11
23.2542
 21
37.7884
  0
LINE
  8
0
 10
23.2542
 20
37.7884
 11
23.3287
 21
37.5816
  0
LINE
  8
0
 10
23.3287
 20
37.5816
 11
23.39
 21
37.3704
  0
LINE
  8
0
 10
23.39
 20
37.3704
 11
23.438
 21
37.1558
  0
LINE
  8
0
 10
23.438
 20
37.1558
 11
23.4724
 21
36.9387
  0
LINE
  8
0
 10
23.4724
 20
36.9387
 11
23.4931
 21
36.7198
  0
LINE
  8
0
 10
23.4931
 20
36.7198
 11
23.5
 21
36.5
  0
LINE
  8
0
 10
23.5
 20
36.5
 11
23.5
 21
31.5
  0
LINE
  8
0
 10
23.5
 20
31.5
 11
23.4931
 21
31.2802
  0
LINE
  8
0
 10
23.4931
 20
31.2802
 11
23.4724
 21
31.0613
  0
LINE
  8
0
 10
23.4724
 20
31.0613
 11
23.438
 21
30.8442
  0
LINE
  8
0
 10
23.438
 20
30.8442
 11
23.39
 21
30.6296
  0
LINE
  8
0
 10
23.39
 20
30.6296
 11
23.3287
 21
30.4184
  0
LINE
  8
0
 10
23.3287
 20
30.4184
 11
23.2542
 21
30.2116
  0
LINE
  8
0
 10
23.2542
 20
30.2116
 11
23.1669
 21
30.0098
  0
LINE
  8
0
 10
23.1669
 20
30.0098
 11
23.0671
 21
29.8139
  0
LINE
  8
0
 10
23.0671
 20
29.8139
 11
22.9551
 21
29.6246
  0
LINE
  8
0
 10
22.9551
 20
29.6246
 11
22.8316
 21
29.4427
  0
LINE
  8
0
 10
22.8316
 20
29.4427
 11
22.6968
 21
29.269
  0
LINE
  8
0
 10
22.6968
 20
29.269
 11
22.5514
 21
29.1041
  0
LINE
  8
0
 10
22.5514
 20
29.1041
 11
22.3959
 21
28.9486
  0
LINE
  8
0
 10
22.3959
 20
28.9486
 11
22.231
 21
28.8032
  0
LINE
  8
0
 10
22.231
 20
28.8032
 11
22.0572
 21
28.6684
  0
LINE
  8
0
 10
22.0572
 20
28.6684
 11
21.8754
 21
28.5448
  0
LINE
  8
0
 10
21.8754
 20
28.5448
 11
21.6861
 21
28.4329
  0
LINE
  8
0
 10
21.6861
 20
28.4329
 11
21.4902
 21
28.3331
  0
LINE
  8
0
 10
21.4902
 20
28.3331
 11
21.2884
 21
28.2458
  0
LINE
  8
0
 10
21.2884
 20
28.2458
 11
21.0816
 21
28.1713
  0
LINE
  8
0
 10
21.0816
 20
28.1713
 11
20.8704
 21
28.11
  0
LINE
  8
0
 10
20.8704
 20
28.11
 11
20.6558
 21
28.062
  0
LINE
  8
0
 10
20.6558
 20
28.062
 11
20.4387
 21
28.0276
  0
LINE
  8
0
 10
20.4387
 20
28.0276
 11
20.2198
 21
28.0069
  0
LINE
  8
0
 10
20.2198
 20
28.0069
 11
20
 21
28
  0
LINE
  8
0
 10
20
 20
28
 11
19.7802
 21
28.0069
  0
LINE
  8
0
 10
-20.2198
 20
28.0069
 11
-20.4387
 21
28.0276
  0
LINE
  8
0
 10
-20.4387
 20
28.0276
 11
-20.6558
 21
28.062
  0
LINE
  8
0
 10
-20.6558
 20
28.062
 11
-20.8704
 21
28.11
  0
LINE
  8
0
 10
-20.8704
 20
28.11
 11
-21.0816
 21
28.1713
  0
LINE
  8
0
 10
-21.0816
 20
28.1713
 11
-21.2884
 21
28.2458
  0
LINE
  8
0
 10
-21.2884
 20
28.2458
 11
-21.4902
 21
28.3331
  0
LINE
  8
0
 10
-21.4902
 20
28.3331
 11
-21.6861
 21
28.4329
  0
LINE
  8
0
 10
-21.6861
 20
28.4329
 11
-21.8754
 21
28.5448
  0
LINE
  8
0
 10
-21.8754
 20
28.5448
 11
-22.0572
 21
28.6684
  0
LINE
  8
0
 10
-22.0572
 20
28.6684
 11
-22.231
 21
28.8032
  0
LINE
  8
0
 10
-22.231
 20
28.8032
 11
-22.3959
 21
28.9486
  0
LINE
  8
0
 10
-22.3959
 20
28.9486
 11
-22.5514
 21
29.1041
  0
LINE
  8
0
 10
-22.5514
 20
29.1041
 11
-22.6968
 21
29.269
  0
LINE
  8
0
 10
-22.6968
 20
29.269
 11
-22.8316
 21
29.4427
  0
LINE
  8
0
 10
-22.8316
 20
29.4427
 11
-22.9551
 21
29.6246
  0
LINE
  8
0
 10
-22.9551
 20
29.6246
 11
-23.0671
 21
29.8139
  0
LINE
  8
0
 10
-23.0671
 20
29.8139
 11
-23.1669
 21
30.0098
  0
LINE
  8
0
 10
-23.1669
 20
30.0098
 11
-23.2542
 21
30.2116
  0
LINE
  8
0
 10
-23.2542
 20
30.2116
 11
-23.3287
 21
30.4184
  0
LINE
  8
0
 10
-23.3287
 20
30.4184
 11
-23.39
 21
30.6296
  0
LINE
  8
0
 10
-23.39
 20
30.6296
 11
-23.438
 21
30.8442
  0
LINE
  8
0
 10
-23.438
 20
30.8442
 11
-23.4724
 21
31.0613
  0
LINE
  8
0
 10
-23.4724
 20
31.0613
 11
-23.4931
 21
31.2802
  0
LINE
  8
0
 10
-23.4931
 20
31.2802
 11
-23.5
 21
31.5
  0
LINE
  8
0
 10
-23.5
 20
31.5
 11
-23.5
 21
36.5
  0
LINE
  8
0
 10
-23.5
 20
36.5
 11
-23.4931
 21
36.7198
  0
LINE
  8
0
 10
-23.4931
 20
36.7198
 11
-23.4724
 21
36.9387
  0
LINE
  8
0
 10
-23.4724
 20
36.9387
 11
-23.438
 21
37.1558
  0
LINE
  8
0
 10
-23.438
 20
37.1558
 11
-23.39
 21
37.3704
  0
LINE
  8
0
 10
-23.39
 20
37.3704
 11
-23.3287
 21
37.5816
  0
LINE
  8
0
 10
-23.3287
 20
37.5816
 11
-23.2542
 21
37.7884
  0
LINE
  8
0
 10
-23.2542
 20
37.7884
 11
-23.1669
 21
37.9902
  0
LINE
  8
0
 10
-23.1669
 20
37.9902
 11
-23.0671
 21
38.1861
  0
LINE
  8
0
 10
-23.0671
 20
38.1861
 11
-22.9551
 21
38.3754
  0
LINE
  8
0
 10
-22.9551
 20
38.3754
 11
-22.8316
 21
38.5572
  0
LINE
  8
0
 10
-22.8316
 20
38.5572
 11
-22.6968
 21
38.731
  0
LINE
  8
0
 10
-22.6968
 20
38.731
 11
-22.5514
 21
38.8959
  0
LINE
  8
0
 10
-22.5514
 20
38.8959
 11
-22.3959
 21
39.0514
  0
LINE
  8
0
 10
-22.3959
 20
39.0514
 11
-22.231
 21
39.1968
  0
LINE
  8
0
 10
-22.231
 20
39.1968
 11
-22.0572
 21
39.3316
  0
LINE
  8
0
 10
-22.0572
 20
39.3316
 11
-21.8754
 21
39.4551
  0
LINE
  8
0
 10
-21.8754
 20
39.4551
 11
-21.6861
 21
39.5671
  0
LINE
  8
0
 10
-21.6861
 20
39.5671
 11
-21.4902
 21
39.6669
  0
LINE
  8
0
 10
-21.4902
 20
39.6669
 11
-21.2884
 21
39.7542
  0
LINE
  8
0
 10
-21.2884
 20
39.7542
 11
-21.0816
 21
39.8287
  0
LINE
  8
0
 10
-21.0816
 20
39.8287
 11
-20.8704
 21
39.89
  0
LINE
  8
0
 10
-20.8704
 20
39.89
 11
-20.6558
 21
39.938
  0
LINE
  8
0
 10
-20.6558
 20
39.938
 11
-20.4387
 21
39.9724
  0
LINE
  8
0
 10
-20.4387
 20
39.9724
 11
-20.2198
 21
39.9931
  0
LINE
  8
0
 10
-20.2198
 20
39.9931
 11
-20
 21
40
  0
LINE
  8
0
 10
-20
 20
40
 11
-19.7802
 21
39.9931
  0
LINE
  8
0
 10
-19.7802
 20
39.9931
 11
-19.5613
 21
39.9724
  0
LINE
  8
0
 10
-19.5613
 20
39.9724
 11
-19.3442
 21
39.938
  0
LINE
  8
0
 10
-19.3442
 20
39.938
 11
-19.1296
 21
39.89
  0
LINE
  8
0
 10
-19.1296
 20
39.89
 11
-18.9184
 21
39.8287
  0
LINE
  8
0
 10
-18.9184
 20
39.8287
 11
-18.7116
 21
39.7542
  0
LINE
  8
0
 10
-18.7116
 20
39.7542
 11
-18.5098
 21
39.6669
  0
LINE
  8
0
 10
-18.5098
 20
39.6669
 11
-18.3139
 21
39.5671
  0
LINE
  8
0
 10
-18.3139
 20
39.5671
 11
-18.1246
 21
39.4551
  0
LINE
  8
0
 10
-18.1246
 20
39.4551
 11
-17.9427
 21
39.3316
  0
LINE
  8
0
 10
-17.9427
 20
39.3316
 11
-17.769
 21
39.1968
  0
LINE
  8
0
 10
-17.769
 20
39.1968
 11
-17.6041
 21
39.0514
  0
LINE
  8
0
 10
-17.6041
 20
39.0514
 11
-17.4486
 21
38.8959
  0
LINE
  8
0
 10
-17.4486
 20
38.8959
 11
-17.3032
 21
38.731
  0
LINE
  8
0
 10
-17.3032
 20
38.731
 11
-17.1684
 21
38.5572
  0
LINE
  8
0
 10
-17.1684
 20
38.5572
 11
-17.0448
 21
38.3754
  0
LINE
  8
0
 10
-17.0448
 20
38.3754
 11
-16.9329
 21
38.1861
  0
LINE
  8
0
 10
-16.9329
 20
38.1861
 11
-16.8331
 21
37.9902
  0
LINE
  8
0
 10
-16.8331
 20
37.9902
 11
-16.7458
 21
37.7884
  0
LINE
  8
0
 10
-16.7458
 20
37.7884
 11
-16.6713
 21
37.5816
  0
LINE
  8
0
 10
-16.6713
 20
37.5816
 11
-16.61
 21
37.3704
  0
LINE
  8
0
 10
-16.61
 20
37.3704
 11
-16.562
 21
37.1558
  0
LINE
  8
0
 10
-16.562
 20
37.1558
 11
-16.5276
 21
36.9387
  0
LINE
  8
0
 10
-16.5276
 20
36.9387
 11
-16.5069
 21
36.7198
  0
LINE
  8
0
 10
-16.5069
 20
36.7198
 11
-16.5
 21
36.5
  0
LINE
  8
0
 10
-16.5
 20
36.5
 11
-16.5
 21
31.5
  0
LINE
  8
0
 10
-16.5
 20
31.5
 11
-16.5069
 21
31.2802
  0
LINE
  8
0
 10
-16.5069
 20
31.2802
 11
-16.5276
 21
31.0613
  0
LINE
  8
0
 10
-16.5276
 20
31.0613
 11
-16.562
 21
30.8442
  0
LINE
  8
0
 10
-16.562
 20
30.8442
 11
-16.61
 21
30.6296
  0
LINE
  8
0
 10
-16.61
 20
30.6296
 11
-16.6713
 21
30.4184
  0
LINE
  8
0
 10
-16.6713
 20
30.4184
 11
-16.7458
 21
30.2116
  0
LINE
  8
0
 10
-16.7458
 20
30.2116
 11
-16.8331
 21
30.0098
  0
LINE
  8
0
 10
-16.8331
 20
30.0098
 11
-16.9329
 21
29.8139
  0
LINE
  8
0
 10
-16.9329
 20
29.8139
 11
-17.0448
 21
29.6246
  0
LINE
  8
0
 10
-17.0448
 20
29.6246
 11
-17.1684
 21
29.4427
  0
LINE
  8
0
 10
-17.1684
 20
29.4427
 11
-17.3032
 21
29.269
  0
LINE
  8
0
 10
-17.3032
 20
29.269
 11
-17.4486
 21
29.1041
  0
LINE
  8
0
 10
-17.4486
 20
29.1041
 11
-17.6041
 21
28.9486
  0
LINE
  8
0
 10
-17.6041
 20
28.9486
 11
-17.769
 21
28.8032
  0
LINE
  8
0
 10
-17.769
 20
28.8032
 11
-17.9427
 21
28.6684
  0
LINE
  8
0
 10
-17.9427
 20
28.6684
 11
-18.1246
 21
28.5448
  0
LINE
  8
0
 10
-18.1246
 20
28.5448
 11
-18.3139
 21
28.4329
  0
LINE
  8
0
 10
-18.3139
 20
28.4329
 11
-18.5098
 21
28.3331
  0
LINE
  8
0
 10
-18.5098
 20
28.3331
 11
-18.7116
 21
28.2458
  0
LINE
  8
0
 10
-18.7116
 20
28.2458
 11
-18.9184
 21
28.1713
  0
LINE
  8
0
 10
-18.9184
 20
28.1713
 11
-19.1296
 21
28.11
  0
LINE
  8
0
 10
-19.1296
 20
28.11
 11
-19.3442
 21
28.062
  0
LINE
  8
0
 10
-19.3442
 20
28.062
 11
-19.5613
 21
28.0276
  0
LINE
  8
0
 10
-19.5613
 20
28.0276
 11
-19.7802
 21
28.0069
  0
LINE
  8
0
 10
-19.7802
 20
28.0069
 11
-20
 21
28
  0
LINE
  8
0
 10
-20
 20
28
 11
-20.2198
 21
28.0069
  0
LINE
  8
0
 10
-8
 20
29
 11
-8
 21
31
  0
LINE
  8
0
 10
-8
 20
31
 11
8
 21
31
  0
LINE
  8
0
 10
8
 20
31
 11
8
 21
29
  0
LINE
  8
0
 10
8
 20
29
 11
-8
 21
29
  0
LINE
  8
0
 10
-20.157
 20
18.5049
 11
-20.3133
 21
18.5197
  0
LINE
  8
0
 10
-20.3133
 20
18.5197
 11
-20.4684
 21
18.5443
  0
LINE
  8
0
 10
-20.4684
 20
18.5443
 11
-20.6217
 21
18.5785
  0
LINE
  8
0
 10
-20.6217
 20
18.5785
 11
-20.7725
 21
18.6223
  0
LINE
  8
0
 10
-20.7725
 20
18.6223
 11
-20.9203
 21
18.6756
  0
LINE
  8
0
 10
-20.9203
 20
18.6756
 11
-21.0644
 21
18.7379
  0
LINE
  8
0
 10
-21.0644
 20
18.7379
 11
-21.2044
 21
18.8092
  0
LINE
  8
0
 10
-21.2044
 20
18.8092
 11
-21.3396
 21
18.8892
  0
LINE
  8
0
 10
-21.3396
 20
18.8892
 11
-21.4695
 21
18.9774
  0
LINE
  8
0
 10
-21.4695
 20
18.9774
 11
-21.5936
 21
19.0737
  0
LINE
  8
0
 10
-21.5936
 20
19.0737
 11
-21.7114
 21
19.1776
  0
LINE
  8
0
 10
-21.7114
 20
19.1776
 11
-21.8224
 21
19.2886
  0
LINE
  8
0
 10
-21.8224
 20
19.2886
 11
-21.9263
 21
19.4064
  0
LINE
  8
0
 10
-21.9263
 20
19.4064
 11
-22.0225
 21
19.5305
  0
LINE
  8
0
 10
-22.0225
 20
19.5305
 11
-22.1108
 21
19.6604
  0
LINE
  8
0
 10
-22.1108
 20
19.6604
 11
-22.1908
 21
19.7956
  0
LINE
  8
0
 10
-22.1908
 20
19.7956
 11
-22.2621
 21
19.9355
  0
LINE
  8
0
 10
-22.2621
 20
19.9355
 11
-22.3244
 21
20.0797
  0
LINE
  8
0
 10
-22.3244
 20
20.0797
 11
-22.3776
 21
20.2274
  0
LINE
  8
0
 10
-22.3776
 20
20.2274
 11
-22.4214
 21
20.3783
  0
LINE
  8
0
 10
-22.4214
 20
20.3783
 11
-22.4557
 21
20.5315
  0
LINE
  8
0
 10
-22.4557
 20
20.5315
 11
-22.4803
 21
20.6867
  0
LINE
  8
0
 10
-22.4803
 20
20.6867
 11
-22.4951
 21
20.843
  0
LINE
  8
0
 10
-22.4951
 20
20.843
 11
-22.5
 21
21
  0
LINE
  8
0
 10
-22.5
 20
21
 11
-22.4951
 21
21.157
  0
LINE
  8
0
 10
-22.4951
 20
21.157
 11
-22.4803
 21
21.3133
  0
LINE
  8
0
 10
-22.4803
 20
21.3133
 11
-22.4557
 21
21.4684
  0
LINE
  8
0
 10
-22.4557
 20
21.4684
 11
-22.4214
 21
21.6217
  0
LINE
  8
0
 10
-22.4214
 20
21.6217
 11
-22.3776
 21
21.7725
  0
LINE
  8
0
 10
-22.3776
 20
21.7725
 11
-22.3244
 21
21.9203
  0
LINE
  8
0
 10
-22.3244
 20
21.9203
 11
-22.2621
 21
22.0644
  0
LINE
  8
0
 10
-22.2621
 20
22.0644
 11
-22.1908
 21
22.2044
  0
LINE
  8
0
 10
-22.1908
 20
22.2044
 11
-22.1108
 21
22.3396
  0
LINE
  8
0
 10
-22.1108
 20
22.3396
 11
-22.0225
 21
22.4695
  0
LINE
  8
0
 10
-22.0225
 20
22.4695
 11
-21.9263
 21
22.5936
  0
LINE
  8
0
 10
-21.9263
 20
22.5936
 11
-21.8224
 21
22.7114
  0
LINE
  8
0
 10
-21.8224
 20
22.7114
 11
-21.7114
 21
22.8224
  0
LINE
  8
0
 10
-21.7114
 20
22.8224
 11
-21.5936
 21
22.9263
  0
LINE
  8
0
 10
-21.5936
 20
22.9263
 11
-21.4695
 21
23.0225
  0
LINE
  8
0
 10
-21.4695
 20
23.0225
 11
-21.3396
 21
23.1108
  0
LINE
  8
0
 10
-21.3396
 20
23.1108
 11
-21.2044
 21
23.1908
  0
LINE
  8
0
 10
-21.2044
 20
23.1908
 11
-21.0644
 21
23.2621
  0
LINE
  8
0
 10
-21.0644
 20
23.2621
 11
-20.9203
 21
23.3244
  0
LINE
  8
0
 10
-20.9203
 20
23.3244
 11
-20.7725
 21
23.3776
  0
LINE
  8
0
 10
-20.7725
 20
23.3776
 11
-20.6217
 21
23.4214
  0
LINE
  8
0
 10
-20.6217
 20
23.4214
 11
-20.4684
 21
23.4557
  0
LINE
  8
0
 10
-20.4684
 20
23.4557
 11
-20.3133
 21
23.4803
  0
LINE
  8
0
 10
-20.3133
 20
23.4803
 11
-20.157
 21
23.4951
  0
LINE
  8
0
 10
-20.157
 20
23.4951
 11
-20
 21
23.5
  0
LINE
  8
0
 10
-20
 20
23.5
 11
-19.843
 21
23.4951
  0
LINE
  8
0
 10
-19.843
 20
23.4951
 11
-19.6867
 21
23.4803
  0
LINE
  8
0
 10
-19.6867
 20
23.4803
 11
-19.5315
 21
23.4557
  0
LINE
  8
0
 10
-19.5315
 20
23.4557
 11
-19.3783
 21
23.4214
  0
LINE
  8
0
 10
-19.3783
 20
23.4214
 11
-19.2274
 21
23.3776
  0
LINE
  8
0
 10
-19.2274
 20
23.3776
 11
-19.0797
 21
23.3244
  0
LINE
  8
0
 10
-19.0797
 20
23.3244
 11
-18.9355
 21
23.2621
  0
LINE
  8
0
 10
-18.9355
 20
23.2621
 11
-18.7956
 21
23.1908
  0
LINE
  8
0
 10
-18.7956
 20
23.1908
 11
-18.6604
 21
23.1108
  0
LINE
  8
0
 10
-18.6604
 20
23.1108
 11
-18.5305
 21
23.0225
  0
LINE
  8
0
 10
-18.5305
 20
23.0225
 11
-18.4064
 21
22.9263
  0
LINE
  8
0
 10
-18.4064
 20
22.9263
 11
-18.2886
 21
22.8224
  0
LINE
  8
0
 10
-18.2886
 20
22.8224
 11
-18.1776
 21
22.7114
  0
LINE
  8
0
 10
-18.1776
 20
22.7114
 11
-18.0737
 21
22.5936
  0
LINE
  8
0
 10
-18.0737
 20
22.5936
 11
-17.9774
 21
22.4695
  0
LINE
  8
0
 10
-17.9774
 20
22.4695
 11
-17.8892
 21
22.3396
  0
LINE
  8
0
 10
-17.8892
 20
22.3396
 11
-17.8092
 21
22.2044
  0
LINE
  8
0
 10
-17.8092
 20
22.2044
 11
-17.7379
 21
22.0644
  0
LINE
  8
0
 10
-17.7379
 20
22.0644
 11
-17.6756
 21
21.9203
  0
LINE
  8
0
 10
-17.6756
 20
21.9203
 11
-17.6223
 21
21.7725
  0
LINE
  8
0
 10
-17.6223
 20
21.7725
 11
-17.5785
 21
21.6217
  0
LINE
  8
0
 10
-17.5785
 20
21.6217
 11
-17.5443
 21
21.4684
  0
LINE
  8
0
 10
-17.5443
 20
21.4684
 11
-17.5197
 21
21.3133
  0
LINE
  8
0
 10
-17.5197
 20
21.3133
 11
-17.5049
 21
21.157
  0
LINE
  8
0
 10
-17.5049
 20
21.157
 11
-17.5
 21
21
  0
LINE
  8
0
 10
-17.5
 20
21
 11
-17.5049
 21
20.843
  0
LINE
  8
0
 10
-17.5049
 20
20.843
 11
-17.5197
 21
20.6867
  0
LINE
  8
0
 10
-17.5197
 20
20.6867
 11
-17.5443
 21
20.5315
  0
LINE
  8
0
 10
-17.5443
 20
20.5315
 11
-17.5785
 21
20.3783
  0
LINE
  8
0
 10
-17.5785
 20
20.3783
 11
-17.6223
 21
20.2274
  0
LINE
  8
0
 10
-17.6223
 20
20.2274
 11
-17.6756
 21
20.0797
  0
LINE
  8
0
 10
-17.6756
 20
20.0797
 11
-17.7379
 21
19.9355
  0
LINE
  8
0
 10
-17.7379
 20
19.9355
 11
-17.8092
 21
19.7956
  0
LINE
  8
0
 10
-17.8092
 20
19.7956
 11
-17.8892
 21
19.6604
  0
LINE
  8
0
 10
-17.8892
 20
19.6604
 11
-17.9774
 21
19.5305
  0
LINE
  8
0
 10
-17.9774
 20
19.5305
 11
-18.0737
 21
19.4064
  0
LINE
  8
0
 10
-18.0737
 20
19.4064
 11
-18.1776
 21
19.2886
  0
LINE
  8
0
 10
-18.1776
 20
19.2886
 11
-18.2886
 21
19.1776
  0
LINE
  8
0
 10
-18.2886
 20
19.1776
 11
-18.4064
 21
19.0737
  0
LINE
  8
0
 10
-18.4064
 20
19.0737
 11
-18.5305
 21
18.9774
  0
LINE
  8
0
 10
-18.5305
 20
18.9774
 11
-18.6604
 21
18.8892
  0
LINE
  8
0
 10
-18.6604
 20
18.8892
 11
-18.7956
 21
18.8092
  0
LINE
  8
0
 10
-18.7956
 20
18.8092
 11
-18.9355
 21
18.7379
  0
LINE
  8
0
 10
-18.9355
 20
18.7379
 11
-19.0797
 21
18.6756
  0
LINE
  8
0
 10
-19.0797
 20
18.6756
 11
-19.2274
 21
18.6223
  0
LINE
  8
0
 10
-19.2274
 20
18.6223
 11
-19.3783
 21
18.5785
  0
LINE
  8
0
 10
-19.3783
 20
18.5785
 11
-19.5315
 21
18.5443
  0
LINE
  8
0
 10
-19.5315
 20
18.5443
 11
-19.6867
 21
18.5197
  0
LINE
  8
0
 10
-19.6867
 20
18.5197
 11
-19.843
 21
18.5049
  0
LINE
  8
0
 10
-19.843
 20
18.5049
 11
-20
 21
18.5
  0
LINE
  8
0
 10
-20
 20
18.5
 11
-20.157
 21
18.5049
  0
LINE
  8
0
 10
19.843
 20
18.5049
 11
19.6867
 21
18.5197
  0
LINE
  8
0
 10
19.6867
 20
18.5197
 11
19.5315
 21
18.5443
  0
LINE
  8
0
 10
19.5315
 20
18.5443
 11
19.3783
 21
18.5785
  0
LINE
  8
0
 10
19.3783
 20
18.5785
 11
19.2274
 21
18.6223
  0
LINE
  8
0
 10
19.2274
 20
18.6223
 11
19.0797
 21
18.6756
  0
LINE
  8
0
 10
19.0797
 20
18.6756
 11
18.9355
 21
18.7379
  0
LINE
  8
0
 10
18.9355
 20
18.7379
 11
18.7956
 21
18.8092
  0
LINE
  8
0
 10
18.7956
 20
18.8092
 11
18.6604
 21
18.8892
  0
LINE
  8
0
 10
18.6604
 20
18.8892
 11
18.5305
 21
18.9774
  0
LINE
  8
0
 10
18.5305
 20
18.9774
 11
18.4064
 21
19.0737
  0
LINE
  8
0
 10
18.4064
 20
19.0737
 11
18.2886
 21
19.1776
  0
LINE
  8
0
 10
18.2886
 20
19.1776
 11
18.1776
 21
19.2886
  0
LINE
  8
0
 10
18.1776
 20
19.2886
 11
18.0737
 21
19.4064
  0
LINE
  8
0
 10
18.0737
 20
19.4064
 11
17.9774
 21
19.5305
  0
LINE
  8
0
 10
17.9774
 20
19.5305
 11
17.8892
 21
19.6604
  0
LINE
  8
0
 10
17.8892
 20
19.6604
 11
17.8092
 21
19.7956
  0
LINE
  8
0
 10
17.8092
 20
19.7956
 11
17.7379
 21
19.9355
  0
LINE
  8
0
 10
17.7379
 20
19.9355
 11
17.6756
 21
20.0797
  0
LINE
  8
0
 10
17.6756
 20
20.0797
 11
17.6223
 21
20.2274
  0
LINE
  8
0
 10
17.6223
 20
20.2274
 11
17.5785
 21
20.3783
  0
LINE
  8
0
 10
17.5785
 20
20.3783
 11
17.5443
 21
20.5315
  0
LINE
  8
0
 10
17.5443
 20
20.5315
 11
17.5197
 21
20.6867
  0
LINE
  8
0
 10
17.5197
 20
20.6867
 11
17.5049
 21
20.843
  0
LINE
  8
0
 10
17.5049
 20
20.843
 11
17.5
 21
21
  0
LINE
  8
0
 10
17.5
 20
21
 11
17.5049
 21
21.157
  0
LINE
  8
0
 10
17.5049
 20
21.157
 11
17.5197
 21
21.3133
  0
LINE
  8
0
 10
17.5197
 20
21.3133
 11
17.5443
 21
21.4684
  0
LINE
  8
0
 10
17.5443
 20
21.4684
 11
17.5785
 21
21.6217
  0
LINE
  8
0
 10
17.5785
 20
21.6217
 11
17.6223
 21
21.7725
  0
LINE
  8
0
 10
17.6223
 20
21.7725
 11
17.6756
 21
21.9203
  0
LINE
  8
0
 10
17.6756
 20
21.9203
 11
17.7379
 21
22.0644
  0
LINE
  8
0
 10
17.7379
 20
22.0644
 11
17.8092
 21
22.2044
  0
LINE
  8
0
 10
17.8092
 20
22.2044
 11
17.8892
 21
22.3396
  0
LINE
  8
0
 10
17.8892
 20
22.3396
 11
17.9774
 21
22.4695
  0
LINE
  8
0
 10
17.9774
 20
22.4695
 11
18.0737
 21
22.5936
  0
LINE
  8
0
 10
18.0737
 20
22.5936
 11
18.1776
 21
22.7114
  0
LINE
  8
0
 10
18.1776
 20
22.7114
 11
18.2886
 21
22.8224
  0
LINE
  8
0
 10
18.2886
 20
22.8224
 11
18.4064
 21
22.9263
  0
LINE
  8
0
 10
18.4064
 20
22.9263
 11
18.5305
 21
23.0225
  0
LINE
  8
0
 10
18.5305
 20
23.0225
 11
18.6604
 21
23.1108
  0
LINE
  8
0
 10
18.6604
 20
23.1108
 11
18.7956
 21
23.1908
  0
LINE
  8
0
 10
18.7956
 20
23.1908
 11
18.9355
 21
23.2621
  0
LINE
  8
0
 10
18.9355
 20
23.2621
 11
19.0797
 21
23.3244
  0
LINE
  8
0
 10
19.0797
 20
23.3244
 11
19.2274
 21
23.3776
  0
LINE
  8
0
 10
19.2274
 20
23.3776
 11
19.3783
 21
23.4214
  0
LINE
  8
0
 10
19.3783
 20
23.4214
 11
19.5315
 21
23.4557
  0
LINE
  8
0
 10
19.5315
 20
23.4557
 11
19.6867
 21
23.4803
  0
LINE
  8
0
 10
19.6867
 20
23.4803
 11
19.843
 21
23.4951
  0
LINE
  8
0
 10
19.843
 20
23.4951
 11
20
 21
23.5
  0
LINE
  8
0
 10
20
 20
23.5
 11
20.157
 21
23.4951
  0
LINE
  8
0
 10
20.157
 20
23.4951
 11
20.3133
 21
23.4803
  0
LINE
  8
0
 10
20.3133
 20
23.4803
 11
20.4684
 21
23.4557
  0
LINE
  8
0
 10
20.4684
 20
23.4557
 11
20.6217
 21
23.4214
  0
LINE
  8
0
 10
20.6217
 20
23.4214
 11
20.7725
 21
23.3776
  0
LINE
  8
0
 10
20.7725
 20
23.3776
 11
20.9203
 21
23.3244
  0
LINE
  8
0
 10
20.9203
 20
23.3244
 11
21.0644
 21
23.2621
  0
LINE
  8
0
 10
21.0644
 20
23.2621
 11
21.2044
 21
23.1908
  0
LINE
  8
0
 10
21.2044
 20
23.1908
 11
21.3396
 21
23.1108
  0
LINE
  8
0
 10
21.3396
 20
23.1108
 11
21.4695
 21
23.0225
  0
LINE
  8
0
 10
21.4695
 20
23.0225
 11
21.5936
 21
22.9263
  0
LINE
  8
0
 10
21.5936
 20
22.9263
 11
21.7114
 21
22.8224
  0
LINE
  8
0
 10
21.7114
 20
22.8224
 11
21.8224
 21
22.7114
  0
LINE
  8
0
 10
21.8224
 20
22.7114
 11
21.9263
 21
22.5936
  0
LINE
  8
0
 10
21.9263
 20
22.5936
 11
22.0225
 21
22.4695
  0
LINE
  8
0
 10
22.0225
 20
22.4695
 11
22.1108
 21
22.3396
  0
LINE
  8
0
 10
22.1108
 20
22.3396
 11
22.1908
 21
22.2044
  0
LINE
  8
0
 10
22.1908
 20
22.2044
 11
22.2621
 21
22.0644
  0
LINE
  8
0
 10
22.2621
 20
22.0644
 11
22.3244
 21
21.9203
  0
LINE
  8
0
 10
22.3244
 20
21.9203
 11
22.3776
 21
21.7725
  0
LINE
  8
0
 10
22.3776
 20
21.7725
 11
22.4214
 21
21.6217
  0
LINE
  8
0
 10
22.4214
 20
21.6217
 11
22.4557
 21
21.4684
  0
LINE
  8
0
 10
22.4557
 20
21.4684
 11
22.4803
 21
21.3133
  0
LINE
  8
0
 10
22.4803
 20
21.3133
 11
22.4951
 21
21.157
  0
LINE
  8
0
 10
22.4951
 20
21.157
 11
22.5
 21
21
  0
LINE
  8
0
 10
22.5
 20
21
 11
22.4951
 21
20.843
  0
LINE
  8
0
 10
22.4951
 20
20.843
 11
22.4803
 21
20.6867
  0
LINE
  8
0
 10
22.4803
 20
20.6867
 11
22.4557
 21
20.5315
  0
LINE
  8
0
 10
22.4557
 20
20.5315
 11
22.4214
 21
20.3783
  0
LINE
  8
0
 10
22.4214
 20
20.3783
 11
22.3776
 21
20.2274
  0
LINE
  8
0
 10
22.3776
 20
20.2274
 11
22.3244
 21
20.0797
  0
LINE
  8
0
 10
22.3244
 20
20.0797
 11
22.2621
 21
19.9355
  0
LINE
  8
0
 10
22.2621
 20
19.9355
 11
22.1908
 21
19.7956
  0
LINE
  8
0
 10
22.1908
 20
19.7956
 11
22.1108
 21
19.6604
  0
LINE
  8
0
 10
22.1108
 20
19.6604
 11
22.0225
 21
19.5305
  0
LINE
  8
0
 10
22.0225
 20
19.5305
 11
21.9263
 21
19.4064
  0
LINE
  8
0
 10
21.9263
 20
19.4064
 11
21.8224
 21
19.2886
  0
LINE
  8
0
 10
21.8224
 20
19.2886
 11
21.7114
 21
19.1776
  0
LINE
  8
0
 10
21.7114
 20
19.1776
 11
21.5936
 21
19.0737
  0
LINE
  8
0
 10
21.5936
 20
19.0737
 11
21.4695
 21
18.9774
  0
LINE
  8
0
 10
21.4695
 20
18.9774
 11
21.3396
 21
18.8892
  0
LINE
  8
0
 10
21.3396
 20
18.8892
 11
21.2044
 21
18.8092
  0
LINE
  8
0
 10
21.2044
 20
18.8092
 11
21.0644
 21
18.7379
  0
LINE
  8
0
 10
21.0644
 20
18.7379
 11
20.9203
 21
18.6756
  0
LINE
  8
0
 10
20.9203
 20
18.6756
 11
20.7725
 21
18.6223
  0
LINE
  8
0
 10
20.7725
 20
18.6223
 11
20.6217
 21
18.5785
  0
LINE
  8
0
 10
20.6217
 20
18.5785
 11
20.4684
 21
18.5443
  0
LINE
  8
0
 10
20.4684
 20
18.5443
 11
20.3133
 21
18.5197
  0
LINE
  8
0
 10
20.3133
 20
18.5197
 11
20.157
 21
18.5049
  0
LINE
  8
0
 10
20.157
 20
18.5049
 11
20
 21
18.5
  0
LINE
  8
0
 10
20
 20
18.5
 11
19.843
 21
18.5049
  0
LINE
  8
0
 10
19.7802
 20
2.0069
 11
19.5613
 21
2.02759
  0
LINE
  8
0
 10
19.5613
 20
2.02759
 11
19.3442
 21
2.06198
  0
LINE
  8
0
 10
19.3442
 20
2.06198
 11
19.1296
 21
2.10995
  0
LINE
  8
0
 10
19.1296
 20
2.10995
 11
18.9184
 21
2.1713
  0
LINE
  8
0
 10
18.9184
 20
2.1713
 11
18.7116
 21
2.24577
  0
LINE
  8
0
 10
18.7116
 20
2.24577
 11
18.5098
 21
2.3331
  0
LINE
  8
0
 10
18.5098
 20
2.3331
 11
18.3139
 21
2.43292
  0
LINE
  8
0
 10
18.3139
 20
2.43292
 11
18.1246
 21
2.54485
  0
LINE
  8
0
 10
18.1246
 20
2.54485
 11
17.9427
 21
2.66843
  0
LINE
  8
0
 10
17.9427
 20
2.66843
 11
17.769
 21
2.80319
  0
LINE
  8
0
 10
17.769
 20
2.80319
 11
17.6041
 21
2.94861
  0
LINE
  8
0
 10
17.6041
 20
2.94861
 11
17.4486
 21
3.10408
  0
LINE
  8
0
 10
17.4486
 20
3.10408
 11
17.3032
 21
3.26901
  0
LINE
  8
0
 10
17.3032
 20
3.26901
 11
17.1684
 21
3.44275
  0
LINE
  8
0
 10
17.1684
 20
3.44275
 11
17.0448
 21
3.6246
  0
LINE
  8
0
 10
17.0448
 20
3.6246
 11
16.9329
 21
3.81386
  0
LINE
  8
0
 10
16.9329
 20
3.81386
 11
16.8331
 21
4.00977
  0
LINE
  8
0
 10
16.8331
 20
4.00977
 11
16.7458
 21
4.21156
  0
LINE
  8
0
 10
16.7458
 20
4.21156
 11
16.6713
 21
4.41843
  0
LINE
  8
0
 10
16.6713
 20
4.41843
 11
16.61
 21
4.62958
  0
LINE
  8
0
 10
16.61
 20
4.62958
 11
16.562
 21
4.84416
  0
LINE
  8
0
 10
16.562
 20
4.84416
 11
16.5276
 21
5.06133
  0
LINE
  8
0
 10
16.5276
 20
5.06133
 11
16.5069
 21
5.28023
  0
LINE
  8
0
 10
16.5069
 20
5.28023
 11
16.5
 21
5.5
  0
LINE
  8
0
 10
16.5
 20
5.5
 11
16.5
 21
10.5
  0
LINE
  8
0
 10
16.5
 20
10.5
 11
16.5069
 21
10.7198
  0
LINE
  8
0
 10
16.5069
 20
10.7198
 11
16.5276
 21
10.9387
  0
LINE
  8
0
 10
16.5276
 20
10.9387
 11
16.562
 21
11.1558
  0
LINE
  8
0
 10
16.562
 20
11.1558
 11
16.61
 21
11.3704
  0
LINE
  8
0
 10
16.61
 20
11.3704
 11
16.6713
 21
11.5816
  0
LINE
  8
0
 10
16.6713
 20
11.5816
 11
16.7458
 21
11.7884
  0
LINE
  8
0
 10
16.7458
 20
11.7884
 11
16.8331
 21
11.9902
  0
LINE
  8
0
 10
16.8331
 20
11.9902
 11
16.9329
 21
12.1861
  0
LINE
  8
0
 10
16.9329
 20
12.1861
 11
17.0448
 21
12.3754
  0
LINE
  8
0
 10
17.0448
 20
12.3754
 11
17.1684
 21
12.5572
  0
LINE
  8
0
 10
17.1684
 20
12.5572
 11
17.3032
 21
12.731
  0
LINE
  8
0
 10
17.3032
 20
12.731
 11
17.4486
 21
12.8959
  0
LINE
  8
0
 10
17.4486
 20
12.8959
 11
17.6041
 21
13.0514
  0
LINE
  8
0
 10
17.6041
 20
13.0514
 11
17.769
 21
13.1968
  0
LINE
  8
0
 10
17.769
 20
13.1968
 11
17.9427
 21
13.3316
  0
LINE
  8
0
 10
17.9427
 20
13.3316
 11
18.1246
 21
13.4551
  0
LINE
  8
0
 10
18.1246
 20
13.4551
 11
18.3139
 21
13.5671
  0
LINE
  8
0
 10
18.3139
 20
13.5671
 11
18.5098
 21
13.6669
  0
LINE
  8
0
 10
18.5098
 20
13.6669
 11
18.7116
 21
13.7542
  0
LINE
  8
0
 10
18.7116
 20
13.7542
 11
18.9184
 21
13.8287
  0
LINE
  8
0
 10
18.9184
 20
13.8287
 11
19.1296
 21
13.89
  0
LINE
  8
0
 10
19.1296
 20
13.89
 11
19.3442
 21
13.938
  0
LINE
  8
0
 10
19.3442
 20
13.938
 11
19.5613
 21
13.9724
  0
LINE
  8
0
 10
19.5613
 20
13.9724
 11
19.7802
 21
13.9931
  0
LINE
  8
0
 10
19.7802
 20
13.9931
 11
20
 21
14
  0
LINE
  8
0
 10
20
 20
14
 11
20.2198
 21
13.9931
  0
LINE
  8
0
 10
20.2198
 20
13.9931
 11
20.4387
 21
13.9724
  0
LINE
  8
0
 10
20.4387
 20
13.9724
 11
20.6558
 21
13.938
  0
LINE
  8
0
 10
20.6558
 20
13.938
 11
20.8704
 21
13.89
  0
LINE
  8
0
 10
20.8704
 20
13.89
 11
21.0816
 21
13.8287
  0
LINE
  8
0
 10
21.0816
 20
13.8287
 11
21.2884
 21
13.7542
  0
LINE
  8
0
 10
21.2884
 20
13.7542
 11
21.4902
 21
13.6669
  0
LINE
  8
0
 10
21.4902
 20
13.6669
 11
21.6861
 21
13.5671
  0
LINE
  8
0
 10
21.6861
 20
13.5671
 11
21.8754
 21
13.4551
  0
LINE
  8
0
 10
21.8754
 20
13.4551
 11
22.0572
 21
13.3316
  0
LINE
  8
0
 10
22.0572
 20
13.3316
 11
22.231
 21
13.1968
  0
LINE
  8
0
 10
22.231
 20
13.1968
 11
22.3959
 21
13.0514
  0
LINE
  8
0
 10
22.3959
 20
13.0514
 11
22.5514
 21
12.8959
  0
LINE
  8
0
 10
22.5514
 20
12.8959
 11
22.6968
 21
12.731
  0
LINE
  8
0
 10
22.6968
 20
12.731
 11
22.8316
 21
12.5572
  0
LINE
  8
0
 10
22.8316
 20
12.5572
 11
22.9551
 21
12.3754
  0
LINE
  8
0
 10
22.9551
 20
12.3754
 11
23.0671
 21
12.1861
  0
LINE
  8
0
 10
23.0671
 20
12.1861
 11
23.1669
 21
11.9902
  0
LINE
  8
0
 10
23.1669
 20
11.9902
 11
23.2542
 21
11.7884
  0
LINE
  8
0
 10
23.2542
 20
11.7884
 11
23.3287
 21
11.5816
  0
LINE
  8
0
 10
23.3287
 20
11.5816
 11
23.39
 21
11.3704
  0
LINE
  8
0
 10
23.39
 20
11.3704
 11
23.438
 21
11.1558
  0
LINE
  8
0
 10
23.438
 20
11.1558
 11
23.4724
 21
10.9387
  0
LINE
  8
0
 10
23.4724
 20
10.9387
 11
23.4931
 21
10.7198
  0
LINE
  8
0
 10
23.4931
 20
10.7198
 11
23.5
 21
10.5
  0
LINE
  8
0
 10
23.5
 20
10.5
 11
23.5
 21
5.5
  0
LINE
  8
0
 10
23.5
 20
5.5
 11
23.4931
 21
5.28023
  0
LINE
  8
0
 10
23.4931
 20
5.28023
 11
23.4724
 21
5.06133
  0
LINE
  8
0
 10
23.4724
 20
5.06133
 11
23.438
 21
4.84416
  0
LINE
  8
0
 10
23.438
 20
4.84416
 11
23.39
 21
4.62958
  0
LINE
  8
0
 10
23.39
 20
4.62958
 11
23.3287
 21
4.41843
  0
LINE
  8
0
 10
23.3287
 20
4.41843
 11
23.2542
 21
4.21156
  0
LINE
  8
0
 10
23.2542
 20
4.21156
 11
23.1669
 21
4.00977
  0
LINE
  8
0
 10
23.1669
 20
4.00977
 11
23.0671
 21
3.81386
  0
LINE
  8
0
 10
23.0671
 20
3.81386
 11
22.9551
 21
3.6246
  0
LINE
  8
0
 10
22.9551
 20
3.6246
 11
22.8316
 21
3.44275
  0
LINE
  8
0
 10
22.8316
 20
3.44275
 11
22.6968
 21
3.26901
  0
LINE
  8
0
 10
22.6968
 20
3.26901
 11
22.5514
 21
3.10408
  0
LINE
  8
0
 10
22.5514
 20
3.10408
 11
22.3959
 21
2.94861
  0
LINE
  8
0
 10
22.3959
 20
2.94861
 11
22.231
 21
2.80319
  0
LINE
  8
0
 10
22.231
 20
2.80319
 11
22.0572
 21
2.66843
  0
LINE
  8
0
 10
22.0572
 20
2.66843
 11
21.8754
 21
2.54485
  0
LINE
  8
0
 10
21.8754
 20
2.54485
 11
21.6861
 21
2.43292
  0
LINE
  8
0
 10
21.6861
 20
2.43292
 11
21.4902
 21
2.3331
  0
LINE
  8
0
 10
21.4902
 20
2.3331
 11
21.2884
 21
2.24577
  0
LINE
  8
0
 10
21.2884
 20
2.24577
 11
21.0816
 21
2.1713
  0
LINE
  8
0
 10
21.0816
 20
2.1713
 11
20.8704
 21
2.10995
  0
LINE
  8
0
 10
20.8704
 20
2.10995
 11
20.6558
 21
2.06198
  0
LINE
  8
0
 10
20.6558
 20
2.06198
 11
20.4387
 21
2.02759
  0
LINE
  8
0
 10
20.4387
 20
2.02759
 11
20.2198
 21
2.0069
  0
LINE
  8
0
 10
20.2198
 20
2.0069
 11
20
 21
2
  0
LINE
  8
0
 10
20
 20
2
 11
19.7802
 21
2.0069
  0
LINE
  8
0
 10
-20.2198
 20
2.0069
 11
-20.4387
 21
2.02759
  0
LINE
  8
0
 10
-20.4387
 20
2.02759
 11
-20.6558
 21
2.06198
  0
LINE
  8
0
 10
-20.6558
 20
2.06198
 11
-20.8704
 21
2.10995
  0
LINE
  8
0
 10
-20.8704
 20
2.10995
 11
-21.0816
 21
2.1713
  0
LINE
  8
0
 10
-21.0816
 20
2.1713
 11
-21.2884
 21
2.24577
  0
LINE
  8
0
 10
-21.2884
 20
2.24577
 11
-21.4902
 21
2.3331
  0
LINE
  8
0
 10
-21.4902
 20
2.3331
 11
-21.6861
 21
2.43292
  0
LINE
  8
0
 10
-21.6861
 20
2.43292
 11
-21.8754
 21
2.54485
  0
LINE
  8
0
 10
-21.8754
 20
2.54485
 11
-22.0572
 21
2.66843
  0
LINE
  8
0
 10
-22.0572
 20
2.66843
 11
-22.231
 21
2.80319
  0
LINE
  8
0
 10
-22.231
 20
2.80319
 11
-22.3959
 21
2.94861
  0
LINE
  8
0
 10
-22.3959
 20
2.94861
 11
-22.5514
 21
3.10408
  0
LINE
  8
0
 10
-22.5514
 20
3.10408
 11
-22.6968
 21
3.26901
  0
LINE
  8
0
 10
-22.6968
 20
3.26901
 11
-22.8316
 21
3.44275
  0
LINE
  8
0
 10
-22.8316
 20
3.44275
 11
-22.9551
 21
3.6246
  0
LINE
  8
0
 10
-22.9551
 20
3.6246
 11
-23.0671
 21
3.81386
  0
LINE
  8
0
 10
-23.0671
 20
3.81386
 11
-23.1669
 21
4.00977
  0
LINE
  8
0
 10
-23.1669
 20
4.00977
 11
-23.2542
 21
4.21156
  0
LINE
  8
0
 10
-23.2542
 20
4.21156
 11
-23.3287
 21
4.41843
  0
LINE
  8
0
 10
-23.3287
 20
4.41843
 11
-23.39
 21
4.62958
  0
LINE
  8
0
 10
-23.39
 20
4.62958
 11
-23.438
 21
4.84416
  0
LINE
  8
0
 10
-23.438
 20
4.84416
 11
-23.4724
 21
5.06133
  0
LINE
  8
0
 10
-23.4724
 20
5.06133
 11
-23.4931
 21
5.28023
  0
LINE
  8
0
 10
-23.4931
 20
5.28023
 11
-23.5
 21
5.5
  0
LINE
  8
0
 10
-23.5
 20
5.5
 11
-23.5
 21
10.5
  0
LINE
  8
0
 10
-23.5
 20
10.5
 11
-23.4931
 21
10.7198
  0
LINE
  8
0
 10
-23.4931
 20
10.7198
 11
-23.4724
 21
10.9387
  0
LINE
  8
0
 10
-23.4724
 20
10.9387
 11
-23.438
 21
11.1558
  0
LINE
  8
0
 10
-23.438
 20
11.1558
 11
-23.39
 21
11.3704
  0
LINE
  8
0
 10
-23.39
 20
11.3704
 11
-23.3287
 21
11.5816
  0
LINE
  8
0
 10
-23.3287
 20
11.5816
 11
-23.2542
 21
11.7884
  0
LINE
  8
0
 10
-23.2542
 20
11.7884
 11
-23.1669
 21
11.9902
  0
LINE
  8
0
 10
-23.1669
 20
11.9902
 11
-23.0671
 21
12.1861
  0
LINE
  8
0
 10
-23.0671
 20
12.1861
 11
-22.9551
 21
12.3754
  0
LINE
  8
0
 10
-22.9551
 20
12.3754
 11
-22.8316
 21
12.5572
  0
LINE
  8
0
 10
-22.8316
 20
12.5572
 11
-22.6968
 21
12.731
  0
LINE
  8
0
 10
-22.6968
 20
12.731
 11
-22.5514
 21
12.8959
  0
LINE
  8
0
 10
-22.5514
 20
12.8959
 11
-22.3959
 21
13.0514
  0
LINE
  8
0
 10
-22.3959
 20
13.0514
 11
-22.231
 21
13.1968
  0
LINE
  8
0
 10
-22.231
 20
13.1968
 11
-22.0572
 21
13.3316
  0
LINE
  8
0
 10
-22.0572
 20
13.3316
 11
-21.8754
 21
13.4551
  0
LINE
  8
0
 10
-21.8754
 20
13.4551
 11
-21.6861
 21
13.5671
  0
LINE
  8
0
 10
-21.6861
 20
13.5671
 11
-21.4902
 21
13.6669
  0
LINE
  8
0
 10
-21.4902
 20
13.6669
 11
-21.2884
 21
13.7542
  0
LINE
  8
0
 10
-21.2884
 20
13.7542
 11
-21.0816
 21
13.8287
  0
LINE
  8
0
 10
-21.0816
 20
13.8287
 11
-20.8704
 21
13.89
  0
LINE
  8
0
 10
-20.8704
 20
13.89
 11
-20.6558
 21
13.938
  0
LINE
  8
0
 10
-20.6558
 20
13.938
 11
-20.4387
 21
13.9724
  0
LINE
  8
0
 10
-20.4387
 20
13.9724
 11
-20.2198
 21
13.9931
  0
LINE
  8
0
 10
-20.2198
 20
13.9931
 11
-20
 21
14
  0
LINE
  8
0
 10
-20
 20
14
 11
-19.7802
 21
13.9931
  0
LINE
  8
0
 10
-19.7802
 20
13.9931
 11
-19.5613
 21
13.9724
  0
LINE
  8
0
 10
-19.5613
 20
13.9724
 11
-19.3442
 21
13.938
  0
LINE
  8
0
 10
-19.3442
 20
13.938
 11
-19.1296
 21
13.89
  0
LINE
  8
0
 10
-19.1296
 20
13.89
 11
-18.9184
 21
13.8287
  0
LINE
  8
0
 10
-18.9184
 20
13.8287
 11
-18.7116
 21
13.7542
  0
LINE
  8
0
 10
-18.7116
 20
13.7542
 11
-18.5098
 21
13.6669
  0
LINE
  8
0
 10
-18.5098
 20
13.6669
 11
-18.3139
 21
13.5671
  0
LINE
  8
0
 10
-18.3139
 20
13.5671
 11
-18.1246
 21
13.4551
  0
LINE
  8
0
 10
-18.1246
 20
13.4551
 11
-17.9427
 21
13.3316
  0
LINE
  8
0
 10
-17.9427
 20
13.3316
 11
-17.769
 21
13.1968
  0
LINE
  8
0
 10
-17.769
 20
13.1968
 11
-17.6041
 21
13.0514
  0
LINE
  8
0
 10
-17.6041
 20
13.0514
 11
-17.4486
 21
12.8959
  0
LINE
  8
0
 10
-17.4486
 20
12.8959
 11
-17.3032
 21
12.731
  0
LINE
  8
0
 10
-17.3032
 20
12.731
 11
-17.1684
 21
12.5572
  0
LINE
  8
0
 10
-17.1684
 20
12.5572
 11
-17.0448
 21
12.3754
  0
LINE
  8
0
 10
-17.0448
 20
12.3754
 11
-16.9329
 21
12.1861
  0
LINE
  8
0
 10
-16.9329
 20
12.1861
 11
-16.8331
 21
11.9902
  0
LINE
  8
0
 10
-16.8331
 20
11.9902
 11
-16.7458
 21
11.7884
  0
LINE
  8
0
 10
-16.7458
 20
11.7884
 11
-16.6713
 21
11.5816
  0
LINE
  8
0
 10
-16.6713
 20
11.5816
 11
-16.61
 21
11.3704
  0
LINE
  8
0
 10
-16.61
 20
11.3704
 11
-16.562
 21
11.1558
  0
LINE
  8
0
 10
-16.562
 20
11.1558
 11
-16.5276
 21
10.9387
  0
LINE
  8
0
 10
-16.5276
 20
10.9387
 11
-16.5069
 21
10.7198
  0
LINE
  8
0
 10
-16.5069
 20
10.7198
 11
-16.5
 21
10.5
  0
LINE
  8
0
 10
-16.5
 20
10.5
 11
-16.5
 21
5.5
  0
LINE
  8
0
 10
-16.5
 20
5.5
 11
-16.5069
 21
5.28023
  0
LINE
  8
0
 10
-16.5069
 20
5.28023
 11
-16.5276
 21
5.06133
  0
LINE
  8
0
 10
-16.5276
 20
5.06133
 11
-16.562
 21
4.84416
  0
LINE
  8
0
 10
-16.562
 20
4.84416
 11
-16.61
 21
4.62958
  0
LINE
  8
0
 10
-16.61
 20
4.62958
 11
-16.6713
 21
4.41843
  0
LINE
  8
0
 10
-16.6713
 20
4.41843
 11
-16.7458
 21
4.21156
  0
LINE
  8
0
 10
-16.7458
 20
4.21156
 11
-16.8331
 21
4.00977
  0
LINE
  8
0
 10
-16.8331
 20
4.00977
 11
-16.9329
 21
3.81386
  0
LINE
  8
0
 10
-16.9329
 20
3.81386
 11
-17.0448
 21
3.6246
  0
LINE
  8
0
 10
-17.0448
 20
3.6246
 11
-17.1684
 21
3.44275
  0
LINE
  8
0
 10
-17.1684
 20
3.44275
 11
-17.3032
 21
3.26901
  0
LINE
  8
0
 10
-17.3032
 20
3.26901
 11
-17.4486
 21
3.10408
  0
LINE
  8
0
 10
-17.4486
 20
3.10408
 11
-17.6041
 21
2.94861
  0
LINE
  8
0
 10
-17.6041
 20
2.94861
 11
-17.769
 21
2.80319
  0
LINE
  8
0
 10
-17.769
 20
2.80319
 11
-17.9427
 21
2.66843
  0
LINE
  8
0
 10
-17.9427
 20
2.66843
 11
-18.1246
 21
2.54485
  0
LINE
  8
0
 10
-18.1246
 20
2.54485
 11
-18.3139
 21
2.43292
  0
LINE
  8
0
 10
-18.3139
 20
2.43292
 11
-18.5098
 21
2.3331
  0
LINE
  8
0
 10
-18.5098
 20
2.3331
 11
-18.7116
 21
2.24577
  0
LINE
  8
0
 10
-18.7116
 20
2.24577
 11
-18.9184
 21
2.1713
  0
LINE
  8
0
 10
-18.9184
 20
2.1713
 11
-19.1296
 21
2.10995
  0
LINE
  8
0
 10
-19.1296
 20
2.10995
 11
-19.3442
 21
2.06198
  0
LINE
  8
0
 10
-19.3442
 20
2.06198
 11
-19.5613
 21
2.02759
  0
LINE
  8
0
 10
-19.5613
 20
2.02759
 11
-19.7802
 21
2.0069
  0
LINE
  8
0
 10
-19.7802
 20
2.0069
 11
-20
 21
2
  0
LINE
  8
0
 10
-20
 20
2
 11
-20.2198
 21
2.0069
  0
LINE
  8
0
 10
-8
 20
11
 11
-8
 21
13
  0
LINE
  8
0
 10
-8
 20
13
 11
8
 21
13
  0
LINE
  8
0
 10
8
 20
13
 11
8
 21
11
  0
LINE
  8
0
 10
8
 20
11
 11
-8
 21
11
  0
ENDSEC
  0
SECTION
  2
OBJECTS
  0
DICTIONARY
  0
ENDSEC
  0
EOF
