<?xml version="1.0" standalone="no"?>
<!DOCTYPE svg PUBLIC "-//W3C//DTD SVG 1.1//EN" "http://www.w3.org/Graphics/SVG/1.1/DTD/svg11.dtd">
<svg width="46mm" height="74mm" viewBox="-23 -37 46 74" xmlns="http://www.w3.org/2000/svg" version="1.1">
<title>OpenSCAD Model</title>
<path d="
M -5,16.5 L -4.99013,16.186 L -4.96057,15.8733 L -4.91142,15.5631 L -4.84291,15.2565 L -4.75528,14.9549
 L -4.64888,14.6594 L -4.52412,14.3711 L -4.38153,14.0912 L -4.22163,13.8209 L -4.04507,13.5611 L -3.85255,13.3129
 L -3.64484,13.0773 L -3.42273,12.8551 L -3.18712,12.6474 L -2.93892,12.4549 L -2.67912,12.2784 L -2.40877,12.1185
 L -2.12889,11.9759 L -1.84062,11.8511 L -1.54507,11.7447 L -1.24344,11.6571 L -0.936905,11.5886 L -0.626663,11.5394
 L -0.31395,11.5099 L 0,11.5 L 0.31395,11.5099 L 0.626663,11.5394 L 0.936905,11.5886 L 1.24344,11.6571
 L 1.54507,11.7447 L 1.84062,11.8511 L 2.12889,11.9759 L 2.40877,12.1185 L 2.67912,12.2784 L 2.93892,12.4549
 L 3.18712,12.6474 L 3.42273,12.8551 L 3.64484,13.0773 L 3.85255,13.3129 L 4.04507,13.5611 L 4.22163,13.8209
 L 4.38153,14.0912 L 4.52412,14.3711 L 4.64888,14.6594 L 4.75528,14.9549 L 4.84291,15.2565 L 4.91142,15.5631
 L 4.96057,15.8733 L 4.99013,16.186 L 5,16.5 L 5,36.5 L 17.5,36.5 L 19.4134,36.1194
 L 21.0355,35.0355 L 22.1194,33.4134 L 22.5,31.5 L 22.5,-31.5 L 22.1194,-33.4134 L 21.0355,-35.0355
 L 19.4134,-36.1194 L 17.5,-36.5 L -17.5,-36.5 L -19.4134,-36.1194 L -21.0355,-35.0355 L -22.1194,-33.4134
 L -22.5,-31.5 L -22.5,31.5 L -22.1194,33.4134 L -21.0355,35.0355 L -19.4134,36.1194 L -17.5,36.5
 L -5,36.5 z
M 11.5158,-27.7507 L 11.5354,-27.8748 L 11.5628,-27.9974 L 11.5979,-28.118 L 11.6404,-28.2362 L 11.6903,-28.3515
 L 11.7474,-28.4635 L 11.8113,-28.5716 L 11.882,-28.6756 L 11.959,-28.7748 L 12.0421,-28.8691 L 12.1309,-28.9579
 L 12.2251,-29.041 L 12.3244,-29.118 L 12.4283,-29.1886 L 12.5365,-29.2526 L 12.6484,-29.3096 L 12.7637,-29.3595
 L 12.882,-29.4021 L 13.0026,-29.4372 L 13.1252,-29.4646 L 13.2493,-29.4842 L 13.3744,-29.496 L 13.5,-29.5
 L 13.6256,-29.496 L 13.7507,-29.4842 L 13.8748,-29.4646 L 13.9974,-29.4372 L 14.118,-29.4021 L 14.2362,-29.3595
 L 14.3515,-29.3096 L 14.4635,-29.2526 L 14.5716,-29.1886 L 14.6756,-29.118 L 14.7748,-29.041 L 14.8691,-28.9579
 L 14.9579,-28.8691 L 15.041,-28.7748 L 15.118,-28.6756 L 15.1886,-28.5716 L 15.2526,-28.4635 L 15.3096,-28.3515
 L 15.3595,-28.2362 L 15.4021,-28.118 L 15.4372,-27.9974 L 15.4646,-27.8748 L 15.4842,-27.7507 L 15.496,-27.6256
 L 15.5,-27.5 L 15.496,-27.3744 L 15.4842,-27.2493 L 15.4646,-27.1252 L 15.4372,-27.0026 L 15.4021,-26.882
 L 15.3595,-26.7637 L 15.3096,-26.6484 L 15.2526,-26.5365 L 15.1886,-26.4283 L 15.118,-26.3244 L 15.041,-26.2251
 L 14.9579,-26.1309 L 14.8691,-26.0421 L 14.7748,-25.959 L 14.6756,-25.882 L 14.5716,-25.8113 L 14.4635,-25.7474
 L 14.3515,-25.6903 L 14.2362,-25.6404 L 14.118,-25.5979 L 13.9974,-25.5628 L 13.8748,-25.5354 L 13.7507,-25.5158
 L 13.6256,-25.5039 L 13.5,-25.5 L 13.3744,-25.5039 L 13.2493,-25.5158 L 13.1252,-25.5354 L 13.0026,-25.5628
 L 12.882,-25.5979 L 12.7637,-25.6404 L 12.6484,-25.6903 L 12.5365,-25.7474 L 12.4283,-25.8113 L 12.3244,-25.882
 L 12.2251,-25.959 L 12.1309,-26.0421 L 12.0421,-26.1309 L 11.959,-26.2251 L 11.882,-26.3244 L 11.8113,-26.4283
 L 11.7474,-26.5365 L 11.6903,-26.6484 L 11.6404,-26.7637 L 11.5979,-26.882 L 11.5628,-27.0026 L 11.5354,-27.1252
 L 11.5158,-27.2493 L 11.5039,-27.3744 L 11.5,-27.5 L 11.5039,-27.6256 z
M -11.5158,-27.2493 L -11.5354,-27.1252 L -11.5628,-27.0026 L -11.5979,-26.882 L -11.6404,-26.7637 L -11.6903,-26.6484
 L -11.7474,-26.5365 L -11.8113,-26.4283 L -11.882,-26.3244 L -11.959,-26.2251 L -12.0421,-26.1309 L -12.1309,-26.0421
 L -12.2251,-25.959 L -12.3244,-25.882 L -12.4283,-25.8113 L -12.5365,-25.7474 L -12.6484,-25.6903 L -12.7637,-25.6404
 L -12.882,-25.5979 L -13.0026,-25.5628 L -13.1252,-25.5354 L -13.2493,-25.5158 L -13.3744,-25.5039 L -13.5,-25.5
 L -13.6256,-25.5039 L -13.7507,-25.5158 L -13.8748,-25.5354 L -13.9974,-25.5628 L -14.118,-25.5979 L -14.2362,-25.6404
 L -14.3515,-25.6903 L -14.4635,-25.7474 L -14.5716,-25.8113 L -14.6756,-25.882 L -14.7748,-25.959 L -14.8691,-26.0421
 L -14.9579,-26.1309 L -15.041,-26.2251 L -15.118,-26.3244 L -15.1886,-26.4283 L -15.2526,-26.5365 L -15.3096,-26.6484
 L -15.3595,-26.7637 L -15.4021,-26.882 L -15.4372,-27.0026 L -15.4646,-27.1252 L -15.4842,-27.2493 L -15.496,-27.3744
 L -15.5,-27.5 L -15.496,-27.6256 L -15.4842,-27.7507 L -15.4646,-27.8748 L -15.4372,-27.9974 L -15.4021,-28.118
 L -15.3595,-28.2362 L -15.3096,-28.3515 L -15.2526,-28.4635 L -15.1886,-28.5716 L -15.118,-28.6756 L -15.041,-28.7748
 L -14.9579,-28.8691 L -14.8691,-28.9579 L -14.7748,-29.041 L -14.6756,-29.118 L -14.5716,-29.1886 L -14.4635,-29.2526
 L -14.3515,-29.3096 L -14.2362,-29.3595 L -14.118,-29.4021 L -13.9974,-29.4372 L -13.8748,-29.4646 L -13.7507,-29.4842
 L -13.6256,-29.496 L -13.5,-29.5 L -13.3744,-29.496 L -13.2493,-29.4842 L -13.1252,-29.4646 L -13.0026,-29.4372
 L -12.882,-29.4021 L -12.7637,-29.3595 L -12.6484,-29.3096 L -12.5365,-29.2526 L -12.4283,-29.1886 L -12.3244,-29.118
 L -12.2251,-29.041 L -12.1309,-28.9579 L -12.0421,-28.8691 L -11.959,-28.7748 L -11.882,-28.6756 L -11.8113,-28.5716
 L -11.7474,-28.4635 L -11.6903,-28.3515 L -11.6404,-28.2362 L -11.5979,-28.118 L -11.5628,-27.9974 L -11.5354,-27.8748
 L -11.5158,-27.7507 L -11.5039,-27.6256 L -11.5,-27.5 L -11.5039,-27.3744 z
" stroke="black" fill="lightgray" stroke-width="0.5"/>
</svg>
