  0
SECTION
  2
HEADER
  9
$ACADVER
  1
AC1014
  9
$HANDSEED
  5
FFFF
  9
$MEASUREMENT
 70
     1
  0
ENDSEC
  0
SECTION
  2
TABLES
  0
TABLE
  2
VPORT
  5
8
330
0
100
AcDbSymbolTable
 70
     4
  0
VPORT
  5
2E
330
8
100
AcDbSymbolTableRecord
100
AcDbViewportTableRecord
  2
*ACTIVE
 70
     0
 10
0.0
 20
0.0
 11
1.0
 21
1.0
 12
210.0
 22
148.5
 13
0.0
 23
0.0
 14
10.0
 24
10.0
 15
10.0
 25
10.0
 16
0.0
 26
0.0
 36
1.0
 17
0.0
 27
0.0
 37
0.0
 40
341.0
 41
1.24
 42
50.0
 43
0.0
 44
0.0
 50
0.0
 51
0.0
 71
     0
 72
   100
 73
     1
 74
     3
 75
     0
 76
     0
 77
     0
 78
     0
  0
ENDTAB
  0
TABLE
  2
LTYPE
  5
5
330
0
100
AcDbSymbolTable
 70
     1
  0
LTYPE
  5
14
330
5
100
AcDbSymbolTableRecord
100
AcDbLinetypeTableRecord
  2
BYBLOCK
 70
     0
  3

 72
    65
 73
     0
 40
0.0
  0
LTYPE
  5
15
330
5
100
AcDbSymbolTableRecord
100
AcDbLinetypeTableRecord
  2
BYLAYER
 70
     0
  3

 72
    65
 73
     0
 40
0.0
  0
LTYPE
  5
16
330
5
100
AcDbSymbolTableRecord
100
AcDbLinetypeTableRecord
  2
CONTINUOUS
 70
     0
  3
Solid line
 72
    65
 73
     0
 40
0.0
  0
ENDTAB
  0
TABLE
  2
LAYER
  5
2
100
AcDbSymbolTable
 70
1
  0
LAYER
  5
50
100
AcDbSymbolTableRecord
100
AcDbLayerTableRecord
  2
0
 70
0
  6
CONTINUOUS
  0
ENDTAB
  0
TABLE
  2
STYLE
  5
3
330
0
100
AcDbSymbolTable
 70
     1
  0
STYLE
  5
11
330
3
100
AcDbSymbolTableRecord
100
AcDbTextStyleTableRecord
  2
STANDARD
 70
     0
 40
0.0
 41
1.0
 50
0.0
 71
     0
 42
2.5
  3
txt
  4

  0
ENDTAB
  0
TABLE
  2
VIEW
  5
6
330
0
100
AcDbSymbolTable
 70
     0
  0
ENDTAB
  0
TABLE
  2
UCS
  5
7
330
0
100
AcDbSymbolTable
 70
     0
  0
ENDTAB
  0
TABLE
  2
APPID
  5
9
330
0
100
AcDbSymbolTable
 70
     2
  0
APPID
  5
12
330
9
100
AcDbSymbolTableRecord
100
AcDbRegAppTableRecord
  2
ACAD
 70
     0
  0
ENDTAB
  0
TABLE
  2
DIMSTYLE
  5
A
330
0
100
AcDbSymbolTable
 70
     1
  0
DIMSTYLE
105
27
330
A
100
AcDbSymbolTableRecord
100
AcDbDimStyleTableRecord
  2
ISO-25
 70
     0
  3

  4

  5

  6

  7

 40
1.0
 41
2.5
 42
0.625
 43
3.75
 44
1.25
 45
0.0
 46
0.0
 47
0.0
 48
0.0
140
2.5
141
2.5
142
0.0
143
0.03937007874016
144
1.0
145
0.0
146
1.0
147
0.625
 71
     0
 72
     0
 73
     0
 74
     0
 75
     0
 76
     0
 77
     1
 78
     8
170
     0
171
     3
172
     1
173
     0
174
     0
175
     0
176
     0
177
     0
178
     0
270
     2
271
     2
272
     2
273
     2
274
     3
340
11
275
     0
280
     0
281
     0
282
     0
283
     0
284
     8
285
     0
286
     0
287
     3
288
     0
  0
ENDTAB
  0
TABLE
  2
BLOCK_RECORD
  5
1
330
0
100
AcDbSymbolTable
 70
     1
  0
BLOCK_RECORD
  5
1F
330
1
100
AcDbSymbolTableRecord
100
AcDbBlockTableRecord
  2
*MODEL_SPACE
  0
BLOCK_RECORD
  5
1B
330
1
100
AcDbSymbolTableRecord
100
AcDbBlockTableRecord
  2
*PAPER_SPACE
  0
ENDTAB
  0
ENDSEC
  0
SECTION
  2
BLOCKS
  0
BLOCK
  5
20
330
1F
100
AcDbEntity
  8
0
100
AcDbBlockBegin
  2
*MODEL_SPACE
 70
     0
 10
0.0
 20
0.0
 30
0.0
  3
*MODEL_SPACE
  1

  0
ENDBLK
  5
21
330
1F
100
AcDbEntity
  8
0
100
AcDbBlockEnd
  0
BLOCK
  5
1C
330
1B
100
AcDbEntity
 67
     1
  8
0
100
AcDbBlockBegin
  2
*PAPER_SPACE
  1

  0
ENDBLK
  5
1D
330
1B
100
AcDbEntity
 67
     1
  8
0
100
AcDbBlockEnd
  0
ENDSEC
  0
SECTION
  2
ENTITIES
  0
LWPOLYLINE
  5
100
100
AcDbEntity
  8
0
 62
7
100
AcDbPolyline
 90
73
 70
1
 10
-5.000000
 20
57.500000
 30
0.0
 10
-4.990130
 20
57.814000
 30
0.0
 10
-4.960570
 20
58.126700
 30
0.0
 10
-4.911420
 20
58.436900
 30
0.0
 10
-4.842910
 20
58.743500
 30
0.0
 10
-4.755280
 20
59.045100
 30
0.0
 10
-4.648880
 20
59.340600
 30
0.0
 10
-4.524120
 20
59.628900
 30
0.0
 10
-4.381530
 20
59.908800
 30
0.0
 10
-4.221630
 20
60.179100
 30
0.0
 10
-4.045070
 20
60.438900
 30
0.0
 10
-3.852550
 20
60.687100
 30
0.0
 10
-3.644840
 20
60.922700
 30
0.0
 10
-3.422730
 20
61.144900
 30
0.0
 10
-3.187120
 20
61.352600
 30
0.0
 10
-2.938920
 20
61.545100
 30
0.0
 10
-2.679120
 20
61.721600
 30
0.0
 10
-2.408770
 20
61.881500
 30
0.0
 10
-2.128890
 20
62.024100
 30
0.0
 10
-1.840620
 20
62.148900
 30
0.0
 10
-1.545070
 20
62.255300
 30
0.0
 10
-1.243440
 20
62.342900
 30
0.0
 10
-0.936905
 20
62.411400
 30
0.0
 10
-0.626663
 20
62.460600
 30
0.0
 10
-0.313950
 20
62.490100
 30
0.0
 10
0.000000
 20
62.500000
 30
0.0
 10
0.313950
 20
62.490100
 30
0.0
 10
0.626663
 20
62.460600
 30
0.0
 10
0.936905
 20
62.411400
 30
0.0
 10
1.243440
 20
62.342900
 30
0.0
 10
1.545070
 20
62.255300
 30
0.0
 10
1.840620
 20
62.148900
 30
0.0
 10
2.128890
 20
62.024100
 30
0.0
 10
2.408770
 20
61.881500
 30
0.0
 10
2.679120
 20
61.721600
 30
0.0
 10
2.938920
 20
61.545100
 30
0.0
 10
3.187120
 20
61.352600
 30
0.0
 10
3.422730
 20
61.144900
 30
0.0
 10
3.644840
 20
60.922700
 30
0.0
 10
3.852550
 20
60.687100
 30
0.0
 10
4.045070
 20
60.438900
 30
0.0
 10
4.221630
 20
60.179100
 30
0.0
 10
4.381530
 20
59.908800
 30
0.0
 10
4.524120
 20
59.628900
 30
0.0
 10
4.648880
 20
59.340600
 30
0.0
 10
4.755280
 20
59.045100
 30
0.0
 10
4.842910
 20
58.743500
 30
0.0
 10
4.911420
 20
58.436900
 30
0.0
 10
4.960570
 20
58.126700
 30
0.0
 10
4.990130
 20
57.814000
 30
0.0
 10
5.000000
 20
57.500000
 30
0.0
 10
5.000000
 20
37.500000
 30
0.0
 10
17.500000
 20
37.500000
 30
0.0
 10
19.413400
 20
37.880600
 30
0.0
 10
21.035500
 20
38.964500
 30
0.0
 10
22.119400
 20
40.586600
 30
0.0
 10
22.500000
 20
42.500000
 30
0.0
 10
22.500000
 20
105.500000
 30
0.0
 10
22.119400
 20
107.413400
 30
0.0
 10
21.035500
 20
109.035500
 30
0.0
 10
19.413400
 20
110.119400
 30
0.0
 10
17.500000
 20
110.500000
 30
0.0
 10
-17.500000
 20
110.500000
 30
0.0
 10
-19.413400
 20
110.119400
 30
0.0
 10
-21.035500
 20
109.035500
 30
0.0
 10
-22.119400
 20
107.413400
 30
0.0
 10
-22.500000
 20
105.500000
 30
0.0
 10
-22.500000
 20
42.500000
 30
0.0
 10
-22.119400
 20
40.586600
 30
0.0
 10
-21.035500
 20
38.964500
 30
0.0
 10
-19.413400
 20
37.880600
 30
0.0
 10
-17.500000
 20
37.500000
 30
0.0
 10
-5.000000
 20
37.500000
 30
0.0
  0
LWPOLYLINE
  5
101
100
AcDbEntity
  8
0
 62
7
100
AcDbPolyline
 90
100
 70
1
 10
11.515800
 20
101.750700
 30
0.0
 10
11.535400
 20
101.874800
 30
0.0
 10
11.562800
 20
101.997400
 30
0.0
 10
11.597900
 20
102.118000
 30
0.0
 10
11.640400
 20
102.236200
 30
0.0
 10
11.690300
 20
102.351500
 30
0.0
 10
11.747400
 20
102.463500
 30
0.0
 10
11.811300
 20
102.571600
 30
0.0
 10
11.882000
 20
102.675600
 30
0.0
 10
11.959000
 20
102.774800
 30
0.0
 10
12.042100
 20
102.869100
 30
0.0
 10
12.130900
 20
102.957900
 30
0.0
 10
12.225100
 20
103.041000
 30
0.0
 10
12.324400
 20
103.118000
 30
0.0
 10
12.428300
 20
103.188600
 30
0.0
 10
12.536500
 20
103.252600
 30
0.0
 10
12.648400
 20
103.309600
 30
0.0
 10
12.763700
 20
103.359500
 30
0.0
 10
12.882000
 20
103.402100
 30
0.0
 10
13.002600
 20
103.437200
 30
0.0
 10
13.125200
 20
103.464600
 30
0.0
 10
13.249300
 20
103.484200
 30
0.0
 10
13.374400
 20
103.496000
 30
0.0
 10
13.500000
 20
103.500000
 30
0.0
 10
13.625600
 20
103.496000
 30
0.0
 10
13.750700
 20
103.484200
 30
0.0
 10
13.874800
 20
103.464600
 30
0.0
 10
13.997400
 20
103.437200
 30
0.0
 10
14.118000
 20
103.402100
 30
0.0
 10
14.236200
 20
103.359500
 30
0.0
 10
14.351500
 20
103.309600
 30
0.0
 10
14.463500
 20
103.252600
 30
0.0
 10
14.571600
 20
103.188600
 30
0.0
 10
14.675600
 20
103.118000
 30
0.0
 10
14.774800
 20
103.041000
 30
0.0
 10
14.869100
 20
102.957900
 30
0.0
 10
14.957900
 20
102.869100
 30
0.0
 10
15.041000
 20
102.774800
 30
0.0
 10
15.118000
 20
102.675600
 30
0.0
 10
15.188600
 20
102.571600
 30
0.0
 10
15.252600
 20
102.463500
 30
0.0
 10
15.309600
 20
102.351500
 30
0.0
 10
15.359500
 20
102.236200
 30
0.0
 10
15.402100
 20
102.118000
 30
0.0
 10
15.437200
 20
101.997400
 30
0.0
 10
15.464600
 20
101.874800
 30
0.0
 10
15.484200
 20
101.750700
 30
0.0
 10
15.496000
 20
101.625600
 30
0.0
 10
15.500000
 20
101.500000
 30
0.0
 10
15.496000
 20
101.374400
 30
0.0
 10
15.484200
 20
101.249300
 30
0.0
 10
15.464600
 20
101.125200
 30
0.0
 10
15.437200
 20
101.002600
 30
0.0
 10
15.402100
 20
100.882000
 30
0.0
 10
15.359500
 20
100.763700
 30
0.0
 10
15.309600
 20
100.648400
 30
0.0
 10
15.252600
 20
100.536500
 30
0.0
 10
15.188600
 20
100.428300
 30
0.0
 10
15.118000
 20
100.324400
 30
0.0
 10
15.041000
 20
100.225100
 30
0.0
 10
14.957900
 20
100.130900
 30
0.0
 10
14.869100
 20
100.042100
 30
0.0
 10
14.774800
 20
99.959000
 30
0.0
 10
14.675600
 20
99.882000
 30
0.0
 10
14.571600
 20
99.811300
 30
0.0
 10
14.463500
 20
99.747400
 30
0.0
 10
14.351500
 20
99.690300
 30
0.0
 10
14.236200
 20
99.640400
 30
0.0
 10
14.118000
 20
99.597900
 30
0.0
 10
13.997400
 20
99.562800
 30
0.0
 10
13.874800
 20
99.535400
 30
0.0
 10
13.750700
 20
99.515800
 30
0.0
 10
13.625600
 20
99.503900
 30
0.0
 10
13.500000
 20
99.500000
 30
0.0
 10
13.374400
 20
99.503900
 30
0.0
 10
13.249300
 20
99.515800
 30
0.0
 10
13.125200
 20
99.535400
 30
0.0
 10
13.002600
 20
99.562800
 30
0.0
 10
12.882000
 20
99.597900
 30
0.0
 10
12.763700
 20
99.640400
 30
0.0
 10
12.648400
 20
99.690300
 30
0.0
 10
12.536500
 20
99.747400
 30
0.0
 10
12.428300
 20
99.811300
 30
0.0
 10
12.324400
 20
99.882000
 30
0.0
 10
12.225100
 20
99.959000
 30
0.0
 10
12.130900
 20
100.042100
 30
0.0
 10
12.042100
 20
100.130900
 30
0.0
 10
11.959000
 20
100.225100
 30
0.0
 10
11.882000
 20
100.324400
 30
0.0
 10
11.811300
 20
100.428300
 30
0.0
 10
11.747400
 20
100.536500
 30
0.0
 10
11.690300
 20
100.648400
 30
0.0
 10
11.640400
 20
100.763700
 30
0.0
 10
11.597900
 20
100.882000
 30
0.0
 10
11.562800
 20
101.002600
 30
0.0
 10
11.535400
 20
101.125200
 30
0.0
 10
11.515800
 20
101.249300
 30
0.0
 10
11.503900
 20
101.374400
 30
0.0
 10
11.500000
 20
101.500000
 30
0.0
 10
11.503900
 20
101.625600
 30
0.0
  0
LWPOLYLINE
  5
102
100
AcDbEntity
  8
0
 62
7
100
AcDbPolyline
 90
100
 70
1
 10
-11.515800
 20
101.249300
 30
0.0
 10
-11.535400
 20
101.125200
 30
0.0
 10
-11.562800
 20
101.002600
 30
0.0
 10
-11.597900
 20
100.882000
 30
0.0
 10
-11.640400
 20
100.763700
 30
0.0
 10
-11.690300
 20
100.648400
 30
0.0
 10
-11.747400
 20
100.536500
 30
0.0
 10
-11.811300
 20
100.428300
 30
0.0
 10
-11.882000
 20
100.324400
 30
0.0
 10
-11.959000
 20
100.225100
 30
0.0
 10
-12.042100
 20
100.130900
 30
0.0
 10
-12.130900
 20
100.042100
 30
0.0
 10
-12.225100
 20
99.959000
 30
0.0
 10
-12.324400
 20
99.882000
 30
0.0
 10
-12.428300
 20
99.811300
 30
0.0
 10
-12.536500
 20
99.747400
 30
0.0
 10
-12.648400
 20
99.690300
 30
0.0
 10
-12.763700
 20
99.640400
 30
0.0
 10
-12.882000
 20
99.597900
 30
0.0
 10
-13.002600
 20
99.562800
 30
0.0
 10
-13.125200
 20
99.535400
 30
0.0
 10
-13.249300
 20
99.515800
 30
0.0
 10
-13.374400
 20
99.503900
 30
0.0
 10
-13.500000
 20
99.500000
 30
0.0
 10
-13.625600
 20
99.503900
 30
0.0
 10
-13.750700
 20
99.515800
 30
0.0
 10
-13.874800
 20
99.535400
 30
0.0
 10
-13.997400
 20
99.562800
 30
0.0
 10
-14.118000
 20
99.597900
 30
0.0
 10
-14.236200
 20
99.640400
 30
0.0
 10
-14.351500
 20
99.690300
 30
0.0
 10
-14.463500
 20
99.747400
 30
0.0
 10
-14.571600
 20
99.811300
 30
0.0
 10
-14.675600
 20
99.882000
 30
0.0
 10
-14.774800
 20
99.959000
 30
0.0
 10
-14.869100
 20
100.042100
 30
0.0
 10
-14.957900
 20
100.130900
 30
0.0
 10
-15.041000
 20
100.225100
 30
0.0
 10
-15.118000
 20
100.324400
 30
0.0
 10
-15.188600
 20
100.428300
 30
0.0
 10
-15.252600
 20
100.536500
 30
0.0
 10
-15.309600
 20
100.648400
 30
0.0
 10
-15.359500
 20
100.763700
 30
0.0
 10
-15.402100
 20
100.882000
 30
0.0
 10
-15.437200
 20
101.002600
 30
0.0
 10
-15.464600
 20
101.125200
 30
0.0
 10
-15.484200
 20
101.249300
 30
0.0
 10
-15.496000
 20
101.374400
 30
0.0
 10
-15.500000
 20
101.500000
 30
0.0
 10
-15.496000
 20
101.625600
 30
0.0
 10
-15.484200
 20
101.750700
 30
0.0
 10
-15.464600
 20
101.874800
 30
0.0
 10
-15.437200
 20
101.997400
 30
0.0
 10
-15.402100
 20
102.118000
 30
0.0
 10
-15.359500
 20
102.236200
 30
0.0
 10
-15.309600
 20
102.351500
 30
0.0
 10
-15.252600
 20
102.463500
 30
0.0
 10
-15.188600
 20
102.571600
 30
0.0
 10
-15.118000
 20
102.675600
 30
0.0
 10
-15.041000
 20
102.774800
 30
0.0
 10
-14.957900
 20
102.869100
 30
0.0
 10
-14.869100
 20
102.957900
 30
0.0
 10
-14.774800
 20
103.041000
 30
0.0
 10
-14.675600
 20
103.118000
 30
0.0
 10
-14.571600
 20
103.188600
 30
0.0
 10
-14.463500
 20
103.252600
 30
0.0
 10
-14.351500
 20
103.309600
 30
0.0
 10
-14.236200
 20
103.359500
 30
0.0
 10
-14.118000
 20
103.402100
 30
0.0
 10
-13.997400
 20
103.437200
 30
0.0
 10
-13.874800
 20
103.464600
 30
0.0
 10
-13.750700
 20
103.484200
 30
0.0
 10
-13.625600
 20
103.496000
 30
0.0
 10
-13.500000
 20
103.500000
 30
0.0
 10
-13.374400
 20
103.496000
 30
0.0
 10
-13.249300
 20
103.484200
 30
0.0
 10
-13.125200
 20
103.464600
 30
0.0
 10
-13.002600
 20
103.437200
 30
0.0
 10
-12.882000
 20
103.402100
 30
0.0
 10
-12.763700
 20
103.359500
 30
0.0
 10
-12.648400
 20
103.309600
 30
0.0
 10
-12.536500
 20
103.252600
 30
0.0
 10
-12.428300
 20
103.188600
 30
0.0
 10
-12.324400
 20
103.118000
 30
0.0
 10
-12.225100
 20
103.041000
 30
0.0
 10
-12.130900
 20
102.957900
 30
0.0
 10
-12.042100
 20
102.869100
 30
0.0
 10
-11.959000
 20
102.774800
 30
0.0
 10
-11.882000
 20
102.675600
 30
0.0
 10
-11.811300
 20
102.571600
 30
0.0
 10
-11.747400
 20
102.463500
 30
0.0
 10
-11.690300
 20
102.351500
 30
0.0
 10
-11.640400
 20
102.236200
 30
0.0
 10
-11.597900
 20
102.118000
 30
0.0
 10
-11.562800
 20
101.997400
 30
0.0
 10
-11.535400
 20
101.874800
 30
0.0
 10
-11.515800
 20
101.750700
 30
0.0
 10
-11.503900
 20
101.625600
 30
0.0
 10
-11.500000
 20
101.500000
 30
0.0
 10
-11.503900
 20
101.374400
 30
0.0
  0
ENDSEC
  0
SECTION
  2
OBJECTS
  0
DICTIONARY
  5
C
330
0
100
AcDbDictionary
  3
ACAD_GROUP
350
D
  3
ACAD_MLINESTYLE
350
17
  0
DICTIONARY
  5
D
330
C
100
AcDbDictionary
  0
DICTIONARY
  5
1A
330
C
100
AcDbDictionary
  0
DICTIONARY
  5
17
330
C
100
AcDbDictionary
  3
STANDARD
350
18
  0
DICTIONARY
  5
19
330
C
100
AcDbDictionary
  0
ENDSEC
  0
EOF
