  0
SECTION
  2
HEADER
  9
$ACADVER
  1
AC1014
  9
$HANDSEED
  5
FFFF
  9
$MEASUREMENT
 70
     1
  0
ENDSEC
  0
SECTION
  2
TABLES
  0
TABLE
  2
VPORT
  5
8
330
0
100
AcDbSymbolTable
 70
     4
  0
VPORT
  5
2E
330
8
100
AcDbSymbolTableRecord
100
AcDbViewportTableRecord
  2
*ACTIVE
 70
     0
 10
0.0
 20
0.0
 11
1.0
 21
1.0
 12
210.0
 22
148.5
 13
0.0
 23
0.0
 14
10.0
 24
10.0
 15
10.0
 25
10.0
 16
0.0
 26
0.0
 36
1.0
 17
0.0
 27
0.0
 37
0.0
 40
341.0
 41
1.24
 42
50.0
 43
0.0
 44
0.0
 50
0.0
 51
0.0
 71
     0
 72
   100
 73
     1
 74
     3
 75
     0
 76
     0
 77
     0
 78
     0
  0
ENDTAB
  0
TABLE
  2
LTYPE
  5
5
330
0
100
AcDbSymbolTable
 70
     1
  0
LTYPE
  5
14
330
5
100
AcDbSymbolTableRecord
100
AcDbLinetypeTableRecord
  2
BYBLOCK
 70
     0
  3

 72
    65
 73
     0
 40
0.0
  0
LTYPE
  5
15
330
5
100
AcDbSymbolTableRecord
100
AcDbLinetypeTableRecord
  2
BYLAYER
 70
     0
  3

 72
    65
 73
     0
 40
0.0
  0
LTYPE
  5
16
330
5
100
AcDbSymbolTableRecord
100
AcDbLinetypeTableRecord
  2
CONTINUOUS
 70
     0
  3
Solid line
 72
    65
 73
     0
 40
0.0
  0
ENDTAB
  0
TABLE
  2
LAYER
  5
2
100
AcDbSymbolTable
 70
1
  0
LAYER
  5
50
100
AcDbSymbolTableRecord
100
AcDbLayerTableRecord
  2
0
 70
0
  6
CONTINUOUS
  0
ENDTAB
  0
TABLE
  2
STYLE
  5
3
330
0
100
AcDbSymbolTable
 70
     1
  0
STYLE
  5
11
330
3
100
AcDbSymbolTableRecord
100
AcDbTextStyleTableRecord
  2
STANDARD
 70
     0
 40
0.0
 41
1.0
 50
0.0
 71
     0
 42
2.5
  3
txt
  4

  0
ENDTAB
  0
TABLE
  2
VIEW
  5
6
330
0
100
AcDbSymbolTable
 70
     0
  0
ENDTAB
  0
TABLE
  2
UCS
  5
7
330
0
100
AcDbSymbolTable
 70
     0
  0
ENDTAB
  0
TABLE
  2
APPID
  5
9
330
0
100
AcDbSymbolTable
 70
     2
  0
APPID
  5
12
330
9
100
AcDbSymbolTableRecord
100
AcDbRegAppTableRecord
  2
ACAD
 70
     0
  0
ENDTAB
  0
TABLE
  2
DIMSTYLE
  5
A
330
0
100
AcDbSymbolTable
 70
     1
  0
DIMSTYLE
105
27
330
A
100
AcDbSymbolTableRecord
100
AcDbDimStyleTableRecord
  2
ISO-25
 70
     0
  3

  4

  5

  6

  7

 40
1.0
 41
2.5
 42
0.625
 43
3.75
 44
1.25
 45
0.0
 46
0.0
 47
0.0
 48
0.0
140
2.5
141
2.5
142
0.0
143
0.03937007874016
144
1.0
145
0.0
146
1.0
147
0.625
 71
     0
 72
     0
 73
     0
 74
     0
 75
     0
 76
     0
 77
     1
 78
     8
170
     0
171
     3
172
     1
173
     0
174
     0
175
     0
176
     0
177
     0
178
     0
270
     2
271
     2
272
     2
273
     2
274
     3
340
11
275
     0
280
     0
281
     0
282
     0
283
     0
284
     8
285
     0
286
     0
287
     3
288
     0
  0
ENDTAB
  0
TABLE
  2
BLOCK_RECORD
  5
1
330
0
100
AcDbSymbolTable
 70
     1
  0
BLOCK_RECORD
  5
1F
330
1
100
AcDbSymbolTableRecord
100
AcDbBlockTableRecord
  2
*MODEL_SPACE
  0
BLOCK_RECORD
  5
1B
330
1
100
AcDbSymbolTableRecord
100
AcDbBlockTableRecord
  2
*PAPER_SPACE
  0
ENDTAB
  0
ENDSEC
  0
SECTION
  2
BLOCKS
  0
BLOCK
  5
20
330
1F
100
AcDbEntity
  8
0
100
AcDbBlockBegin
  2
*MODEL_SPACE
 70
     0
 10
0.0
 20
0.0
 30
0.0
  3
*MODEL_SPACE
  1

  0
ENDBLK
  5
21
330
1F
100
AcDbEntity
  8
0
100
AcDbBlockEnd
  0
BLOCK
  5
1C
330
1B
100
AcDbEntity
 67
     1
  8
0
100
AcDbBlockBegin
  2
*PAPER_SPACE
  1

  0
ENDBLK
  5
1D
330
1B
100
AcDbEntity
 67
     1
  8
0
100
AcDbBlockEnd
  0
ENDSEC
  0
SECTION
  2
ENTITIES
  0
LWPOLYLINE
  5
100
100
AcDbEntity
  8
0
 62
7
100
AcDbPolyline
 90
73
 70
1
 10
-5.000000
 20
52.000000
 30
0.0
 10
-4.990130
 20
52.314000
 30
0.0
 10
-4.960570
 20
52.626700
 30
0.0
 10
-4.911420
 20
52.936900
 30
0.0
 10
-4.842910
 20
53.243500
 30
0.0
 10
-4.755280
 20
53.545100
 30
0.0
 10
-4.648880
 20
53.840600
 30
0.0
 10
-4.524120
 20
54.128910
 30
0.0
 10
-4.381530
 20
54.408780
 30
0.0
 10
-4.221630
 20
54.679140
 30
0.0
 10
-4.045070
 20
54.938930
 30
0.0
 10
-3.852550
 20
55.187130
 30
0.0
 10
-3.644840
 20
55.422740
 30
0.0
 10
-3.422730
 20
55.644850
 30
0.0
 10
-3.187120
 20
55.852570
 30
0.0
 10
-2.938920
 20
56.045090
 30
0.0
 10
-2.679120
 20
56.221650
 30
0.0
 10
-2.408770
 20
56.381550
 30
0.0
 10
-2.128890
 20
56.524140
 30
0.0
 10
-1.840620
 20
56.648900
 30
0.0
 10
-1.545070
 20
56.755290
 30
0.0
 10
-1.243440
 20
56.842930
 30
0.0
 10
-0.936905
 20
56.911440
 30
0.0
 10
-0.626663
 20
56.960590
 30
0.0
 10
-0.313950
 20
56.990140
 30
0.0
 10
0.000000
 20
57.000000
 30
0.0
 10
0.313950
 20
56.990140
 30
0.0
 10
0.626663
 20
56.960590
 30
0.0
 10
0.936905
 20
56.911440
 30
0.0
 10
1.243440
 20
56.842930
 30
0.0
 10
1.545070
 20
56.755290
 30
0.0
 10
1.840620
 20
56.648900
 30
0.0
 10
2.128890
 20
56.524140
 30
0.0
 10
2.408770
 20
56.381550
 30
0.0
 10
2.679120
 20
56.221650
 30
0.0
 10
2.938920
 20
56.045090
 30
0.0
 10
3.187120
 20
55.852570
 30
0.0
 10
3.422730
 20
55.644850
 30
0.0
 10
3.644840
 20
55.422740
 30
0.0
 10
3.852550
 20
55.187130
 30
0.0
 10
4.045070
 20
54.938930
 30
0.0
 10
4.221630
 20
54.679140
 30
0.0
 10
4.381530
 20
54.408780
 30
0.0
 10
4.524120
 20
54.128910
 30
0.0
 10
4.648880
 20
53.840600
 30
0.0
 10
4.755280
 20
53.545100
 30
0.0
 10
4.842910
 20
53.243500
 30
0.0
 10
4.911420
 20
52.936900
 30
0.0
 10
4.960570
 20
52.626700
 30
0.0
 10
4.990130
 20
52.314000
 30
0.0
 10
5.000000
 20
52.000000
 30
0.0
 10
5.000000
 20
32.000000
 30
0.0
 10
17.500000
 20
32.000000
 30
0.0
 10
19.413400
 20
32.380600
 30
0.0
 10
21.035500
 20
33.464500
 30
0.0
 10
22.119400
 20
35.086600
 30
0.0
 10
22.500000
 20
37.000000
 30
0.0
 10
22.500000
 20
91.000000
 30
0.0
 10
22.119400
 20
92.913400
 30
0.0
 10
21.035500
 20
94.535500
 30
0.0
 10
19.413400
 20
95.619400
 30
0.0
 10
17.500000
 20
96.000000
 30
0.0
 10
-17.500000
 20
96.000000
 30
0.0
 10
-19.413400
 20
95.619400
 30
0.0
 10
-21.035500
 20
94.535500
 30
0.0
 10
-22.119400
 20
92.913400
 30
0.0
 10
-22.500000
 20
91.000000
 30
0.0
 10
-22.500000
 20
37.000000
 30
0.0
 10
-22.119400
 20
35.086600
 30
0.0
 10
-21.035500
 20
33.464500
 30
0.0
 10
-19.413400
 20
32.380600
 30
0.0
 10
-17.500000
 20
32.000000
 30
0.0
 10
-5.000000
 20
32.000000
 30
0.0
  0
LWPOLYLINE
  5
101
100
AcDbEntity
  8
0
 62
7
100
AcDbPolyline
 90
100
 70
1
 10
11.515800
 20
87.250700
 30
0.0
 10
11.535400
 20
87.374800
 30
0.0
 10
11.562800
 20
87.497400
 30
0.0
 10
11.597900
 20
87.618000
 30
0.0
 10
11.640400
 20
87.736200
 30
0.0
 10
11.690300
 20
87.851500
 30
0.0
 10
11.747400
 20
87.963500
 30
0.0
 10
11.811300
 20
88.071600
 30
0.0
 10
11.882000
 20
88.175600
 30
0.0
 10
11.959000
 20
88.274800
 30
0.0
 10
12.042100
 20
88.369100
 30
0.0
 10
12.130900
 20
88.457900
 30
0.0
 10
12.225100
 20
88.541000
 30
0.0
 10
12.324400
 20
88.618000
 30
0.0
 10
12.428300
 20
88.688600
 30
0.0
 10
12.536500
 20
88.752600
 30
0.0
 10
12.648400
 20
88.809600
 30
0.0
 10
12.763700
 20
88.859500
 30
0.0
 10
12.882000
 20
88.902100
 30
0.0
 10
13.002600
 20
88.937200
 30
0.0
 10
13.125200
 20
88.964600
 30
0.0
 10
13.249300
 20
88.984200
 30
0.0
 10
13.374400
 20
88.996000
 30
0.0
 10
13.500000
 20
89.000000
 30
0.0
 10
13.625600
 20
88.996000
 30
0.0
 10
13.750700
 20
88.984200
 30
0.0
 10
13.874800
 20
88.964600
 30
0.0
 10
13.997400
 20
88.937200
 30
0.0
 10
14.118000
 20
88.902100
 30
0.0
 10
14.236200
 20
88.859500
 30
0.0
 10
14.351500
 20
88.809600
 30
0.0
 10
14.463500
 20
88.752600
 30
0.0
 10
14.571600
 20
88.688600
 30
0.0
 10
14.675600
 20
88.618000
 30
0.0
 10
14.774800
 20
88.541000
 30
0.0
 10
14.869100
 20
88.457900
 30
0.0
 10
14.957900
 20
88.369100
 30
0.0
 10
15.041000
 20
88.274800
 30
0.0
 10
15.118000
 20
88.175600
 30
0.0
 10
15.188600
 20
88.071600
 30
0.0
 10
15.252600
 20
87.963500
 30
0.0
 10
15.309600
 20
87.851500
 30
0.0
 10
15.359500
 20
87.736200
 30
0.0
 10
15.402100
 20
87.618000
 30
0.0
 10
15.437200
 20
87.497400
 30
0.0
 10
15.464600
 20
87.374800
 30
0.0
 10
15.484200
 20
87.250700
 30
0.0
 10
15.496000
 20
87.125600
 30
0.0
 10
15.500000
 20
87.000000
 30
0.0
 10
15.496000
 20
86.874400
 30
0.0
 10
15.484200
 20
86.749300
 30
0.0
 10
15.464600
 20
86.625200
 30
0.0
 10
15.437200
 20
86.502600
 30
0.0
 10
15.402100
 20
86.382000
 30
0.0
 10
15.359500
 20
86.263700
 30
0.0
 10
15.309600
 20
86.148400
 30
0.0
 10
15.252600
 20
86.036500
 30
0.0
 10
15.188600
 20
85.928300
 30
0.0
 10
15.118000
 20
85.824400
 30
0.0
 10
15.041000
 20
85.725100
 30
0.0
 10
14.957900
 20
85.630900
 30
0.0
 10
14.869100
 20
85.542100
 30
0.0
 10
14.774800
 20
85.459000
 30
0.0
 10
14.675600
 20
85.382000
 30
0.0
 10
14.571600
 20
85.311300
 30
0.0
 10
14.463500
 20
85.247400
 30
0.0
 10
14.351500
 20
85.190300
 30
0.0
 10
14.236200
 20
85.140400
 30
0.0
 10
14.118000
 20
85.097900
 30
0.0
 10
13.997400
 20
85.062800
 30
0.0
 10
13.874800
 20
85.035400
 30
0.0
 10
13.750700
 20
85.015800
 30
0.0
 10
13.625600
 20
85.003900
 30
0.0
 10
13.500000
 20
85.000000
 30
0.0
 10
13.374400
 20
85.003900
 30
0.0
 10
13.249300
 20
85.015800
 30
0.0
 10
13.125200
 20
85.035400
 30
0.0
 10
13.002600
 20
85.062800
 30
0.0
 10
12.882000
 20
85.097900
 30
0.0
 10
12.763700
 20
85.140400
 30
0.0
 10
12.648400
 20
85.190300
 30
0.0
 10
12.536500
 20
85.247400
 30
0.0
 10
12.428300
 20
85.311300
 30
0.0
 10
12.324400
 20
85.382000
 30
0.0
 10
12.225100
 20
85.459000
 30
0.0
 10
12.130900
 20
85.542100
 30
0.0
 10
12.042100
 20
85.630900
 30
0.0
 10
11.959000
 20
85.725100
 30
0.0
 10
11.882000
 20
85.824400
 30
0.0
 10
11.811300
 20
85.928300
 30
0.0
 10
11.747400
 20
86.036500
 30
0.0
 10
11.690300
 20
86.148400
 30
0.0
 10
11.640400
 20
86.263700
 30
0.0
 10
11.597900
 20
86.382000
 30
0.0
 10
11.562800
 20
86.502600
 30
0.0
 10
11.535400
 20
86.625200
 30
0.0
 10
11.515800
 20
86.749300
 30
0.0
 10
11.503900
 20
86.874400
 30
0.0
 10
11.500000
 20
87.000000
 30
0.0
 10
11.503900
 20
87.125600
 30
0.0
  0
LWPOLYLINE
  5
102
100
AcDbEntity
  8
0
 62
7
100
AcDbPolyline
 90
100
 70
1
 10
-11.515800
 20
86.749300
 30
0.0
 10
-11.535400
 20
86.625200
 30
0.0
 10
-11.562800
 20
86.502600
 30
0.0
 10
-11.597900
 20
86.382000
 30
0.0
 10
-11.640400
 20
86.263700
 30
0.0
 10
-11.690300
 20
86.148400
 30
0.0
 10
-11.747400
 20
86.036500
 30
0.0
 10
-11.811300
 20
85.928300
 30
0.0
 10
-11.882000
 20
85.824400
 30
0.0
 10
-11.959000
 20
85.725100
 30
0.0
 10
-12.042100
 20
85.630900
 30
0.0
 10
-12.130900
 20
85.542100
 30
0.0
 10
-12.225100
 20
85.459000
 30
0.0
 10
-12.324400
 20
85.382000
 30
0.0
 10
-12.428300
 20
85.311300
 30
0.0
 10
-12.536500
 20
85.247400
 30
0.0
 10
-12.648400
 20
85.190300
 30
0.0
 10
-12.763700
 20
85.140400
 30
0.0
 10
-12.882000
 20
85.097900
 30
0.0
 10
-13.002600
 20
85.062800
 30
0.0
 10
-13.125200
 20
85.035400
 30
0.0
 10
-13.249300
 20
85.015800
 30
0.0
 10
-13.374400
 20
85.003900
 30
0.0
 10
-13.500000
 20
85.000000
 30
0.0
 10
-13.625600
 20
85.003900
 30
0.0
 10
-13.750700
 20
85.015800
 30
0.0
 10
-13.874800
 20
85.035400
 30
0.0
 10
-13.997400
 20
85.062800
 30
0.0
 10
-14.118000
 20
85.097900
 30
0.0
 10
-14.236200
 20
85.140400
 30
0.0
 10
-14.351500
 20
85.190300
 30
0.0
 10
-14.463500
 20
85.247400
 30
0.0
 10
-14.571600
 20
85.311300
 30
0.0
 10
-14.675600
 20
85.382000
 30
0.0
 10
-14.774800
 20
85.459000
 30
0.0
 10
-14.869100
 20
85.542100
 30
0.0
 10
-14.957900
 20
85.630900
 30
0.0
 10
-15.041000
 20
85.725100
 30
0.0
 10
-15.118000
 20
85.824400
 30
0.0
 10
-15.188600
 20
85.928300
 30
0.0
 10
-15.252600
 20
86.036500
 30
0.0
 10
-15.309600
 20
86.148400
 30
0.0
 10
-15.359500
 20
86.263700
 30
0.0
 10
-15.402100
 20
86.382000
 30
0.0
 10
-15.437200
 20
86.502600
 30
0.0
 10
-15.464600
 20
86.625200
 30
0.0
 10
-15.484200
 20
86.749300
 30
0.0
 10
-15.496000
 20
86.874400
 30
0.0
 10
-15.500000
 20
87.000000
 30
0.0
 10
-15.496000
 20
87.125600
 30
0.0
 10
-15.484200
 20
87.250700
 30
0.0
 10
-15.464600
 20
87.374800
 30
0.0
 10
-15.437200
 20
87.497400
 30
0.0
 10
-15.402100
 20
87.618000
 30
0.0
 10
-15.359500
 20
87.736200
 30
0.0
 10
-15.309600
 20
87.851500
 30
0.0
 10
-15.252600
 20
87.963500
 30
0.0
 10
-15.188600
 20
88.071600
 30
0.0
 10
-15.118000
 20
88.175600
 30
0.0
 10
-15.041000
 20
88.274800
 30
0.0
 10
-14.957900
 20
88.369100
 30
0.0
 10
-14.869100
 20
88.457900
 30
0.0
 10
-14.774800
 20
88.541000
 30
0.0
 10
-14.675600
 20
88.618000
 30
0.0
 10
-14.571600
 20
88.688600
 30
0.0
 10
-14.463500
 20
88.752600
 30
0.0
 10
-14.351500
 20
88.809600
 30
0.0
 10
-14.236200
 20
88.859500
 30
0.0
 10
-14.118000
 20
88.902100
 30
0.0
 10
-13.997400
 20
88.937200
 30
0.0
 10
-13.874800
 20
88.964600
 30
0.0
 10
-13.750700
 20
88.984200
 30
0.0
 10
-13.625600
 20
88.996000
 30
0.0
 10
-13.500000
 20
89.000000
 30
0.0
 10
-13.374400
 20
88.996000
 30
0.0
 10
-13.249300
 20
88.984200
 30
0.0
 10
-13.125200
 20
88.964600
 30
0.0
 10
-13.002600
 20
88.937200
 30
0.0
 10
-12.882000
 20
88.902100
 30
0.0
 10
-12.763700
 20
88.859500
 30
0.0
 10
-12.648400
 20
88.809600
 30
0.0
 10
-12.536500
 20
88.752600
 30
0.0
 10
-12.428300
 20
88.688600
 30
0.0
 10
-12.324400
 20
88.618000
 30
0.0
 10
-12.225100
 20
88.541000
 30
0.0
 10
-12.130900
 20
88.457900
 30
0.0
 10
-12.042100
 20
88.369100
 30
0.0
 10
-11.959000
 20
88.274800
 30
0.0
 10
-11.882000
 20
88.175600
 30
0.0
 10
-11.811300
 20
88.071600
 30
0.0
 10
-11.747400
 20
87.963500
 30
0.0
 10
-11.690300
 20
87.851500
 30
0.0
 10
-11.640400
 20
87.736200
 30
0.0
 10
-11.597900
 20
87.618000
 30
0.0
 10
-11.562800
 20
87.497400
 30
0.0
 10
-11.535400
 20
87.374800
 30
0.0
 10
-11.515800
 20
87.250700
 30
0.0
 10
-11.503900
 20
87.125600
 30
0.0
 10
-11.500000
 20
87.000000
 30
0.0
 10
-11.503900
 20
86.874400
 30
0.0
  0
ENDSEC
  0
SECTION
  2
OBJECTS
  0
DICTIONARY
  5
C
330
0
100
AcDbDictionary
  3
ACAD_GROUP
350
D
  3
ACAD_MLINESTYLE
350
17
  0
DICTIONARY
  5
D
330
C
100
AcDbDictionary
  0
DICTIONARY
  5
1A
330
C
100
AcDbDictionary
  0
DICTIONARY
  5
17
330
C
100
AcDbDictionary
  3
STANDARD
350
18
  0
DICTIONARY
  5
19
330
C
100
AcDbDictionary
  0
ENDSEC
  0
EOF
