  0
SECTION
  2
HEADER
  9
$ACADVER
  1
AC1014
  9
$HANDSEED
  5
FFFF
  9
$MEASUREMENT
 70
     1
  0
ENDSEC
  0
SECTION
  2
TABLES
  0
TABLE
  2
VPORT
  5
8
330
0
100
AcDbSymbolTable
 70
     4
  0
VPORT
  5
2E
330
8
100
AcDbSymbolTableRecord
100
AcDbViewportTableRecord
  2
*ACTIVE
 70
     0
 10
0.0
 20
0.0
 11
1.0
 21
1.0
 12
210.0
 22
148.5
 13
0.0
 23
0.0
 14
10.0
 24
10.0
 15
10.0
 25
10.0
 16
0.0
 26
0.0
 36
1.0
 17
0.0
 27
0.0
 37
0.0
 40
341.0
 41
1.24
 42
50.0
 43
0.0
 44
0.0
 50
0.0
 51
0.0
 71
     0
 72
   100
 73
     1
 74
     3
 75
     0
 76
     0
 77
     0
 78
     0
  0
ENDTAB
  0
TABLE
  2
LTYPE
  5
5
330
0
100
AcDbSymbolTable
 70
     1
  0
LTYPE
  5
14
330
5
100
AcDbSymbolTableRecord
100
AcDbLinetypeTableRecord
  2
BYBLOCK
 70
     0
  3

 72
    65
 73
     0
 40
0.0
  0
LTYPE
  5
15
330
5
100
AcDbSymbolTableRecord
100
AcDbLinetypeTableRecord
  2
BYLAYER
 70
     0
  3

 72
    65
 73
     0
 40
0.0
  0
LTYPE
  5
16
330
5
100
AcDbSymbolTableRecord
100
AcDbLinetypeTableRecord
  2
CONTINUOUS
 70
     0
  3
Solid line
 72
    65
 73
     0
 40
0.0
  0
ENDTAB
  0
TABLE
  2
LAYER
  5
2
100
AcDbSymbolTable
 70
1
  0
LAYER
  5
50
100
AcDbSymbolTableRecord
100
AcDbLayerTableRecord
  2
0
 70
0
  6
CONTINUOUS
  0
ENDTAB
  0
TABLE
  2
STYLE
  5
3
330
0
100
AcDbSymbolTable
 70
     1
  0
STYLE
  5
11
330
3
100
AcDbSymbolTableRecord
100
AcDbTextStyleTableRecord
  2
STANDARD
 70
     0
 40
0.0
 41
1.0
 50
0.0
 71
     0
 42
2.5
  3
txt
  4

  0
ENDTAB
  0
TABLE
  2
VIEW
  5
6
330
0
100
AcDbSymbolTable
 70
     0
  0
ENDTAB
  0
TABLE
  2
UCS
  5
7
330
0
100
AcDbSymbolTable
 70
     0
  0
ENDTAB
  0
TABLE
  2
APPID
  5
9
330
0
100
AcDbSymbolTable
 70
     2
  0
APPID
  5
12
330
9
100
AcDbSymbolTableRecord
100
AcDbRegAppTableRecord
  2
ACAD
 70
     0
  0
ENDTAB
  0
TABLE
  2
DIMSTYLE
  5
A
330
0
100
AcDbSymbolTable
 70
     1
  0
DIMSTYLE
105
27
330
A
100
AcDbSymbolTableRecord
100
AcDbDimStyleTableRecord
  2
ISO-25
 70
     0
  3

  4

  5

  6

  7

 40
1.0
 41
2.5
 42
0.625
 43
3.75
 44
1.25
 45
0.0
 46
0.0
 47
0.0
 48
0.0
140
2.5
141
2.5
142
0.0
143
0.03937007874016
144
1.0
145
0.0
146
1.0
147
0.625
 71
     0
 72
     0
 73
     0
 74
     0
 75
     0
 76
     0
 77
     1
 78
     8
170
     0
171
     3
172
     1
173
     0
174
     0
175
     0
176
     0
177
     0
178
     0
270
     2
271
     2
272
     2
273
     2
274
     3
340
11
275
     0
280
     0
281
     0
282
     0
283
     0
284
     8
285
     0
286
     0
287
     3
288
     0
  0
ENDTAB
  0
TABLE
  2
BLOCK_RECORD
  5
1
330
0
100
AcDbSymbolTable
 70
     1
  0
BLOCK_RECORD
  5
1F
330
1
100
AcDbSymbolTableRecord
100
AcDbBlockTableRecord
  2
*MODEL_SPACE
  0
BLOCK_RECORD
  5
1B
330
1
100
AcDbSymbolTableRecord
100
AcDbBlockTableRecord
  2
*PAPER_SPACE
  0
ENDTAB
  0
ENDSEC
  0
SECTION
  2
BLOCKS
  0
BLOCK
  5
20
330
1F
100
AcDbEntity
  8
0
100
AcDbBlockBegin
  2
*MODEL_SPACE
 70
     0
 10
0.0
 20
0.0
 30
0.0
  3
*MODEL_SPACE
  1

  0
ENDBLK
  5
21
330
1F
100
AcDbEntity
  8
0
100
AcDbBlockEnd
  0
BLOCK
  5
1C
330
1B
100
AcDbEntity
 67
     1
  8
0
100
AcDbBlockBegin
  2
*PAPER_SPACE
  1

  0
ENDBLK
  5
1D
330
1B
100
AcDbEntity
 67
     1
  8
0
100
AcDbBlockEnd
  0
ENDSEC
  0
SECTION
  2
ENTITIES
  0
LWPOLYLINE
  5
100
100
AcDbEntity
  8
0
 62
7
100
AcDbPolyline
 90
73
 70
1
 10
-5.000000
 20
48.500000
 30
0.0
 10
-4.990130
 20
48.813960
 30
0.0
 10
-4.960570
 20
49.126680
 30
0.0
 10
-4.911420
 20
49.436920
 30
0.0
 10
-4.842910
 20
49.743450
 30
0.0
 10
-4.755280
 20
50.045090
 30
0.0
 10
-4.648880
 20
50.340640
 30
0.0
 10
-4.524120
 20
50.628910
 30
0.0
 10
-4.381530
 20
50.908780
 30
0.0
 10
-4.221630
 20
51.179140
 30
0.0
 10
-4.045070
 20
51.438930
 30
0.0
 10
-3.852550
 20
51.687130
 30
0.0
 10
-3.644840
 20
51.922740
 30
0.0
 10
-3.422730
 20
52.144850
 30
0.0
 10
-3.187120
 20
52.352570
 30
0.0
 10
-2.938920
 20
52.545090
 30
0.0
 10
-2.679120
 20
52.721650
 30
0.0
 10
-2.408770
 20
52.881550
 30
0.0
 10
-2.128890
 20
53.024140
 30
0.0
 10
-1.840620
 20
53.148900
 30
0.0
 10
-1.545070
 20
53.255290
 30
0.0
 10
-1.243440
 20
53.342930
 30
0.0
 10
-0.936905
 20
53.411440
 30
0.0
 10
-0.626663
 20
53.460590
 30
0.0
 10
-0.313950
 20
53.490140
 30
0.0
 10
0.000000
 20
53.500000
 30
0.0
 10
0.313950
 20
53.490140
 30
0.0
 10
0.626663
 20
53.460590
 30
0.0
 10
0.936905
 20
53.411440
 30
0.0
 10
1.243440
 20
53.342930
 30
0.0
 10
1.545070
 20
53.255290
 30
0.0
 10
1.840620
 20
53.148900
 30
0.0
 10
2.128890
 20
53.024140
 30
0.0
 10
2.408770
 20
52.881550
 30
0.0
 10
2.679120
 20
52.721650
 30
0.0
 10
2.938920
 20
52.545090
 30
0.0
 10
3.187120
 20
52.352570
 30
0.0
 10
3.422730
 20
52.144850
 30
0.0
 10
3.644840
 20
51.922740
 30
0.0
 10
3.852550
 20
51.687130
 30
0.0
 10
4.045070
 20
51.438930
 30
0.0
 10
4.221630
 20
51.179140
 30
0.0
 10
4.381530
 20
50.908780
 30
0.0
 10
4.524120
 20
50.628910
 30
0.0
 10
4.648880
 20
50.340640
 30
0.0
 10
4.755280
 20
50.045090
 30
0.0
 10
4.842910
 20
49.743450
 30
0.0
 10
4.911420
 20
49.436920
 30
0.0
 10
4.960570
 20
49.126680
 30
0.0
 10
4.990130
 20
48.813960
 30
0.0
 10
5.000000
 20
48.500000
 30
0.0
 10
5.000000
 20
28.500000
 30
0.0
 10
17.500000
 20
28.500000
 30
0.0
 10
19.413400
 20
28.880600
 30
0.0
 10
21.035500
 20
29.964500
 30
0.0
 10
22.119400
 20
31.586600
 30
0.0
 10
22.500000
 20
33.500000
 30
0.0
 10
22.500000
 20
78.500000
 30
0.0
 10
22.119400
 20
80.413400
 30
0.0
 10
21.035500
 20
82.035500
 30
0.0
 10
19.413400
 20
83.119400
 30
0.0
 10
17.500000
 20
83.500000
 30
0.0
 10
-17.500000
 20
83.500000
 30
0.0
 10
-19.413400
 20
83.119400
 30
0.0
 10
-21.035500
 20
82.035500
 30
0.0
 10
-22.119400
 20
80.413400
 30
0.0
 10
-22.500000
 20
78.500000
 30
0.0
 10
-22.500000
 20
33.500000
 30
0.0
 10
-22.119400
 20
31.586600
 30
0.0
 10
-21.035500
 20
29.964500
 30
0.0
 10
-19.413400
 20
28.880600
 30
0.0
 10
-17.500000
 20
28.500000
 30
0.0
 10
-5.000000
 20
28.500000
 30
0.0
  0
LWPOLYLINE
  5
101
100
AcDbEntity
  8
0
 62
7
100
AcDbPolyline
 90
100
 70
1
 10
11.515800
 20
74.750700
 30
0.0
 10
11.535400
 20
74.874800
 30
0.0
 10
11.562800
 20
74.997400
 30
0.0
 10
11.597900
 20
75.118000
 30
0.0
 10
11.640400
 20
75.236200
 30
0.0
 10
11.690300
 20
75.351500
 30
0.0
 10
11.747400
 20
75.463500
 30
0.0
 10
11.811300
 20
75.571600
 30
0.0
 10
11.882000
 20
75.675600
 30
0.0
 10
11.959000
 20
75.774800
 30
0.0
 10
12.042100
 20
75.869100
 30
0.0
 10
12.130900
 20
75.957900
 30
0.0
 10
12.225100
 20
76.041000
 30
0.0
 10
12.324400
 20
76.118000
 30
0.0
 10
12.428300
 20
76.188600
 30
0.0
 10
12.536500
 20
76.252600
 30
0.0
 10
12.648400
 20
76.309600
 30
0.0
 10
12.763700
 20
76.359500
 30
0.0
 10
12.882000
 20
76.402100
 30
0.0
 10
13.002600
 20
76.437200
 30
0.0
 10
13.125200
 20
76.464600
 30
0.0
 10
13.249300
 20
76.484200
 30
0.0
 10
13.374400
 20
76.496000
 30
0.0
 10
13.500000
 20
76.500000
 30
0.0
 10
13.625600
 20
76.496000
 30
0.0
 10
13.750700
 20
76.484200
 30
0.0
 10
13.874800
 20
76.464600
 30
0.0
 10
13.997400
 20
76.437200
 30
0.0
 10
14.118000
 20
76.402100
 30
0.0
 10
14.236200
 20
76.359500
 30
0.0
 10
14.351500
 20
76.309600
 30
0.0
 10
14.463500
 20
76.252600
 30
0.0
 10
14.571600
 20
76.188600
 30
0.0
 10
14.675600
 20
76.118000
 30
0.0
 10
14.774800
 20
76.041000
 30
0.0
 10
14.869100
 20
75.957900
 30
0.0
 10
14.957900
 20
75.869100
 30
0.0
 10
15.041000
 20
75.774800
 30
0.0
 10
15.118000
 20
75.675600
 30
0.0
 10
15.188600
 20
75.571600
 30
0.0
 10
15.252600
 20
75.463500
 30
0.0
 10
15.309600
 20
75.351500
 30
0.0
 10
15.359500
 20
75.236200
 30
0.0
 10
15.402100
 20
75.118000
 30
0.0
 10
15.437200
 20
74.997400
 30
0.0
 10
15.464600
 20
74.874800
 30
0.0
 10
15.484200
 20
74.750700
 30
0.0
 10
15.496000
 20
74.625600
 30
0.0
 10
15.500000
 20
74.500000
 30
0.0
 10
15.496000
 20
74.374400
 30
0.0
 10
15.484200
 20
74.249300
 30
0.0
 10
15.464600
 20
74.125200
 30
0.0
 10
15.437200
 20
74.002600
 30
0.0
 10
15.402100
 20
73.882000
 30
0.0
 10
15.359500
 20
73.763700
 30
0.0
 10
15.309600
 20
73.648400
 30
0.0
 10
15.252600
 20
73.536500
 30
0.0
 10
15.188600
 20
73.428300
 30
0.0
 10
15.118000
 20
73.324400
 30
0.0
 10
15.041000
 20
73.225100
 30
0.0
 10
14.957900
 20
73.130900
 30
0.0
 10
14.869100
 20
73.042100
 30
0.0
 10
14.774800
 20
72.959000
 30
0.0
 10
14.675600
 20
72.882000
 30
0.0
 10
14.571600
 20
72.811300
 30
0.0
 10
14.463500
 20
72.747400
 30
0.0
 10
14.351500
 20
72.690300
 30
0.0
 10
14.236200
 20
72.640400
 30
0.0
 10
14.118000
 20
72.597900
 30
0.0
 10
13.997400
 20
72.562800
 30
0.0
 10
13.874800
 20
72.535400
 30
0.0
 10
13.750700
 20
72.515800
 30
0.0
 10
13.625600
 20
72.503900
 30
0.0
 10
13.500000
 20
72.500000
 30
0.0
 10
13.374400
 20
72.503900
 30
0.0
 10
13.249300
 20
72.515800
 30
0.0
 10
13.125200
 20
72.535400
 30
0.0
 10
13.002600
 20
72.562800
 30
0.0
 10
12.882000
 20
72.597900
 30
0.0
 10
12.763700
 20
72.640400
 30
0.0
 10
12.648400
 20
72.690300
 30
0.0
 10
12.536500
 20
72.747400
 30
0.0
 10
12.428300
 20
72.811300
 30
0.0
 10
12.324400
 20
72.882000
 30
0.0
 10
12.225100
 20
72.959000
 30
0.0
 10
12.130900
 20
73.042100
 30
0.0
 10
12.042100
 20
73.130900
 30
0.0
 10
11.959000
 20
73.225100
 30
0.0
 10
11.882000
 20
73.324400
 30
0.0
 10
11.811300
 20
73.428300
 30
0.0
 10
11.747400
 20
73.536500
 30
0.0
 10
11.690300
 20
73.648400
 30
0.0
 10
11.640400
 20
73.763700
 30
0.0
 10
11.597900
 20
73.882000
 30
0.0
 10
11.562800
 20
74.002600
 30
0.0
 10
11.535400
 20
74.125200
 30
0.0
 10
11.515800
 20
74.249300
 30
0.0
 10
11.503900
 20
74.374400
 30
0.0
 10
11.500000
 20
74.500000
 30
0.0
 10
11.503900
 20
74.625600
 30
0.0
  0
LWPOLYLINE
  5
102
100
AcDbEntity
  8
0
 62
7
100
AcDbPolyline
 90
100
 70
1
 10
-11.515800
 20
74.249300
 30
0.0
 10
-11.535400
 20
74.125200
 30
0.0
 10
-11.562800
 20
74.002600
 30
0.0
 10
-11.597900
 20
73.882000
 30
0.0
 10
-11.640400
 20
73.763700
 30
0.0
 10
-11.690300
 20
73.648400
 30
0.0
 10
-11.747400
 20
73.536500
 30
0.0
 10
-11.811300
 20
73.428300
 30
0.0
 10
-11.882000
 20
73.324400
 30
0.0
 10
-11.959000
 20
73.225100
 30
0.0
 10
-12.042100
 20
73.130900
 30
0.0
 10
-12.130900
 20
73.042100
 30
0.0
 10
-12.225100
 20
72.959000
 30
0.0
 10
-12.324400
 20
72.882000
 30
0.0
 10
-12.428300
 20
72.811300
 30
0.0
 10
-12.536500
 20
72.747400
 30
0.0
 10
-12.648400
 20
72.690300
 30
0.0
 10
-12.763700
 20
72.640400
 30
0.0
 10
-12.882000
 20
72.597900
 30
0.0
 10
-13.002600
 20
72.562800
 30
0.0
 10
-13.125200
 20
72.535400
 30
0.0
 10
-13.249300
 20
72.515800
 30
0.0
 10
-13.374400
 20
72.503900
 30
0.0
 10
-13.500000
 20
72.500000
 30
0.0
 10
-13.625600
 20
72.503900
 30
0.0
 10
-13.750700
 20
72.515800
 30
0.0
 10
-13.874800
 20
72.535400
 30
0.0
 10
-13.997400
 20
72.562800
 30
0.0
 10
-14.118000
 20
72.597900
 30
0.0
 10
-14.236200
 20
72.640400
 30
0.0
 10
-14.351500
 20
72.690300
 30
0.0
 10
-14.463500
 20
72.747400
 30
0.0
 10
-14.571600
 20
72.811300
 30
0.0
 10
-14.675600
 20
72.882000
 30
0.0
 10
-14.774800
 20
72.959000
 30
0.0
 10
-14.869100
 20
73.042100
 30
0.0
 10
-14.957900
 20
73.130900
 30
0.0
 10
-15.041000
 20
73.225100
 30
0.0
 10
-15.118000
 20
73.324400
 30
0.0
 10
-15.188600
 20
73.428300
 30
0.0
 10
-15.252600
 20
73.536500
 30
0.0
 10
-15.309600
 20
73.648400
 30
0.0
 10
-15.359500
 20
73.763700
 30
0.0
 10
-15.402100
 20
73.882000
 30
0.0
 10
-15.437200
 20
74.002600
 30
0.0
 10
-15.464600
 20
74.125200
 30
0.0
 10
-15.484200
 20
74.249300
 30
0.0
 10
-15.496000
 20
74.374400
 30
0.0
 10
-15.500000
 20
74.500000
 30
0.0
 10
-15.496000
 20
74.625600
 30
0.0
 10
-15.484200
 20
74.750700
 30
0.0
 10
-15.464600
 20
74.874800
 30
0.0
 10
-15.437200
 20
74.997400
 30
0.0
 10
-15.402100
 20
75.118000
 30
0.0
 10
-15.359500
 20
75.236200
 30
0.0
 10
-15.309600
 20
75.351500
 30
0.0
 10
-15.252600
 20
75.463500
 30
0.0
 10
-15.188600
 20
75.571600
 30
0.0
 10
-15.118000
 20
75.675600
 30
0.0
 10
-15.041000
 20
75.774800
 30
0.0
 10
-14.957900
 20
75.869100
 30
0.0
 10
-14.869100
 20
75.957900
 30
0.0
 10
-14.774800
 20
76.041000
 30
0.0
 10
-14.675600
 20
76.118000
 30
0.0
 10
-14.571600
 20
76.188600
 30
0.0
 10
-14.463500
 20
76.252600
 30
0.0
 10
-14.351500
 20
76.309600
 30
0.0
 10
-14.236200
 20
76.359500
 30
0.0
 10
-14.118000
 20
76.402100
 30
0.0
 10
-13.997400
 20
76.437200
 30
0.0
 10
-13.874800
 20
76.464600
 30
0.0
 10
-13.750700
 20
76.484200
 30
0.0
 10
-13.625600
 20
76.496000
 30
0.0
 10
-13.500000
 20
76.500000
 30
0.0
 10
-13.374400
 20
76.496000
 30
0.0
 10
-13.249300
 20
76.484200
 30
0.0
 10
-13.125200
 20
76.464600
 30
0.0
 10
-13.002600
 20
76.437200
 30
0.0
 10
-12.882000
 20
76.402100
 30
0.0
 10
-12.763700
 20
76.359500
 30
0.0
 10
-12.648400
 20
76.309600
 30
0.0
 10
-12.536500
 20
76.252600
 30
0.0
 10
-12.428300
 20
76.188600
 30
0.0
 10
-12.324400
 20
76.118000
 30
0.0
 10
-12.225100
 20
76.041000
 30
0.0
 10
-12.130900
 20
75.957900
 30
0.0
 10
-12.042100
 20
75.869100
 30
0.0
 10
-11.959000
 20
75.774800
 30
0.0
 10
-11.882000
 20
75.675600
 30
0.0
 10
-11.811300
 20
75.571600
 30
0.0
 10
-11.747400
 20
75.463500
 30
0.0
 10
-11.690300
 20
75.351500
 30
0.0
 10
-11.640400
 20
75.236200
 30
0.0
 10
-11.597900
 20
75.118000
 30
0.0
 10
-11.562800
 20
74.997400
 30
0.0
 10
-11.535400
 20
74.874800
 30
0.0
 10
-11.515800
 20
74.750700
 30
0.0
 10
-11.503900
 20
74.625600
 30
0.0
 10
-11.500000
 20
74.500000
 30
0.0
 10
-11.503900
 20
74.374400
 30
0.0
  0
ENDSEC
  0
SECTION
  2
OBJECTS
  0
DICTIONARY
  5
C
330
0
100
AcDbDictionary
  3
ACAD_GROUP
350
D
  3
ACAD_MLINESTYLE
350
17
  0
DICTIONARY
  5
D
330
C
100
AcDbDictionary
  0
DICTIONARY
  5
1A
330
C
100
AcDbDictionary
  0
DICTIONARY
  5
17
330
C
100
AcDbDictionary
  3
STANDARD
350
18
  0
DICTIONARY
  5
19
330
C
100
AcDbDictionary
  0
ENDSEC
  0
EOF
