<?xml version="1.0" standalone="no"?>
<!DOCTYPE svg PUBLIC "-//W3C//DTD SVG 1.1//EN" "http://www.w3.org/Graphics/SVG/1.1/DTD/svg11.dtd">
<svg width="46mm" height="64mm" viewBox="-23 -32 46 64" xmlns="http://www.w3.org/2000/svg" version="1.1">
<title>OpenSCAD Model</title>
<path d="
M -5,12 L -4.99013,11.686 L -4.96057,11.3733 L -4.91142,11.0631 L -4.84291,10.7565 L -4.75528,10.4549
 L -4.64888,10.1594 L -4.52412,9.87109 L -4.38153,9.59122 L -4.22163,9.32086 L -4.04507,9.06107 L -3.85255,8.81287
 L -3.64484,8.57726 L -3.42273,8.35515 L -3.18712,8.14743 L -2.93892,7.95491 L -2.67912,7.77835 L -2.40877,7.61845
 L -2.12889,7.47586 L -1.84062,7.3511 L -1.54507,7.24471 L -1.24344,7.15707 L -0.936905,7.08856 L -0.626663,7.03941
 L -0.31395,7.00986 L 0,7 L 0.31395,7.00986 L 0.626663,7.03941 L 0.936905,7.08856 L 1.24344,7.15707
 L 1.54507,7.24471 L 1.84062,7.3511 L 2.12889,7.47586 L 2.40877,7.61845 L 2.67912,7.77835 L 2.93892,7.95491
 L 3.18712,8.14743 L 3.42273,8.35515 L 3.64484,8.57726 L 3.85255,8.81287 L 4.04507,9.06107 L 4.22163,9.32086
 L 4.38153,9.59122 L 4.52412,9.87109 L 4.64888,10.1594 L 4.75528,10.4549 L 4.84291,10.7565 L 4.91142,11.0631
 L 4.96057,11.3733 L 4.99013,11.686 L 5,12 L 5,32 L 17.5,32 L 19.4134,31.6194
 L 21.0355,30.5355 L 22.1194,28.9134 L 22.5,27 L 22.5,-27 L 22.1194,-28.9134 L 21.0355,-30.5355
 L 19.4134,-31.6194 L 17.5,-32 L -17.5,-32 L -19.4134,-31.6194 L -21.0355,-30.5355 L -22.1194,-28.9134
 L -22.5,-27 L -22.5,27 L -22.1194,28.9134 L -21.0355,30.5355 L -19.4134,31.6194 L -17.5,32
 L -5,32 z
M 11.5158,-23.2507 L 11.5354,-23.3748 L 11.5628,-23.4974 L 11.5979,-23.618 L 11.6404,-23.7362 L 11.6903,-23.8515
 L 11.7474,-23.9635 L 11.8113,-24.0716 L 11.882,-24.1756 L 11.959,-24.2748 L 12.0421,-24.3691 L 12.1309,-24.4579
 L 12.2251,-24.541 L 12.3244,-24.618 L 12.4283,-24.6886 L 12.5365,-24.7526 L 12.6484,-24.8096 L 12.7637,-24.8595
 L 12.882,-24.9021 L 13.0026,-24.9372 L 13.1252,-24.9646 L 13.2493,-24.9842 L 13.3744,-24.996 L 13.5,-25
 L 13.6256,-24.996 L 13.7507,-24.9842 L 13.8748,-24.9646 L 13.9974,-24.9372 L 14.118,-24.9021 L 14.2362,-24.8595
 L 14.3515,-24.8096 L 14.4635,-24.7526 L 14.5716,-24.6886 L 14.6756,-24.618 L 14.7748,-24.541 L 14.8691,-24.4579
 L 14.9579,-24.3691 L 15.041,-24.2748 L 15.118,-24.1756 L 15.1886,-24.0716 L 15.2526,-23.9635 L 15.3096,-23.8515
 L 15.3595,-23.7362 L 15.4021,-23.618 L 15.4372,-23.4974 L 15.4646,-23.3748 L 15.4842,-23.2507 L 15.496,-23.1256
 L 15.5,-23 L 15.496,-22.8744 L 15.4842,-22.7493 L 15.4646,-22.6252 L 15.4372,-22.5026 L 15.4021,-22.382
 L 15.3595,-22.2637 L 15.3096,-22.1484 L 15.2526,-22.0365 L 15.1886,-21.9283 L 15.118,-21.8244 L 15.041,-21.7251
 L 14.9579,-21.6309 L 14.8691,-21.5421 L 14.7748,-21.459 L 14.6756,-21.382 L 14.5716,-21.3113 L 14.4635,-21.2474
 L 14.3515,-21.1903 L 14.2362,-21.1404 L 14.118,-21.0979 L 13.9974,-21.0628 L 13.8748,-21.0354 L 13.7507,-21.0158
 L 13.6256,-21.0039 L 13.5,-21 L 13.3744,-21.0039 L 13.2493,-21.0158 L 13.1252,-21.0354 L 13.0026,-21.0628
 L 12.882,-21.0979 L 12.7637,-21.1404 L 12.6484,-21.1903 L 12.5365,-21.2474 L 12.4283,-21.3113 L 12.3244,-21.382
 L 12.2251,-21.459 L 12.1309,-21.5421 L 12.0421,-21.6309 L 11.959,-21.7251 L 11.882,-21.8244 L 11.8113,-21.9283
 L 11.7474,-22.0365 L 11.6903,-22.1484 L 11.6404,-22.2637 L 11.5979,-22.382 L 11.5628,-22.5026 L 11.5354,-22.6252
 L 11.5158,-22.7493 L 11.5039,-22.8744 L 11.5,-23 L 11.5039,-23.1256 z
M -11.5158,-22.7493 L -11.5354,-22.6252 L -11.5628,-22.5026 L -11.5979,-22.382 L -11.6404,-22.2637 L -11.6903,-22.1484
 L -11.7474,-22.0365 L -11.8113,-21.9283 L -11.882,-21.8244 L -11.959,-21.7251 L -12.0421,-21.6309 L -12.1309,-21.5421
 L -12.2251,-21.459 L -12.3244,-21.382 L -12.4283,-21.3113 L -12.5365,-21.2474 L -12.6484,-21.1903 L -12.7637,-21.1404
 L -12.882,-21.0979 L -13.0026,-21.0628 L -13.1252,-21.0354 L -13.2493,-21.0158 L -13.3744,-21.0039 L -13.5,-21
 L -13.6256,-21.0039 L -13.7507,-21.0158 L -13.8748,-21.0354 L -13.9974,-21.0628 L -14.118,-21.0979 L -14.2362,-21.1404
 L -14.3515,-21.1903 L -14.4635,-21.2474 L -14.5716,-21.3113 L -14.6756,-21.382 L -14.7748,-21.459 L -14.8691,-21.5421
 L -14.9579,-21.6309 L -15.041,-21.7251 L -15.118,-21.8244 L -15.1886,-21.9283 L -15.2526,-22.0365 L -15.3096,-22.1484
 L -15.3595,-22.2637 L -15.4021,-22.382 L -15.4372,-22.5026 L -15.4646,-22.6252 L -15.4842,-22.7493 L -15.496,-22.8744
 L -15.5,-23 L -15.496,-23.1256 L -15.4842,-23.2507 L -15.4646,-23.3748 L -15.4372,-23.4974 L -15.4021,-23.618
 L -15.3595,-23.7362 L -15.3096,-23.8515 L -15.2526,-23.9635 L -15.1886,-24.0716 L -15.118,-24.1756 L -15.041,-24.2748
 L -14.9579,-24.3691 L -14.8691,-24.4579 L -14.7748,-24.541 L -14.6756,-24.618 L -14.5716,-24.6886 L -14.4635,-24.7526
 L -14.3515,-24.8096 L -14.2362,-24.8595 L -14.118,-24.9021 L -13.9974,-24.9372 L -13.8748,-24.9646 L -13.7507,-24.9842
 L -13.6256,-24.996 L -13.5,-25 L -13.3744,-24.996 L -13.2493,-24.9842 L -13.1252,-24.9646 L -13.0026,-24.9372
 L -12.882,-24.9021 L -12.7637,-24.8595 L -12.6484,-24.8096 L -12.5365,-24.7526 L -12.4283,-24.6886 L -12.3244,-24.618
 L -12.2251,-24.541 L -12.1309,-24.4579 L -12.0421,-24.3691 L -11.959,-24.2748 L -11.882,-24.1756 L -11.8113,-24.0716
 L -11.7474,-23.9635 L -11.6903,-23.8515 L -11.6404,-23.7362 L -11.5979,-23.618 L -11.5628,-23.4974 L -11.5354,-23.3748
 L -11.5158,-23.2507 L -11.5039,-23.1256 L -11.5,-23 L -11.5039,-22.8744 z
" stroke="black" fill="lightgray" stroke-width="0.5"/>
</svg>
