<?xml version="1.0" standalone="no"?>
<!DOCTYPE svg PUBLIC "-//W3C//DTD SVG 1.1//EN" "http://www.w3.org/Graphics/SVG/1.1/DTD/svg11.dtd">
<svg width="46mm" height="56mm" viewBox="-23 -28 46 56" xmlns="http://www.w3.org/2000/svg" version="1.1">
<title>OpenSCAD Model</title>
<path d="
M -5,7.5 L -4.99013,7.18604 L -4.96057,6.87332 L -4.91142,6.56308 L -4.84291,6.25655 L -4.75528,5.95491
 L -4.64888,5.65936 L -4.52412,5.37109 L -4.38153,5.09122 L -4.22163,4.82086 L -4.04507,4.56107 L -3.85255,4.31287
 L -3.64484,4.07726 L -3.42273,3.85515 L -3.18712,3.64743 L -2.93892,3.45491 L -2.67912,3.27835 L -2.40877,3.11845
 L -2.12889,2.97586 L -1.84062,2.8511 L -1.54507,2.74471 L -1.24344,2.65707 L -0.936905,2.58856 L -0.626663,2.53941
 L -0.31395,2.50986 L 0,2.5 L 0.31395,2.50986 L 0.626663,2.53941 L 0.936905,2.58856 L 1.24344,2.65707
 L 1.54507,2.74471 L 1.84062,2.8511 L 2.12889,2.97586 L 2.40877,3.11845 L 2.67912,3.27835 L 2.93892,3.45491
 L 3.18712,3.64743 L 3.42273,3.85515 L 3.64484,4.07726 L 3.85255,4.31287 L 4.04507,4.56107 L 4.22163,4.82086
 L 4.38153,5.09122 L 4.52412,5.37109 L 4.64888,5.65936 L 4.75528,5.95491 L 4.84291,6.25655 L 4.91142,6.56308
 L 4.96057,6.87332 L 4.99013,7.18604 L 5,7.5 L 5,27.5 L 17.5,27.5 L 19.4134,27.1194
 L 21.0355,26.0355 L 22.1194,24.4134 L 22.5,22.5 L 22.5,-22.5 L 22.1194,-24.4134 L 21.0355,-26.0355
 L 19.4134,-27.1194 L 17.5,-27.5 L -17.5,-27.5 L -19.4134,-27.1194 L -21.0355,-26.0355 L -22.1194,-24.4134
 L -22.5,-22.5 L -22.5,22.5 L -22.1194,24.4134 L -21.0355,26.0355 L -19.4134,27.1194 L -17.5,27.5
 L -5,27.5 z
M 11.5158,-18.7507 L 11.5354,-18.8748 L 11.5628,-18.9974 L 11.5979,-19.118 L 11.6404,-19.2362 L 11.6903,-19.3515
 L 11.7474,-19.4635 L 11.8113,-19.5716 L 11.882,-19.6756 L 11.959,-19.7748 L 12.0421,-19.8691 L 12.1309,-19.9579
 L 12.2251,-20.041 L 12.3244,-20.118 L 12.4283,-20.1886 L 12.5365,-20.2526 L 12.6484,-20.3096 L 12.7637,-20.3595
 L 12.882,-20.4021 L 13.0026,-20.4372 L 13.1252,-20.4646 L 13.2493,-20.4842 L 13.3744,-20.496 L 13.5,-20.5
 L 13.6256,-20.496 L 13.7507,-20.4842 L 13.8748,-20.4646 L 13.9974,-20.4372 L 14.118,-20.4021 L 14.2362,-20.3595
 L 14.3515,-20.3096 L 14.4635,-20.2526 L 14.5716,-20.1886 L 14.6756,-20.118 L 14.7748,-20.041 L 14.8691,-19.9579
 L 14.9579,-19.8691 L 15.041,-19.7748 L 15.118,-19.6756 L 15.1886,-19.5716 L 15.2526,-19.4635 L 15.3096,-19.3515
 L 15.3595,-19.2362 L 15.4021,-19.118 L 15.4372,-18.9974 L 15.4646,-18.8748 L 15.4842,-18.7507 L 15.496,-18.6256
 L 15.5,-18.5 L 15.496,-18.3744 L 15.4842,-18.2493 L 15.4646,-18.1252 L 15.4372,-18.0026 L 15.4021,-17.882
 L 15.3595,-17.7637 L 15.3096,-17.6484 L 15.2526,-17.5365 L 15.1886,-17.4283 L 15.118,-17.3244 L 15.041,-17.2251
 L 14.9579,-17.1309 L 14.8691,-17.0421 L 14.7748,-16.959 L 14.6756,-16.882 L 14.5716,-16.8113 L 14.4635,-16.7474
 L 14.3515,-16.6903 L 14.2362,-16.6404 L 14.118,-16.5979 L 13.9974,-16.5628 L 13.8748,-16.5354 L 13.7507,-16.5158
 L 13.6256,-16.5039 L 13.5,-16.5 L 13.3744,-16.5039 L 13.2493,-16.5158 L 13.1252,-16.5354 L 13.0026,-16.5628
 L 12.882,-16.5979 L 12.7637,-16.6404 L 12.6484,-16.6903 L 12.5365,-16.7474 L 12.4283,-16.8113 L 12.3244,-16.882
 L 12.2251,-16.959 L 12.1309,-17.0421 L 12.0421,-17.1309 L 11.959,-17.2251 L 11.882,-17.3244 L 11.8113,-17.4283
 L 11.7474,-17.5365 L 11.6903,-17.6484 L 11.6404,-17.7637 L 11.5979,-17.882 L 11.5628,-18.0026 L 11.5354,-18.1252
 L 11.5158,-18.2493 L 11.5039,-18.3744 L 11.5,-18.5 L 11.5039,-18.6256 z
M -11.5158,-18.2493 L -11.5354,-18.1252 L -11.5628,-18.0026 L -11.5979,-17.882 L -11.6404,-17.7637 L -11.6903,-17.6484
 L -11.7474,-17.5365 L -11.8113,-17.4283 L -11.882,-17.3244 L -11.959,-17.2251 L -12.0421,-17.1309 L -12.1309,-17.0421
 L -12.2251,-16.959 L -12.3244,-16.882 L -12.4283,-16.8113 L -12.5365,-16.7474 L -12.6484,-16.6903 L -12.7637,-16.6404
 L -12.882,-16.5979 L -13.0026,-16.5628 L -13.1252,-16.5354 L -13.2493,-16.5158 L -13.3744,-16.5039 L -13.5,-16.5
 L -13.6256,-16.5039 L -13.7507,-16.5158 L -13.8748,-16.5354 L -13.9974,-16.5628 L -14.118,-16.5979 L -14.2362,-16.6404
 L -14.3515,-16.6903 L -14.4635,-16.7474 L -14.5716,-16.8113 L -14.6756,-16.882 L -14.7748,-16.959 L -14.8691,-17.0421
 L -14.9579,-17.1309 L -15.041,-17.2251 L -15.118,-17.3244 L -15.1886,-17.4283 L -15.2526,-17.5365 L -15.3096,-17.6484
 L -15.3595,-17.7637 L -15.4021,-17.882 L -15.4372,-18.0026 L -15.4646,-18.1252 L -15.4842,-18.2493 L -15.496,-18.3744
 L -15.5,-18.5 L -15.496,-18.6256 L -15.4842,-18.7507 L -15.4646,-18.8748 L -15.4372,-18.9974 L -15.4021,-19.118
 L -15.3595,-19.2362 L -15.3096,-19.3515 L -15.2526,-19.4635 L -15.1886,-19.5716 L -15.118,-19.6756 L -15.041,-19.7748
 L -14.9579,-19.8691 L -14.8691,-19.9579 L -14.7748,-20.041 L -14.6756,-20.118 L -14.5716,-20.1886 L -14.4635,-20.2526
 L -14.3515,-20.3096 L -14.2362,-20.3595 L -14.118,-20.4021 L -13.9974,-20.4372 L -13.8748,-20.4646 L -13.7507,-20.4842
 L -13.6256,-20.496 L -13.5,-20.5 L -13.3744,-20.496 L -13.2493,-20.4842 L -13.1252,-20.4646 L -13.0026,-20.4372
 L -12.882,-20.4021 L -12.7637,-20.3595 L -12.6484,-20.3096 L -12.5365,-20.2526 L -12.4283,-20.1886 L -12.3244,-20.118
 L -12.2251,-20.041 L -12.1309,-19.9579 L -12.0421,-19.8691 L -11.959,-19.7748 L -11.882,-19.6756 L -11.8113,-19.5716
 L -11.7474,-19.4635 L -11.6903,-19.3515 L -11.6404,-19.2362 L -11.5979,-19.118 L -11.5628,-18.9974 L -11.5354,-18.8748
 L -11.5158,-18.7507 L -11.5039,-18.6256 L -11.5,-18.5 L -11.5039,-18.3744 z
" stroke="black" fill="lightgray" stroke-width="0.5"/>
</svg>
