<?xml version="1.0" encoding="UTF-8" standalone="no"?>
<svg
   width="80mm"
   height="66mm"
   viewBox="-40 -33 80 66"
   version="1.1"
   id="svg6"
   sodipodi:docname="bike_plate_2_bend.svg"
   inkscape:version="1.1.2 (0a00cf5339, 2022-02-04)"
   xmlns:inkscape="http://www.inkscape.org/namespaces/inkscape"
   xmlns:sodipodi="http://sodipodi.sourceforge.net/DTD/sodipodi-0.dtd"
   xmlns="http://www.w3.org/2000/svg"
   xmlns:svg="http://www.w3.org/2000/svg"
   xmlns:rdf="http://www.w3.org/1999/02/22-rdf-syntax-ns#"
   xmlns:cc="http://creativecommons.org/ns#"
   xmlns:dc="http://purl.org/dc/elements/1.1/">
  <defs
     id="defs10" />
  <sodipodi:namedview
     id="namedview8"
     pagecolor="#ffffff"
     bordercolor="#666666"
     borderopacity="1.0"
     inkscape:pageshadow="2"
     inkscape:pageopacity="0.0"
     inkscape:pagecheckerboard="0"
     inkscape:document-units="mm"
     showgrid="false"
     inkscape:zoom="2.082232"
     inkscape:cx="213.23272"
     inkscape:cy="148.15832"
     inkscape:window-width="1846"
     inkscape:window-height="1016"
     inkscape:window-x="74"
     inkscape:window-y="27"
     inkscape:window-maximized="1"
     inkscape:current-layer="svg6" />
  <title
     id="title2">OpenSCAD Model</title>
  <path
     d=" M -5,22.5 L -4.99013,22.186 L -4.96057,21.8733 L -4.91142,21.5631 L -4.84291,21.2565 L -4.75528,20.9549  L -4.64888,20.6594 L -4.52412,20.3711 L -4.38153,20.0912 L -4.22163,19.8209 L -4.04507,19.5611 L -3.85255,19.3129  L -3.64484,19.0773 L -3.42273,18.8551 L -3.18712,18.6474 L -2.93892,18.4549 L -2.67912,18.2784 L -2.40877,18.1185  L -2.12889,17.9759 L -1.84062,17.8511 L -1.54507,17.7447 L -1.24344,17.6571 L -0.936905,17.5886 L -0.626663,17.5394  L -0.31395,17.5099 L 0,17.5 L 0.31395,17.5099 L 0.626663,17.5394 L 0.936905,17.5886 L 1.24344,17.6571  L 1.54507,17.7447 L 1.84062,17.8511 L 2.12889,17.9759 L 2.40877,18.1185 L 2.67912,18.2784 L 2.93892,18.4549  L 3.18712,18.6474 L 3.42273,18.8551 L 3.64484,19.0773 L 3.85255,19.3129 L 4.04507,19.5611 L 4.22163,19.8209  L 4.38153,20.0912 L 4.52412,20.3711 L 4.64888,20.6594 L 4.75528,20.9549 L 4.84291,21.2565 L 4.91142,21.5631  L 4.96057,21.8733 L 4.99013,22.186 L 5,22.5 L 5,32.5 L 35,32.5 L 36.9134,32.1194  L 38.5355,31.0355 L 39.6194,29.4134 L 40,27.5 L 40,-27.5 L 39.6194,-29.4134 L 38.5355,-31.0355  L 36.9134,-32.1194 L 35,-32.5 L -35,-32.5 L -36.9134,-32.1194 L -38.5355,-31.0355 L -39.6194,-29.4134  L -40,-27.5 L -40,27.5 L -39.6194,29.4134 L -38.5355,31.0355 L -36.9134,32.1194 L -35,32.5  L -5,32.5 z M 24.7802,-6.7569 L 24.5613,-6.77759 L 24.3442,-6.81198 L 24.1296,-6.85995 L 23.9184,-6.9213 L 23.7116,-6.99577  L 23.5098,-7.0831 L 23.3139,-7.18292 L 23.1246,-7.29485 L 22.9427,-7.41843 L 22.769,-7.55319 L 22.6041,-7.69861  L 22.4486,-7.85408 L 22.3032,-8.01901 L 22.1684,-8.19275 L 22.0448,-8.3746 L 21.9329,-8.56386 L 21.8331,-8.75977  L 21.7458,-8.96156 L 21.6713,-9.16843 L 21.61,-9.37958 L 21.562,-9.59416 L 21.5276,-9.81133 L 21.5069,-10.0302  L 21.5,-10.25 L 21.5,-15.25 L 21.5069,-15.4698 L 21.5276,-15.6887 L 21.562,-15.9058 L 21.61,-16.1204  L 21.6713,-16.3316 L 21.7458,-16.5384 L 21.8331,-16.7402 L 21.9329,-16.9361 L 22.0448,-17.1254 L 22.1684,-17.3072  L 22.3032,-17.481 L 22.4486,-17.6459 L 22.6041,-17.8014 L 22.769,-17.9468 L 22.9427,-18.0816 L 23.1246,-18.2051  L 23.3139,-18.3171 L 23.5098,-18.4169 L 23.7116,-18.5042 L 23.9184,-18.5787 L 24.1296,-18.64 L 24.3442,-18.688  L 24.5613,-18.7224 L 24.7802,-18.7431 L 25,-18.75 L 25.2198,-18.7431 L 25.4387,-18.7224 L 25.6558,-18.688  L 25.8704,-18.64 L 26.0816,-18.5787 L 26.2884,-18.5042 L 26.4902,-18.4169 L 26.6861,-18.3171 L 26.8754,-18.2051  L 27.0572,-18.0816 L 27.231,-17.9468 L 27.3959,-17.8014 L 27.5514,-17.6459 L 27.6968,-17.481 L 27.8316,-17.3072  L 27.9551,-17.1254 L 28.0671,-16.9361 L 28.1669,-16.7402 L 28.2542,-16.5384 L 28.3287,-16.3316 L 28.39,-16.1204  L 28.438,-15.9058 L 28.4724,-15.6887 L 28.4931,-15.4698 L 28.5,-15.25 L 28.5,-10.25 L 28.4931,-10.0302  L 28.4724,-9.81133 L 28.438,-9.59416 L 28.39,-9.37958 L 28.3287,-9.16843 L 28.2542,-8.96156 L 28.1669,-8.75977  L 28.0671,-8.56386 L 27.9551,-8.3746 L 27.8316,-8.19275 L 27.6968,-8.01901 L 27.5514,-7.85408 L 27.3959,-7.69861  L 27.231,-7.55319 L 27.0572,-7.41843 L 26.8754,-7.29485 L 26.6861,-7.18292 L 26.4902,-7.0831 L 26.2884,-6.99577  L 26.0816,-6.9213 L 25.8704,-6.85995 L 25.6558,-6.81198 L 25.4387,-6.77759 L 25.2198,-6.7569 L 25,-6.75  z M -25.2198,-6.7569 L -25.4387,-6.77759 L -25.6558,-6.81198 L -25.8704,-6.85995 L -26.0816,-6.9213 L -26.2884,-6.99577  L -26.4902,-7.0831 L -26.6861,-7.18292 L -26.8754,-7.29485 L -27.0572,-7.41843 L -27.231,-7.55319 L -27.3959,-7.69861  L -27.5514,-7.85408 L -27.6968,-8.01901 L -27.8316,-8.19275 L -27.9551,-8.3746 L -28.0671,-8.56386 L -28.1669,-8.75977  L -28.2542,-8.96156 L -28.3287,-9.16843 L -28.39,-9.37958 L -28.438,-9.59416 L -28.4724,-9.81133 L -28.4931,-10.0302  L -28.5,-10.25 L -28.5,-15.25 L -28.4931,-15.4698 L -28.4724,-15.6887 L -28.438,-15.9058 L -28.39,-16.1204  L -28.3287,-16.3316 L -28.2542,-16.5384 L -28.1669,-16.7402 L -28.0671,-16.9361 L -27.9551,-17.1254 L -27.8316,-17.3072  L -27.6968,-17.481 L -27.5514,-17.6459 L -27.3959,-17.8014 L -27.231,-17.9468 L -27.0572,-18.0816 L -26.8754,-18.2051  L -26.6861,-18.3171 L -26.4902,-18.4169 L -26.2884,-18.5042 L -26.0816,-18.5787 L -25.8704,-18.64 L -25.6558,-18.688  L -25.4387,-18.7224 L -25.2198,-18.7431 L -25,-18.75 L -24.7802,-18.7431 L -24.5613,-18.7224 L -24.3442,-18.688  L -24.1296,-18.64 L -23.9184,-18.5787 L -23.7116,-18.5042 L -23.5098,-18.4169 L -23.3139,-18.3171 L -23.1246,-18.2051  L -22.9427,-18.0816 L -22.769,-17.9468 L -22.6041,-17.8014 L -22.4486,-17.6459 L -22.3032,-17.481 L -22.1684,-17.3072  L -22.0448,-17.1254 L -21.9329,-16.9361 L -21.8331,-16.7402 L -21.7458,-16.5384 L -21.6713,-16.3316 L -21.61,-16.1204  L -21.562,-15.9058 L -21.5276,-15.6887 L -21.5069,-15.4698 L -21.5,-15.25 L -21.5,-10.25 L -21.5069,-10.0302  L -21.5276,-9.81133 L -21.562,-9.59416 L -21.61,-9.37958 L -21.6713,-9.16843 L -21.7458,-8.96156 L -21.8331,-8.75977  L -21.9329,-8.56386 L -22.0448,-8.3746 L -22.1684,-8.19275 L -22.3032,-8.01901 L -22.4486,-7.85408 L -22.6041,-7.69861  L -22.769,-7.55319 L -22.9427,-7.41843 L -23.1246,-7.29485 L -23.3139,-7.18292 L -23.5098,-7.0831 L -23.7116,-6.99577  L -23.9184,-6.9213 L -24.1296,-6.85995 L -24.3442,-6.81198 L -24.5613,-6.77759 L -24.7802,-6.7569 L -25,-6.75  z M -25.2198,18.7431 L -25.4387,18.7224 L -25.6558,18.688 L -25.8704,18.64 L -26.0816,18.5787 L -26.2884,18.5042  L -26.4902,18.4169 L -26.6861,18.3171 L -26.8754,18.2051 L -27.0572,18.0816 L -27.231,17.9468 L -27.3959,17.8014  L -27.5514,17.6459 L -27.6968,17.481 L -27.8316,17.3072 L -27.9551,17.1254 L -28.0671,16.9361 L -28.1669,16.7402  L -28.2542,16.5384 L -28.3287,16.3316 L -28.39,16.1204 L -28.438,15.9058 L -28.4724,15.6887 L -28.4931,15.4698  L -28.5,15.25 L -28.5,10.25 L -28.4931,10.0302 L -28.4724,9.81133 L -28.438,9.59416 L -28.39,9.37958  L -28.3287,9.16843 L -28.2542,8.96156 L -28.1669,8.75977 L -28.0671,8.56386 L -27.9551,8.3746 L -27.8316,8.19275  L -27.6968,8.01901 L -27.5514,7.85408 L -27.3959,7.69861 L -27.231,7.55319 L -27.0572,7.41843 L -26.8754,7.29485  L -26.6861,7.18292 L -26.4902,7.0831 L -26.2884,6.99577 L -26.0816,6.9213 L -25.8704,6.85995 L -25.6558,6.81198  L -25.4387,6.77759 L -25.2198,6.7569 L -25,6.75 L -24.7802,6.7569 L -24.5613,6.77759 L -24.3442,6.81198  L -24.1296,6.85995 L -23.9184,6.9213 L -23.7116,6.99577 L -23.5098,7.0831 L -23.3139,7.18292 L -23.1246,7.29485  L -22.9427,7.41843 L -22.769,7.55319 L -22.6041,7.69861 L -22.4486,7.85408 L -22.3032,8.01901 L -22.1684,8.19275  L -22.0448,8.3746 L -21.9329,8.56386 L -21.8331,8.75977 L -21.7458,8.96156 L -21.6713,9.16843 L -21.61,9.37958  L -21.562,9.59416 L -21.5276,9.81133 L -21.5069,10.0302 L -21.5,10.25 L -21.5,15.25 L -21.5069,15.4698  L -21.5276,15.6887 L -21.562,15.9058 L -21.61,16.1204 L -21.6713,16.3316 L -21.7458,16.5384 L -21.8331,16.7402  L -21.9329,16.9361 L -22.0448,17.1254 L -22.1684,17.3072 L -22.3032,17.481 L -22.4486,17.6459 L -22.6041,17.8014  L -22.769,17.9468 L -22.9427,18.0816 L -23.1246,18.2051 L -23.3139,18.3171 L -23.5098,18.4169 L -23.7116,18.5042  L -23.9184,18.5787 L -24.1296,18.64 L -24.3442,18.688 L -24.5613,18.7224 L -24.7802,18.7431 L -25,18.75  z M 24.7802,18.7431 L 24.5613,18.7224 L 24.3442,18.688 L 24.1296,18.64 L 23.9184,18.5787 L 23.7116,18.5042  L 23.5098,18.4169 L 23.3139,18.3171 L 23.1246,18.2051 L 22.9427,18.0816 L 22.769,17.9468 L 22.6041,17.8014  L 22.4486,17.6459 L 22.3032,17.481 L 22.1684,17.3072 L 22.0448,17.1254 L 21.9329,16.9361 L 21.8331,16.7402  L 21.7458,16.5384 L 21.6713,16.3316 L 21.61,16.1204 L 21.562,15.9058 L 21.5276,15.6887 L 21.5069,15.4698  L 21.5,15.25 L 21.5,10.25 L 21.5069,10.0302 L 21.5276,9.81133 L 21.562,9.59416 L 21.61,9.37958  L 21.6713,9.16843 L 21.7458,8.96156 L 21.8331,8.75977 L 21.9329,8.56386 L 22.0448,8.3746 L 22.1684,8.19275  L 22.3032,8.01901 L 22.4486,7.85408 L 22.6041,7.69861 L 22.769,7.55319 L 22.9427,7.41843 L 23.1246,7.29485  L 23.3139,7.18292 L 23.5098,7.0831 L 23.7116,6.99577 L 23.9184,6.9213 L 24.1296,6.85995 L 24.3442,6.81198  L 24.5613,6.77759 L 24.7802,6.7569 L 25,6.75 L 25.2198,6.7569 L 25.4387,6.77759 L 25.6558,6.81198  L 25.8704,6.85995 L 26.0816,6.9213 L 26.2884,6.99577 L 26.4902,7.0831 L 26.6861,7.18292 L 26.8754,7.29485  L 27.0572,7.41843 L 27.231,7.55319 L 27.3959,7.69861 L 27.5514,7.85408 L 27.6968,8.01901 L 27.8316,8.19275  L 27.9551,8.3746 L 28.0671,8.56386 L 28.1669,8.75977 L 28.2542,8.96156 L 28.3287,9.16843 L 28.39,9.37958  L 28.438,9.59416 L 28.4724,9.81133 L 28.4931,10.0302 L 28.5,10.25 L 28.5,15.25 L 28.4931,15.4698  L 28.4724,15.6887 L 28.438,15.9058 L 28.39,16.1204 L 28.3287,16.3316 L 28.2542,16.5384 L 28.1669,16.7402  L 28.0671,16.9361 L 27.9551,17.1254 L 27.8316,17.3072 L 27.6968,17.481 L 27.5514,17.6459 L 27.3959,17.8014  L 27.231,17.9468 L 27.0572,18.0816 L 26.8754,18.2051 L 26.6861,18.3171 L 26.4902,18.4169 L 26.2884,18.5042  L 26.0816,18.5787 L 25.8704,18.64 L 25.6558,18.688 L 25.4387,18.7224 L 25.2198,18.7431 L 25,18.75  z "
     stroke="black"
     fill="lightgray"
     stroke-width="0.5"
     id="path4" />
  <path
     style="fill:none;stroke:#ff0000;stroke-width:0.490854;stroke-linecap:butt;stroke-linejoin:miter;stroke-miterlimit:4;stroke-dasharray:none;stroke-dashoffset:0;stroke-opacity:1"
     d="M 38.02339,-1.1892263 H -38.926891"
     id="path45" />
  <metadata
     id="metadata1878">
    <rdf:RDF>
      <cc:Work
         rdf:about="">
        <dc:title>OpenSCAD Model</dc:title>
      </cc:Work>
    </rdf:RDF>
  </metadata>
</svg>
