  0
SECTION
  2
HEADER
  9
$ACADVER
  1
AC1014
  9
$HANDSEED
  5
FFFF
  9
$MEASUREMENT
 70
     1
  0
ENDSEC
  0
SECTION
  2
TABLES
  0
TABLE
  2
VPORT
  5
8
330
0
100
AcDbSymbolTable
 70
     4
  0
VPORT
  5
2E
330
8
100
AcDbSymbolTableRecord
100
AcDbViewportTableRecord
  2
*ACTIVE
 70
     0
 10
0.0
 20
0.0
 11
1.0
 21
1.0
 12
210.0
 22
148.5
 13
0.0
 23
0.0
 14
10.0
 24
10.0
 15
10.0
 25
10.0
 16
0.0
 26
0.0
 36
1.0
 17
0.0
 27
0.0
 37
0.0
 40
341.0
 41
1.24
 42
50.0
 43
0.0
 44
0.0
 50
0.0
 51
0.0
 71
     0
 72
   100
 73
     1
 74
     3
 75
     0
 76
     0
 77
     0
 78
     0
  0
ENDTAB
  0
TABLE
  2
LTYPE
  5
5
330
0
100
AcDbSymbolTable
 70
     1
  0
LTYPE
  5
14
330
5
100
AcDbSymbolTableRecord
100
AcDbLinetypeTableRecord
  2
BYBLOCK
 70
     0
  3

 72
    65
 73
     0
 40
0.0
  0
LTYPE
  5
15
330
5
100
AcDbSymbolTableRecord
100
AcDbLinetypeTableRecord
  2
BYLAYER
 70
     0
  3

 72
    65
 73
     0
 40
0.0
  0
LTYPE
  5
16
330
5
100
AcDbSymbolTableRecord
100
AcDbLinetypeTableRecord
  2
CONTINUOUS
 70
     0
  3
Solid line
 72
    65
 73
     0
 40
0.0
  0
ENDTAB
  0
TABLE
  2
LAYER
  5
2
100
AcDbSymbolTable
 70
1
  0
LAYER
  5
50
100
AcDbSymbolTableRecord
100
AcDbLayerTableRecord
  2
0
 70
0
  6
CONTINUOUS
  0
ENDTAB
  0
TABLE
  2
STYLE
  5
3
330
0
100
AcDbSymbolTable
 70
     1
  0
STYLE
  5
11
330
3
100
AcDbSymbolTableRecord
100
AcDbTextStyleTableRecord
  2
STANDARD
 70
     0
 40
0.0
 41
1.0
 50
0.0
 71
     0
 42
2.5
  3
txt
  4

  0
ENDTAB
  0
TABLE
  2
VIEW
  5
6
330
0
100
AcDbSymbolTable
 70
     0
  0
ENDTAB
  0
TABLE
  2
UCS
  5
7
330
0
100
AcDbSymbolTable
 70
     0
  0
ENDTAB
  0
TABLE
  2
APPID
  5
9
330
0
100
AcDbSymbolTable
 70
     2
  0
APPID
  5
12
330
9
100
AcDbSymbolTableRecord
100
AcDbRegAppTableRecord
  2
ACAD
 70
     0
  0
ENDTAB
  0
TABLE
  2
DIMSTYLE
  5
A
330
0
100
AcDbSymbolTable
 70
     1
  0
DIMSTYLE
105
27
330
A
100
AcDbSymbolTableRecord
100
AcDbDimStyleTableRecord
  2
ISO-25
 70
     0
  3

  4

  5

  6

  7

 40
1.0
 41
2.5
 42
0.625
 43
3.75
 44
1.25
 45
0.0
 46
0.0
 47
0.0
 48
0.0
140
2.5
141
2.5
142
0.0
143
0.03937007874016
144
1.0
145
0.0
146
1.0
147
0.625
 71
     0
 72
     0
 73
     0
 74
     0
 75
     0
 76
     0
 77
     1
 78
     8
170
     0
171
     3
172
     1
173
     0
174
     0
175
     0
176
     0
177
     0
178
     0
270
     2
271
     2
272
     2
273
     2
274
     3
340
11
275
     0
280
     0
281
     0
282
     0
283
     0
284
     8
285
     0
286
     0
287
     3
288
     0
  0
ENDTAB
  0
TABLE
  2
BLOCK_RECORD
  5
1
330
0
100
AcDbSymbolTable
 70
     1
  0
BLOCK_RECORD
  5
1F
330
1
100
AcDbSymbolTableRecord
100
AcDbBlockTableRecord
  2
*MODEL_SPACE
  0
BLOCK_RECORD
  5
1B
330
1
100
AcDbSymbolTableRecord
100
AcDbBlockTableRecord
  2
*PAPER_SPACE
  0
ENDTAB
  0
ENDSEC
  0
SECTION
  2
BLOCKS
  0
BLOCK
  5
20
330
1F
100
AcDbEntity
  8
0
100
AcDbBlockBegin
  2
*MODEL_SPACE
 70
     0
 10
0.0
 20
0.0
 30
0.0
  3
*MODEL_SPACE
  1

  0
ENDBLK
  5
21
330
1F
100
AcDbEntity
  8
0
100
AcDbBlockEnd
  0
BLOCK
  5
1C
330
1B
100
AcDbEntity
 67
     1
  8
0
100
AcDbBlockBegin
  2
*PAPER_SPACE
  1

  0
ENDBLK
  5
1D
330
1B
100
AcDbEntity
 67
     1
  8
0
100
AcDbBlockEnd
  0
ENDSEC
  0
SECTION
  2
ENTITIES
  0
LWPOLYLINE
  5
100
100
AcDbEntity
  8
0
 62
7
100
AcDbPolyline
 90
73
 70
1
 10
-5.000000
 20
43.500000
 30
0.0
 10
-4.990130
 20
43.814000
 30
0.0
 10
-4.960570
 20
44.126700
 30
0.0
 10
-4.911420
 20
44.436900
 30
0.0
 10
-4.842910
 20
44.743500
 30
0.0
 10
-4.755280
 20
45.045100
 30
0.0
 10
-4.648880
 20
45.340600
 30
0.0
 10
-4.524120
 20
45.628900
 30
0.0
 10
-4.381530
 20
45.908800
 30
0.0
 10
-4.221630
 20
46.179100
 30
0.0
 10
-4.045070
 20
46.438900
 30
0.0
 10
-3.852550
 20
46.687100
 30
0.0
 10
-3.644840
 20
46.922700
 30
0.0
 10
-3.422730
 20
47.144900
 30
0.0
 10
-3.187120
 20
47.352600
 30
0.0
 10
-2.938920
 20
47.545100
 30
0.0
 10
-2.679120
 20
47.721600
 30
0.0
 10
-2.408770
 20
47.881500
 30
0.0
 10
-2.128890
 20
48.024100
 30
0.0
 10
-1.840620
 20
48.148900
 30
0.0
 10
-1.545070
 20
48.255300
 30
0.0
 10
-1.243440
 20
48.342900
 30
0.0
 10
-0.936905
 20
48.411400
 30
0.0
 10
-0.626663
 20
48.460600
 30
0.0
 10
-0.313950
 20
48.490100
 30
0.0
 10
0.000000
 20
48.500000
 30
0.0
 10
0.313950
 20
48.490100
 30
0.0
 10
0.626663
 20
48.460600
 30
0.0
 10
0.936905
 20
48.411400
 30
0.0
 10
1.243440
 20
48.342900
 30
0.0
 10
1.545070
 20
48.255300
 30
0.0
 10
1.840620
 20
48.148900
 30
0.0
 10
2.128890
 20
48.024100
 30
0.0
 10
2.408770
 20
47.881500
 30
0.0
 10
2.679120
 20
47.721600
 30
0.0
 10
2.938920
 20
47.545100
 30
0.0
 10
3.187120
 20
47.352600
 30
0.0
 10
3.422730
 20
47.144900
 30
0.0
 10
3.644840
 20
46.922700
 30
0.0
 10
3.852550
 20
46.687100
 30
0.0
 10
4.045070
 20
46.438900
 30
0.0
 10
4.221630
 20
46.179100
 30
0.0
 10
4.381530
 20
45.908800
 30
0.0
 10
4.524120
 20
45.628900
 30
0.0
 10
4.648880
 20
45.340600
 30
0.0
 10
4.755280
 20
45.045100
 30
0.0
 10
4.842910
 20
44.743500
 30
0.0
 10
4.911420
 20
44.436900
 30
0.0
 10
4.960570
 20
44.126700
 30
0.0
 10
4.990130
 20
43.814000
 30
0.0
 10
5.000000
 20
43.500000
 30
0.0
 10
5.000000
 20
33.500000
 30
0.0
 10
35.000000
 20
33.500000
 30
0.0
 10
36.913400
 20
33.880600
 30
0.0
 10
38.535500
 20
34.964500
 30
0.0
 10
39.619400
 20
36.586600
 30
0.0
 10
40.000000
 20
38.500000
 30
0.0
 10
40.000000
 20
93.500000
 30
0.0
 10
39.619400
 20
95.413400
 30
0.0
 10
38.535500
 20
97.035500
 30
0.0
 10
36.913400
 20
98.119400
 30
0.0
 10
35.000000
 20
98.500000
 30
0.0
 10
-35.000000
 20
98.500000
 30
0.0
 10
-36.913400
 20
98.119400
 30
0.0
 10
-38.535500
 20
97.035500
 30
0.0
 10
-39.619400
 20
95.413400
 30
0.0
 10
-40.000000
 20
93.500000
 30
0.0
 10
-40.000000
 20
38.500000
 30
0.0
 10
-39.619400
 20
36.586600
 30
0.0
 10
-38.535500
 20
34.964500
 30
0.0
 10
-36.913400
 20
33.880600
 30
0.0
 10
-35.000000
 20
33.500000
 30
0.0
 10
-5.000000
 20
33.500000
 30
0.0
  0
LWPOLYLINE
  5
101
100
AcDbEntity
  8
0
 62
7
100
AcDbPolyline
 90
102
 70
1
 10
24.780200
 20
72.756900
 30
0.0
 10
24.561300
 20
72.777590
 30
0.0
 10
24.344200
 20
72.811980
 30
0.0
 10
24.129600
 20
72.859950
 30
0.0
 10
23.918400
 20
72.921300
 30
0.0
 10
23.711600
 20
72.995770
 30
0.0
 10
23.509800
 20
73.083100
 30
0.0
 10
23.313900
 20
73.182920
 30
0.0
 10
23.124600
 20
73.294850
 30
0.0
 10
22.942700
 20
73.418430
 30
0.0
 10
22.769000
 20
73.553190
 30
0.0
 10
22.604100
 20
73.698610
 30
0.0
 10
22.448600
 20
73.854080
 30
0.0
 10
22.303200
 20
74.019010
 30
0.0
 10
22.168400
 20
74.192750
 30
0.0
 10
22.044800
 20
74.374600
 30
0.0
 10
21.932900
 20
74.563860
 30
0.0
 10
21.833100
 20
74.759770
 30
0.0
 10
21.745800
 20
74.961560
 30
0.0
 10
21.671300
 20
75.168430
 30
0.0
 10
21.610000
 20
75.379580
 30
0.0
 10
21.562000
 20
75.594160
 30
0.0
 10
21.527600
 20
75.811330
 30
0.0
 10
21.506900
 20
76.030200
 30
0.0
 10
21.500000
 20
76.250000
 30
0.0
 10
21.500000
 20
81.250000
 30
0.0
 10
21.506900
 20
81.469800
 30
0.0
 10
21.527600
 20
81.688700
 30
0.0
 10
21.562000
 20
81.905800
 30
0.0
 10
21.610000
 20
82.120400
 30
0.0
 10
21.671300
 20
82.331600
 30
0.0
 10
21.745800
 20
82.538400
 30
0.0
 10
21.833100
 20
82.740200
 30
0.0
 10
21.932900
 20
82.936100
 30
0.0
 10
22.044800
 20
83.125400
 30
0.0
 10
22.168400
 20
83.307200
 30
0.0
 10
22.303200
 20
83.481000
 30
0.0
 10
22.448600
 20
83.645900
 30
0.0
 10
22.604100
 20
83.801400
 30
0.0
 10
22.769000
 20
83.946800
 30
0.0
 10
22.942700
 20
84.081600
 30
0.0
 10
23.124600
 20
84.205100
 30
0.0
 10
23.313900
 20
84.317100
 30
0.0
 10
23.509800
 20
84.416900
 30
0.0
 10
23.711600
 20
84.504200
 30
0.0
 10
23.918400
 20
84.578700
 30
0.0
 10
24.129600
 20
84.640000
 30
0.0
 10
24.344200
 20
84.688000
 30
0.0
 10
24.561300
 20
84.722400
 30
0.0
 10
24.780200
 20
84.743100
 30
0.0
 10
25.000000
 20
84.750000
 30
0.0
 10
25.219800
 20
84.743100
 30
0.0
 10
25.438700
 20
84.722400
 30
0.0
 10
25.655800
 20
84.688000
 30
0.0
 10
25.870400
 20
84.640000
 30
0.0
 10
26.081600
 20
84.578700
 30
0.0
 10
26.288400
 20
84.504200
 30
0.0
 10
26.490200
 20
84.416900
 30
0.0
 10
26.686100
 20
84.317100
 30
0.0
 10
26.875400
 20
84.205100
 30
0.0
 10
27.057200
 20
84.081600
 30
0.0
 10
27.231000
 20
83.946800
 30
0.0
 10
27.395900
 20
83.801400
 30
0.0
 10
27.551400
 20
83.645900
 30
0.0
 10
27.696800
 20
83.481000
 30
0.0
 10
27.831600
 20
83.307200
 30
0.0
 10
27.955100
 20
83.125400
 30
0.0
 10
28.067100
 20
82.936100
 30
0.0
 10
28.166900
 20
82.740200
 30
0.0
 10
28.254200
 20
82.538400
 30
0.0
 10
28.328700
 20
82.331600
 30
0.0
 10
28.390000
 20
82.120400
 30
0.0
 10
28.438000
 20
81.905800
 30
0.0
 10
28.472400
 20
81.688700
 30
0.0
 10
28.493100
 20
81.469800
 30
0.0
 10
28.500000
 20
81.250000
 30
0.0
 10
28.500000
 20
76.250000
 30
0.0
 10
28.493100
 20
76.030200
 30
0.0
 10
28.472400
 20
75.811330
 30
0.0
 10
28.438000
 20
75.594160
 30
0.0
 10
28.390000
 20
75.379580
 30
0.0
 10
28.328700
 20
75.168430
 30
0.0
 10
28.254200
 20
74.961560
 30
0.0
 10
28.166900
 20
74.759770
 30
0.0
 10
28.067100
 20
74.563860
 30
0.0
 10
27.955100
 20
74.374600
 30
0.0
 10
27.831600
 20
74.192750
 30
0.0
 10
27.696800
 20
74.019010
 30
0.0
 10
27.551400
 20
73.854080
 30
0.0
 10
27.395900
 20
73.698610
 30
0.0
 10
27.231000
 20
73.553190
 30
0.0
 10
27.057200
 20
73.418430
 30
0.0
 10
26.875400
 20
73.294850
 30
0.0
 10
26.686100
 20
73.182920
 30
0.0
 10
26.490200
 20
73.083100
 30
0.0
 10
26.288400
 20
72.995770
 30
0.0
 10
26.081600
 20
72.921300
 30
0.0
 10
25.870400
 20
72.859950
 30
0.0
 10
25.655800
 20
72.811980
 30
0.0
 10
25.438700
 20
72.777590
 30
0.0
 10
25.219800
 20
72.756900
 30
0.0
 10
25.000000
 20
72.750000
 30
0.0
  0
LWPOLYLINE
  5
102
100
AcDbEntity
  8
0
 62
7
100
AcDbPolyline
 90
102
 70
1
 10
-25.219800
 20
72.756900
 30
0.0
 10
-25.438700
 20
72.777590
 30
0.0
 10
-25.655800
 20
72.811980
 30
0.0
 10
-25.870400
 20
72.859950
 30
0.0
 10
-26.081600
 20
72.921300
 30
0.0
 10
-26.288400
 20
72.995770
 30
0.0
 10
-26.490200
 20
73.083100
 30
0.0
 10
-26.686100
 20
73.182920
 30
0.0
 10
-26.875400
 20
73.294850
 30
0.0
 10
-27.057200
 20
73.418430
 30
0.0
 10
-27.231000
 20
73.553190
 30
0.0
 10
-27.395900
 20
73.698610
 30
0.0
 10
-27.551400
 20
73.854080
 30
0.0
 10
-27.696800
 20
74.019010
 30
0.0
 10
-27.831600
 20
74.192750
 30
0.0
 10
-27.955100
 20
74.374600
 30
0.0
 10
-28.067100
 20
74.563860
 30
0.0
 10
-28.166900
 20
74.759770
 30
0.0
 10
-28.254200
 20
74.961560
 30
0.0
 10
-28.328700
 20
75.168430
 30
0.0
 10
-28.390000
 20
75.379580
 30
0.0
 10
-28.438000
 20
75.594160
 30
0.0
 10
-28.472400
 20
75.811330
 30
0.0
 10
-28.493100
 20
76.030200
 30
0.0
 10
-28.500000
 20
76.250000
 30
0.0
 10
-28.500000
 20
81.250000
 30
0.0
 10
-28.493100
 20
81.469800
 30
0.0
 10
-28.472400
 20
81.688700
 30
0.0
 10
-28.438000
 20
81.905800
 30
0.0
 10
-28.390000
 20
82.120400
 30
0.0
 10
-28.328700
 20
82.331600
 30
0.0
 10
-28.254200
 20
82.538400
 30
0.0
 10
-28.166900
 20
82.740200
 30
0.0
 10
-28.067100
 20
82.936100
 30
0.0
 10
-27.955100
 20
83.125400
 30
0.0
 10
-27.831600
 20
83.307200
 30
0.0
 10
-27.696800
 20
83.481000
 30
0.0
 10
-27.551400
 20
83.645900
 30
0.0
 10
-27.395900
 20
83.801400
 30
0.0
 10
-27.231000
 20
83.946800
 30
0.0
 10
-27.057200
 20
84.081600
 30
0.0
 10
-26.875400
 20
84.205100
 30
0.0
 10
-26.686100
 20
84.317100
 30
0.0
 10
-26.490200
 20
84.416900
 30
0.0
 10
-26.288400
 20
84.504200
 30
0.0
 10
-26.081600
 20
84.578700
 30
0.0
 10
-25.870400
 20
84.640000
 30
0.0
 10
-25.655800
 20
84.688000
 30
0.0
 10
-25.438700
 20
84.722400
 30
0.0
 10
-25.219800
 20
84.743100
 30
0.0
 10
-25.000000
 20
84.750000
 30
0.0
 10
-24.780200
 20
84.743100
 30
0.0
 10
-24.561300
 20
84.722400
 30
0.0
 10
-24.344200
 20
84.688000
 30
0.0
 10
-24.129600
 20
84.640000
 30
0.0
 10
-23.918400
 20
84.578700
 30
0.0
 10
-23.711600
 20
84.504200
 30
0.0
 10
-23.509800
 20
84.416900
 30
0.0
 10
-23.313900
 20
84.317100
 30
0.0
 10
-23.124600
 20
84.205100
 30
0.0
 10
-22.942700
 20
84.081600
 30
0.0
 10
-22.769000
 20
83.946800
 30
0.0
 10
-22.604100
 20
83.801400
 30
0.0
 10
-22.448600
 20
83.645900
 30
0.0
 10
-22.303200
 20
83.481000
 30
0.0
 10
-22.168400
 20
83.307200
 30
0.0
 10
-22.044800
 20
83.125400
 30
0.0
 10
-21.932900
 20
82.936100
 30
0.0
 10
-21.833100
 20
82.740200
 30
0.0
 10
-21.745800
 20
82.538400
 30
0.0
 10
-21.671300
 20
82.331600
 30
0.0
 10
-21.610000
 20
82.120400
 30
0.0
 10
-21.562000
 20
81.905800
 30
0.0
 10
-21.527600
 20
81.688700
 30
0.0
 10
-21.506900
 20
81.469800
 30
0.0
 10
-21.500000
 20
81.250000
 30
0.0
 10
-21.500000
 20
76.250000
 30
0.0
 10
-21.506900
 20
76.030200
 30
0.0
 10
-21.527600
 20
75.811330
 30
0.0
 10
-21.562000
 20
75.594160
 30
0.0
 10
-21.610000
 20
75.379580
 30
0.0
 10
-21.671300
 20
75.168430
 30
0.0
 10
-21.745800
 20
74.961560
 30
0.0
 10
-21.833100
 20
74.759770
 30
0.0
 10
-21.932900
 20
74.563860
 30
0.0
 10
-22.044800
 20
74.374600
 30
0.0
 10
-22.168400
 20
74.192750
 30
0.0
 10
-22.303200
 20
74.019010
 30
0.0
 10
-22.448600
 20
73.854080
 30
0.0
 10
-22.604100
 20
73.698610
 30
0.0
 10
-22.769000
 20
73.553190
 30
0.0
 10
-22.942700
 20
73.418430
 30
0.0
 10
-23.124600
 20
73.294850
 30
0.0
 10
-23.313900
 20
73.182920
 30
0.0
 10
-23.509800
 20
73.083100
 30
0.0
 10
-23.711600
 20
72.995770
 30
0.0
 10
-23.918400
 20
72.921300
 30
0.0
 10
-24.129600
 20
72.859950
 30
0.0
 10
-24.344200
 20
72.811980
 30
0.0
 10
-24.561300
 20
72.777590
 30
0.0
 10
-24.780200
 20
72.756900
 30
0.0
 10
-25.000000
 20
72.750000
 30
0.0
  0
LWPOLYLINE
  5
103
100
AcDbEntity
  8
0
 62
7
100
AcDbPolyline
 90
102
 70
1
 10
-25.219800
 20
47.256900
 30
0.0
 10
-25.438700
 20
47.277600
 30
0.0
 10
-25.655800
 20
47.312000
 30
0.0
 10
-25.870400
 20
47.360000
 30
0.0
 10
-26.081600
 20
47.421300
 30
0.0
 10
-26.288400
 20
47.495800
 30
0.0
 10
-26.490200
 20
47.583100
 30
0.0
 10
-26.686100
 20
47.682900
 30
0.0
 10
-26.875400
 20
47.794900
 30
0.0
 10
-27.057200
 20
47.918400
 30
0.0
 10
-27.231000
 20
48.053200
 30
0.0
 10
-27.395900
 20
48.198600
 30
0.0
 10
-27.551400
 20
48.354100
 30
0.0
 10
-27.696800
 20
48.519000
 30
0.0
 10
-27.831600
 20
48.692800
 30
0.0
 10
-27.955100
 20
48.874600
 30
0.0
 10
-28.067100
 20
49.063900
 30
0.0
 10
-28.166900
 20
49.259800
 30
0.0
 10
-28.254200
 20
49.461600
 30
0.0
 10
-28.328700
 20
49.668400
 30
0.0
 10
-28.390000
 20
49.879600
 30
0.0
 10
-28.438000
 20
50.094200
 30
0.0
 10
-28.472400
 20
50.311300
 30
0.0
 10
-28.493100
 20
50.530200
 30
0.0
 10
-28.500000
 20
50.750000
 30
0.0
 10
-28.500000
 20
55.750000
 30
0.0
 10
-28.493100
 20
55.969800
 30
0.0
 10
-28.472400
 20
56.188670
 30
0.0
 10
-28.438000
 20
56.405840
 30
0.0
 10
-28.390000
 20
56.620420
 30
0.0
 10
-28.328700
 20
56.831570
 30
0.0
 10
-28.254200
 20
57.038440
 30
0.0
 10
-28.166900
 20
57.240230
 30
0.0
 10
-28.067100
 20
57.436140
 30
0.0
 10
-27.955100
 20
57.625400
 30
0.0
 10
-27.831600
 20
57.807250
 30
0.0
 10
-27.696800
 20
57.980990
 30
0.0
 10
-27.551400
 20
58.145920
 30
0.0
 10
-27.395900
 20
58.301390
 30
0.0
 10
-27.231000
 20
58.446810
 30
0.0
 10
-27.057200
 20
58.581570
 30
0.0
 10
-26.875400
 20
58.705150
 30
0.0
 10
-26.686100
 20
58.817080
 30
0.0
 10
-26.490200
 20
58.916900
 30
0.0
 10
-26.288400
 20
59.004230
 30
0.0
 10
-26.081600
 20
59.078700
 30
0.0
 10
-25.870400
 20
59.140050
 30
0.0
 10
-25.655800
 20
59.188020
 30
0.0
 10
-25.438700
 20
59.222410
 30
0.0
 10
-25.219800
 20
59.243100
 30
0.0
 10
-25.000000
 20
59.250000
 30
0.0
 10
-24.780200
 20
59.243100
 30
0.0
 10
-24.561300
 20
59.222410
 30
0.0
 10
-24.344200
 20
59.188020
 30
0.0
 10
-24.129600
 20
59.140050
 30
0.0
 10
-23.918400
 20
59.078700
 30
0.0
 10
-23.711600
 20
59.004230
 30
0.0
 10
-23.509800
 20
58.916900
 30
0.0
 10
-23.313900
 20
58.817080
 30
0.0
 10
-23.124600
 20
58.705150
 30
0.0
 10
-22.942700
 20
58.581570
 30
0.0
 10
-22.769000
 20
58.446810
 30
0.0
 10
-22.604100
 20
58.301390
 30
0.0
 10
-22.448600
 20
58.145920
 30
0.0
 10
-22.303200
 20
57.980990
 30
0.0
 10
-22.168400
 20
57.807250
 30
0.0
 10
-22.044800
 20
57.625400
 30
0.0
 10
-21.932900
 20
57.436140
 30
0.0
 10
-21.833100
 20
57.240230
 30
0.0
 10
-21.745800
 20
57.038440
 30
0.0
 10
-21.671300
 20
56.831570
 30
0.0
 10
-21.610000
 20
56.620420
 30
0.0
 10
-21.562000
 20
56.405840
 30
0.0
 10
-21.527600
 20
56.188670
 30
0.0
 10
-21.506900
 20
55.969800
 30
0.0
 10
-21.500000
 20
55.750000
 30
0.0
 10
-21.500000
 20
50.750000
 30
0.0
 10
-21.506900
 20
50.530200
 30
0.0
 10
-21.527600
 20
50.311300
 30
0.0
 10
-21.562000
 20
50.094200
 30
0.0
 10
-21.610000
 20
49.879600
 30
0.0
 10
-21.671300
 20
49.668400
 30
0.0
 10
-21.745800
 20
49.461600
 30
0.0
 10
-21.833100
 20
49.259800
 30
0.0
 10
-21.932900
 20
49.063900
 30
0.0
 10
-22.044800
 20
48.874600
 30
0.0
 10
-22.168400
 20
48.692800
 30
0.0
 10
-22.303200
 20
48.519000
 30
0.0
 10
-22.448600
 20
48.354100
 30
0.0
 10
-22.604100
 20
48.198600
 30
0.0
 10
-22.769000
 20
48.053200
 30
0.0
 10
-22.942700
 20
47.918400
 30
0.0
 10
-23.124600
 20
47.794900
 30
0.0
 10
-23.313900
 20
47.682900
 30
0.0
 10
-23.509800
 20
47.583100
 30
0.0
 10
-23.711600
 20
47.495800
 30
0.0
 10
-23.918400
 20
47.421300
 30
0.0
 10
-24.129600
 20
47.360000
 30
0.0
 10
-24.344200
 20
47.312000
 30
0.0
 10
-24.561300
 20
47.277600
 30
0.0
 10
-24.780200
 20
47.256900
 30
0.0
 10
-25.000000
 20
47.250000
 30
0.0
  0
LWPOLYLINE
  5
104
100
AcDbEntity
  8
0
 62
7
100
AcDbPolyline
 90
102
 70
1
 10
24.780200
 20
47.256900
 30
0.0
 10
24.561300
 20
47.277600
 30
0.0
 10
24.344200
 20
47.312000
 30
0.0
 10
24.129600
 20
47.360000
 30
0.0
 10
23.918400
 20
47.421300
 30
0.0
 10
23.711600
 20
47.495800
 30
0.0
 10
23.509800
 20
47.583100
 30
0.0
 10
23.313900
 20
47.682900
 30
0.0
 10
23.124600
 20
47.794900
 30
0.0
 10
22.942700
 20
47.918400
 30
0.0
 10
22.769000
 20
48.053200
 30
0.0
 10
22.604100
 20
48.198600
 30
0.0
 10
22.448600
 20
48.354100
 30
0.0
 10
22.303200
 20
48.519000
 30
0.0
 10
22.168400
 20
48.692800
 30
0.0
 10
22.044800
 20
48.874600
 30
0.0
 10
21.932900
 20
49.063900
 30
0.0
 10
21.833100
 20
49.259800
 30
0.0
 10
21.745800
 20
49.461600
 30
0.0
 10
21.671300
 20
49.668400
 30
0.0
 10
21.610000
 20
49.879600
 30
0.0
 10
21.562000
 20
50.094200
 30
0.0
 10
21.527600
 20
50.311300
 30
0.0
 10
21.506900
 20
50.530200
 30
0.0
 10
21.500000
 20
50.750000
 30
0.0
 10
21.500000
 20
55.750000
 30
0.0
 10
21.506900
 20
55.969800
 30
0.0
 10
21.527600
 20
56.188670
 30
0.0
 10
21.562000
 20
56.405840
 30
0.0
 10
21.610000
 20
56.620420
 30
0.0
 10
21.671300
 20
56.831570
 30
0.0
 10
21.745800
 20
57.038440
 30
0.0
 10
21.833100
 20
57.240230
 30
0.0
 10
21.932900
 20
57.436140
 30
0.0
 10
22.044800
 20
57.625400
 30
0.0
 10
22.168400
 20
57.807250
 30
0.0
 10
22.303200
 20
57.980990
 30
0.0
 10
22.448600
 20
58.145920
 30
0.0
 10
22.604100
 20
58.301390
 30
0.0
 10
22.769000
 20
58.446810
 30
0.0
 10
22.942700
 20
58.581570
 30
0.0
 10
23.124600
 20
58.705150
 30
0.0
 10
23.313900
 20
58.817080
 30
0.0
 10
23.509800
 20
58.916900
 30
0.0
 10
23.711600
 20
59.004230
 30
0.0
 10
23.918400
 20
59.078700
 30
0.0
 10
24.129600
 20
59.140050
 30
0.0
 10
24.344200
 20
59.188020
 30
0.0
 10
24.561300
 20
59.222410
 30
0.0
 10
24.780200
 20
59.243100
 30
0.0
 10
25.000000
 20
59.250000
 30
0.0
 10
25.219800
 20
59.243100
 30
0.0
 10
25.438700
 20
59.222410
 30
0.0
 10
25.655800
 20
59.188020
 30
0.0
 10
25.870400
 20
59.140050
 30
0.0
 10
26.081600
 20
59.078700
 30
0.0
 10
26.288400
 20
59.004230
 30
0.0
 10
26.490200
 20
58.916900
 30
0.0
 10
26.686100
 20
58.817080
 30
0.0
 10
26.875400
 20
58.705150
 30
0.0
 10
27.057200
 20
58.581570
 30
0.0
 10
27.231000
 20
58.446810
 30
0.0
 10
27.395900
 20
58.301390
 30
0.0
 10
27.551400
 20
58.145920
 30
0.0
 10
27.696800
 20
57.980990
 30
0.0
 10
27.831600
 20
57.807250
 30
0.0
 10
27.955100
 20
57.625400
 30
0.0
 10
28.067100
 20
57.436140
 30
0.0
 10
28.166900
 20
57.240230
 30
0.0
 10
28.254200
 20
57.038440
 30
0.0
 10
28.328700
 20
56.831570
 30
0.0
 10
28.390000
 20
56.620420
 30
0.0
 10
28.438000
 20
56.405840
 30
0.0
 10
28.472400
 20
56.188670
 30
0.0
 10
28.493100
 20
55.969800
 30
0.0
 10
28.500000
 20
55.750000
 30
0.0
 10
28.500000
 20
50.750000
 30
0.0
 10
28.493100
 20
50.530200
 30
0.0
 10
28.472400
 20
50.311300
 30
0.0
 10
28.438000
 20
50.094200
 30
0.0
 10
28.390000
 20
49.879600
 30
0.0
 10
28.328700
 20
49.668400
 30
0.0
 10
28.254200
 20
49.461600
 30
0.0
 10
28.166900
 20
49.259800
 30
0.0
 10
28.067100
 20
49.063900
 30
0.0
 10
27.955100
 20
48.874600
 30
0.0
 10
27.831600
 20
48.692800
 30
0.0
 10
27.696800
 20
48.519000
 30
0.0
 10
27.551400
 20
48.354100
 30
0.0
 10
27.395900
 20
48.198600
 30
0.0
 10
27.231000
 20
48.053200
 30
0.0
 10
27.057200
 20
47.918400
 30
0.0
 10
26.875400
 20
47.794900
 30
0.0
 10
26.686100
 20
47.682900
 30
0.0
 10
26.490200
 20
47.583100
 30
0.0
 10
26.288400
 20
47.495800
 30
0.0
 10
26.081600
 20
47.421300
 30
0.0
 10
25.870400
 20
47.360000
 30
0.0
 10
25.655800
 20
47.312000
 30
0.0
 10
25.438700
 20
47.277600
 30
0.0
 10
25.219800
 20
47.256900
 30
0.0
 10
25.000000
 20
47.250000
 30
0.0
  0
LWPOLYLINE
  5
105
100
AcDbEntity
  8
0
 62
1
100
AcDbPolyline
 90
2
 70
0
 10
38.023390
 20
67.189226
 30
0.0
 10
-38.926891
 20
67.189226
 30
0.0
  0
ENDSEC
  0
SECTION
  2
OBJECTS
  0
DICTIONARY
  5
C
330
0
100
AcDbDictionary
  3
ACAD_GROUP
350
D
  3
ACAD_MLINESTYLE
350
17
  0
DICTIONARY
  5
D
330
C
100
AcDbDictionary
  0
DICTIONARY
  5
1A
330
C
100
AcDbDictionary
  0
DICTIONARY
  5
17
330
C
100
AcDbDictionary
  3
STANDARD
350
18
  0
DICTIONARY
  5
19
330
C
100
AcDbDictionary
  0
ENDSEC
  0
EOF
