  0
SECTION
  2
HEADER
  9
$ACADVER
  1
AC1014
  9
$HANDSEED
  5
FFFF
  9
$MEASUREMENT
 70
     1
  0
ENDSEC
  0
SECTION
  2
TABLES
  0
TABLE
  2
VPORT
  5
8
330
0
100
AcDbSymbolTable
 70
     4
  0
VPORT
  5
2E
330
8
100
AcDbSymbolTableRecord
100
AcDbViewportTableRecord
  2
*ACTIVE
 70
     0
 10
0.0
 20
0.0
 11
1.0
 21
1.0
 12
210.0
 22
148.5
 13
0.0
 23
0.0
 14
10.0
 24
10.0
 15
10.0
 25
10.0
 16
0.0
 26
0.0
 36
1.0
 17
0.0
 27
0.0
 37
0.0
 40
341.0
 41
1.24
 42
50.0
 43
0.0
 44
0.0
 50
0.0
 51
0.0
 71
     0
 72
   100
 73
     1
 74
     3
 75
     0
 76
     0
 77
     0
 78
     0
  0
ENDTAB
  0
TABLE
  2
LTYPE
  5
5
330
0
100
AcDbSymbolTable
 70
     1
  0
LTYPE
  5
14
330
5
100
AcDbSymbolTableRecord
100
AcDbLinetypeTableRecord
  2
BYBLOCK
 70
     0
  3

 72
    65
 73
     0
 40
0.0
  0
LTYPE
  5
15
330
5
100
AcDbSymbolTableRecord
100
AcDbLinetypeTableRecord
  2
BYLAYER
 70
     0
  3

 72
    65
 73
     0
 40
0.0
  0
LTYPE
  5
16
330
5
100
AcDbSymbolTableRecord
100
AcDbLinetypeTableRecord
  2
CONTINUOUS
 70
     0
  3
Solid line
 72
    65
 73
     0
 40
0.0
  0
ENDTAB
  0
TABLE
  2
LAYER
  5
2
100
AcDbSymbolTable
 70
1
  0
LAYER
  5
50
100
AcDbSymbolTableRecord
100
AcDbLayerTableRecord
  2
0
 70
0
  6
CONTINUOUS
  0
ENDTAB
  0
TABLE
  2
STYLE
  5
3
330
0
100
AcDbSymbolTable
 70
     1
  0
STYLE
  5
11
330
3
100
AcDbSymbolTableRecord
100
AcDbTextStyleTableRecord
  2
STANDARD
 70
     0
 40
0.0
 41
1.0
 50
0.0
 71
     0
 42
2.5
  3
txt
  4

  0
ENDTAB
  0
TABLE
  2
VIEW
  5
6
330
0
100
AcDbSymbolTable
 70
     0
  0
ENDTAB
  0
TABLE
  2
UCS
  5
7
330
0
100
AcDbSymbolTable
 70
     0
  0
ENDTAB
  0
TABLE
  2
APPID
  5
9
330
0
100
AcDbSymbolTable
 70
     2
  0
APPID
  5
12
330
9
100
AcDbSymbolTableRecord
100
AcDbRegAppTableRecord
  2
ACAD
 70
     0
  0
ENDTAB
  0
TABLE
  2
DIMSTYLE
  5
A
330
0
100
AcDbSymbolTable
 70
     1
  0
DIMSTYLE
105
27
330
A
100
AcDbSymbolTableRecord
100
AcDbDimStyleTableRecord
  2
ISO-25
 70
     0
  3

  4

  5

  6

  7

 40
1.0
 41
2.5
 42
0.625
 43
3.75
 44
1.25
 45
0.0
 46
0.0
 47
0.0
 48
0.0
140
2.5
141
2.5
142
0.0
143
0.03937007874016
144
1.0
145
0.0
146
1.0
147
0.625
 71
     0
 72
     0
 73
     0
 74
     0
 75
     0
 76
     0
 77
     1
 78
     8
170
     0
171
     3
172
     1
173
     0
174
     0
175
     0
176
     0
177
     0
178
     0
270
     2
271
     2
272
     2
273
     2
274
     3
340
11
275
     0
280
     0
281
     0
282
     0
283
     0
284
     8
285
     0
286
     0
287
     3
288
     0
  0
ENDTAB
  0
TABLE
  2
BLOCK_RECORD
  5
1
330
0
100
AcDbSymbolTable
 70
     1
  0
BLOCK_RECORD
  5
1F
330
1
100
AcDbSymbolTableRecord
100
AcDbBlockTableRecord
  2
*MODEL_SPACE
  0
BLOCK_RECORD
  5
1B
330
1
100
AcDbSymbolTableRecord
100
AcDbBlockTableRecord
  2
*PAPER_SPACE
  0
ENDTAB
  0
ENDSEC
  0
SECTION
  2
BLOCKS
  0
BLOCK
  5
20
330
1F
100
AcDbEntity
  8
0
100
AcDbBlockBegin
  2
*MODEL_SPACE
 70
     0
 10
0.0
 20
0.0
 30
0.0
  3
*MODEL_SPACE
  1

  0
ENDBLK
  5
21
330
1F
100
AcDbEntity
  8
0
100
AcDbBlockEnd
  0
BLOCK
  5
1C
330
1B
100
AcDbEntity
 67
     1
  8
0
100
AcDbBlockBegin
  2
*PAPER_SPACE
  1

  0
ENDBLK
  5
1D
330
1B
100
AcDbEntity
 67
     1
  8
0
100
AcDbBlockEnd
  0
ENDSEC
  0
SECTION
  2
ENTITIES
  0
LWPOLYLINE
  5
100
100
AcDbEntity
  8
0
 62
7
100
AcDbPolyline
 90
73
 70
1
 10
-5.000000
 20
53.500000
 30
0.0
 10
-4.990130
 20
53.814000
 30
0.0
 10
-4.960570
 20
54.126700
 30
0.0
 10
-4.911420
 20
54.436900
 30
0.0
 10
-4.842910
 20
54.743500
 30
0.0
 10
-4.755280
 20
55.045100
 30
0.0
 10
-4.648880
 20
55.340600
 30
0.0
 10
-4.524120
 20
55.628900
 30
0.0
 10
-4.381530
 20
55.908800
 30
0.0
 10
-4.221630
 20
56.179140
 30
0.0
 10
-4.045070
 20
56.438930
 30
0.0
 10
-3.852550
 20
56.687130
 30
0.0
 10
-3.644840
 20
56.922740
 30
0.0
 10
-3.422730
 20
57.144850
 30
0.0
 10
-3.187120
 20
57.352570
 30
0.0
 10
-2.938920
 20
57.545090
 30
0.0
 10
-2.679120
 20
57.721650
 30
0.0
 10
-2.408770
 20
57.881550
 30
0.0
 10
-2.128890
 20
58.024140
 30
0.0
 10
-1.840620
 20
58.148900
 30
0.0
 10
-1.545070
 20
58.255290
 30
0.0
 10
-1.243440
 20
58.342930
 30
0.0
 10
-0.936905
 20
58.411440
 30
0.0
 10
-0.626663
 20
58.460590
 30
0.0
 10
-0.313950
 20
58.490140
 30
0.0
 10
0.000000
 20
58.500000
 30
0.0
 10
0.313950
 20
58.490140
 30
0.0
 10
0.626663
 20
58.460590
 30
0.0
 10
0.936905
 20
58.411440
 30
0.0
 10
1.243440
 20
58.342930
 30
0.0
 10
1.545070
 20
58.255290
 30
0.0
 10
1.840620
 20
58.148900
 30
0.0
 10
2.128890
 20
58.024140
 30
0.0
 10
2.408770
 20
57.881550
 30
0.0
 10
2.679120
 20
57.721650
 30
0.0
 10
2.938920
 20
57.545090
 30
0.0
 10
3.187120
 20
57.352570
 30
0.0
 10
3.422730
 20
57.144850
 30
0.0
 10
3.644840
 20
56.922740
 30
0.0
 10
3.852550
 20
56.687130
 30
0.0
 10
4.045070
 20
56.438930
 30
0.0
 10
4.221630
 20
56.179140
 30
0.0
 10
4.381530
 20
55.908800
 30
0.0
 10
4.524120
 20
55.628900
 30
0.0
 10
4.648880
 20
55.340600
 30
0.0
 10
4.755280
 20
55.045100
 30
0.0
 10
4.842910
 20
54.743500
 30
0.0
 10
4.911420
 20
54.436900
 30
0.0
 10
4.960570
 20
54.126700
 30
0.0
 10
4.990130
 20
53.814000
 30
0.0
 10
5.000000
 20
53.500000
 30
0.0
 10
5.000000
 20
33.500000
 30
0.0
 10
15.000000
 20
33.500000
 30
0.0
 10
16.913400
 20
33.880600
 30
0.0
 10
18.535500
 20
34.964500
 30
0.0
 10
19.619400
 20
36.586600
 30
0.0
 10
20.000000
 20
38.500000
 30
0.0
 10
20.000000
 20
93.500000
 30
0.0
 10
19.619400
 20
95.413400
 30
0.0
 10
18.535500
 20
97.035500
 30
0.0
 10
16.913400
 20
98.119400
 30
0.0
 10
15.000000
 20
98.500000
 30
0.0
 10
-15.000000
 20
98.500000
 30
0.0
 10
-16.913400
 20
98.119400
 30
0.0
 10
-18.535500
 20
97.035500
 30
0.0
 10
-19.619400
 20
95.413400
 30
0.0
 10
-20.000000
 20
93.500000
 30
0.0
 10
-20.000000
 20
38.500000
 30
0.0
 10
-19.619400
 20
36.586600
 30
0.0
 10
-18.535500
 20
34.964500
 30
0.0
 10
-16.913400
 20
33.880600
 30
0.0
 10
-15.000000
 20
33.500000
 30
0.0
 10
-5.000000
 20
33.500000
 30
0.0
  0
LWPOLYLINE
  5
101
100
AcDbEntity
  8
0
 62
7
100
AcDbPolyline
 90
100
 70
1
 10
9.015760
 20
91.750700
 30
0.0
 10
9.035420
 20
91.874800
 30
0.0
 10
9.062820
 20
91.997400
 30
0.0
 10
9.097890
 20
92.118000
 30
0.0
 10
9.140440
 20
92.236200
 30
0.0
 10
9.190340
 20
92.351500
 30
0.0
 10
9.247380
 20
92.463500
 30
0.0
 10
9.311340
 20
92.571600
 30
0.0
 10
9.381960
 20
92.675600
 30
0.0
 10
9.458970
 20
92.774800
 30
0.0
 10
9.542050
 20
92.869100
 30
0.0
 10
9.630910
 20
92.957900
 30
0.0
 10
9.725140
 20
93.041000
 30
0.0
 10
9.824420
 20
93.118000
 30
0.0
 10
9.928340
 20
93.188600
 30
0.0
 10
10.036500
 20
93.252600
 30
0.0
 10
10.148400
 20
93.309600
 30
0.0
 10
10.263700
 20
93.359500
 30
0.0
 10
10.382000
 20
93.402100
 30
0.0
 10
10.502600
 20
93.437200
 30
0.0
 10
10.625200
 20
93.464600
 30
0.0
 10
10.749300
 20
93.484200
 30
0.0
 10
10.874400
 20
93.496000
 30
0.0
 10
11.000000
 20
93.500000
 30
0.0
 10
11.125600
 20
93.496000
 30
0.0
 10
11.250700
 20
93.484200
 30
0.0
 10
11.374800
 20
93.464600
 30
0.0
 10
11.497400
 20
93.437200
 30
0.0
 10
11.618000
 20
93.402100
 30
0.0
 10
11.736200
 20
93.359500
 30
0.0
 10
11.851500
 20
93.309600
 30
0.0
 10
11.963500
 20
93.252600
 30
0.0
 10
12.071600
 20
93.188600
 30
0.0
 10
12.175600
 20
93.118000
 30
0.0
 10
12.274800
 20
93.041000
 30
0.0
 10
12.369100
 20
92.957900
 30
0.0
 10
12.457900
 20
92.869100
 30
0.0
 10
12.541000
 20
92.774800
 30
0.0
 10
12.618000
 20
92.675600
 30
0.0
 10
12.688600
 20
92.571600
 30
0.0
 10
12.752600
 20
92.463500
 30
0.0
 10
12.809600
 20
92.351500
 30
0.0
 10
12.859500
 20
92.236200
 30
0.0
 10
12.902100
 20
92.118000
 30
0.0
 10
12.937200
 20
91.997400
 30
0.0
 10
12.964600
 20
91.874800
 30
0.0
 10
12.984200
 20
91.750700
 30
0.0
 10
12.996000
 20
91.625600
 30
0.0
 10
13.000000
 20
91.500000
 30
0.0
 10
12.996000
 20
91.374400
 30
0.0
 10
12.984200
 20
91.249300
 30
0.0
 10
12.964600
 20
91.125200
 30
0.0
 10
12.937200
 20
91.002600
 30
0.0
 10
12.902100
 20
90.882000
 30
0.0
 10
12.859500
 20
90.763700
 30
0.0
 10
12.809600
 20
90.648400
 30
0.0
 10
12.752600
 20
90.536500
 30
0.0
 10
12.688600
 20
90.428300
 30
0.0
 10
12.618000
 20
90.324400
 30
0.0
 10
12.541000
 20
90.225100
 30
0.0
 10
12.457900
 20
90.130900
 30
0.0
 10
12.369100
 20
90.042100
 30
0.0
 10
12.274800
 20
89.959000
 30
0.0
 10
12.175600
 20
89.882000
 30
0.0
 10
12.071600
 20
89.811300
 30
0.0
 10
11.963500
 20
89.747400
 30
0.0
 10
11.851500
 20
89.690300
 30
0.0
 10
11.736200
 20
89.640400
 30
0.0
 10
11.618000
 20
89.597900
 30
0.0
 10
11.497400
 20
89.562800
 30
0.0
 10
11.374800
 20
89.535400
 30
0.0
 10
11.250700
 20
89.515800
 30
0.0
 10
11.125600
 20
89.503900
 30
0.0
 10
11.000000
 20
89.500000
 30
0.0
 10
10.874400
 20
89.503900
 30
0.0
 10
10.749300
 20
89.515800
 30
0.0
 10
10.625200
 20
89.535400
 30
0.0
 10
10.502600
 20
89.562800
 30
0.0
 10
10.382000
 20
89.597900
 30
0.0
 10
10.263700
 20
89.640400
 30
0.0
 10
10.148400
 20
89.690300
 30
0.0
 10
10.036500
 20
89.747400
 30
0.0
 10
9.928340
 20
89.811300
 30
0.0
 10
9.824420
 20
89.882000
 30
0.0
 10
9.725140
 20
89.959000
 30
0.0
 10
9.630910
 20
90.042100
 30
0.0
 10
9.542050
 20
90.130900
 30
0.0
 10
9.458970
 20
90.225100
 30
0.0
 10
9.381960
 20
90.324400
 30
0.0
 10
9.311340
 20
90.428300
 30
0.0
 10
9.247380
 20
90.536500
 30
0.0
 10
9.190340
 20
90.648400
 30
0.0
 10
9.140440
 20
90.763700
 30
0.0
 10
9.097890
 20
90.882000
 30
0.0
 10
9.062820
 20
91.002600
 30
0.0
 10
9.035420
 20
91.125200
 30
0.0
 10
9.015760
 20
91.249300
 30
0.0
 10
9.003940
 20
91.374400
 30
0.0
 10
9.000000
 20
91.500000
 30
0.0
 10
9.003940
 20
91.625600
 30
0.0
  0
LWPOLYLINE
  5
102
100
AcDbEntity
  8
0
 62
7
100
AcDbPolyline
 90
100
 70
1
 10
-9.015760
 20
91.249300
 30
0.0
 10
-9.035420
 20
91.125200
 30
0.0
 10
-9.062820
 20
91.002600
 30
0.0
 10
-9.097890
 20
90.882000
 30
0.0
 10
-9.140440
 20
90.763700
 30
0.0
 10
-9.190340
 20
90.648400
 30
0.0
 10
-9.247380
 20
90.536500
 30
0.0
 10
-9.311340
 20
90.428300
 30
0.0
 10
-9.381960
 20
90.324400
 30
0.0
 10
-9.458970
 20
90.225100
 30
0.0
 10
-9.542050
 20
90.130900
 30
0.0
 10
-9.630910
 20
90.042100
 30
0.0
 10
-9.725140
 20
89.959000
 30
0.0
 10
-9.824420
 20
89.882000
 30
0.0
 10
-9.928340
 20
89.811300
 30
0.0
 10
-10.036500
 20
89.747400
 30
0.0
 10
-10.148400
 20
89.690300
 30
0.0
 10
-10.263700
 20
89.640400
 30
0.0
 10
-10.382000
 20
89.597900
 30
0.0
 10
-10.502600
 20
89.562800
 30
0.0
 10
-10.625200
 20
89.535400
 30
0.0
 10
-10.749300
 20
89.515800
 30
0.0
 10
-10.874400
 20
89.503900
 30
0.0
 10
-11.000000
 20
89.500000
 30
0.0
 10
-11.125600
 20
89.503900
 30
0.0
 10
-11.250700
 20
89.515800
 30
0.0
 10
-11.374800
 20
89.535400
 30
0.0
 10
-11.497400
 20
89.562800
 30
0.0
 10
-11.618000
 20
89.597900
 30
0.0
 10
-11.736200
 20
89.640400
 30
0.0
 10
-11.851500
 20
89.690300
 30
0.0
 10
-11.963500
 20
89.747400
 30
0.0
 10
-12.071600
 20
89.811300
 30
0.0
 10
-12.175600
 20
89.882000
 30
0.0
 10
-12.274800
 20
89.959000
 30
0.0
 10
-12.369100
 20
90.042100
 30
0.0
 10
-12.457900
 20
90.130900
 30
0.0
 10
-12.541000
 20
90.225100
 30
0.0
 10
-12.618000
 20
90.324400
 30
0.0
 10
-12.688600
 20
90.428300
 30
0.0
 10
-12.752600
 20
90.536500
 30
0.0
 10
-12.809600
 20
90.648400
 30
0.0
 10
-12.859500
 20
90.763700
 30
0.0
 10
-12.902100
 20
90.882000
 30
0.0
 10
-12.937200
 20
91.002600
 30
0.0
 10
-12.964600
 20
91.125200
 30
0.0
 10
-12.984200
 20
91.249300
 30
0.0
 10
-12.996000
 20
91.374400
 30
0.0
 10
-13.000000
 20
91.500000
 30
0.0
 10
-12.996000
 20
91.625600
 30
0.0
 10
-12.984200
 20
91.750700
 30
0.0
 10
-12.964600
 20
91.874800
 30
0.0
 10
-12.937200
 20
91.997400
 30
0.0
 10
-12.902100
 20
92.118000
 30
0.0
 10
-12.859500
 20
92.236200
 30
0.0
 10
-12.809600
 20
92.351500
 30
0.0
 10
-12.752600
 20
92.463500
 30
0.0
 10
-12.688600
 20
92.571600
 30
0.0
 10
-12.618000
 20
92.675600
 30
0.0
 10
-12.541000
 20
92.774800
 30
0.0
 10
-12.457900
 20
92.869100
 30
0.0
 10
-12.369100
 20
92.957900
 30
0.0
 10
-12.274800
 20
93.041000
 30
0.0
 10
-12.175600
 20
93.118000
 30
0.0
 10
-12.071600
 20
93.188600
 30
0.0
 10
-11.963500
 20
93.252600
 30
0.0
 10
-11.851500
 20
93.309600
 30
0.0
 10
-11.736200
 20
93.359500
 30
0.0
 10
-11.618000
 20
93.402100
 30
0.0
 10
-11.497400
 20
93.437200
 30
0.0
 10
-11.374800
 20
93.464600
 30
0.0
 10
-11.250700
 20
93.484200
 30
0.0
 10
-11.125600
 20
93.496000
 30
0.0
 10
-11.000000
 20
93.500000
 30
0.0
 10
-10.874400
 20
93.496000
 30
0.0
 10
-10.749300
 20
93.484200
 30
0.0
 10
-10.625200
 20
93.464600
 30
0.0
 10
-10.502600
 20
93.437200
 30
0.0
 10
-10.382000
 20
93.402100
 30
0.0
 10
-10.263700
 20
93.359500
 30
0.0
 10
-10.148400
 20
93.309600
 30
0.0
 10
-10.036500
 20
93.252600
 30
0.0
 10
-9.928340
 20
93.188600
 30
0.0
 10
-9.824420
 20
93.118000
 30
0.0
 10
-9.725140
 20
93.041000
 30
0.0
 10
-9.630910
 20
92.957900
 30
0.0
 10
-9.542050
 20
92.869100
 30
0.0
 10
-9.458970
 20
92.774800
 30
0.0
 10
-9.381960
 20
92.675600
 30
0.0
 10
-9.311340
 20
92.571600
 30
0.0
 10
-9.247380
 20
92.463500
 30
0.0
 10
-9.190340
 20
92.351500
 30
0.0
 10
-9.140440
 20
92.236200
 30
0.0
 10
-9.097890
 20
92.118000
 30
0.0
 10
-9.062820
 20
91.997400
 30
0.0
 10
-9.035420
 20
91.874800
 30
0.0
 10
-9.015760
 20
91.750700
 30
0.0
 10
-9.003940
 20
91.625600
 30
0.0
 10
-9.000000
 20
91.500000
 30
0.0
 10
-9.003940
 20
91.374400
 30
0.0
  0
ENDSEC
  0
SECTION
  2
OBJECTS
  0
DICTIONARY
  5
C
330
0
100
AcDbDictionary
  3
ACAD_GROUP
350
D
  3
ACAD_MLINESTYLE
350
17
  0
DICTIONARY
  5
D
330
C
100
AcDbDictionary
  0
DICTIONARY
  5
1A
330
C
100
AcDbDictionary
  0
DICTIONARY
  5
17
330
C
100
AcDbDictionary
  3
STANDARD
350
18
  0
DICTIONARY
  5
19
330
C
100
AcDbDictionary
  0
ENDSEC
  0
EOF
