<?xml version="1.0" standalone="no"?>
<!DOCTYPE svg PUBLIC "-//W3C//DTD SVG 1.1//EN" "http://www.w3.org/Graphics/SVG/1.1/DTD/svg11.dtd">
<svg width="40mm" height="56mm" viewBox="-20 -28 40 56" xmlns="http://www.w3.org/2000/svg" version="1.1">
<title>OpenSCAD Model</title>
<path d="
M -5,7.5 L -4.99013,7.18604 L -4.96057,6.87332 L -4.91142,6.56308 L -4.84291,6.25655 L -4.75528,5.95491
 L -4.64888,5.65936 L -4.52412,5.37109 L -4.38153,5.09122 L -4.22163,4.82086 L -4.04507,4.56107 L -3.85255,4.31287
 L -3.64484,4.07726 L -3.42273,3.85515 L -3.18712,3.64743 L -2.93892,3.45491 L -2.67912,3.27835 L -2.40877,3.11845
 L -2.12889,2.97586 L -1.84062,2.8511 L -1.54507,2.74471 L -1.24344,2.65707 L -0.936905,2.58856 L -0.626663,2.53941
 L -0.31395,2.50986 L 0,2.5 L 0.31395,2.50986 L 0.626663,2.53941 L 0.936905,2.58856 L 1.24344,2.65707
 L 1.54507,2.74471 L 1.84062,2.8511 L 2.12889,2.97586 L 2.40877,3.11845 L 2.67912,3.27835 L 2.93892,3.45491
 L 3.18712,3.64743 L 3.42273,3.85515 L 3.64484,4.07726 L 3.85255,4.31287 L 4.04507,4.56107 L 4.22163,4.82086
 L 4.38153,5.09122 L 4.52412,5.37109 L 4.64888,5.65936 L 4.75528,5.95491 L 4.84291,6.25655 L 4.91142,6.56308
 L 4.96057,6.87332 L 4.99013,7.18604 L 5,7.5 L 5,27.5 L 15,27.5 L 16.9134,27.1194
 L 18.5355,26.0355 L 19.6194,24.4134 L 20,22.5 L 20,-22.5 L 19.6194,-24.4134 L 18.5355,-26.0355
 L 16.9134,-27.1194 L 15,-27.5 L -15,-27.5 L -16.9134,-27.1194 L -18.5355,-26.0355 L -19.6194,-24.4134
 L -20,-22.5 L -20,22.5 L -19.6194,24.4134 L -18.5355,26.0355 L -16.9134,27.1194 L -15,27.5
 L -5,27.5 z
M 10.8744,-18.5039 L 10.7493,-18.5158 L 10.6252,-18.5354 L 10.5026,-18.5628 L 10.382,-18.5979 L 10.2637,-18.6404
 L 10.1484,-18.6903 L 10.0365,-18.7474 L 9.92834,-18.8113 L 9.82442,-18.882 L 9.72514,-18.959 L 9.63091,-19.0421
 L 9.54205,-19.1309 L 9.45897,-19.2251 L 9.38196,-19.3244 L 9.31134,-19.4283 L 9.24738,-19.5365 L 9.19034,-19.6484
 L 9.14044,-19.7637 L 9.09789,-19.882 L 9.06282,-20.0026 L 9.03542,-20.1252 L 9.01576,-20.2493 L 9.00394,-20.3744
 L 9,-20.5 L 9.00394,-20.6256 L 9.01576,-20.7507 L 9.03542,-20.8748 L 9.06282,-20.9974 L 9.09789,-21.118
 L 9.14044,-21.2362 L 9.19034,-21.3515 L 9.24738,-21.4635 L 9.31134,-21.5716 L 9.38196,-21.6756 L 9.45897,-21.7748
 L 9.54205,-21.8691 L 9.63091,-21.9579 L 9.72514,-22.041 L 9.82442,-22.118 L 9.92834,-22.1886 L 10.0365,-22.2526
 L 10.1484,-22.3096 L 10.2637,-22.3595 L 10.382,-22.4021 L 10.5026,-22.4372 L 10.6252,-22.4646 L 10.7493,-22.4842
 L 10.8744,-22.496 L 11,-22.5 L 11.1256,-22.496 L 11.2507,-22.4842 L 11.3748,-22.4646 L 11.4974,-22.4372
 L 11.618,-22.4021 L 11.7362,-22.3595 L 11.8515,-22.3096 L 11.9635,-22.2526 L 12.0716,-22.1886 L 12.1756,-22.118
 L 12.2748,-22.041 L 12.3691,-21.9579 L 12.4579,-21.8691 L 12.541,-21.7748 L 12.618,-21.6756 L 12.6886,-21.5716
 L 12.7526,-21.4635 L 12.8096,-21.3515 L 12.8595,-21.2362 L 12.9021,-21.118 L 12.9372,-20.9974 L 12.9646,-20.8748
 L 12.9842,-20.7507 L 12.996,-20.6256 L 13,-20.5 L 12.996,-20.3744 L 12.9842,-20.2493 L 12.9646,-20.1252
 L 12.9372,-20.0026 L 12.9021,-19.882 L 12.8595,-19.7637 L 12.8096,-19.6484 L 12.7526,-19.5365 L 12.6886,-19.4283
 L 12.618,-19.3244 L 12.541,-19.2251 L 12.4579,-19.1309 L 12.3691,-19.0421 L 12.2748,-18.959 L 12.1756,-18.882
 L 12.0716,-18.8113 L 11.9635,-18.7474 L 11.8515,-18.6903 L 11.7362,-18.6404 L 11.618,-18.5979 L 11.4974,-18.5628
 L 11.3748,-18.5354 L 11.2507,-18.5158 L 11.1256,-18.5039 L 11,-18.5 z
M -11.1256,-18.5039 L -11.2507,-18.5158 L -11.3748,-18.5354 L -11.4974,-18.5628 L -11.618,-18.5979 L -11.7362,-18.6404
 L -11.8515,-18.6903 L -11.9635,-18.7474 L -12.0716,-18.8113 L -12.1756,-18.882 L -12.2748,-18.959 L -12.3691,-19.0421
 L -12.4579,-19.1309 L -12.541,-19.2251 L -12.618,-19.3244 L -12.6886,-19.4283 L -12.7526,-19.5365 L -12.8096,-19.6484
 L -12.8595,-19.7637 L -12.9021,-19.882 L -12.9372,-20.0026 L -12.9646,-20.1252 L -12.9842,-20.2493 L -12.996,-20.3744
 L -13,-20.5 L -12.996,-20.6256 L -12.9842,-20.7507 L -12.9646,-20.8748 L -12.9372,-20.9974 L -12.9021,-21.118
 L -12.8595,-21.2362 L -12.8096,-21.3515 L -12.7526,-21.4635 L -12.6886,-21.5716 L -12.618,-21.6756 L -12.541,-21.7748
 L -12.4579,-21.8691 L -12.3691,-21.9579 L -12.2748,-22.041 L -12.1756,-22.118 L -12.0716,-22.1886 L -11.9635,-22.2526
 L -11.8515,-22.3096 L -11.7362,-22.3595 L -11.618,-22.4021 L -11.4974,-22.4372 L -11.3748,-22.4646 L -11.2507,-22.4842
 L -11.1256,-22.496 L -11,-22.5 L -10.8744,-22.496 L -10.7493,-22.4842 L -10.6252,-22.4646 L -10.5026,-22.4372
 L -10.382,-22.4021 L -10.2637,-22.3595 L -10.1484,-22.3096 L -10.0365,-22.2526 L -9.92834,-22.1886 L -9.82442,-22.118
 L -9.72514,-22.041 L -9.63091,-21.9579 L -9.54205,-21.8691 L -9.45897,-21.7748 L -9.38196,-21.6756 L -9.31134,-21.5716
 L -9.24738,-21.4635 L -9.19034,-21.3515 L -9.14044,-21.2362 L -9.09789,-21.118 L -9.06282,-20.9974 L -9.03542,-20.8748
 L -9.01576,-20.7507 L -9.00394,-20.6256 L -9,-20.5 L -9.00394,-20.3744 L -9.01576,-20.2493 L -9.03542,-20.1252
 L -9.06282,-20.0026 L -9.09789,-19.882 L -9.14044,-19.7637 L -9.19034,-19.6484 L -9.24738,-19.5365 L -9.31134,-19.4283
 L -9.38196,-19.3244 L -9.45897,-19.2251 L -9.54205,-19.1309 L -9.63091,-19.0421 L -9.72514,-18.959 L -9.82442,-18.882
 L -9.92834,-18.8113 L -10.0365,-18.7474 L -10.1484,-18.6903 L -10.2637,-18.6404 L -10.382,-18.5979 L -10.5026,-18.5628
 L -10.6252,-18.5354 L -10.7493,-18.5158 L -10.8744,-18.5039 L -11,-18.5 z
" stroke="black" fill="lightgray" stroke-width="0.5"/>
</svg>
