<?xml version="1.0" standalone="no"?>
<!DOCTYPE svg PUBLIC "-//W3C//DTD SVG 1.1//EN" "http://www.w3.org/Graphics/SVG/1.1/DTD/svg11.dtd">
<svg width="40mm" height="76mm" viewBox="-20 -38 40 76" xmlns="http://www.w3.org/2000/svg" version="1.1">
<title>OpenSCAD Model</title>
<path d="
M -5,17.5 L -4.99013,17.186 L -4.96057,16.8733 L -4.91142,16.5631 L -4.84291,16.2565 L -4.75528,15.9549
 L -4.64888,15.6594 L -4.52412,15.3711 L -4.38153,15.0912 L -4.22163,14.8209 L -4.04507,14.5611 L -3.85255,14.3129
 L -3.64484,14.0773 L -3.42273,13.8551 L -3.18712,13.6474 L -2.93892,13.4549 L -2.67912,13.2784 L -2.40877,13.1185
 L -2.12889,12.9759 L -1.84062,12.8511 L -1.54507,12.7447 L -1.24344,12.6571 L -0.936905,12.5886 L -0.626663,12.5394
 L -0.31395,12.5099 L 0,12.5 L 0.31395,12.5099 L 0.626663,12.5394 L 0.936905,12.5886 L 1.24344,12.6571
 L 1.54507,12.7447 L 1.84062,12.8511 L 2.12889,12.9759 L 2.40877,13.1185 L 2.67912,13.2784 L 2.93892,13.4549
 L 3.18712,13.6474 L 3.42273,13.8551 L 3.64484,14.0773 L 3.85255,14.3129 L 4.04507,14.5611 L 4.22163,14.8209
 L 4.38153,15.0912 L 4.52412,15.3711 L 4.64888,15.6594 L 4.75528,15.9549 L 4.84291,16.2565 L 4.91142,16.5631
 L 4.96057,16.8733 L 4.99013,17.186 L 5,17.5 L 5,37.5 L 15,37.5 L 16.9134,37.1194
 L 18.5355,36.0355 L 19.6194,34.4134 L 20,32.5 L 20,-32.5 L 19.6194,-34.4134 L 18.5355,-36.0355
 L 16.9134,-37.1194 L 15,-37.5 L -15,-37.5 L -16.9134,-37.1194 L -18.5355,-36.0355 L -19.6194,-34.4134
 L -20,-32.5 L -20,32.5 L -19.6194,34.4134 L -18.5355,36.0355 L -16.9134,37.1194 L -15,37.5
 L -5,37.5 z
M 10.8744,-28.5039 L 10.7493,-28.5158 L 10.6252,-28.5354 L 10.5026,-28.5628 L 10.382,-28.5979 L 10.2637,-28.6404
 L 10.1484,-28.6903 L 10.0365,-28.7474 L 9.92834,-28.8113 L 9.82442,-28.882 L 9.72514,-28.959 L 9.63091,-29.0421
 L 9.54205,-29.1309 L 9.45897,-29.2251 L 9.38196,-29.3244 L 9.31134,-29.4283 L 9.24738,-29.5365 L 9.19034,-29.6484
 L 9.14044,-29.7637 L 9.09789,-29.882 L 9.06282,-30.0026 L 9.03542,-30.1252 L 9.01576,-30.2493 L 9.00394,-30.3744
 L 9,-30.5 L 9.00394,-30.6256 L 9.01576,-30.7507 L 9.03542,-30.8748 L 9.06282,-30.9974 L 9.09789,-31.118
 L 9.14044,-31.2362 L 9.19034,-31.3515 L 9.24738,-31.4635 L 9.31134,-31.5716 L 9.38196,-31.6756 L 9.45897,-31.7748
 L 9.54205,-31.8691 L 9.63091,-31.9579 L 9.72514,-32.041 L 9.82442,-32.118 L 9.92834,-32.1886 L 10.0365,-32.2526
 L 10.1484,-32.3096 L 10.2637,-32.3595 L 10.382,-32.4021 L 10.5026,-32.4372 L 10.6252,-32.4646 L 10.7493,-32.4842
 L 10.8744,-32.496 L 11,-32.5 L 11.1256,-32.496 L 11.2507,-32.4842 L 11.3748,-32.4646 L 11.4974,-32.4372
 L 11.618,-32.4021 L 11.7362,-32.3595 L 11.8515,-32.3096 L 11.9635,-32.2526 L 12.0716,-32.1886 L 12.1756,-32.118
 L 12.2748,-32.041 L 12.3691,-31.9579 L 12.4579,-31.8691 L 12.541,-31.7748 L 12.618,-31.6756 L 12.6886,-31.5716
 L 12.7526,-31.4635 L 12.8096,-31.3515 L 12.8595,-31.2362 L 12.9021,-31.118 L 12.9372,-30.9974 L 12.9646,-30.8748
 L 12.9842,-30.7507 L 12.996,-30.6256 L 13,-30.5 L 12.996,-30.3744 L 12.9842,-30.2493 L 12.9646,-30.1252
 L 12.9372,-30.0026 L 12.9021,-29.882 L 12.8595,-29.7637 L 12.8096,-29.6484 L 12.7526,-29.5365 L 12.6886,-29.4283
 L 12.618,-29.3244 L 12.541,-29.2251 L 12.4579,-29.1309 L 12.3691,-29.0421 L 12.2748,-28.959 L 12.1756,-28.882
 L 12.0716,-28.8113 L 11.9635,-28.7474 L 11.8515,-28.6903 L 11.7362,-28.6404 L 11.618,-28.5979 L 11.4974,-28.5628
 L 11.3748,-28.5354 L 11.2507,-28.5158 L 11.1256,-28.5039 L 11,-28.5 z
M -11.1256,-28.5039 L -11.2507,-28.5158 L -11.3748,-28.5354 L -11.4974,-28.5628 L -11.618,-28.5979 L -11.7362,-28.6404
 L -11.8515,-28.6903 L -11.9635,-28.7474 L -12.0716,-28.8113 L -12.1756,-28.882 L -12.2748,-28.959 L -12.3691,-29.0421
 L -12.4579,-29.1309 L -12.541,-29.2251 L -12.618,-29.3244 L -12.6886,-29.4283 L -12.7526,-29.5365 L -12.8096,-29.6484
 L -12.8595,-29.7637 L -12.9021,-29.882 L -12.9372,-30.0026 L -12.9646,-30.1252 L -12.9842,-30.2493 L -12.996,-30.3744
 L -13,-30.5 L -12.996,-30.6256 L -12.9842,-30.7507 L -12.9646,-30.8748 L -12.9372,-30.9974 L -12.9021,-31.118
 L -12.8595,-31.2362 L -12.8096,-31.3515 L -12.7526,-31.4635 L -12.6886,-31.5716 L -12.618,-31.6756 L -12.541,-31.7748
 L -12.4579,-31.8691 L -12.3691,-31.9579 L -12.2748,-32.041 L -12.1756,-32.118 L -12.0716,-32.1886 L -11.9635,-32.2526
 L -11.8515,-32.3096 L -11.7362,-32.3595 L -11.618,-32.4021 L -11.4974,-32.4372 L -11.3748,-32.4646 L -11.2507,-32.4842
 L -11.1256,-32.496 L -11,-32.5 L -10.8744,-32.496 L -10.7493,-32.4842 L -10.6252,-32.4646 L -10.5026,-32.4372
 L -10.382,-32.4021 L -10.2637,-32.3595 L -10.1484,-32.3096 L -10.0365,-32.2526 L -9.92834,-32.1886 L -9.82442,-32.118
 L -9.72514,-32.041 L -9.63091,-31.9579 L -9.54205,-31.8691 L -9.45897,-31.7748 L -9.38196,-31.6756 L -9.31134,-31.5716
 L -9.24738,-31.4635 L -9.19034,-31.3515 L -9.14044,-31.2362 L -9.09789,-31.118 L -9.06282,-30.9974 L -9.03542,-30.8748
 L -9.01576,-30.7507 L -9.00394,-30.6256 L -9,-30.5 L -9.00394,-30.3744 L -9.01576,-30.2493 L -9.03542,-30.1252
 L -9.06282,-30.0026 L -9.09789,-29.882 L -9.14044,-29.7637 L -9.19034,-29.6484 L -9.24738,-29.5365 L -9.31134,-29.4283
 L -9.38196,-29.3244 L -9.45897,-29.2251 L -9.54205,-29.1309 L -9.63091,-29.0421 L -9.72514,-28.959 L -9.82442,-28.882
 L -9.92834,-28.8113 L -10.0365,-28.7474 L -10.1484,-28.6903 L -10.2637,-28.6404 L -10.382,-28.5979 L -10.5026,-28.5628
 L -10.6252,-28.5354 L -10.7493,-28.5158 L -10.8744,-28.5039 L -11,-28.5 z
" stroke="black" fill="lightgray" stroke-width="0.5"/>
</svg>
