<?xml version="1.0" encoding="UTF-8" standalone="no"?>
<svg
   width="40mm"
   height="66mm"
   viewBox="-20 -33 40 66"
   version="1.1"
   id="svg2235"
   sodipodi:docname="ver_0.2_longer.svg"
   inkscape:version="1.1.2 (0a00cf5339, 2022-02-04)"
   xmlns:inkscape="http://www.inkscape.org/namespaces/inkscape"
   xmlns:sodipodi="http://sodipodi.sourceforge.net/DTD/sodipodi-0.dtd"
   xmlns="http://www.w3.org/2000/svg"
   xmlns:svg="http://www.w3.org/2000/svg"
   xmlns:rdf="http://www.w3.org/1999/02/22-rdf-syntax-ns#"
   xmlns:cc="http://creativecommons.org/ns#"
   xmlns:dc="http://purl.org/dc/elements/1.1/">
  <defs
     id="defs2239" />
  <sodipodi:namedview
     id="namedview2237"
     pagecolor="#ffffff"
     bordercolor="#666666"
     borderopacity="1.0"
     inkscape:pageshadow="2"
     inkscape:pageopacity="0.0"
     inkscape:pagecheckerboard="0"
     inkscape:document-units="mm"
     showgrid="false"
     inkscape:zoom="1.6917298"
     inkscape:cx="-306.49102"
     inkscape:cy="116.1533"
     inkscape:window-width="1846"
     inkscape:window-height="1016"
     inkscape:window-x="74"
     inkscape:window-y="27"
     inkscape:window-maximized="1"
     inkscape:current-layer="svg2235" />
  <title
     id="title2231">OpenSCAD Model</title>
  <metadata
     id="metadata2257">
    <rdf:RDF>
      <cc:Work
         rdf:about="">
        <dc:title>OpenSCAD Model</dc:title>
      </cc:Work>
    </rdf:RDF>
  </metadata>
  <path
     d="m -151.67073,-2.4476097 0.01,-0.31396 0.0296,-0.31272 0.0491,-0.31024 0.0685,-0.30653 0.0876,-0.30164 0.1064,-0.29555 0.12476,-0.28827 0.14259,-0.27987 0.1599,-0.27036 0.17656,-0.25979 0.19252,-0.2482 0.20771,-0.23561 0.22211,-0.22211 0.23561,-0.20772 0.2482,-0.19252 0.2598,-0.17656 0.27035,-0.1599 0.27988,-0.14259 0.28827,-0.12476 0.29555,-0.10639 0.30163,-0.08764 0.30654,-0.06851 0.31023,-0.04915 0.31272,-0.02955 0.31395,-0.0099 0.31395,0.0099 0.31271,0.02955 0.31024,0.04915 0.30654,0.06851 0.30163,0.08764 0.29555,0.10639 0.28827,0.12476 0.27988,0.14259 0.27035,0.1599 0.2598,0.17656 0.2482,0.19252 0.23561,0.20772 0.22211,0.22211 0.20771,0.23561 0.19252,0.2482 0.17656,0.25979 0.1599,0.27036 0.14259,0.27987 0.12476,0.28827 0.1064,0.29555 0.0876,0.30164 0.0685,0.30653 0.0491,0.31024 0.0296,0.31272 0.01,0.31396 V 17.55239 h 10 l 1.9134,-0.3806 1.6221,-1.0839 1.0839,-1.6221 0.3806,-1.9134 v -45 l -0.3806,-1.9134 -1.0839,-1.6221 -1.6221,-1.0839 -1.9134,-0.3806 h -30 l -1.9134,0.3806 -1.6221,1.0839 -1.0839,1.6221 -0.3806,1.9134 v 45 l 0.3806,1.9134 1.0839,1.6221 1.6221,1.0839 1.9134,0.3806 h 10 z m 14.01576,-26.2507003 0.0197,-0.1241 0.0274,-0.1226 0.0351,-0.1206 0.0426,-0.1182 0.0499,-0.1153 0.057,-0.112 0.064,-0.1081 0.0706,-0.104 0.077,-0.0992 0.0831,-0.0943 0.0889,-0.0888 0.0942,-0.0831 0.0993,-0.077 0.10392,-0.0706 0.10816,-0.064 0.1119,-0.057 0.1153,-0.0499 0.1183,-0.0426 0.1206,-0.0351 0.1226,-0.0274 0.1241,-0.0196 0.1251,-0.0118 0.1256,-0.004 0.1256,0.004 0.1251,0.0118 0.1241,0.0196 0.1226,0.0274 0.1206,0.0351 0.1182,0.0426 0.1153,0.0499 0.112,0.057 0.1081,0.064 0.104,0.0706 0.0992,0.077 0.0943,0.0831 0.0888,0.0888 0.0831,0.0943 0.077,0.0992 0.0706,0.104 0.064,0.1081 0.057,0.112 0.0499,0.1153 0.0426,0.1182 0.0351,0.1206 0.0274,0.1226 0.0196,0.1241 0.0118,0.1251 0.004,0.1256 -0.004,0.1256 -0.0118,0.1251 -0.0196,0.1241 -0.0274,0.1226 -0.0351,0.1206 -0.0426,0.1183 -0.0499,0.1153 -0.057,0.1119 -0.064,0.1082 -0.0706,0.1039 -0.077,0.0993 -0.0831,0.0942 -0.0888,0.0888 -0.0943,0.0831 -0.0992,0.077 -0.104,0.0707 -0.1081,0.0639 -0.112,0.0571 -0.1153,0.0499 -0.1182,0.0425 -0.1206,0.0351 -0.1226,0.0274 -0.1241,0.0196 -0.1251,0.0119 -0.1256,0.0039 -0.1256,-0.0039 -0.1251,-0.0119 -0.1241,-0.0196 -0.1226,-0.0274 -0.1206,-0.0351 -0.1183,-0.0425 -0.1153,-0.0499 -0.1119,-0.0571 -0.10816,-0.0639 -0.10392,-0.0707 -0.0993,-0.077 -0.0942,-0.0831 -0.0889,-0.0888 -0.0831,-0.0942 -0.077,-0.0993 -0.0706,-0.1039 -0.064,-0.1082 -0.057,-0.1119 -0.0499,-0.1153 -0.0426,-0.1183 -0.0351,-0.1206 -0.0274,-0.1226 -0.0197,-0.1241 -0.0118,-0.1251 -0.004,-0.1256 0.004,-0.1256 z m -18.03152,0.5014 -0.0197,0.1241 -0.0274,0.1226 -0.0351,0.1206 -0.0426,0.1183 -0.0499,0.1153 -0.057,0.1119 -0.064,0.1082 -0.0706,0.1039 -0.077,0.0993 -0.0831,0.0942 -0.0889,0.0888 -0.0942,0.0831 -0.0993,0.077 -0.10392,0.0707 -0.10816,0.0639 -0.1119,0.0571 -0.1153,0.0499 -0.1183,0.0425 -0.1206,0.0351 -0.1226,0.0274 -0.1241,0.0196 -0.1251,0.0119 -0.1256,0.0039 -0.1256,-0.0039 -0.1251,-0.0119 -0.1241,-0.0196 -0.1226,-0.0274 -0.1206,-0.0351 -0.1182,-0.0425 -0.1153,-0.0499 -0.112,-0.0571 -0.1081,-0.0639 -0.104,-0.0707 -0.0992,-0.077 -0.0943,-0.0831 -0.0888,-0.0888 -0.0831,-0.0942 -0.077,-0.0993 -0.0706,-0.1039 -0.064,-0.1082 -0.057,-0.1119 -0.0499,-0.1153 -0.0426,-0.1183 -0.0351,-0.1206 -0.0274,-0.1226 -0.0196,-0.1241 -0.0118,-0.1251 -0.004,-0.1256 0.004,-0.1256 0.0118,-0.1251 0.0196,-0.1241 0.0274,-0.1226 0.0351,-0.1206 0.0426,-0.1182 0.0499,-0.1153 0.057,-0.112 0.064,-0.1081 0.0706,-0.104 0.077,-0.0992 0.0831,-0.0943 0.0888,-0.0888 0.0943,-0.0831 0.0992,-0.077 0.104,-0.0706 0.1081,-0.064 0.112,-0.057 0.1153,-0.0499 0.1182,-0.0426 0.1206,-0.0351 0.1226,-0.0274 0.1241,-0.0196 0.1251,-0.0118 0.1256,-0.004 0.1256,0.004 0.1251,0.0118 0.1241,0.0196 0.1226,0.0274 0.1206,0.0351 0.1183,0.0426 0.1153,0.0499 0.1119,0.057 0.10816,0.064 0.10392,0.0706 0.0993,0.077 0.0942,0.0831 0.0889,0.0888 0.0831,0.0943 0.077,0.0992 0.0706,0.104 0.064,0.1081 0.057,0.112 0.0499,0.1153 0.0426,0.1182 0.0351,0.1206 0.0274,0.1226 0.0197,0.1241 0.0118,0.1251 0.004,0.1256 -0.004,0.1256 z"
     stroke="#000000"
     fill="#d3d3d3"
     stroke-width="0.5"
     id="path2756" />
  <path
     d="m -71.67073,15.55239 0.01,-0.314 0.0296,-0.3127 0.0491,-0.3102 0.0685,-0.3066 0.0876,-0.3016 0.1064,-0.2955 0.12476,-0.2883 0.14259,-0.2799 0.1599,-0.2703 0.17656,-0.2598 0.19252,-0.2482 0.20771,-0.2356 0.22211,-0.2222 0.23561,-0.2077 0.2482,-0.1925 0.2598,-0.1765 0.27035,-0.1599 0.27988,-0.1426 0.28827,-0.1248 0.29555,-0.1064 0.30163,-0.0876 0.30653,-0.0685 0.31025,-0.0492 0.31271,-0.0295 0.31395,-0.0099 0.31395,0.0099 0.31271,0.0295 0.31024,0.0492 0.30654,0.0685 0.30163,0.0876 0.29555,0.1064 0.28827,0.1248 0.27988,0.1426 0.27035,0.1599 0.2598,0.1765 0.2482,0.1925 0.23561,0.2077 0.22211,0.2222 0.20771,0.2356 0.19252,0.2482 0.17656,0.2598 0.1599,0.2703 0.14259,0.2799 0.12476,0.2883 0.1064,0.2955 0.0876,0.3016 0.0685,0.3066 0.0491,0.3102 0.0296,0.3127 0.01,0.314 v 20 h 9.999998 l 1.9134,-0.3806 1.6221,-1.0839 1.0839,-1.6221 0.3806,-1.9134 v -63 l -0.3806,-1.9134 -1.0839,-1.6221 -1.6221,-1.0839 -1.9134,-0.3806 H -81.67057 l -1.9134,0.3806 -1.6221,1.0839 -1.0839,1.6221 -0.3806,1.9134 v 63 l 0.3806,1.9134 1.0839,1.6221 1.6221,1.0839 1.9134,0.3806 h 10 z m 14.015758,-44.2507 0.01966,-0.1241 0.0274,-0.1226 0.03507,-0.1206 0.04255,-0.1182 0.0499,-0.1153 0.05704,-0.112 0.06396,-0.1081 0.07062,-0.104 0.07701,-0.0992 0.08308,-0.0943 0.08886,-0.0888 0.09423,-0.0831 0.09928,-0.077 0.10392,-0.0706 0.10816,-0.064 0.1119,-0.057 0.1153,-0.0499 0.1183,-0.0426 0.1206,-0.0351 0.1226,-0.0274 0.1241,-0.0196 0.1251,-0.0118 0.1256,-0.004 0.1256,0.004 0.1251,0.0118 0.1241,0.0196 0.1226,0.0274 0.1206,0.0351 0.1182,0.0426 0.1153,0.0499 0.112,0.057 0.1081,0.064 0.104,0.0706 0.0992,0.077 0.0943,0.0831 0.0888,0.0888 0.0831,0.0943 0.077,0.0992 0.0706,0.104 0.064,0.1081 0.057,0.112 0.0499,0.1153 0.0426,0.1182 0.0351,0.1206 0.0274,0.1226 0.0196,0.1241 0.0118,0.1251 0.004,0.1256 -0.004,0.1256 -0.0118,0.1251 -0.0196,0.1241 -0.0274,0.1226 -0.0351,0.1206 -0.0426,0.1183 -0.0499,0.1153 -0.057,0.1119 -0.064,0.1082 -0.0706,0.1039 -0.077,0.0993 -0.0831,0.0942 -0.0888,0.0888 -0.0943,0.0831 -0.0992,0.077 -0.104,0.0707 -0.1081,0.0639 -0.112,0.0571 -0.1153,0.0499 -0.1182,0.0425 -0.1206,0.0351 -0.1226,0.0274 -0.1241,0.0196 -0.1251,0.0119 -0.1256,0.0039 -0.1256,-0.0039 -0.1251,-0.0119 -0.1241,-0.0196 -0.1226,-0.0274 -0.1206,-0.0351 -0.1183,-0.0425 -0.1153,-0.0499 -0.1119,-0.0571 -0.10816,-0.0639 -0.10392,-0.0707 -0.09928,-0.077 -0.09423,-0.0831 -0.08886,-0.0888 -0.08308,-0.0942 -0.07701,-0.0993 -0.07062,-0.1039 -0.06396,-0.1082 -0.05704,-0.1119 -0.0499,-0.1153 -0.04255,-0.1183 -0.03507,-0.1206 -0.0274,-0.1226 -0.01966,-0.1241 -0.01182,-0.1251 -0.0039,-0.1256 0.0039,-0.1256 z m -18.031518,0.5014 -0.0197,0.1241 -0.0274,0.1226 -0.0351,0.1206 -0.0426,0.1183 -0.0499,0.1153 -0.057,0.1119 -0.064,0.1082 -0.0706,0.1039 -0.077,0.0993 -0.0831,0.0942 -0.0889,0.0888 -0.0942,0.0831 -0.0993,0.077 -0.10392,0.0707 -0.10816,0.0639 -0.1119,0.0571 -0.1153,0.0499 -0.1183,0.0425 -0.1206,0.0351 -0.1226,0.0274 -0.1241,0.0196 -0.1251,0.0119 -0.1256,0.0039 -0.1256,-0.0039 -0.1251,-0.0119 -0.1241,-0.0196 -0.1226,-0.0274 -0.1206,-0.0351 -0.1182,-0.0425 -0.1153,-0.0499 -0.112,-0.0571 -0.1081,-0.0639 -0.104,-0.0707 -0.0992,-0.077 -0.0943,-0.0831 -0.0888,-0.0888 -0.0831,-0.0942 -0.077,-0.0993 -0.0706,-0.1039 -0.064,-0.1082 -0.057,-0.1119 -0.0499,-0.1153 -0.0426,-0.1183 -0.0351,-0.1206 -0.0274,-0.1226 -0.0196,-0.1241 -0.0118,-0.1251 -0.004,-0.1256 0.004,-0.1256 0.0118,-0.1251 0.0196,-0.1241 0.0274,-0.1226 0.0351,-0.1206 0.0426,-0.1182 0.0499,-0.1153 0.057,-0.112 0.064,-0.1081 0.0706,-0.104 0.077,-0.0992 0.0831,-0.0943 0.0888,-0.0888 0.0943,-0.0831 0.0992,-0.077 0.104,-0.0706 0.1081,-0.064 0.112,-0.057 0.1153,-0.0499 0.1182,-0.0426 0.1206,-0.0351 0.1226,-0.0274 0.1241,-0.0196 0.1251,-0.0118 0.1256,-0.004 0.1256,0.004 0.1251,0.0118 0.1241,0.0196 0.1226,0.0274 0.1206,0.0351 0.1183,0.0426 0.1153,0.0499 0.1119,0.057 0.10816,0.064 0.10392,0.0706 0.0993,0.077 0.0942,0.0831 0.0889,0.0888 0.0831,0.0943 0.077,0.0992 0.0706,0.104 0.064,0.1081 0.057,0.112 0.0499,0.1153 0.0426,0.1182 0.0351,0.1206 0.0274,0.1226 0.0197,0.1241 0.0118,0.1251 0.004,0.1256 -0.004,0.1256 z"
     stroke="#000000"
     fill="#d3d3d3"
     stroke-width="0.5"
     id="path2803" />
  <path
     d="m -111.67073,6.55239 0.01,-0.314 0.0296,-0.3127 0.0491,-0.3102 0.0685,-0.3066 0.0876,-0.3016 0.1064,-0.2955 0.12476,-0.28831 0.14259,-0.27987 0.1599,-0.27036 0.17656,-0.25979 0.19252,-0.2482 0.20771,-0.23561 0.22211,-0.22211 0.23561,-0.20772 0.2482,-0.19252 0.2598,-0.17656 0.27035,-0.1599 0.27988,-0.14259 0.28827,-0.12476 0.29555,-0.10639 0.30163,-0.08764 0.30653,-0.06851 0.31025,-0.04915 0.31271,-0.02955 0.31395,-0.0099 0.31395,0.0099 0.31271,0.02955 0.31024,0.04915 0.30654,0.06851 0.30163,0.08764 0.29555,0.10639 0.28827,0.12476 0.27988,0.14259 0.27035,0.1599 0.2598,0.17656 0.2482,0.19252 0.23561,0.20772 0.22211,0.22211 0.20771,0.23561 0.19252,0.2482 0.17656,0.25979 0.1599,0.27036 0.14259,0.27987 0.12476,0.28831 0.1064,0.2955 0.0876,0.3016 0.0685,0.3066 0.0491,0.3102 0.0296,0.3127 0.01,0.314 v 20 h 10 l 1.9134,-0.3806 1.6221,-1.0839 1.0839,-1.6221 0.3806,-1.9134 v -54 l -0.3806,-1.9134 -1.0839,-1.6221 -1.6221,-1.0839 -1.9134,-0.3806 h -30 l -1.9134,0.3806 -1.6221,1.0839 -1.0839,1.6221 -0.3806,1.9134 v 54 l 0.3806,1.9134 1.0839,1.6221 1.6221,1.0839 1.9134,0.3806 h 10 z m 14.01576,-35.2507 0.0197,-0.1241 0.0274,-0.1226 0.0351,-0.1206 0.0426,-0.1182 0.0499,-0.1153 0.057,-0.112 0.064,-0.1081 0.0706,-0.104 0.077,-0.0992 0.0831,-0.0943 0.0889,-0.0888 0.0942,-0.0831 0.0993,-0.077 0.10392,-0.0706 0.10816,-0.064 0.1119,-0.057 0.1153,-0.0499 0.1183,-0.0426 0.1206,-0.0351 0.1226,-0.0274 0.1241,-0.0196 0.1251,-0.0118 0.1256,-0.004 0.1256,0.004 0.1251,0.0118 0.1241,0.0196 0.1226,0.0274 0.1206,0.0351 0.1182,0.0426 0.1153,0.0499 0.112,0.057 0.1081,0.064 0.104,0.0706 0.0992,0.077 0.0943,0.0831 0.0888,0.0888 0.0831,0.0943 0.077,0.0992 0.0706,0.104 0.064,0.1081 0.057,0.112 0.0499,0.1153 0.0426,0.1182 0.0351,0.1206 0.0274,0.1226 0.0196,0.1241 0.0118,0.1251 0.004,0.1256 -0.004,0.1256 -0.0118,0.1251 -0.0196,0.1241 -0.0274,0.1226 -0.0351,0.1206 -0.0426,0.1183 -0.0499,0.1153 -0.057,0.1119 -0.064,0.1082 -0.0706,0.1039 -0.077,0.0993 -0.0831,0.0942 -0.0888,0.0888 -0.0943,0.0831 -0.0992,0.077 -0.104,0.0707 -0.1081,0.0639 -0.112,0.0571 -0.1153,0.0499 -0.1182,0.0425 -0.1206,0.0351 -0.1226,0.0274 -0.1241,0.0196 -0.1251,0.0119 -0.1256,0.0039 -0.1256,-0.0039 -0.1251,-0.0119 -0.1241,-0.0196 -0.1226,-0.0274 -0.1206,-0.0351 -0.1183,-0.0425 -0.1153,-0.0499 -0.1119,-0.0571 -0.10816,-0.0639 -0.10392,-0.0707 -0.0993,-0.077 -0.0942,-0.0831 -0.0889,-0.0888 -0.0831,-0.0942 -0.077,-0.0993 -0.0706,-0.1039 -0.064,-0.1082 -0.057,-0.1119 -0.0499,-0.1153 -0.0426,-0.1183 -0.0351,-0.1206 -0.0274,-0.1226 -0.0197,-0.1241 -0.0118,-0.1251 -0.004,-0.1256 0.004,-0.1256 z m -18.03152,0.5014 -0.0197,0.1241 -0.0274,0.1226 -0.0351,0.1206 -0.0425,0.1183 -0.0499,0.1153 -0.057,0.1119 -0.064,0.1082 -0.0706,0.1039 -0.077,0.0993 -0.0831,0.0942 -0.0889,0.0888 -0.0942,0.0831 -0.0993,0.077 -0.10392,0.0707 -0.10816,0.0639 -0.1119,0.0571 -0.1153,0.0499 -0.1183,0.0425 -0.1206,0.0351 -0.1226,0.0274 -0.1241,0.0196 -0.1251,0.0119 -0.1256,0.0039 -0.1256,-0.0039 -0.1251,-0.0119 -0.1241,-0.0196 -0.1226,-0.0274 -0.1206,-0.0351 -0.1182,-0.0425 -0.1153,-0.0499 -0.112,-0.0571 -0.1081,-0.0639 -0.104,-0.0707 -0.0992,-0.077 -0.0943,-0.0831 -0.0888,-0.0888 -0.0831,-0.0942 -0.077,-0.0993 -0.0706,-0.1039 -0.064,-0.1082 -0.057,-0.1119 -0.0499,-0.1153 -0.0426,-0.1183 -0.0351,-0.1206 -0.0274,-0.1226 -0.0196,-0.1241 -0.0118,-0.1251 -0.004,-0.1256 0.004,-0.1256 0.0118,-0.1251 0.0196,-0.1241 0.0274,-0.1226 0.0351,-0.1206 0.0426,-0.1182 0.0499,-0.1153 0.057,-0.112 0.064,-0.1081 0.0706,-0.104 0.077,-0.0992 0.0831,-0.0943 0.0888,-0.0888 0.0943,-0.0831 0.0992,-0.077 0.104,-0.0706 0.1081,-0.064 0.112,-0.057 0.1153,-0.0499 0.1182,-0.0426 0.1206,-0.0351 0.1226,-0.0274 0.1241,-0.0196 0.1251,-0.0118 0.1256,-0.004 0.1256,0.004 0.1251,0.0118 0.1241,0.0196 0.1226,0.0274 0.1206,0.0351 0.1183,0.0426 0.1153,0.0499 0.1119,0.057 0.10816,0.064 0.10392,0.0706 0.0993,0.077 0.0942,0.0831 0.0889,0.0888 0.0831,0.0943 0.077,0.0992 0.0706,0.104 0.064,0.1081 0.057,0.112 0.0499,0.1153 0.0425,0.1182 0.0351,0.1206 0.0274,0.1226 0.0197,0.1241 0.0118,0.1251 0.004,0.1256 -0.004,0.1256 z"
     stroke="#000000"
     fill="#d3d3d3"
     stroke-width="0.5"
     id="path2870" />
</svg>
