  0
SECTION
  2
BLOCKS
  0
ENDSEC
  0
SECTION
  2
ENTITIES
  0
LINE
  8
0
 10
-5
 20
-16.5
 11
-4.99013
 21
-16.186
  0
LINE
  8
0
 10
-4.99013
 20
-16.186
 11
-4.96057
 21
-15.8733
  0
LINE
  8
0
 10
-4.96057
 20
-15.8733
 11
-4.91142
 21
-15.5631
  0
LINE
  8
0
 10
-4.91142
 20
-15.5631
 11
-4.84291
 21
-15.2565
  0
LINE
  8
0
 10
-4.84291
 20
-15.2565
 11
-4.75528
 21
-14.9549
  0
LINE
  8
0
 10
-4.75528
 20
-14.9549
 11
-4.64888
 21
-14.6594
  0
LINE
  8
0
 10
-4.64888
 20
-14.6594
 11
-4.52412
 21
-14.3711
  0
LINE
  8
0
 10
-4.52412
 20
-14.3711
 11
-4.38153
 21
-14.0912
  0
LINE
  8
0
 10
-4.38153
 20
-14.0912
 11
-4.22163
 21
-13.8209
  0
LINE
  8
0
 10
-4.22163
 20
-13.8209
 11
-4.04507
 21
-13.5611
  0
LINE
  8
0
 10
-4.04507
 20
-13.5611
 11
-3.85255
 21
-13.3129
  0
LINE
  8
0
 10
-3.85255
 20
-13.3129
 11
-3.64484
 21
-13.0773
  0
LINE
  8
0
 10
-3.64484
 20
-13.0773
 11
-3.42273
 21
-12.8551
  0
LINE
  8
0
 10
-3.42273
 20
-12.8551
 11
-3.18712
 21
-12.6474
  0
LINE
  8
0
 10
-3.18712
 20
-12.6474
 11
-2.93892
 21
-12.4549
  0
LINE
  8
0
 10
-2.93892
 20
-12.4549
 11
-2.67912
 21
-12.2784
  0
LINE
  8
0
 10
-2.67912
 20
-12.2784
 11
-2.40877
 21
-12.1185
  0
LINE
  8
0
 10
-2.40877
 20
-12.1185
 11
-2.12889
 21
-11.9759
  0
LINE
  8
0
 10
-2.12889
 20
-11.9759
 11
-1.84062
 21
-11.8511
  0
LINE
  8
0
 10
-1.84062
 20
-11.8511
 11
-1.54507
 21
-11.7447
  0
LINE
  8
0
 10
-1.54507
 20
-11.7447
 11
-1.24344
 21
-11.6571
  0
LINE
  8
0
 10
-1.24344
 20
-11.6571
 11
-0.936905
 21
-11.5886
  0
LINE
  8
0
 10
-0.936905
 20
-11.5886
 11
-0.626663
 21
-11.5394
  0
LINE
  8
0
 10
-0.626663
 20
-11.5394
 11
-0.31395
 21
-11.5099
  0
LINE
  8
0
 10
-0.31395
 20
-11.5099
 11
0
 21
-11.5
  0
LINE
  8
0
 10
0
 20
-11.5
 11
0.31395
 21
-11.5099
  0
LINE
  8
0
 10
0.31395
 20
-11.5099
 11
0.626663
 21
-11.5394
  0
LINE
  8
0
 10
0.626663
 20
-11.5394
 11
0.936905
 21
-11.5886
  0
LINE
  8
0
 10
0.936905
 20
-11.5886
 11
1.24344
 21
-11.6571
  0
LINE
  8
0
 10
1.24344
 20
-11.6571
 11
1.54507
 21
-11.7447
  0
LINE
  8
0
 10
1.54507
 20
-11.7447
 11
1.84062
 21
-11.8511
  0
LINE
  8
0
 10
1.84062
 20
-11.8511
 11
2.12889
 21
-11.9759
  0
LINE
  8
0
 10
2.12889
 20
-11.9759
 11
2.40877
 21
-12.1185
  0
LINE
  8
0
 10
2.40877
 20
-12.1185
 11
2.67912
 21
-12.2784
  0
LINE
  8
0
 10
2.67912
 20
-12.2784
 11
2.93892
 21
-12.4549
  0
LINE
  8
0
 10
2.93892
 20
-12.4549
 11
3.18712
 21
-12.6474
  0
LINE
  8
0
 10
3.18712
 20
-12.6474
 11
3.42273
 21
-12.8551
  0
LINE
  8
0
 10
3.42273
 20
-12.8551
 11
3.64484
 21
-13.0773
  0
LINE
  8
0
 10
3.64484
 20
-13.0773
 11
3.85255
 21
-13.3129
  0
LINE
  8
0
 10
3.85255
 20
-13.3129
 11
4.04507
 21
-13.5611
  0
LINE
  8
0
 10
4.04507
 20
-13.5611
 11
4.22163
 21
-13.8209
  0
LINE
  8
0
 10
4.22163
 20
-13.8209
 11
4.38153
 21
-14.0912
  0
LINE
  8
0
 10
4.38153
 20
-14.0912
 11
4.52412
 21
-14.3711
  0
LINE
  8
0
 10
4.52412
 20
-14.3711
 11
4.64888
 21
-14.6594
  0
LINE
  8
0
 10
4.64888
 20
-14.6594
 11
4.75528
 21
-14.9549
  0
LINE
  8
0
 10
4.75528
 20
-14.9549
 11
4.84291
 21
-15.2565
  0
LINE
  8
0
 10
4.84291
 20
-15.2565
 11
4.91142
 21
-15.5631
  0
LINE
  8
0
 10
4.91142
 20
-15.5631
 11
4.96057
 21
-15.8733
  0
LINE
  8
0
 10
4.96057
 20
-15.8733
 11
4.99013
 21
-16.186
  0
LINE
  8
0
 10
4.99013
 20
-16.186
 11
5
 21
-16.5
  0
LINE
  8
0
 10
5
 20
-16.5
 11
5
 21
-36.5
  0
LINE
  8
0
 10
5
 20
-36.5
 11
17.5
 21
-36.5
  0
LINE
  8
0
 10
17.5
 20
-36.5
 11
19.4134
 21
-36.1194
  0
LINE
  8
0
 10
19.4134
 20
-36.1194
 11
21.0355
 21
-35.0355
  0
LINE
  8
0
 10
21.0355
 20
-35.0355
 11
22.1194
 21
-33.4134
  0
LINE
  8
0
 10
22.1194
 20
-33.4134
 11
22.5
 21
-31.5
  0
LINE
  8
0
 10
22.5
 20
-31.5
 11
22.5
 21
31.5
  0
LINE
  8
0
 10
22.5
 20
31.5
 11
22.1194
 21
33.4134
  0
LINE
  8
0
 10
22.1194
 20
33.4134
 11
21.0355
 21
35.0355
  0
LINE
  8
0
 10
21.0355
 20
35.0355
 11
19.4134
 21
36.1194
  0
LINE
  8
0
 10
19.4134
 20
36.1194
 11
17.5
 21
36.5
  0
LINE
  8
0
 10
17.5
 20
36.5
 11
-17.5
 21
36.5
  0
LINE
  8
0
 10
-17.5
 20
36.5
 11
-19.4134
 21
36.1194
  0
LINE
  8
0
 10
-19.4134
 20
36.1194
 11
-21.0355
 21
35.0355
  0
LINE
  8
0
 10
-21.0355
 20
35.0355
 11
-22.1194
 21
33.4134
  0
LINE
  8
0
 10
-22.1194
 20
33.4134
 11
-22.5
 21
31.5
  0
LINE
  8
0
 10
-22.5
 20
31.5
 11
-22.5
 21
-31.5
  0
LINE
  8
0
 10
-22.5
 20
-31.5
 11
-22.1194
 21
-33.4134
  0
LINE
  8
0
 10
-22.1194
 20
-33.4134
 11
-21.0355
 21
-35.0355
  0
LINE
  8
0
 10
-21.0355
 20
-35.0355
 11
-19.4134
 21
-36.1194
  0
LINE
  8
0
 10
-19.4134
 20
-36.1194
 11
-17.5
 21
-36.5
  0
LINE
  8
0
 10
-17.5
 20
-36.5
 11
-5
 21
-36.5
  0
LINE
  8
0
 10
-5
 20
-36.5
 11
-5
 21
-16.5
  0
LINE
  8
0
 10
10.7677
 20
27.782
 11
10.7898
 21
27.9216
  0
LINE
  8
0
 10
10.7898
 20
27.9216
 11
10.8207
 21
28.0595
  0
LINE
  8
0
 10
10.8207
 20
28.0595
 11
10.8601
 21
28.1953
  0
LINE
  8
0
 10
10.8601
 20
28.1953
 11
10.908
 21
28.3283
  0
LINE
  8
0
 10
10.908
 20
28.3283
 11
10.9641
 21
28.458
  0
LINE
  8
0
 10
10.9641
 20
28.458
 11
11.0283
 21
28.5839
  0
LINE
  8
0
 10
11.0283
 20
28.5839
 11
11.1003
 21
28.7056
  0
LINE
  8
0
 10
11.1003
 20
28.7056
 11
11.1797
 21
28.8225
  0
LINE
  8
0
 10
11.1797
 20
28.8225
 11
11.2663
 21
28.9342
  0
LINE
  8
0
 10
11.2663
 20
28.9342
 11
11.3598
 21
29.0402
  0
LINE
  8
0
 10
11.3598
 20
29.0402
 11
11.4598
 21
29.1402
  0
LINE
  8
0
 10
11.4598
 20
29.1402
 11
11.5658
 21
29.2336
  0
LINE
  8
0
 10
11.5658
 20
29.2336
 11
11.6775
 21
29.3203
  0
LINE
  8
0
 10
11.6775
 20
29.3203
 11
11.7944
 21
29.3997
  0
LINE
  8
0
 10
11.7944
 20
29.3997
 11
11.916
 21
29.4717
  0
LINE
  8
0
 10
11.916
 20
29.4717
 11
12.042
 21
29.5359
  0
LINE
  8
0
 10
12.042
 20
29.5359
 11
12.1717
 21
29.592
  0
LINE
  8
0
 10
12.1717
 20
29.592
 11
12.3047
 21
29.6399
  0
LINE
  8
0
 10
12.3047
 20
29.6399
 11
12.4404
 21
29.6793
  0
LINE
  8
0
 10
12.4404
 20
29.6793
 11
12.5784
 21
29.7101
  0
LINE
  8
0
 10
12.5784
 20
29.7101
 11
12.718
 21
29.7323
  0
LINE
  8
0
 10
12.718
 20
29.7323
 11
12.8587
 21
29.7456
  0
LINE
  8
0
 10
12.8587
 20
29.7456
 11
13
 21
29.75
  0
LINE
  8
0
 10
13
 20
29.75
 11
13.1413
 21
29.7456
  0
LINE
  8
0
 10
13.1413
 20
29.7456
 11
13.282
 21
29.7323
  0
LINE
  8
0
 10
13.282
 20
29.7323
 11
13.4216
 21
29.7101
  0
LINE
  8
0
 10
13.4216
 20
29.7101
 11
13.5595
 21
29.6793
  0
LINE
  8
0
 10
13.5595
 20
29.6793
 11
13.6953
 21
29.6399
  0
LINE
  8
0
 10
13.6953
 20
29.6399
 11
13.8283
 21
29.592
  0
LINE
  8
0
 10
13.8283
 20
29.592
 11
13.958
 21
29.5359
  0
LINE
  8
0
 10
13.958
 20
29.5359
 11
14.0839
 21
29.4717
  0
LINE
  8
0
 10
14.0839
 20
29.4717
 11
14.2056
 21
29.3997
  0
LINE
  8
0
 10
14.2056
 20
29.3997
 11
14.3225
 21
29.3203
  0
LINE
  8
0
 10
14.3225
 20
29.3203
 11
14.4342
 21
29.2336
  0
LINE
  8
0
 10
14.4342
 20
29.2336
 11
14.5402
 21
29.1402
  0
LINE
  8
0
 10
14.5402
 20
29.1402
 11
14.6402
 21
29.0402
  0
LINE
  8
0
 10
14.6402
 20
29.0402
 11
14.7336
 21
28.9342
  0
LINE
  8
0
 10
14.7336
 20
28.9342
 11
14.8203
 21
28.8225
  0
LINE
  8
0
 10
14.8203
 20
28.8225
 11
14.8997
 21
28.7056
  0
LINE
  8
0
 10
14.8997
 20
28.7056
 11
14.9717
 21
28.5839
  0
LINE
  8
0
 10
14.9717
 20
28.5839
 11
15.0359
 21
28.458
  0
LINE
  8
0
 10
15.0359
 20
28.458
 11
15.092
 21
28.3283
  0
LINE
  8
0
 10
15.092
 20
28.3283
 11
15.1399
 21
28.1953
  0
LINE
  8
0
 10
15.1399
 20
28.1953
 11
15.1793
 21
28.0595
  0
LINE
  8
0
 10
15.1793
 20
28.0595
 11
15.2101
 21
27.9216
  0
LINE
  8
0
 10
15.2101
 20
27.9216
 11
15.2323
 21
27.782
  0
LINE
  8
0
 10
15.2323
 20
27.782
 11
15.2456
 21
27.6413
  0
LINE
  8
0
 10
15.2456
 20
27.6413
 11
15.25
 21
27.5
  0
LINE
  8
0
 10
15.25
 20
27.5
 11
15.2456
 21
27.3587
  0
LINE
  8
0
 10
15.2456
 20
27.3587
 11
15.2323
 21
27.218
  0
LINE
  8
0
 10
15.2323
 20
27.218
 11
15.2101
 21
27.0784
  0
LINE
  8
0
 10
15.2101
 20
27.0784
 11
15.1793
 21
26.9404
  0
LINE
  8
0
 10
15.1793
 20
26.9404
 11
15.1399
 21
26.8047
  0
LINE
  8
0
 10
15.1399
 20
26.8047
 11
15.092
 21
26.6717
  0
LINE
  8
0
 10
15.092
 20
26.6717
 11
15.0359
 21
26.542
  0
LINE
  8
0
 10
15.0359
 20
26.542
 11
14.9717
 21
26.416
  0
LINE
  8
0
 10
14.9717
 20
26.416
 11
14.8997
 21
26.2944
  0
LINE
  8
0
 10
14.8997
 20
26.2944
 11
14.8203
 21
26.1775
  0
LINE
  8
0
 10
14.8203
 20
26.1775
 11
14.7336
 21
26.0658
  0
LINE
  8
0
 10
14.7336
 20
26.0658
 11
14.6402
 21
25.9598
  0
LINE
  8
0
 10
14.6402
 20
25.9598
 11
14.5402
 21
25.8598
  0
LINE
  8
0
 10
14.5402
 20
25.8598
 11
14.4342
 21
25.7663
  0
LINE
  8
0
 10
14.4342
 20
25.7663
 11
14.3225
 21
25.6797
  0
LINE
  8
0
 10
14.3225
 20
25.6797
 11
14.2056
 21
25.6003
  0
LINE
  8
0
 10
14.2056
 20
25.6003
 11
14.0839
 21
25.5283
  0
LINE
  8
0
 10
14.0839
 20
25.5283
 11
13.958
 21
25.4641
  0
LINE
  8
0
 10
13.958
 20
25.4641
 11
13.8283
 21
25.408
  0
LINE
  8
0
 10
13.8283
 20
25.408
 11
13.6953
 21
25.3601
  0
LINE
  8
0
 10
13.6953
 20
25.3601
 11
13.5595
 21
25.3207
  0
LINE
  8
0
 10
13.5595
 20
25.3207
 11
13.4216
 21
25.2898
  0
LINE
  8
0
 10
13.4216
 20
25.2898
 11
13.282
 21
25.2677
  0
LINE
  8
0
 10
13.282
 20
25.2677
 11
13.1413
 21
25.2544
  0
LINE
  8
0
 10
13.1413
 20
25.2544
 11
13
 21
25.25
  0
LINE
  8
0
 10
13
 20
25.25
 11
12.8587
 21
25.2544
  0
LINE
  8
0
 10
12.8587
 20
25.2544
 11
12.718
 21
25.2677
  0
LINE
  8
0
 10
12.718
 20
25.2677
 11
12.5784
 21
25.2898
  0
LINE
  8
0
 10
12.5784
 20
25.2898
 11
12.4404
 21
25.3207
  0
LINE
  8
0
 10
12.4404
 20
25.3207
 11
12.3047
 21
25.3601
  0
LINE
  8
0
 10
12.3047
 20
25.3601
 11
12.1717
 21
25.408
  0
LINE
  8
0
 10
12.1717
 20
25.408
 11
12.042
 21
25.4641
  0
LINE
  8
0
 10
12.042
 20
25.4641
 11
11.916
 21
25.5283
  0
LINE
  8
0
 10
11.916
 20
25.5283
 11
11.7944
 21
25.6003
  0
LINE
  8
0
 10
11.7944
 20
25.6003
 11
11.6775
 21
25.6797
  0
LINE
  8
0
 10
11.6775
 20
25.6797
 11
11.5658
 21
25.7663
  0
LINE
  8
0
 10
11.5658
 20
25.7663
 11
11.4598
 21
25.8598
  0
LINE
  8
0
 10
11.4598
 20
25.8598
 11
11.3598
 21
25.9598
  0
LINE
  8
0
 10
11.3598
 20
25.9598
 11
11.2663
 21
26.0658
  0
LINE
  8
0
 10
11.2663
 20
26.0658
 11
11.1797
 21
26.1775
  0
LINE
  8
0
 10
11.1797
 20
26.1775
 11
11.1003
 21
26.2944
  0
LINE
  8
0
 10
11.1003
 20
26.2944
 11
11.0283
 21
26.416
  0
LINE
  8
0
 10
11.0283
 20
26.416
 11
10.9641
 21
26.542
  0
LINE
  8
0
 10
10.9641
 20
26.542
 11
10.908
 21
26.6717
  0
LINE
  8
0
 10
10.908
 20
26.6717
 11
10.8601
 21
26.8047
  0
LINE
  8
0
 10
10.8601
 20
26.8047
 11
10.8207
 21
26.9404
  0
LINE
  8
0
 10
10.8207
 20
26.9404
 11
10.7898
 21
27.0784
  0
LINE
  8
0
 10
10.7898
 20
27.0784
 11
10.7677
 21
27.218
  0
LINE
  8
0
 10
10.7677
 20
27.218
 11
10.7544
 21
27.3587
  0
LINE
  8
0
 10
10.7544
 20
27.3587
 11
10.75
 21
27.5
  0
LINE
  8
0
 10
10.75
 20
27.5
 11
10.7544
 21
27.6413
  0
LINE
  8
0
 10
10.7544
 20
27.6413
 11
10.7677
 21
27.782
  0
LINE
  8
0
 10
-10.7677
 20
27.218
 11
-10.7898
 21
27.0784
  0
LINE
  8
0
 10
-10.7898
 20
27.0784
 11
-10.8207
 21
26.9404
  0
LINE
  8
0
 10
-10.8207
 20
26.9404
 11
-10.8601
 21
26.8047
  0
LINE
  8
0
 10
-10.8601
 20
26.8047
 11
-10.908
 21
26.6717
  0
LINE
  8
0
 10
-10.908
 20
26.6717
 11
-10.9641
 21
26.542
  0
LINE
  8
0
 10
-10.9641
 20
26.542
 11
-11.0283
 21
26.416
  0
LINE
  8
0
 10
-11.0283
 20
26.416
 11
-11.1003
 21
26.2944
  0
LINE
  8
0
 10
-11.1003
 20
26.2944
 11
-11.1797
 21
26.1775
  0
LINE
  8
0
 10
-11.1797
 20
26.1775
 11
-11.2663
 21
26.0658
  0
LINE
  8
0
 10
-11.2663
 20
26.0658
 11
-11.3598
 21
25.9598
  0
LINE
  8
0
 10
-11.3598
 20
25.9598
 11
-11.4598
 21
25.8598
  0
LINE
  8
0
 10
-11.4598
 20
25.8598
 11
-11.5658
 21
25.7663
  0
LINE
  8
0
 10
-11.5658
 20
25.7663
 11
-11.6775
 21
25.6797
  0
LINE
  8
0
 10
-11.6775
 20
25.6797
 11
-11.7944
 21
25.6003
  0
LINE
  8
0
 10
-11.7944
 20
25.6003
 11
-11.916
 21
25.5283
  0
LINE
  8
0
 10
-11.916
 20
25.5283
 11
-12.042
 21
25.4641
  0
LINE
  8
0
 10
-12.042
 20
25.4641
 11
-12.1717
 21
25.408
  0
LINE
  8
0
 10
-12.1717
 20
25.408
 11
-12.3047
 21
25.3601
  0
LINE
  8
0
 10
-12.3047
 20
25.3601
 11
-12.4404
 21
25.3207
  0
LINE
  8
0
 10
-12.4404
 20
25.3207
 11
-12.5784
 21
25.2898
  0
LINE
  8
0
 10
-12.5784
 20
25.2898
 11
-12.718
 21
25.2677
  0
LINE
  8
0
 10
-12.718
 20
25.2677
 11
-12.8587
 21
25.2544
  0
LINE
  8
0
 10
-12.8587
 20
25.2544
 11
-13
 21
25.25
  0
LINE
  8
0
 10
-13
 20
25.25
 11
-13.1413
 21
25.2544
  0
LINE
  8
0
 10
-13.1413
 20
25.2544
 11
-13.282
 21
25.2677
  0
LINE
  8
0
 10
-13.282
 20
25.2677
 11
-13.4216
 21
25.2898
  0
LINE
  8
0
 10
-13.4216
 20
25.2898
 11
-13.5595
 21
25.3207
  0
LINE
  8
0
 10
-13.5595
 20
25.3207
 11
-13.6953
 21
25.3601
  0
LINE
  8
0
 10
-13.6953
 20
25.3601
 11
-13.8283
 21
25.408
  0
LINE
  8
0
 10
-13.8283
 20
25.408
 11
-13.958
 21
25.4641
  0
LINE
  8
0
 10
-13.958
 20
25.4641
 11
-14.0839
 21
25.5283
  0
LINE
  8
0
 10
-14.0839
 20
25.5283
 11
-14.2056
 21
25.6003
  0
LINE
  8
0
 10
-14.2056
 20
25.6003
 11
-14.3225
 21
25.6797
  0
LINE
  8
0
 10
-14.3225
 20
25.6797
 11
-14.4342
 21
25.7663
  0
LINE
  8
0
 10
-14.4342
 20
25.7663
 11
-14.5402
 21
25.8598
  0
LINE
  8
0
 10
-14.5402
 20
25.8598
 11
-14.6402
 21
25.9598
  0
LINE
  8
0
 10
-14.6402
 20
25.9598
 11
-14.7336
 21
26.0658
  0
LINE
  8
0
 10
-14.7336
 20
26.0658
 11
-14.8203
 21
26.1775
  0
LINE
  8
0
 10
-14.8203
 20
26.1775
 11
-14.8997
 21
26.2944
  0
LINE
  8
0
 10
-14.8997
 20
26.2944
 11
-14.9717
 21
26.416
  0
LINE
  8
0
 10
-14.9717
 20
26.416
 11
-15.0359
 21
26.542
  0
LINE
  8
0
 10
-15.0359
 20
26.542
 11
-15.092
 21
26.6717
  0
LINE
  8
0
 10
-15.092
 20
26.6717
 11
-15.1399
 21
26.8047
  0
LINE
  8
0
 10
-15.1399
 20
26.8047
 11
-15.1793
 21
26.9404
  0
LINE
  8
0
 10
-15.1793
 20
26.9404
 11
-15.2101
 21
27.0784
  0
LINE
  8
0
 10
-15.2101
 20
27.0784
 11
-15.2323
 21
27.218
  0
LINE
  8
0
 10
-15.2323
 20
27.218
 11
-15.2456
 21
27.3587
  0
LINE
  8
0
 10
-15.2456
 20
27.3587
 11
-15.25
 21
27.5
  0
LINE
  8
0
 10
-15.25
 20
27.5
 11
-15.2456
 21
27.6413
  0
LINE
  8
0
 10
-15.2456
 20
27.6413
 11
-15.2323
 21
27.782
  0
LINE
  8
0
 10
-15.2323
 20
27.782
 11
-15.2101
 21
27.9216
  0
LINE
  8
0
 10
-15.2101
 20
27.9216
 11
-15.1793
 21
28.0595
  0
LINE
  8
0
 10
-15.1793
 20
28.0595
 11
-15.1399
 21
28.1953
  0
LINE
  8
0
 10
-15.1399
 20
28.1953
 11
-15.092
 21
28.3283
  0
LINE
  8
0
 10
-15.092
 20
28.3283
 11
-15.0359
 21
28.458
  0
LINE
  8
0
 10
-15.0359
 20
28.458
 11
-14.9717
 21
28.5839
  0
LINE
  8
0
 10
-14.9717
 20
28.5839
 11
-14.8997
 21
28.7056
  0
LINE
  8
0
 10
-14.8997
 20
28.7056
 11
-14.8203
 21
28.8225
  0
LINE
  8
0
 10
-14.8203
 20
28.8225
 11
-14.7336
 21
28.9342
  0
LINE
  8
0
 10
-14.7336
 20
28.9342
 11
-14.6402
 21
29.0402
  0
LINE
  8
0
 10
-14.6402
 20
29.0402
 11
-14.5402
 21
29.1402
  0
LINE
  8
0
 10
-14.5402
 20
29.1402
 11
-14.4342
 21
29.2336
  0
LINE
  8
0
 10
-14.4342
 20
29.2336
 11
-14.3225
 21
29.3203
  0
LINE
  8
0
 10
-14.3225
 20
29.3203
 11
-14.2056
 21
29.3997
  0
LINE
  8
0
 10
-14.2056
 20
29.3997
 11
-14.0839
 21
29.4717
  0
LINE
  8
0
 10
-14.0839
 20
29.4717
 11
-13.958
 21
29.5359
  0
LINE
  8
0
 10
-13.958
 20
29.5359
 11
-13.8283
 21
29.592
  0
LINE
  8
0
 10
-13.8283
 20
29.592
 11
-13.6953
 21
29.6399
  0
LINE
  8
0
 10
-13.6953
 20
29.6399
 11
-13.5595
 21
29.6793
  0
LINE
  8
0
 10
-13.5595
 20
29.6793
 11
-13.4216
 21
29.7101
  0
LINE
  8
0
 10
-13.4216
 20
29.7101
 11
-13.282
 21
29.7323
  0
LINE
  8
0
 10
-13.282
 20
29.7323
 11
-13.1413
 21
29.7456
  0
LINE
  8
0
 10
-13.1413
 20
29.7456
 11
-13
 21
29.75
  0
LINE
  8
0
 10
-13
 20
29.75
 11
-12.8587
 21
29.7456
  0
LINE
  8
0
 10
-12.8587
 20
29.7456
 11
-12.718
 21
29.7323
  0
LINE
  8
0
 10
-12.718
 20
29.7323
 11
-12.5784
 21
29.7101
  0
LINE
  8
0
 10
-12.5784
 20
29.7101
 11
-12.4404
 21
29.6793
  0
LINE
  8
0
 10
-12.4404
 20
29.6793
 11
-12.3047
 21
29.6399
  0
LINE
  8
0
 10
-12.3047
 20
29.6399
 11
-12.1717
 21
29.592
  0
LINE
  8
0
 10
-12.1717
 20
29.592
 11
-12.042
 21
29.5359
  0
LINE
  8
0
 10
-12.042
 20
29.5359
 11
-11.916
 21
29.4717
  0
LINE
  8
0
 10
-11.916
 20
29.4717
 11
-11.7944
 21
29.3997
  0
LINE
  8
0
 10
-11.7944
 20
29.3997
 11
-11.6775
 21
29.3203
  0
LINE
  8
0
 10
-11.6775
 20
29.3203
 11
-11.5658
 21
29.2336
  0
LINE
  8
0
 10
-11.5658
 20
29.2336
 11
-11.4598
 21
29.1402
  0
LINE
  8
0
 10
-11.4598
 20
29.1402
 11
-11.3598
 21
29.0402
  0
LINE
  8
0
 10
-11.3598
 20
29.0402
 11
-11.2663
 21
28.9342
  0
LINE
  8
0
 10
-11.2663
 20
28.9342
 11
-11.1797
 21
28.8225
  0
LINE
  8
0
 10
-11.1797
 20
28.8225
 11
-11.1003
 21
28.7056
  0
LINE
  8
0
 10
-11.1003
 20
28.7056
 11
-11.0283
 21
28.5839
  0
LINE
  8
0
 10
-11.0283
 20
28.5839
 11
-10.9641
 21
28.458
  0
LINE
  8
0
 10
-10.9641
 20
28.458
 11
-10.908
 21
28.3283
  0
LINE
  8
0
 10
-10.908
 20
28.3283
 11
-10.8601
 21
28.1953
  0
LINE
  8
0
 10
-10.8601
 20
28.1953
 11
-10.8207
 21
28.0595
  0
LINE
  8
0
 10
-10.8207
 20
28.0595
 11
-10.7898
 21
27.9216
  0
LINE
  8
0
 10
-10.7898
 20
27.9216
 11
-10.7677
 21
27.782
  0
LINE
  8
0
 10
-10.7677
 20
27.782
 11
-10.7544
 21
27.6413
  0
LINE
  8
0
 10
-10.7544
 20
27.6413
 11
-10.75
 21
27.5
  0
LINE
  8
0
 10
-10.75
 20
27.5
 11
-10.7544
 21
27.3587
  0
LINE
  8
0
 10
-10.7544
 20
27.3587
 11
-10.7677
 21
27.218
  0
ENDSEC
  0
SECTION
  2
OBJECTS
  0
DICTIONARY
  0
ENDSEC
  0
EOF
