  0
SECTION
  2
BLOCKS
  0
ENDSEC
  0
SECTION
  2
ENTITIES
  0
LINE
  8
0
 10
-5
 20
-7.5
 11
-4.99013
 21
-7.18604
  0
LINE
  8
0
 10
-4.99013
 20
-7.18604
 11
-4.96057
 21
-6.87332
  0
LINE
  8
0
 10
-4.96057
 20
-6.87332
 11
-4.91142
 21
-6.56308
  0
LINE
  8
0
 10
-4.91142
 20
-6.56308
 11
-4.84291
 21
-6.25655
  0
LINE
  8
0
 10
-4.84291
 20
-6.25655
 11
-4.75528
 21
-5.95491
  0
LINE
  8
0
 10
-4.75528
 20
-5.95491
 11
-4.64888
 21
-5.65936
  0
LINE
  8
0
 10
-4.64888
 20
-5.65936
 11
-4.52412
 21
-5.37109
  0
LINE
  8
0
 10
-4.52412
 20
-5.37109
 11
-4.38153
 21
-5.09122
  0
LINE
  8
0
 10
-4.38153
 20
-5.09122
 11
-4.22163
 21
-4.82086
  0
LINE
  8
0
 10
-4.22163
 20
-4.82086
 11
-4.04507
 21
-4.56107
  0
LINE
  8
0
 10
-4.04507
 20
-4.56107
 11
-3.85255
 21
-4.31287
  0
LINE
  8
0
 10
-3.85255
 20
-4.31287
 11
-3.64484
 21
-4.07726
  0
LINE
  8
0
 10
-3.64484
 20
-4.07726
 11
-3.42273
 21
-3.85515
  0
LINE
  8
0
 10
-3.42273
 20
-3.85515
 11
-3.18712
 21
-3.64743
  0
LINE
  8
0
 10
-3.18712
 20
-3.64743
 11
-2.93892
 21
-3.45491
  0
LINE
  8
0
 10
-2.93892
 20
-3.45491
 11
-2.67912
 21
-3.27835
  0
LINE
  8
0
 10
-2.67912
 20
-3.27835
 11
-2.40877
 21
-3.11845
  0
LINE
  8
0
 10
-2.40877
 20
-3.11845
 11
-2.12889
 21
-2.97586
  0
LINE
  8
0
 10
-2.12889
 20
-2.97586
 11
-1.84062
 21
-2.8511
  0
LINE
  8
0
 10
-1.84062
 20
-2.8511
 11
-1.54507
 21
-2.74471
  0
LINE
  8
0
 10
-1.54507
 20
-2.74471
 11
-1.24344
 21
-2.65707
  0
LINE
  8
0
 10
-1.24344
 20
-2.65707
 11
-0.936905
 21
-2.58856
  0
LINE
  8
0
 10
-0.936905
 20
-2.58856
 11
-0.626663
 21
-2.53941
  0
LINE
  8
0
 10
-0.626663
 20
-2.53941
 11
-0.31395
 21
-2.50986
  0
LINE
  8
0
 10
-0.31395
 20
-2.50986
 11
0
 21
-2.5
  0
LINE
  8
0
 10
0
 20
-2.5
 11
0.31395
 21
-2.50986
  0
LINE
  8
0
 10
0.31395
 20
-2.50986
 11
0.626663
 21
-2.53941
  0
LINE
  8
0
 10
0.626663
 20
-2.53941
 11
0.936905
 21
-2.58856
  0
LINE
  8
0
 10
0.936905
 20
-2.58856
 11
1.24344
 21
-2.65707
  0
LINE
  8
0
 10
1.24344
 20
-2.65707
 11
1.54507
 21
-2.74471
  0
LINE
  8
0
 10
1.54507
 20
-2.74471
 11
1.84062
 21
-2.8511
  0
LINE
  8
0
 10
1.84062
 20
-2.8511
 11
2.12889
 21
-2.97586
  0
LINE
  8
0
 10
2.12889
 20
-2.97586
 11
2.40877
 21
-3.11845
  0
LINE
  8
0
 10
2.40877
 20
-3.11845
 11
2.67912
 21
-3.27835
  0
LINE
  8
0
 10
2.67912
 20
-3.27835
 11
2.93892
 21
-3.45491
  0
LINE
  8
0
 10
2.93892
 20
-3.45491
 11
3.18712
 21
-3.64743
  0
LINE
  8
0
 10
3.18712
 20
-3.64743
 11
3.42273
 21
-3.85515
  0
LINE
  8
0
 10
3.42273
 20
-3.85515
 11
3.64484
 21
-4.07726
  0
LINE
  8
0
 10
3.64484
 20
-4.07726
 11
3.85255
 21
-4.31287
  0
LINE
  8
0
 10
3.85255
 20
-4.31287
 11
4.04507
 21
-4.56107
  0
LINE
  8
0
 10
4.04507
 20
-4.56107
 11
4.22163
 21
-4.82086
  0
LINE
  8
0
 10
4.22163
 20
-4.82086
 11
4.38153
 21
-5.09122
  0
LINE
  8
0
 10
4.38153
 20
-5.09122
 11
4.52412
 21
-5.37109
  0
LINE
  8
0
 10
4.52412
 20
-5.37109
 11
4.64888
 21
-5.65936
  0
LINE
  8
0
 10
4.64888
 20
-5.65936
 11
4.75528
 21
-5.95491
  0
LINE
  8
0
 10
4.75528
 20
-5.95491
 11
4.84291
 21
-6.25655
  0
LINE
  8
0
 10
4.84291
 20
-6.25655
 11
4.91142
 21
-6.56308
  0
LINE
  8
0
 10
4.91142
 20
-6.56308
 11
4.96057
 21
-6.87332
  0
LINE
  8
0
 10
4.96057
 20
-6.87332
 11
4.99013
 21
-7.18604
  0
LINE
  8
0
 10
4.99013
 20
-7.18604
 11
5
 21
-7.5
  0
LINE
  8
0
 10
5
 20
-7.5
 11
5
 21
-27.5
  0
LINE
  8
0
 10
5
 20
-27.5
 11
17.5
 21
-27.5
  0
LINE
  8
0
 10
17.5
 20
-27.5
 11
19.4134
 21
-27.1194
  0
LINE
  8
0
 10
19.4134
 20
-27.1194
 11
21.0355
 21
-26.0355
  0
LINE
  8
0
 10
21.0355
 20
-26.0355
 11
22.1194
 21
-24.4134
  0
LINE
  8
0
 10
22.1194
 20
-24.4134
 11
22.5
 21
-22.5
  0
LINE
  8
0
 10
22.5
 20
-22.5
 11
22.5
 21
22.5
  0
LINE
  8
0
 10
22.5
 20
22.5
 11
22.1194
 21
24.4134
  0
LINE
  8
0
 10
22.1194
 20
24.4134
 11
21.0355
 21
26.0355
  0
LINE
  8
0
 10
21.0355
 20
26.0355
 11
19.4134
 21
27.1194
  0
LINE
  8
0
 10
19.4134
 20
27.1194
 11
17.5
 21
27.5
  0
LINE
  8
0
 10
17.5
 20
27.5
 11
-17.5
 21
27.5
  0
LINE
  8
0
 10
-17.5
 20
27.5
 11
-19.4134
 21
27.1194
  0
LINE
  8
0
 10
-19.4134
 20
27.1194
 11
-21.0355
 21
26.0355
  0
LINE
  8
0
 10
-21.0355
 20
26.0355
 11
-22.1194
 21
24.4134
  0
LINE
  8
0
 10
-22.1194
 20
24.4134
 11
-22.5
 21
22.5
  0
LINE
  8
0
 10
-22.5
 20
22.5
 11
-22.5
 21
-22.5
  0
LINE
  8
0
 10
-22.5
 20
-22.5
 11
-22.1194
 21
-24.4134
  0
LINE
  8
0
 10
-22.1194
 20
-24.4134
 11
-21.0355
 21
-26.0355
  0
LINE
  8
0
 10
-21.0355
 20
-26.0355
 11
-19.4134
 21
-27.1194
  0
LINE
  8
0
 10
-19.4134
 20
-27.1194
 11
-17.5
 21
-27.5
  0
LINE
  8
0
 10
-17.5
 20
-27.5
 11
-5
 21
-27.5
  0
LINE
  8
0
 10
-5
 20
-27.5
 11
-5
 21
-7.5
  0
LINE
  8
0
 10
10.7677
 20
18.782
 11
10.7898
 21
18.9216
  0
LINE
  8
0
 10
10.7898
 20
18.9216
 11
10.8207
 21
19.0595
  0
LINE
  8
0
 10
10.8207
 20
19.0595
 11
10.8601
 21
19.1953
  0
LINE
  8
0
 10
10.8601
 20
19.1953
 11
10.908
 21
19.3283
  0
LINE
  8
0
 10
10.908
 20
19.3283
 11
10.9641
 21
19.458
  0
LINE
  8
0
 10
10.9641
 20
19.458
 11
11.0283
 21
19.5839
  0
LINE
  8
0
 10
11.0283
 20
19.5839
 11
11.1003
 21
19.7056
  0
LINE
  8
0
 10
11.1003
 20
19.7056
 11
11.1797
 21
19.8225
  0
LINE
  8
0
 10
11.1797
 20
19.8225
 11
11.2663
 21
19.9342
  0
LINE
  8
0
 10
11.2663
 20
19.9342
 11
11.3598
 21
20.0402
  0
LINE
  8
0
 10
11.3598
 20
20.0402
 11
11.4598
 21
20.1402
  0
LINE
  8
0
 10
11.4598
 20
20.1402
 11
11.5658
 21
20.2336
  0
LINE
  8
0
 10
11.5658
 20
20.2336
 11
11.6775
 21
20.3203
  0
LINE
  8
0
 10
11.6775
 20
20.3203
 11
11.7944
 21
20.3997
  0
LINE
  8
0
 10
11.7944
 20
20.3997
 11
11.916
 21
20.4717
  0
LINE
  8
0
 10
11.916
 20
20.4717
 11
12.042
 21
20.5359
  0
LINE
  8
0
 10
12.042
 20
20.5359
 11
12.1717
 21
20.592
  0
LINE
  8
0
 10
12.1717
 20
20.592
 11
12.3047
 21
20.6399
  0
LINE
  8
0
 10
12.3047
 20
20.6399
 11
12.4404
 21
20.6793
  0
LINE
  8
0
 10
12.4404
 20
20.6793
 11
12.5784
 21
20.7101
  0
LINE
  8
0
 10
12.5784
 20
20.7101
 11
12.718
 21
20.7323
  0
LINE
  8
0
 10
12.718
 20
20.7323
 11
12.8587
 21
20.7456
  0
LINE
  8
0
 10
12.8587
 20
20.7456
 11
13
 21
20.75
  0
LINE
  8
0
 10
13
 20
20.75
 11
13.1413
 21
20.7456
  0
LINE
  8
0
 10
13.1413
 20
20.7456
 11
13.282
 21
20.7323
  0
LINE
  8
0
 10
13.282
 20
20.7323
 11
13.4216
 21
20.7101
  0
LINE
  8
0
 10
13.4216
 20
20.7101
 11
13.5595
 21
20.6793
  0
LINE
  8
0
 10
13.5595
 20
20.6793
 11
13.6953
 21
20.6399
  0
LINE
  8
0
 10
13.6953
 20
20.6399
 11
13.8283
 21
20.592
  0
LINE
  8
0
 10
13.8283
 20
20.592
 11
13.958
 21
20.5359
  0
LINE
  8
0
 10
13.958
 20
20.5359
 11
14.0839
 21
20.4717
  0
LINE
  8
0
 10
14.0839
 20
20.4717
 11
14.2056
 21
20.3997
  0
LINE
  8
0
 10
14.2056
 20
20.3997
 11
14.3225
 21
20.3203
  0
LINE
  8
0
 10
14.3225
 20
20.3203
 11
14.4342
 21
20.2336
  0
LINE
  8
0
 10
14.4342
 20
20.2336
 11
14.5402
 21
20.1402
  0
LINE
  8
0
 10
14.5402
 20
20.1402
 11
14.6402
 21
20.0402
  0
LINE
  8
0
 10
14.6402
 20
20.0402
 11
14.7336
 21
19.9342
  0
LINE
  8
0
 10
14.7336
 20
19.9342
 11
14.8203
 21
19.8225
  0
LINE
  8
0
 10
14.8203
 20
19.8225
 11
14.8997
 21
19.7056
  0
LINE
  8
0
 10
14.8997
 20
19.7056
 11
14.9717
 21
19.5839
  0
LINE
  8
0
 10
14.9717
 20
19.5839
 11
15.0359
 21
19.458
  0
LINE
  8
0
 10
15.0359
 20
19.458
 11
15.092
 21
19.3283
  0
LINE
  8
0
 10
15.092
 20
19.3283
 11
15.1399
 21
19.1953
  0
LINE
  8
0
 10
15.1399
 20
19.1953
 11
15.1793
 21
19.0595
  0
LINE
  8
0
 10
15.1793
 20
19.0595
 11
15.2101
 21
18.9216
  0
LINE
  8
0
 10
15.2101
 20
18.9216
 11
15.2323
 21
18.782
  0
LINE
  8
0
 10
15.2323
 20
18.782
 11
15.2456
 21
18.6413
  0
LINE
  8
0
 10
15.2456
 20
18.6413
 11
15.25
 21
18.5
  0
LINE
  8
0
 10
15.25
 20
18.5
 11
15.2456
 21
18.3587
  0
LINE
  8
0
 10
15.2456
 20
18.3587
 11
15.2323
 21
18.218
  0
LINE
  8
0
 10
15.2323
 20
18.218
 11
15.2101
 21
18.0784
  0
LINE
  8
0
 10
15.2101
 20
18.0784
 11
15.1793
 21
17.9404
  0
LINE
  8
0
 10
15.1793
 20
17.9404
 11
15.1399
 21
17.8047
  0
LINE
  8
0
 10
15.1399
 20
17.8047
 11
15.092
 21
17.6717
  0
LINE
  8
0
 10
15.092
 20
17.6717
 11
15.0359
 21
17.542
  0
LINE
  8
0
 10
15.0359
 20
17.542
 11
14.9717
 21
17.416
  0
LINE
  8
0
 10
14.9717
 20
17.416
 11
14.8997
 21
17.2944
  0
LINE
  8
0
 10
14.8997
 20
17.2944
 11
14.8203
 21
17.1775
  0
LINE
  8
0
 10
14.8203
 20
17.1775
 11
14.7336
 21
17.0658
  0
LINE
  8
0
 10
14.7336
 20
17.0658
 11
14.6402
 21
16.9598
  0
LINE
  8
0
 10
14.6402
 20
16.9598
 11
14.5402
 21
16.8598
  0
LINE
  8
0
 10
14.5402
 20
16.8598
 11
14.4342
 21
16.7663
  0
LINE
  8
0
 10
14.4342
 20
16.7663
 11
14.3225
 21
16.6797
  0
LINE
  8
0
 10
14.3225
 20
16.6797
 11
14.2056
 21
16.6003
  0
LINE
  8
0
 10
14.2056
 20
16.6003
 11
14.0839
 21
16.5283
  0
LINE
  8
0
 10
14.0839
 20
16.5283
 11
13.958
 21
16.4641
  0
LINE
  8
0
 10
13.958
 20
16.4641
 11
13.8283
 21
16.408
  0
LINE
  8
0
 10
13.8283
 20
16.408
 11
13.6953
 21
16.3601
  0
LINE
  8
0
 10
13.6953
 20
16.3601
 11
13.5595
 21
16.3207
  0
LINE
  8
0
 10
13.5595
 20
16.3207
 11
13.4216
 21
16.2898
  0
LINE
  8
0
 10
13.4216
 20
16.2898
 11
13.282
 21
16.2677
  0
LINE
  8
0
 10
13.282
 20
16.2677
 11
13.1413
 21
16.2544
  0
LINE
  8
0
 10
13.1413
 20
16.2544
 11
13
 21
16.25
  0
LINE
  8
0
 10
13
 20
16.25
 11
12.8587
 21
16.2544
  0
LINE
  8
0
 10
12.8587
 20
16.2544
 11
12.718
 21
16.2677
  0
LINE
  8
0
 10
12.718
 20
16.2677
 11
12.5784
 21
16.2898
  0
LINE
  8
0
 10
12.5784
 20
16.2898
 11
12.4404
 21
16.3207
  0
LINE
  8
0
 10
12.4404
 20
16.3207
 11
12.3047
 21
16.3601
  0
LINE
  8
0
 10
12.3047
 20
16.3601
 11
12.1717
 21
16.408
  0
LINE
  8
0
 10
12.1717
 20
16.408
 11
12.042
 21
16.4641
  0
LINE
  8
0
 10
12.042
 20
16.4641
 11
11.916
 21
16.5283
  0
LINE
  8
0
 10
11.916
 20
16.5283
 11
11.7944
 21
16.6003
  0
LINE
  8
0
 10
11.7944
 20
16.6003
 11
11.6775
 21
16.6797
  0
LINE
  8
0
 10
11.6775
 20
16.6797
 11
11.5658
 21
16.7663
  0
LINE
  8
0
 10
11.5658
 20
16.7663
 11
11.4598
 21
16.8598
  0
LINE
  8
0
 10
11.4598
 20
16.8598
 11
11.3598
 21
16.9598
  0
LINE
  8
0
 10
11.3598
 20
16.9598
 11
11.2663
 21
17.0658
  0
LINE
  8
0
 10
11.2663
 20
17.0658
 11
11.1797
 21
17.1775
  0
LINE
  8
0
 10
11.1797
 20
17.1775
 11
11.1003
 21
17.2944
  0
LINE
  8
0
 10
11.1003
 20
17.2944
 11
11.0283
 21
17.416
  0
LINE
  8
0
 10
11.0283
 20
17.416
 11
10.9641
 21
17.542
  0
LINE
  8
0
 10
10.9641
 20
17.542
 11
10.908
 21
17.6717
  0
LINE
  8
0
 10
10.908
 20
17.6717
 11
10.8601
 21
17.8047
  0
LINE
  8
0
 10
10.8601
 20
17.8047
 11
10.8207
 21
17.9404
  0
LINE
  8
0
 10
10.8207
 20
17.9404
 11
10.7898
 21
18.0784
  0
LINE
  8
0
 10
10.7898
 20
18.0784
 11
10.7677
 21
18.218
  0
LINE
  8
0
 10
10.7677
 20
18.218
 11
10.7544
 21
18.3587
  0
LINE
  8
0
 10
10.7544
 20
18.3587
 11
10.75
 21
18.5
  0
LINE
  8
0
 10
10.75
 20
18.5
 11
10.7544
 21
18.6413
  0
LINE
  8
0
 10
10.7544
 20
18.6413
 11
10.7677
 21
18.782
  0
LINE
  8
0
 10
-10.7677
 20
18.218
 11
-10.7898
 21
18.0784
  0
LINE
  8
0
 10
-10.7898
 20
18.0784
 11
-10.8207
 21
17.9404
  0
LINE
  8
0
 10
-10.8207
 20
17.9404
 11
-10.8601
 21
17.8047
  0
LINE
  8
0
 10
-10.8601
 20
17.8047
 11
-10.908
 21
17.6717
  0
LINE
  8
0
 10
-10.908
 20
17.6717
 11
-10.9641
 21
17.542
  0
LINE
  8
0
 10
-10.9641
 20
17.542
 11
-11.0283
 21
17.416
  0
LINE
  8
0
 10
-11.0283
 20
17.416
 11
-11.1003
 21
17.2944
  0
LINE
  8
0
 10
-11.1003
 20
17.2944
 11
-11.1797
 21
17.1775
  0
LINE
  8
0
 10
-11.1797
 20
17.1775
 11
-11.2663
 21
17.0658
  0
LINE
  8
0
 10
-11.2663
 20
17.0658
 11
-11.3598
 21
16.9598
  0
LINE
  8
0
 10
-11.3598
 20
16.9598
 11
-11.4598
 21
16.8598
  0
LINE
  8
0
 10
-11.4598
 20
16.8598
 11
-11.5658
 21
16.7663
  0
LINE
  8
0
 10
-11.5658
 20
16.7663
 11
-11.6775
 21
16.6797
  0
LINE
  8
0
 10
-11.6775
 20
16.6797
 11
-11.7944
 21
16.6003
  0
LINE
  8
0
 10
-11.7944
 20
16.6003
 11
-11.916
 21
16.5283
  0
LINE
  8
0
 10
-11.916
 20
16.5283
 11
-12.042
 21
16.4641
  0
LINE
  8
0
 10
-12.042
 20
16.4641
 11
-12.1717
 21
16.408
  0
LINE
  8
0
 10
-12.1717
 20
16.408
 11
-12.3047
 21
16.3601
  0
LINE
  8
0
 10
-12.3047
 20
16.3601
 11
-12.4404
 21
16.3207
  0
LINE
  8
0
 10
-12.4404
 20
16.3207
 11
-12.5784
 21
16.2898
  0
LINE
  8
0
 10
-12.5784
 20
16.2898
 11
-12.718
 21
16.2677
  0
LINE
  8
0
 10
-12.718
 20
16.2677
 11
-12.8587
 21
16.2544
  0
LINE
  8
0
 10
-12.8587
 20
16.2544
 11
-13
 21
16.25
  0
LINE
  8
0
 10
-13
 20
16.25
 11
-13.1413
 21
16.2544
  0
LINE
  8
0
 10
-13.1413
 20
16.2544
 11
-13.282
 21
16.2677
  0
LINE
  8
0
 10
-13.282
 20
16.2677
 11
-13.4216
 21
16.2898
  0
LINE
  8
0
 10
-13.4216
 20
16.2898
 11
-13.5595
 21
16.3207
  0
LINE
  8
0
 10
-13.5595
 20
16.3207
 11
-13.6953
 21
16.3601
  0
LINE
  8
0
 10
-13.6953
 20
16.3601
 11
-13.8283
 21
16.408
  0
LINE
  8
0
 10
-13.8283
 20
16.408
 11
-13.958
 21
16.4641
  0
LINE
  8
0
 10
-13.958
 20
16.4641
 11
-14.0839
 21
16.5283
  0
LINE
  8
0
 10
-14.0839
 20
16.5283
 11
-14.2056
 21
16.6003
  0
LINE
  8
0
 10
-14.2056
 20
16.6003
 11
-14.3225
 21
16.6797
  0
LINE
  8
0
 10
-14.3225
 20
16.6797
 11
-14.4342
 21
16.7663
  0
LINE
  8
0
 10
-14.4342
 20
16.7663
 11
-14.5402
 21
16.8598
  0
LINE
  8
0
 10
-14.5402
 20
16.8598
 11
-14.6402
 21
16.9598
  0
LINE
  8
0
 10
-14.6402
 20
16.9598
 11
-14.7336
 21
17.0658
  0
LINE
  8
0
 10
-14.7336
 20
17.0658
 11
-14.8203
 21
17.1775
  0
LINE
  8
0
 10
-14.8203
 20
17.1775
 11
-14.8997
 21
17.2944
  0
LINE
  8
0
 10
-14.8997
 20
17.2944
 11
-14.9717
 21
17.416
  0
LINE
  8
0
 10
-14.9717
 20
17.416
 11
-15.0359
 21
17.542
  0
LINE
  8
0
 10
-15.0359
 20
17.542
 11
-15.092
 21
17.6717
  0
LINE
  8
0
 10
-15.092
 20
17.6717
 11
-15.1399
 21
17.8047
  0
LINE
  8
0
 10
-15.1399
 20
17.8047
 11
-15.1793
 21
17.9404
  0
LINE
  8
0
 10
-15.1793
 20
17.9404
 11
-15.2101
 21
18.0784
  0
LINE
  8
0
 10
-15.2101
 20
18.0784
 11
-15.2323
 21
18.218
  0
LINE
  8
0
 10
-15.2323
 20
18.218
 11
-15.2456
 21
18.3587
  0
LINE
  8
0
 10
-15.2456
 20
18.3587
 11
-15.25
 21
18.5
  0
LINE
  8
0
 10
-15.25
 20
18.5
 11
-15.2456
 21
18.6413
  0
LINE
  8
0
 10
-15.2456
 20
18.6413
 11
-15.2323
 21
18.782
  0
LINE
  8
0
 10
-15.2323
 20
18.782
 11
-15.2101
 21
18.9216
  0
LINE
  8
0
 10
-15.2101
 20
18.9216
 11
-15.1793
 21
19.0595
  0
LINE
  8
0
 10
-15.1793
 20
19.0595
 11
-15.1399
 21
19.1953
  0
LINE
  8
0
 10
-15.1399
 20
19.1953
 11
-15.092
 21
19.3283
  0
LINE
  8
0
 10
-15.092
 20
19.3283
 11
-15.0359
 21
19.458
  0
LINE
  8
0
 10
-15.0359
 20
19.458
 11
-14.9717
 21
19.5839
  0
LINE
  8
0
 10
-14.9717
 20
19.5839
 11
-14.8997
 21
19.7056
  0
LINE
  8
0
 10
-14.8997
 20
19.7056
 11
-14.8203
 21
19.8225
  0
LINE
  8
0
 10
-14.8203
 20
19.8225
 11
-14.7336
 21
19.9342
  0
LINE
  8
0
 10
-14.7336
 20
19.9342
 11
-14.6402
 21
20.0402
  0
LINE
  8
0
 10
-14.6402
 20
20.0402
 11
-14.5402
 21
20.1402
  0
LINE
  8
0
 10
-14.5402
 20
20.1402
 11
-14.4342
 21
20.2336
  0
LINE
  8
0
 10
-14.4342
 20
20.2336
 11
-14.3225
 21
20.3203
  0
LINE
  8
0
 10
-14.3225
 20
20.3203
 11
-14.2056
 21
20.3997
  0
LINE
  8
0
 10
-14.2056
 20
20.3997
 11
-14.0839
 21
20.4717
  0
LINE
  8
0
 10
-14.0839
 20
20.4717
 11
-13.958
 21
20.5359
  0
LINE
  8
0
 10
-13.958
 20
20.5359
 11
-13.8283
 21
20.592
  0
LINE
  8
0
 10
-13.8283
 20
20.592
 11
-13.6953
 21
20.6399
  0
LINE
  8
0
 10
-13.6953
 20
20.6399
 11
-13.5595
 21
20.6793
  0
LINE
  8
0
 10
-13.5595
 20
20.6793
 11
-13.4216
 21
20.7101
  0
LINE
  8
0
 10
-13.4216
 20
20.7101
 11
-13.282
 21
20.7323
  0
LINE
  8
0
 10
-13.282
 20
20.7323
 11
-13.1413
 21
20.7456
  0
LINE
  8
0
 10
-13.1413
 20
20.7456
 11
-13
 21
20.75
  0
LINE
  8
0
 10
-13
 20
20.75
 11
-12.8587
 21
20.7456
  0
LINE
  8
0
 10
-12.8587
 20
20.7456
 11
-12.718
 21
20.7323
  0
LINE
  8
0
 10
-12.718
 20
20.7323
 11
-12.5784
 21
20.7101
  0
LINE
  8
0
 10
-12.5784
 20
20.7101
 11
-12.4404
 21
20.6793
  0
LINE
  8
0
 10
-12.4404
 20
20.6793
 11
-12.3047
 21
20.6399
  0
LINE
  8
0
 10
-12.3047
 20
20.6399
 11
-12.1717
 21
20.592
  0
LINE
  8
0
 10
-12.1717
 20
20.592
 11
-12.042
 21
20.5359
  0
LINE
  8
0
 10
-12.042
 20
20.5359
 11
-11.916
 21
20.4717
  0
LINE
  8
0
 10
-11.916
 20
20.4717
 11
-11.7944
 21
20.3997
  0
LINE
  8
0
 10
-11.7944
 20
20.3997
 11
-11.6775
 21
20.3203
  0
LINE
  8
0
 10
-11.6775
 20
20.3203
 11
-11.5658
 21
20.2336
  0
LINE
  8
0
 10
-11.5658
 20
20.2336
 11
-11.4598
 21
20.1402
  0
LINE
  8
0
 10
-11.4598
 20
20.1402
 11
-11.3598
 21
20.0402
  0
LINE
  8
0
 10
-11.3598
 20
20.0402
 11
-11.2663
 21
19.9342
  0
LINE
  8
0
 10
-11.2663
 20
19.9342
 11
-11.1797
 21
19.8225
  0
LINE
  8
0
 10
-11.1797
 20
19.8225
 11
-11.1003
 21
19.7056
  0
LINE
  8
0
 10
-11.1003
 20
19.7056
 11
-11.0283
 21
19.5839
  0
LINE
  8
0
 10
-11.0283
 20
19.5839
 11
-10.9641
 21
19.458
  0
LINE
  8
0
 10
-10.9641
 20
19.458
 11
-10.908
 21
19.3283
  0
LINE
  8
0
 10
-10.908
 20
19.3283
 11
-10.8601
 21
19.1953
  0
LINE
  8
0
 10
-10.8601
 20
19.1953
 11
-10.8207
 21
19.0595
  0
LINE
  8
0
 10
-10.8207
 20
19.0595
 11
-10.7898
 21
18.9216
  0
LINE
  8
0
 10
-10.7898
 20
18.9216
 11
-10.7677
 21
18.782
  0
LINE
  8
0
 10
-10.7677
 20
18.782
 11
-10.7544
 21
18.6413
  0
LINE
  8
0
 10
-10.7544
 20
18.6413
 11
-10.75
 21
18.5
  0
LINE
  8
0
 10
-10.75
 20
18.5
 11
-10.7544
 21
18.3587
  0
LINE
  8
0
 10
-10.7544
 20
18.3587
 11
-10.7677
 21
18.218
  0
ENDSEC
  0
SECTION
  2
OBJECTS
  0
DICTIONARY
  0
ENDSEC
  0
EOF
