  0
SECTION
  2
HEADER
  9
$ACADVER
  1
AC1014
  9
$HANDSEED
  5
FFFF
  9
$MEASUREMENT
 70
     1
  0
ENDSEC
  0
SECTION
  2
TABLES
  0
TABLE
  2
VPORT
  5
8
330
0
100
AcDbSymbolTable
 70
     4
  0
VPORT
  5
2E
330
8
100
AcDbSymbolTableRecord
100
AcDbViewportTableRecord
  2
*ACTIVE
 70
     0
 10
0.0
 20
0.0
 11
1.0
 21
1.0
 12
210.0
 22
148.5
 13
0.0
 23
0.0
 14
10.0
 24
10.0
 15
10.0
 25
10.0
 16
0.0
 26
0.0
 36
1.0
 17
0.0
 27
0.0
 37
0.0
 40
341.0
 41
1.24
 42
50.0
 43
0.0
 44
0.0
 50
0.0
 51
0.0
 71
     0
 72
   100
 73
     1
 74
     3
 75
     0
 76
     0
 77
     0
 78
     0
  0
ENDTAB
  0
TABLE
  2
LTYPE
  5
5
330
0
100
AcDbSymbolTable
 70
     1
  0
LTYPE
  5
14
330
5
100
AcDbSymbolTableRecord
100
AcDbLinetypeTableRecord
  2
BYBLOCK
 70
     0
  3

 72
    65
 73
     0
 40
0.0
  0
LTYPE
  5
15
330
5
100
AcDbSymbolTableRecord
100
AcDbLinetypeTableRecord
  2
BYLAYER
 70
     0
  3

 72
    65
 73
     0
 40
0.0
  0
LTYPE
  5
16
330
5
100
AcDbSymbolTableRecord
100
AcDbLinetypeTableRecord
  2
CONTINUOUS
 70
     0
  3
Solid line
 72
    65
 73
     0
 40
0.0
  0
ENDTAB
  0
TABLE
  2
LAYER
  5
2
100
AcDbSymbolTable
 70
1
  0
LAYER
  5
50
100
AcDbSymbolTableRecord
100
AcDbLayerTableRecord
  2
0
 70
0
  6
CONTINUOUS
  0
ENDTAB
  0
TABLE
  2
STYLE
  5
3
330
0
100
AcDbSymbolTable
 70
     1
  0
STYLE
  5
11
330
3
100
AcDbSymbolTableRecord
100
AcDbTextStyleTableRecord
  2
STANDARD
 70
     0
 40
0.0
 41
1.0
 50
0.0
 71
     0
 42
2.5
  3
txt
  4

  0
ENDTAB
  0
TABLE
  2
VIEW
  5
6
330
0
100
AcDbSymbolTable
 70
     0
  0
ENDTAB
  0
TABLE
  2
UCS
  5
7
330
0
100
AcDbSymbolTable
 70
     0
  0
ENDTAB
  0
TABLE
  2
APPID
  5
9
330
0
100
AcDbSymbolTable
 70
     2
  0
APPID
  5
12
330
9
100
AcDbSymbolTableRecord
100
AcDbRegAppTableRecord
  2
ACAD
 70
     0
  0
ENDTAB
  0
TABLE
  2
DIMSTYLE
  5
A
330
0
100
AcDbSymbolTable
 70
     1
  0
DIMSTYLE
105
27
330
A
100
AcDbSymbolTableRecord
100
AcDbDimStyleTableRecord
  2
ISO-25
 70
     0
  3

  4

  5

  6

  7

 40
1.0
 41
2.5
 42
0.625
 43
3.75
 44
1.25
 45
0.0
 46
0.0
 47
0.0
 48
0.0
140
2.5
141
2.5
142
0.0
143
0.03937007874016
144
1.0
145
0.0
146
1.0
147
0.625
 71
     0
 72
     0
 73
     0
 74
     0
 75
     0
 76
     0
 77
     1
 78
     8
170
     0
171
     3
172
     1
173
     0
174
     0
175
     0
176
     0
177
     0
178
     0
270
     2
271
     2
272
     2
273
     2
274
     3
340
11
275
     0
280
     0
281
     0
282
     0
283
     0
284
     8
285
     0
286
     0
287
     3
288
     0
  0
ENDTAB
  0
TABLE
  2
BLOCK_RECORD
  5
1
330
0
100
AcDbSymbolTable
 70
     1
  0
BLOCK_RECORD
  5
1F
330
1
100
AcDbSymbolTableRecord
100
AcDbBlockTableRecord
  2
*MODEL_SPACE
  0
BLOCK_RECORD
  5
1B
330
1
100
AcDbSymbolTableRecord
100
AcDbBlockTableRecord
  2
*PAPER_SPACE
  0
ENDTAB
  0
ENDSEC
  0
SECTION
  2
BLOCKS
  0
BLOCK
  5
20
330
1F
100
AcDbEntity
  8
0
100
AcDbBlockBegin
  2
*MODEL_SPACE
 70
     0
 10
0.0
 20
0.0
 30
0.0
  3
*MODEL_SPACE
  1

  0
ENDBLK
  5
21
330
1F
100
AcDbEntity
  8
0
100
AcDbBlockEnd
  0
BLOCK
  5
1C
330
1B
100
AcDbEntity
 67
     1
  8
0
100
AcDbBlockBegin
  2
*PAPER_SPACE
  1

  0
ENDBLK
  5
1D
330
1B
100
AcDbEntity
 67
     1
  8
0
100
AcDbBlockEnd
  0
ENDSEC
  0
SECTION
  2
ENTITIES
  0
LWPOLYLINE
  5
100
100
AcDbEntity
  8
0
 62
7
100
AcDbPolyline
 90
73
 70
1
 10
-14.173228
 20
123.307087
 30
0.0
 10
-14.145250
 20
124.197165
 30
0.0
 10
-14.061458
 20
125.083559
 30
0.0
 10
-13.922135
 20
125.962866
 30
0.0
 10
-13.727934
 20
126.831969
 30
0.0
 10
-13.479534
 20
127.686898
 30
0.0
 10
-13.177928
 20
128.524535
 30
0.0
 10
-12.824277
 20
129.341764
 30
0.0
 10
-12.420085
 20
130.135181
 30
0.0
 10
-11.966825
 20
130.901386
 30
0.0
 10
-11.466340
 20
131.637827
 30
0.0
 10
-10.920614
 20
132.341386
 30
0.0
 10
-10.331830
 20
133.009228
 30
0.0
 10
-9.702227
 20
133.639087
 30
0.0
 10
-9.034356
 20
134.227843
 30
0.0
 10
-8.330797
 20
134.773512
 30
0.0
 10
-7.594356
 20
135.273827
 30
0.0
 10
-6.828009
 20
135.727087
 30
0.0
 10
-6.034649
 20
136.131307
 30
0.0
 10
-5.217506
 20
136.485071
 30
0.0
 10
-4.379726
 20
136.786677
 30
0.0
 10
-3.524712
 20
137.034992
 30
0.0
 10
-2.655794
 20
137.229165
 30
0.0
 10
-1.776368
 20
137.368630
 30
0.0
 10
-0.889937
 20
137.452252
 30
0.0
 10
0.000000
 20
137.480315
 30
0.0
 10
0.889937
 20
137.452252
 30
0.0
 10
1.776368
 20
137.368630
 30
0.0
 10
2.655794
 20
137.229165
 30
0.0
 10
3.524712
 20
137.034992
 30
0.0
 10
4.379726
 20
136.786677
 30
0.0
 10
5.217506
 20
136.485071
 30
0.0
 10
6.034649
 20
136.131307
 30
0.0
 10
6.828009
 20
135.727087
 30
0.0
 10
7.594356
 20
135.273827
 30
0.0
 10
8.330797
 20
134.773512
 30
0.0
 10
9.034356
 20
134.227843
 30
0.0
 10
9.702227
 20
133.639087
 30
0.0
 10
10.331830
 20
133.009228
 30
0.0
 10
10.920614
 20
132.341386
 30
0.0
 10
11.466340
 20
131.637827
 30
0.0
 10
11.966825
 20
130.901386
 30
0.0
 10
12.420085
 20
130.135181
 30
0.0
 10
12.824277
 20
129.341764
 30
0.0
 10
13.177928
 20
128.524535
 30
0.0
 10
13.479534
 20
127.686898
 30
0.0
 10
13.727934
 20
126.831969
 30
0.0
 10
13.922135
 20
125.962866
 30
0.0
 10
14.061458
 20
125.083559
 30
0.0
 10
14.145250
 20
124.197165
 30
0.0
 10
14.173228
 20
123.307087
 30
0.0
 10
14.173228
 20
94.960630
 30
0.0
 10
99.212598
 20
94.960630
 30
0.0
 10
104.636409
 20
96.039496
 30
0.0
 10
109.234488
 20
99.111969
 30
0.0
 10
112.306961
 20
103.710047
 30
0.0
 10
113.385827
 20
109.133858
 30
0.0
 10
113.385827
 20
265.039370
 30
0.0
 10
112.306961
 20
270.463181
 30
0.0
 10
109.234488
 20
275.061260
 30
0.0
 10
104.636409
 20
278.133732
 30
0.0
 10
99.212598
 20
279.212598
 30
0.0
 10
-99.212598
 20
279.212598
 30
0.0
 10
-104.636409
 20
278.133732
 30
0.0
 10
-109.234488
 20
275.061260
 30
0.0
 10
-112.306961
 20
270.463181
 30
0.0
 10
-113.385827
 20
265.039370
 30
0.0
 10
-113.385827
 20
109.133858
 30
0.0
 10
-112.306961
 20
103.710047
 30
0.0
 10
-109.234488
 20
99.111969
 30
0.0
 10
-104.636409
 20
96.039496
 30
0.0
 10
-99.212598
 20
94.960630
 30
0.0
 10
-14.173228
 20
94.960630
 30
0.0
  0
LWPOLYLINE
  5
101
100
AcDbEntity
  8
0
 62
7
100
AcDbPolyline
 90
102
 70
1
 10
70.243087
 20
206.240031
 30
0.0
 10
69.622583
 20
206.298680
 30
0.0
 10
69.007181
 20
206.396164
 30
0.0
 10
68.398866
 20
206.532142
 30
0.0
 10
67.800189
 20
206.706047
 30
0.0
 10
67.213984
 20
206.917143
 30
0.0
 10
66.641953
 20
207.164693
 30
0.0
 10
66.086646
 20
207.447647
 30
0.0
 10
65.550047
 20
207.764929
 30
0.0
 10
65.034425
 20
208.115235
 30
0.0
 10
64.542047
 20
208.497231
 30
0.0
 10
64.074614
 20
208.909446
 30
0.0
 10
63.633827
 20
209.350148
 30
0.0
 10
63.221669
 20
209.817666
 30
0.0
 10
62.839559
 20
210.310157
 30
0.0
 10
62.489197
 20
210.825638
 30
0.0
 10
62.172000
 20
211.362123
 30
0.0
 10
61.889102
 20
211.917458
 30
0.0
 10
61.641638
 20
212.489461
 30
0.0
 10
61.430457
 20
213.075865
 30
0.0
 10
61.256693
 20
213.674400
 30
0.0
 10
61.120630
 20
214.282658
 30
0.0
 10
61.023118
 20
214.898258
 30
0.0
 10
60.964441
 20
215.518677
 30
0.0
 10
60.944882
 20
216.141732
 30
0.0
 10
60.944882
 20
230.314961
 30
0.0
 10
60.964441
 20
230.938016
 30
0.0
 10
61.023118
 20
231.558520
 30
0.0
 10
61.120630
 20
232.173921
 30
0.0
 10
61.256693
 20
232.782236
 30
0.0
 10
61.430457
 20
233.380913
 30
0.0
 10
61.641638
 20
233.967118
 30
0.0
 10
61.889102
 20
234.539150
 30
0.0
 10
62.172000
 20
235.094457
 30
0.0
 10
62.489197
 20
235.631055
 30
0.0
 10
62.839559
 20
236.146394
 30
0.0
 10
63.221669
 20
236.639055
 30
0.0
 10
63.633827
 20
237.106488
 30
0.0
 10
64.074614
 20
237.547276
 30
0.0
 10
64.542047
 20
237.959433
 30
0.0
 10
65.034425
 20
238.341543
 30
0.0
 10
65.550047
 20
238.691622
 30
0.0
 10
66.086646
 20
239.009102
 30
0.0
 10
66.641953
 20
239.292000
 30
0.0
 10
67.213984
 20
239.539465
 30
0.0
 10
67.800189
 20
239.750646
 30
0.0
 10
68.398866
 20
239.924409
 30
0.0
 10
69.007181
 20
240.060472
 30
0.0
 10
69.622583
 20
240.157984
 30
0.0
 10
70.243087
 20
240.216661
 30
0.0
 10
70.866142
 20
240.236220
 30
0.0
 10
71.489197
 20
240.216661
 30
0.0
 10
72.109701
 20
240.157984
 30
0.0
 10
72.725102
 20
240.060472
 30
0.0
 10
73.333417
 20
239.924409
 30
0.0
 10
73.932094
 20
239.750646
 30
0.0
 10
74.518299
 20
239.539465
 30
0.0
 10
75.090331
 20
239.292000
 30
0.0
 10
75.645638
 20
239.009102
 30
0.0
 10
76.182236
 20
238.691622
 30
0.0
 10
76.697575
 20
238.341543
 30
0.0
 10
77.190236
 20
237.959433
 30
0.0
 10
77.657669
 20
237.547276
 30
0.0
 10
78.098457
 20
237.106488
 30
0.0
 10
78.510614
 20
236.639055
 30
0.0
 10
78.892724
 20
236.146394
 30
0.0
 10
79.242803
 20
235.631055
 30
0.0
 10
79.560283
 20
235.094457
 30
0.0
 10
79.843181
 20
234.539150
 30
0.0
 10
80.090646
 20
233.967118
 30
0.0
 10
80.301827
 20
233.380913
 30
0.0
 10
80.475591
 20
232.782236
 30
0.0
 10
80.611654
 20
232.173921
 30
0.0
 10
80.709165
 20
231.558520
 30
0.0
 10
80.767843
 20
230.938016
 30
0.0
 10
80.787402
 20
230.314961
 30
0.0
 10
80.787402
 20
216.141732
 30
0.0
 10
80.767843
 20
215.518677
 30
0.0
 10
80.709165
 20
214.898258
 30
0.0
 10
80.611654
 20
214.282658
 30
0.0
 10
80.475591
 20
213.674400
 30
0.0
 10
80.301827
 20
213.075865
 30
0.0
 10
80.090646
 20
212.489461
 30
0.0
 10
79.843181
 20
211.917458
 30
0.0
 10
79.560283
 20
211.362123
 30
0.0
 10
79.242803
 20
210.825638
 30
0.0
 10
78.892724
 20
210.310157
 30
0.0
 10
78.510614
 20
209.817666
 30
0.0
 10
78.098457
 20
209.350148
 30
0.0
 10
77.657669
 20
208.909446
 30
0.0
 10
77.190236
 20
208.497231
 30
0.0
 10
76.697575
 20
208.115235
 30
0.0
 10
76.182236
 20
207.764929
 30
0.0
 10
75.645638
 20
207.447647
 30
0.0
 10
75.090331
 20
207.164693
 30
0.0
 10
74.518299
 20
206.917143
 30
0.0
 10
73.932094
 20
206.706047
 30
0.0
 10
73.333417
 20
206.532142
 30
0.0
 10
72.725102
 20
206.396164
 30
0.0
 10
72.109701
 20
206.298680
 30
0.0
 10
71.489197
 20
206.240031
 30
0.0
 10
70.866142
 20
206.220472
 30
0.0
  0
LWPOLYLINE
  5
102
100
AcDbEntity
  8
0
 62
7
100
AcDbPolyline
 90
102
 70
1
 10
-71.489197
 20
206.240031
 30
0.0
 10
-72.109701
 20
206.298680
 30
0.0
 10
-72.725102
 20
206.396164
 30
0.0
 10
-73.333417
 20
206.532142
 30
0.0
 10
-73.932094
 20
206.706047
 30
0.0
 10
-74.518299
 20
206.917143
 30
0.0
 10
-75.090331
 20
207.164693
 30
0.0
 10
-75.645638
 20
207.447647
 30
0.0
 10
-76.182236
 20
207.764929
 30
0.0
 10
-76.697575
 20
208.115235
 30
0.0
 10
-77.190236
 20
208.497231
 30
0.0
 10
-77.657669
 20
208.909446
 30
0.0
 10
-78.098457
 20
209.350148
 30
0.0
 10
-78.510614
 20
209.817666
 30
0.0
 10
-78.892724
 20
210.310157
 30
0.0
 10
-79.242803
 20
210.825638
 30
0.0
 10
-79.560283
 20
211.362123
 30
0.0
 10
-79.843181
 20
211.917458
 30
0.0
 10
-80.090646
 20
212.489461
 30
0.0
 10
-80.301827
 20
213.075865
 30
0.0
 10
-80.475591
 20
213.674400
 30
0.0
 10
-80.611654
 20
214.282658
 30
0.0
 10
-80.709165
 20
214.898258
 30
0.0
 10
-80.767843
 20
215.518677
 30
0.0
 10
-80.787402
 20
216.141732
 30
0.0
 10
-80.787402
 20
230.314961
 30
0.0
 10
-80.767843
 20
230.938016
 30
0.0
 10
-80.709165
 20
231.558520
 30
0.0
 10
-80.611654
 20
232.173921
 30
0.0
 10
-80.475591
 20
232.782236
 30
0.0
 10
-80.301827
 20
233.380913
 30
0.0
 10
-80.090646
 20
233.967118
 30
0.0
 10
-79.843181
 20
234.539150
 30
0.0
 10
-79.560283
 20
235.094457
 30
0.0
 10
-79.242803
 20
235.631055
 30
0.0
 10
-78.892724
 20
236.146394
 30
0.0
 10
-78.510614
 20
236.639055
 30
0.0
 10
-78.098457
 20
237.106488
 30
0.0
 10
-77.657669
 20
237.547276
 30
0.0
 10
-77.190236
 20
237.959433
 30
0.0
 10
-76.697575
 20
238.341543
 30
0.0
 10
-76.182236
 20
238.691622
 30
0.0
 10
-75.645638
 20
239.009102
 30
0.0
 10
-75.090331
 20
239.292000
 30
0.0
 10
-74.518299
 20
239.539465
 30
0.0
 10
-73.932094
 20
239.750646
 30
0.0
 10
-73.333417
 20
239.924409
 30
0.0
 10
-72.725102
 20
240.060472
 30
0.0
 10
-72.109701
 20
240.157984
 30
0.0
 10
-71.489197
 20
240.216661
 30
0.0
 10
-70.866142
 20
240.236220
 30
0.0
 10
-70.243087
 20
240.216661
 30
0.0
 10
-69.622583
 20
240.157984
 30
0.0
 10
-69.007181
 20
240.060472
 30
0.0
 10
-68.398866
 20
239.924409
 30
0.0
 10
-67.800189
 20
239.750646
 30
0.0
 10
-67.213984
 20
239.539465
 30
0.0
 10
-66.641953
 20
239.292000
 30
0.0
 10
-66.086646
 20
239.009102
 30
0.0
 10
-65.550047
 20
238.691622
 30
0.0
 10
-65.034425
 20
238.341543
 30
0.0
 10
-64.542047
 20
237.959433
 30
0.0
 10
-64.074614
 20
237.547276
 30
0.0
 10
-63.633827
 20
237.106488
 30
0.0
 10
-63.221669
 20
236.639055
 30
0.0
 10
-62.839559
 20
236.146394
 30
0.0
 10
-62.489197
 20
235.631055
 30
0.0
 10
-62.172000
 20
235.094457
 30
0.0
 10
-61.889102
 20
234.539150
 30
0.0
 10
-61.641638
 20
233.967118
 30
0.0
 10
-61.430457
 20
233.380913
 30
0.0
 10
-61.256693
 20
232.782236
 30
0.0
 10
-61.120630
 20
232.173921
 30
0.0
 10
-61.023118
 20
231.558520
 30
0.0
 10
-60.964441
 20
230.938016
 30
0.0
 10
-60.944882
 20
230.314961
 30
0.0
 10
-60.944882
 20
216.141732
 30
0.0
 10
-60.964441
 20
215.518677
 30
0.0
 10
-61.023118
 20
214.898258
 30
0.0
 10
-61.120630
 20
214.282658
 30
0.0
 10
-61.256693
 20
213.674400
 30
0.0
 10
-61.430457
 20
213.075865
 30
0.0
 10
-61.641638
 20
212.489461
 30
0.0
 10
-61.889102
 20
211.917458
 30
0.0
 10
-62.172000
 20
211.362123
 30
0.0
 10
-62.489197
 20
210.825638
 30
0.0
 10
-62.839559
 20
210.310157
 30
0.0
 10
-63.221669
 20
209.817666
 30
0.0
 10
-63.633827
 20
209.350148
 30
0.0
 10
-64.074614
 20
208.909446
 30
0.0
 10
-64.542047
 20
208.497231
 30
0.0
 10
-65.034425
 20
208.115235
 30
0.0
 10
-65.550047
 20
207.764929
 30
0.0
 10
-66.086646
 20
207.447647
 30
0.0
 10
-66.641953
 20
207.164693
 30
0.0
 10
-67.213984
 20
206.917143
 30
0.0
 10
-67.800189
 20
206.706047
 30
0.0
 10
-68.398866
 20
206.532142
 30
0.0
 10
-69.007181
 20
206.396164
 30
0.0
 10
-69.622583
 20
206.298680
 30
0.0
 10
-70.243087
 20
206.240031
 30
0.0
 10
-70.866142
 20
206.220472
 30
0.0
  0
LWPOLYLINE
  5
103
100
AcDbEntity
  8
0
 62
7
100
AcDbPolyline
 90
102
 70
1
 10
-71.489197
 20
133.956567
 30
0.0
 10
-72.109701
 20
134.015244
 30
0.0
 10
-72.725102
 20
134.112756
 30
0.0
 10
-73.333417
 20
134.248819
 30
0.0
 10
-73.932094
 20
134.422583
 30
0.0
 10
-74.518299
 20
134.633764
 30
0.0
 10
-75.090331
 20
134.881228
 30
0.0
 10
-75.645638
 20
135.164126
 30
0.0
 10
-76.182236
 20
135.481606
 30
0.0
 10
-76.697575
 20
135.831685
 30
0.0
 10
-77.190236
 20
136.213795
 30
0.0
 10
-77.657669
 20
136.625953
 30
0.0
 10
-78.098457
 20
137.066740
 30
0.0
 10
-78.510614
 20
137.534173
 30
0.0
 10
-78.892724
 20
138.026835
 30
0.0
 10
-79.242803
 20
138.542173
 30
0.0
 10
-79.560283
 20
139.078772
 30
0.0
 10
-79.843181
 20
139.634079
 30
0.0
 10
-80.090646
 20
140.206110
 30
0.0
 10
-80.301827
 20
140.792315
 30
0.0
 10
-80.475591
 20
141.390992
 30
0.0
 10
-80.611654
 20
141.999307
 30
0.0
 10
-80.709165
 20
142.614709
 30
0.0
 10
-80.767843
 20
143.235213
 30
0.0
 10
-80.787402
 20
143.858268
 30
0.0
 10
-80.787402
 20
158.031496
 30
0.0
 10
-80.767843
 20
158.654551
 30
0.0
 10
-80.709165
 20
159.274970
 30
0.0
 10
-80.611654
 20
159.890570
 30
0.0
 10
-80.475591
 20
160.498828
 30
0.0
 10
-80.301827
 20
161.097364
 30
0.0
 10
-80.090646
 20
161.683767
 30
0.0
 10
-79.843181
 20
162.255770
 30
0.0
 10
-79.560283
 20
162.811106
 30
0.0
 10
-79.242803
 20
163.347591
 30
0.0
 10
-78.892724
 20
163.863071
 30
0.0
 10
-78.510614
 20
164.355562
 30
0.0
 10
-78.098457
 20
164.823080
 30
0.0
 10
-77.657669
 20
165.263783
 30
0.0
 10
-77.190236
 20
165.675997
 30
0.0
 10
-76.697575
 20
166.057994
 30
0.0
 10
-76.182236
 20
166.408299
 30
0.0
 10
-75.645638
 20
166.725581
 30
0.0
 10
-75.090331
 20
167.008535
 30
0.0
 10
-74.518299
 20
167.256085
 30
0.0
 10
-73.932094
 20
167.467181
 30
0.0
 10
-73.333417
 20
167.641087
 30
0.0
 10
-72.725102
 20
167.777065
 30
0.0
 10
-72.109701
 20
167.874548
 30
0.0
 10
-71.489197
 20
167.933197
 30
0.0
 10
-70.866142
 20
167.952756
 30
0.0
 10
-70.243087
 20
167.933197
 30
0.0
 10
-69.622583
 20
167.874548
 30
0.0
 10
-69.007181
 20
167.777065
 30
0.0
 10
-68.398866
 20
167.641087
 30
0.0
 10
-67.800189
 20
167.467181
 30
0.0
 10
-67.213984
 20
167.256085
 30
0.0
 10
-66.641953
 20
167.008535
 30
0.0
 10
-66.086646
 20
166.725581
 30
0.0
 10
-65.550047
 20
166.408299
 30
0.0
 10
-65.034425
 20
166.057994
 30
0.0
 10
-64.542047
 20
165.675997
 30
0.0
 10
-64.074614
 20
165.263783
 30
0.0
 10
-63.633827
 20
164.823080
 30
0.0
 10
-63.221669
 20
164.355562
 30
0.0
 10
-62.839559
 20
163.863071
 30
0.0
 10
-62.489197
 20
163.347591
 30
0.0
 10
-62.172000
 20
162.811106
 30
0.0
 10
-61.889102
 20
162.255770
 30
0.0
 10
-61.641638
 20
161.683767
 30
0.0
 10
-61.430457
 20
161.097364
 30
0.0
 10
-61.256693
 20
160.498828
 30
0.0
 10
-61.120630
 20
159.890570
 30
0.0
 10
-61.023118
 20
159.274970
 30
0.0
 10
-60.964441
 20
158.654551
 30
0.0
 10
-60.944882
 20
158.031496
 30
0.0
 10
-60.944882
 20
143.858268
 30
0.0
 10
-60.964441
 20
143.235213
 30
0.0
 10
-61.023118
 20
142.614709
 30
0.0
 10
-61.120630
 20
141.999307
 30
0.0
 10
-61.256693
 20
141.390992
 30
0.0
 10
-61.430457
 20
140.792315
 30
0.0
 10
-61.641638
 20
140.206110
 30
0.0
 10
-61.889102
 20
139.634079
 30
0.0
 10
-62.172000
 20
139.078772
 30
0.0
 10
-62.489197
 20
138.542173
 30
0.0
 10
-62.839559
 20
138.026835
 30
0.0
 10
-63.221669
 20
137.534173
 30
0.0
 10
-63.633827
 20
137.066740
 30
0.0
 10
-64.074614
 20
136.625953
 30
0.0
 10
-64.542047
 20
136.213795
 30
0.0
 10
-65.034425
 20
135.831685
 30
0.0
 10
-65.550047
 20
135.481606
 30
0.0
 10
-66.086646
 20
135.164126
 30
0.0
 10
-66.641953
 20
134.881228
 30
0.0
 10
-67.213984
 20
134.633764
 30
0.0
 10
-67.800189
 20
134.422583
 30
0.0
 10
-68.398866
 20
134.248819
 30
0.0
 10
-69.007181
 20
134.112756
 30
0.0
 10
-69.622583
 20
134.015244
 30
0.0
 10
-70.243087
 20
133.956567
 30
0.0
 10
-70.866142
 20
133.937008
 30
0.0
  0
LWPOLYLINE
  5
104
100
AcDbEntity
  8
0
 62
7
100
AcDbPolyline
 90
102
 70
1
 10
70.243087
 20
133.956567
 30
0.0
 10
69.622583
 20
134.015244
 30
0.0
 10
69.007181
 20
134.112756
 30
0.0
 10
68.398866
 20
134.248819
 30
0.0
 10
67.800189
 20
134.422583
 30
0.0
 10
67.213984
 20
134.633764
 30
0.0
 10
66.641953
 20
134.881228
 30
0.0
 10
66.086646
 20
135.164126
 30
0.0
 10
65.550047
 20
135.481606
 30
0.0
 10
65.034425
 20
135.831685
 30
0.0
 10
64.542047
 20
136.213795
 30
0.0
 10
64.074614
 20
136.625953
 30
0.0
 10
63.633827
 20
137.066740
 30
0.0
 10
63.221669
 20
137.534173
 30
0.0
 10
62.839559
 20
138.026835
 30
0.0
 10
62.489197
 20
138.542173
 30
0.0
 10
62.172000
 20
139.078772
 30
0.0
 10
61.889102
 20
139.634079
 30
0.0
 10
61.641638
 20
140.206110
 30
0.0
 10
61.430457
 20
140.792315
 30
0.0
 10
61.256693
 20
141.390992
 30
0.0
 10
61.120630
 20
141.999307
 30
0.0
 10
61.023118
 20
142.614709
 30
0.0
 10
60.964441
 20
143.235213
 30
0.0
 10
60.944882
 20
143.858268
 30
0.0
 10
60.944882
 20
158.031496
 30
0.0
 10
60.964441
 20
158.654551
 30
0.0
 10
61.023118
 20
159.274970
 30
0.0
 10
61.120630
 20
159.890570
 30
0.0
 10
61.256693
 20
160.498828
 30
0.0
 10
61.430457
 20
161.097364
 30
0.0
 10
61.641638
 20
161.683767
 30
0.0
 10
61.889102
 20
162.255770
 30
0.0
 10
62.172000
 20
162.811106
 30
0.0
 10
62.489197
 20
163.347591
 30
0.0
 10
62.839559
 20
163.863071
 30
0.0
 10
63.221669
 20
164.355562
 30
0.0
 10
63.633827
 20
164.823080
 30
0.0
 10
64.074614
 20
165.263783
 30
0.0
 10
64.542047
 20
165.675997
 30
0.0
 10
65.034425
 20
166.057994
 30
0.0
 10
65.550047
 20
166.408299
 30
0.0
 10
66.086646
 20
166.725581
 30
0.0
 10
66.641953
 20
167.008535
 30
0.0
 10
67.213984
 20
167.256085
 30
0.0
 10
67.800189
 20
167.467181
 30
0.0
 10
68.398866
 20
167.641087
 30
0.0
 10
69.007181
 20
167.777065
 30
0.0
 10
69.622583
 20
167.874548
 30
0.0
 10
70.243087
 20
167.933197
 30
0.0
 10
70.866142
 20
167.952756
 30
0.0
 10
71.489197
 20
167.933197
 30
0.0
 10
72.109701
 20
167.874548
 30
0.0
 10
72.725102
 20
167.777065
 30
0.0
 10
73.333417
 20
167.641087
 30
0.0
 10
73.932094
 20
167.467181
 30
0.0
 10
74.518299
 20
167.256085
 30
0.0
 10
75.090331
 20
167.008535
 30
0.0
 10
75.645638
 20
166.725581
 30
0.0
 10
76.182236
 20
166.408299
 30
0.0
 10
76.697575
 20
166.057994
 30
0.0
 10
77.190236
 20
165.675997
 30
0.0
 10
77.657669
 20
165.263783
 30
0.0
 10
78.098457
 20
164.823080
 30
0.0
 10
78.510614
 20
164.355562
 30
0.0
 10
78.892724
 20
163.863071
 30
0.0
 10
79.242803
 20
163.347591
 30
0.0
 10
79.560283
 20
162.811106
 30
0.0
 10
79.843181
 20
162.255770
 30
0.0
 10
80.090646
 20
161.683767
 30
0.0
 10
80.301827
 20
161.097364
 30
0.0
 10
80.475591
 20
160.498828
 30
0.0
 10
80.611654
 20
159.890570
 30
0.0
 10
80.709165
 20
159.274970
 30
0.0
 10
80.767843
 20
158.654551
 30
0.0
 10
80.787402
 20
158.031496
 30
0.0
 10
80.787402
 20
143.858268
 30
0.0
 10
80.767843
 20
143.235213
 30
0.0
 10
80.709165
 20
142.614709
 30
0.0
 10
80.611654
 20
141.999307
 30
0.0
 10
80.475591
 20
141.390992
 30
0.0
 10
80.301827
 20
140.792315
 30
0.0
 10
80.090646
 20
140.206110
 30
0.0
 10
79.843181
 20
139.634079
 30
0.0
 10
79.560283
 20
139.078772
 30
0.0
 10
79.242803
 20
138.542173
 30
0.0
 10
78.892724
 20
138.026835
 30
0.0
 10
78.510614
 20
137.534173
 30
0.0
 10
78.098457
 20
137.066740
 30
0.0
 10
77.657669
 20
136.625953
 30
0.0
 10
77.190236
 20
136.213795
 30
0.0
 10
76.697575
 20
135.831685
 30
0.0
 10
76.182236
 20
135.481606
 30
0.0
 10
75.645638
 20
135.164126
 30
0.0
 10
75.090331
 20
134.881228
 30
0.0
 10
74.518299
 20
134.633764
 30
0.0
 10
73.932094
 20
134.422583
 30
0.0
 10
73.333417
 20
134.248819
 30
0.0
 10
72.725102
 20
134.112756
 30
0.0
 10
72.109701
 20
134.015244
 30
0.0
 10
71.489197
 20
133.956567
 30
0.0
 10
70.866142
 20
133.937008
 30
0.0
  0
ENDSEC
  0
SECTION
  2
OBJECTS
  0
DICTIONARY
  5
C
330
0
100
AcDbDictionary
  3
ACAD_GROUP
350
D
  3
ACAD_MLINESTYLE
350
17
  0
DICTIONARY
  5
D
330
C
100
AcDbDictionary
  0
DICTIONARY
  5
1A
330
C
100
AcDbDictionary
  0
DICTIONARY
  5
17
330
C
100
AcDbDictionary
  3
STANDARD
350
18
  0
DICTIONARY
  5
19
330
C
100
AcDbDictionary
  0
ENDSEC
  0
EOF
