  0
SECTION
  2
BLOCKS
  0
ENDSEC
  0
SECTION
  2
ENTITIES
  0
LINE
  8
0
 10
-5
 20
-24
 11
-4.04507
 21
-21.0611
  0
LINE
  8
0
 10
-4.04507
 20
-21.0611
 11
-1.54507
 21
-19.2447
  0
LINE
  8
0
 10
-1.54507
 20
-19.2447
 11
1.54507
 21
-19.2447
  0
LINE
  8
0
 10
1.54507
 20
-19.2447
 11
4.04507
 21
-21.0611
  0
LINE
  8
0
 10
4.04507
 20
-21.0611
 11
5
 21
-24
  0
LINE
  8
0
 10
5
 20
-24
 11
5
 21
-44
  0
LINE
  8
0
 10
5
 20
-44
 11
22.5
 21
-44
  0
LINE
  8
0
 10
22.5
 20
-44
 11
24.4134
 21
-43.6194
  0
LINE
  8
0
 10
24.4134
 20
-43.6194
 11
26.0355
 21
-42.5355
  0
LINE
  8
0
 10
26.0355
 20
-42.5355
 11
27.1194
 21
-40.9134
  0
LINE
  8
0
 10
27.1194
 20
-40.9134
 11
27.5
 21
-39
  0
LINE
  8
0
 10
27.5
 20
-39
 11
27.5
 21
39
  0
LINE
  8
0
 10
27.5
 20
39
 11
27.1194
 21
40.9134
  0
LINE
  8
0
 10
27.1194
 20
40.9134
 11
26.0355
 21
42.5355
  0
LINE
  8
0
 10
26.0355
 20
42.5355
 11
24.4134
 21
43.6194
  0
LINE
  8
0
 10
24.4134
 20
43.6194
 11
22.5
 21
44
  0
LINE
  8
0
 10
22.5
 20
44
 11
-22.5
 21
44
  0
LINE
  8
0
 10
-22.5
 20
44
 11
-24.4134
 21
43.6194
  0
LINE
  8
0
 10
-24.4134
 20
43.6194
 11
-26.0355
 21
42.5355
  0
LINE
  8
0
 10
-26.0355
 20
42.5355
 11
-27.1194
 21
40.9134
  0
LINE
  8
0
 10
-27.1194
 20
40.9134
 11
-27.5
 21
39
  0
LINE
  8
0
 10
-27.5
 20
39
 11
-27.5
 21
-39
  0
LINE
  8
0
 10
-27.5
 20
-39
 11
-27.1194
 21
-40.9134
  0
LINE
  8
0
 10
-27.1194
 20
-40.9134
 11
-26.0355
 21
-42.5355
  0
LINE
  8
0
 10
-26.0355
 20
-42.5355
 11
-24.4134
 21
-43.6194
  0
LINE
  8
0
 10
-24.4134
 20
-43.6194
 11
-22.5
 21
-44
  0
LINE
  8
0
 10
-22.5
 20
-44
 11
-5
 21
-44
  0
LINE
  8
0
 10
-5
 20
-44
 11
-5
 21
-24
  0
LINE
  8
0
 10
-21.0816
 20
28.1713
 11
-22.8316
 21
29.4427
  0
LINE
  8
0
 10
-22.8316
 20
29.4427
 11
-23.5
 21
31.5
  0
LINE
  8
0
 10
-23.5
 20
31.5
 11
-23.5
 21
36.5
  0
LINE
  8
0
 10
-23.5
 20
36.5
 11
-22.8316
 21
38.5572
  0
LINE
  8
0
 10
-22.8316
 20
38.5572
 11
-21.0816
 21
39.8287
  0
LINE
  8
0
 10
-21.0816
 20
39.8287
 11
-18.9184
 21
39.8287
  0
LINE
  8
0
 10
-18.9184
 20
39.8287
 11
-17.1684
 21
38.5572
  0
LINE
  8
0
 10
-17.1684
 20
38.5572
 11
-16.5
 21
36.5
  0
LINE
  8
0
 10
-16.5
 20
36.5
 11
-16.5
 21
31.5
  0
LINE
  8
0
 10
-16.5
 20
31.5
 11
-17.1684
 21
29.4427
  0
LINE
  8
0
 10
-17.1684
 20
29.4427
 11
-18.9184
 21
28.1713
  0
LINE
  8
0
 10
-18.9184
 20
28.1713
 11
-21.0816
 21
28.1713
  0
LINE
  8
0
 10
18.9184
 20
28.1713
 11
17.1684
 21
29.4427
  0
LINE
  8
0
 10
17.1684
 20
29.4427
 11
16.5
 21
31.5
  0
LINE
  8
0
 10
16.5
 20
31.5
 11
16.5
 21
36.5
  0
LINE
  8
0
 10
16.5
 20
36.5
 11
17.1684
 21
38.5572
  0
LINE
  8
0
 10
17.1684
 20
38.5572
 11
18.9184
 21
39.8287
  0
LINE
  8
0
 10
18.9184
 20
39.8287
 11
21.0816
 21
39.8287
  0
LINE
  8
0
 10
21.0816
 20
39.8287
 11
22.8316
 21
38.5572
  0
LINE
  8
0
 10
22.8316
 20
38.5572
 11
23.5
 21
36.5
  0
LINE
  8
0
 10
23.5
 20
36.5
 11
23.5
 21
31.5
  0
LINE
  8
0
 10
23.5
 20
31.5
 11
22.8316
 21
29.4427
  0
LINE
  8
0
 10
22.8316
 20
29.4427
 11
21.0816
 21
28.1713
  0
LINE
  8
0
 10
21.0816
 20
28.1713
 11
18.9184
 21
28.1713
  0
LINE
  8
0
 10
-8
 20
29
 11
-8
 21
31
  0
LINE
  8
0
 10
-8
 20
31
 11
8
 21
31
  0
LINE
  8
0
 10
8
 20
31
 11
8
 21
29
  0
LINE
  8
0
 10
8
 20
29
 11
-8
 21
29
  0
LINE
  8
0
 10
12.5608
 20
18.6223
 11
11.3108
 21
19.5305
  0
LINE
  8
0
 10
11.3108
 20
19.5305
 11
10.8333
 21
21
  0
LINE
  8
0
 10
10.8333
 20
21
 11
11.3108
 21
22.4695
  0
LINE
  8
0
 10
11.3108
 20
22.4695
 11
12.5608
 21
23.3776
  0
LINE
  8
0
 10
12.5608
 20
23.3776
 11
14.1059
 21
23.3776
  0
LINE
  8
0
 10
14.1059
 20
23.3776
 11
15.3559
 21
22.4695
  0
LINE
  8
0
 10
15.3559
 20
22.4695
 11
15.8333
 21
21
  0
LINE
  8
0
 10
15.8333
 20
21
 11
15.3559
 21
19.5305
  0
LINE
  8
0
 10
15.3559
 20
19.5305
 11
14.1059
 21
18.6223
  0
LINE
  8
0
 10
14.1059
 20
18.6223
 11
12.5608
 21
18.6223
  0
LINE
  8
0
 10
-14.1059
 20
18.6223
 11
-15.3559
 21
19.5305
  0
LINE
  8
0
 10
-15.3559
 20
19.5305
 11
-15.8333
 21
21
  0
LINE
  8
0
 10
-15.8333
 20
21
 11
-15.3559
 21
22.4695
  0
LINE
  8
0
 10
-15.3559
 20
22.4695
 11
-14.1059
 21
23.3776
  0
LINE
  8
0
 10
-14.1059
 20
23.3776
 11
-12.5608
 21
23.3776
  0
LINE
  8
0
 10
-12.5608
 20
23.3776
 11
-11.3108
 21
22.4695
  0
LINE
  8
0
 10
-11.3108
 20
22.4695
 11
-10.8333
 21
21
  0
LINE
  8
0
 10
-10.8333
 20
21
 11
-11.3108
 21
19.5305
  0
LINE
  8
0
 10
-11.3108
 20
19.5305
 11
-12.5608
 21
18.6223
  0
LINE
  8
0
 10
-12.5608
 20
18.6223
 11
-14.1059
 21
18.6223
  0
LINE
  8
0
 10
18.9184
 20
2.1713
 11
17.1684
 21
3.44275
  0
LINE
  8
0
 10
17.1684
 20
3.44275
 11
16.5
 21
5.5
  0
LINE
  8
0
 10
16.5
 20
5.5
 11
16.5
 21
10.5
  0
LINE
  8
0
 10
16.5
 20
10.5
 11
17.1684
 21
12.5572
  0
LINE
  8
0
 10
17.1684
 20
12.5572
 11
18.9184
 21
13.8287
  0
LINE
  8
0
 10
18.9184
 20
13.8287
 11
21.0816
 21
13.8287
  0
LINE
  8
0
 10
21.0816
 20
13.8287
 11
22.8316
 21
12.5572
  0
LINE
  8
0
 10
22.8316
 20
12.5572
 11
23.5
 21
10.5
  0
LINE
  8
0
 10
23.5
 20
10.5
 11
23.5
 21
5.5
  0
LINE
  8
0
 10
23.5
 20
5.5
 11
22.8316
 21
3.44275
  0
LINE
  8
0
 10
22.8316
 20
3.44275
 11
21.0816
 21
2.1713
  0
LINE
  8
0
 10
21.0816
 20
2.1713
 11
18.9184
 21
2.1713
  0
LINE
  8
0
 10
-21.0816
 20
2.1713
 11
-22.8316
 21
3.44275
  0
LINE
  8
0
 10
-22.8316
 20
3.44275
 11
-23.5
 21
5.5
  0
LINE
  8
0
 10
-23.5
 20
5.5
 11
-23.5
 21
10.5
  0
LINE
  8
0
 10
-23.5
 20
10.5
 11
-22.8316
 21
12.5572
  0
LINE
  8
0
 10
-22.8316
 20
12.5572
 11
-21.0816
 21
13.8287
  0
LINE
  8
0
 10
-21.0816
 20
13.8287
 11
-18.9184
 21
13.8287
  0
LINE
  8
0
 10
-18.9184
 20
13.8287
 11
-17.1684
 21
12.5572
  0
LINE
  8
0
 10
-17.1684
 20
12.5572
 11
-16.5
 21
10.5
  0
LINE
  8
0
 10
-16.5
 20
10.5
 11
-16.5
 21
5.5
  0
LINE
  8
0
 10
-16.5
 20
5.5
 11
-17.1684
 21
3.44275
  0
LINE
  8
0
 10
-17.1684
 20
3.44275
 11
-18.9184
 21
2.1713
  0
LINE
  8
0
 10
-18.9184
 20
2.1713
 11
-21.0816
 21
2.1713
  0
LINE
  8
0
 10
-8
 20
11
 11
-8
 21
13
  0
LINE
  8
0
 10
-8
 20
13
 11
8
 21
13
  0
LINE
  8
0
 10
8
 20
13
 11
8
 21
11
  0
LINE
  8
0
 10
8
 20
11
 11
-8
 21
11
  0
ENDSEC
  0
SECTION
  2
OBJECTS
  0
DICTIONARY
  0
ENDSEC
  0
EOF
