  0
SECTION
  2
BLOCKS
  0
ENDSEC
  0
SECTION
  2
ENTITIES
  0
LINE
  8
0
 10
-5
 20
-15
 11
-4.04507
 21
-12.0611
  0
LINE
  8
0
 10
-4.04507
 20
-12.0611
 11
-1.54507
 21
-10.2447
  0
LINE
  8
0
 10
-1.54507
 20
-10.2447
 11
1.54507
 21
-10.2447
  0
LINE
  8
0
 10
1.54507
 20
-10.2447
 11
4.04507
 21
-12.0611
  0
LINE
  8
0
 10
4.04507
 20
-12.0611
 11
5
 21
-15
  0
LINE
  8
0
 10
5
 20
-15
 11
5
 21
-35
  0
LINE
  8
0
 10
5
 20
-35
 11
22.5
 21
-35
  0
LINE
  8
0
 10
22.5
 20
-35
 11
24.4134
 21
-34.6194
  0
LINE
  8
0
 10
24.4134
 20
-34.6194
 11
26.0355
 21
-33.5355
  0
LINE
  8
0
 10
26.0355
 20
-33.5355
 11
27.1194
 21
-31.9134
  0
LINE
  8
0
 10
27.1194
 20
-31.9134
 11
27.5
 21
-30
  0
LINE
  8
0
 10
27.5
 20
-30
 11
27.5
 21
30
  0
LINE
  8
0
 10
27.5
 20
30
 11
27.1194
 21
31.9134
  0
LINE
  8
0
 10
27.1194
 20
31.9134
 11
26.0355
 21
33.5355
  0
LINE
  8
0
 10
26.0355
 20
33.5355
 11
24.4134
 21
34.6194
  0
LINE
  8
0
 10
24.4134
 20
34.6194
 11
22.5
 21
35
  0
LINE
  8
0
 10
22.5
 20
35
 11
-22.5
 21
35
  0
LINE
  8
0
 10
-22.5
 20
35
 11
-24.4134
 21
34.6194
  0
LINE
  8
0
 10
-24.4134
 20
34.6194
 11
-26.0355
 21
33.5355
  0
LINE
  8
0
 10
-26.0355
 20
33.5355
 11
-27.1194
 21
31.9134
  0
LINE
  8
0
 10
-27.1194
 20
31.9134
 11
-27.5
 21
30
  0
LINE
  8
0
 10
-27.5
 20
30
 11
-27.5
 21
-30
  0
LINE
  8
0
 10
-27.5
 20
-30
 11
-27.1194
 21
-31.9134
  0
LINE
  8
0
 10
-27.1194
 20
-31.9134
 11
-26.0355
 21
-33.5355
  0
LINE
  8
0
 10
-26.0355
 20
-33.5355
 11
-24.4134
 21
-34.6194
  0
LINE
  8
0
 10
-24.4134
 20
-34.6194
 11
-22.5
 21
-35
  0
LINE
  8
0
 10
-22.5
 20
-35
 11
-5
 21
-35
  0
LINE
  8
0
 10
-5
 20
-35
 11
-5
 21
-15
  0
LINE
  8
0
 10
-21.0816
 20
19.1713
 11
-22.8316
 21
20.4427
  0
LINE
  8
0
 10
-22.8316
 20
20.4427
 11
-23.5
 21
22.5
  0
LINE
  8
0
 10
-23.5
 20
22.5
 11
-23.5
 21
27.5
  0
LINE
  8
0
 10
-23.5
 20
27.5
 11
-22.8316
 21
29.5572
  0
LINE
  8
0
 10
-22.8316
 20
29.5572
 11
-21.0816
 21
30.8287
  0
LINE
  8
0
 10
-21.0816
 20
30.8287
 11
-18.9184
 21
30.8287
  0
LINE
  8
0
 10
-18.9184
 20
30.8287
 11
-17.1684
 21
29.5572
  0
LINE
  8
0
 10
-17.1684
 20
29.5572
 11
-16.5
 21
27.5
  0
LINE
  8
0
 10
-16.5
 20
27.5
 11
-16.5
 21
22.5
  0
LINE
  8
0
 10
-16.5
 20
22.5
 11
-17.1684
 21
20.4427
  0
LINE
  8
0
 10
-17.1684
 20
20.4427
 11
-18.9184
 21
19.1713
  0
LINE
  8
0
 10
-18.9184
 20
19.1713
 11
-21.0816
 21
19.1713
  0
LINE
  8
0
 10
18.9184
 20
19.1713
 11
17.1684
 21
20.4427
  0
LINE
  8
0
 10
17.1684
 20
20.4427
 11
16.5
 21
22.5
  0
LINE
  8
0
 10
16.5
 20
22.5
 11
16.5
 21
27.5
  0
LINE
  8
0
 10
16.5
 20
27.5
 11
17.1684
 21
29.5572
  0
LINE
  8
0
 10
17.1684
 20
29.5572
 11
18.9184
 21
30.8287
  0
LINE
  8
0
 10
18.9184
 20
30.8287
 11
21.0816
 21
30.8287
  0
LINE
  8
0
 10
21.0816
 20
30.8287
 11
22.8316
 21
29.5572
  0
LINE
  8
0
 10
22.8316
 20
29.5572
 11
23.5
 21
27.5
  0
LINE
  8
0
 10
23.5
 20
27.5
 11
23.5
 21
22.5
  0
LINE
  8
0
 10
23.5
 20
22.5
 11
22.8316
 21
20.4427
  0
LINE
  8
0
 10
22.8316
 20
20.4427
 11
21.0816
 21
19.1713
  0
LINE
  8
0
 10
21.0816
 20
19.1713
 11
18.9184
 21
19.1713
  0
LINE
  8
0
 10
-8
 20
20
 11
-8
 21
22
  0
LINE
  8
0
 10
-8
 20
22
 11
8
 21
22
  0
LINE
  8
0
 10
8
 20
22
 11
8
 21
20
  0
LINE
  8
0
 10
8
 20
20
 11
-8
 21
20
  0
LINE
  8
0
 10
12.5608
 20
9.62234
 11
11.3108
 21
10.5305
  0
LINE
  8
0
 10
11.3108
 20
10.5305
 11
10.8333
 21
12
  0
LINE
  8
0
 10
10.8333
 20
12
 11
11.3108
 21
13.4695
  0
LINE
  8
0
 10
11.3108
 20
13.4695
 11
12.5608
 21
14.3776
  0
LINE
  8
0
 10
12.5608
 20
14.3776
 11
14.1059
 21
14.3776
  0
LINE
  8
0
 10
14.1059
 20
14.3776
 11
15.3559
 21
13.4695
  0
LINE
  8
0
 10
15.3559
 20
13.4695
 11
15.8333
 21
12
  0
LINE
  8
0
 10
15.8333
 20
12
 11
15.3559
 21
10.5305
  0
LINE
  8
0
 10
15.3559
 20
10.5305
 11
14.1059
 21
9.62234
  0
LINE
  8
0
 10
14.1059
 20
9.62234
 11
12.5608
 21
9.62234
  0
LINE
  8
0
 10
-14.1059
 20
9.62234
 11
-15.3559
 21
10.5305
  0
LINE
  8
0
 10
-15.3559
 20
10.5305
 11
-15.8333
 21
12
  0
LINE
  8
0
 10
-15.8333
 20
12
 11
-15.3559
 21
13.4695
  0
LINE
  8
0
 10
-15.3559
 20
13.4695
 11
-14.1059
 21
14.3776
  0
LINE
  8
0
 10
-14.1059
 20
14.3776
 11
-12.5608
 21
14.3776
  0
LINE
  8
0
 10
-12.5608
 20
14.3776
 11
-11.3108
 21
13.4695
  0
LINE
  8
0
 10
-11.3108
 20
13.4695
 11
-10.8333
 21
12
  0
LINE
  8
0
 10
-10.8333
 20
12
 11
-11.3108
 21
10.5305
  0
LINE
  8
0
 10
-11.3108
 20
10.5305
 11
-12.5608
 21
9.62234
  0
LINE
  8
0
 10
-12.5608
 20
9.62234
 11
-14.1059
 21
9.62234
  0
LINE
  8
0
 10
18.9184
 20
-6.82869
 11
17.1684
 21
-5.55724
  0
LINE
  8
0
 10
17.1684
 20
-5.55724
 11
16.5
 21
-3.5
  0
LINE
  8
0
 10
16.5
 20
-3.5
 11
16.5
 21
1.5
  0
LINE
  8
0
 10
16.5
 20
1.5
 11
17.1684
 21
3.55724
  0
LINE
  8
0
 10
17.1684
 20
3.55724
 11
18.9184
 21
4.82869
  0
LINE
  8
0
 10
18.9184
 20
4.82869
 11
21.0816
 21
4.82869
  0
LINE
  8
0
 10
21.0816
 20
4.82869
 11
22.8316
 21
3.55724
  0
LINE
  8
0
 10
22.8316
 20
3.55724
 11
23.5
 21
1.5
  0
LINE
  8
0
 10
23.5
 20
1.5
 11
23.5
 21
-3.5
  0
LINE
  8
0
 10
23.5
 20
-3.5
 11
22.8316
 21
-5.55724
  0
LINE
  8
0
 10
22.8316
 20
-5.55724
 11
21.0816
 21
-6.82869
  0
LINE
  8
0
 10
21.0816
 20
-6.82869
 11
18.9184
 21
-6.82869
  0
LINE
  8
0
 10
-21.0816
 20
-6.82869
 11
-22.8316
 21
-5.55724
  0
LINE
  8
0
 10
-22.8316
 20
-5.55724
 11
-23.5
 21
-3.5
  0
LINE
  8
0
 10
-23.5
 20
-3.5
 11
-23.5
 21
1.5
  0
LINE
  8
0
 10
-23.5
 20
1.5
 11
-22.8316
 21
3.55724
  0
LINE
  8
0
 10
-22.8316
 20
3.55724
 11
-21.0816
 21
4.82869
  0
LINE
  8
0
 10
-21.0816
 20
4.82869
 11
-18.9184
 21
4.82869
  0
LINE
  8
0
 10
-18.9184
 20
4.82869
 11
-17.1684
 21
3.55724
  0
LINE
  8
0
 10
-17.1684
 20
3.55724
 11
-16.5
 21
1.5
  0
LINE
  8
0
 10
-16.5
 20
1.5
 11
-16.5
 21
-3.5
  0
LINE
  8
0
 10
-16.5
 20
-3.5
 11
-17.1684
 21
-5.55724
  0
LINE
  8
0
 10
-17.1684
 20
-5.55724
 11
-18.9184
 21
-6.82869
  0
LINE
  8
0
 10
-18.9184
 20
-6.82869
 11
-21.0816
 21
-6.82869
  0
LINE
  8
0
 10
-8
 20
2
 11
-8
 21
4
  0
LINE
  8
0
 10
-8
 20
4
 11
8
 21
4
  0
LINE
  8
0
 10
8
 20
4
 11
8
 21
2
  0
LINE
  8
0
 10
8
 20
2
 11
-8
 21
2
  0
ENDSEC
  0
SECTION
  2
OBJECTS
  0
DICTIONARY
  0
ENDSEC
  0
EOF
